<?xml version="1.0" standalone="no"?>
<!DOCTYPE svg PUBLIC "-//W3C//DTD SVG 20010904//EN"
 "http://www.w3.org/TR/2001/REC-SVG-20010904/DTD/svg10.dtd">
<svg version="1.0" xmlns="http://www.w3.org/2000/svg"
 width="562.000000pt" height="640.000000pt" viewBox="0 0 562.000000 640.000000"
 preserveAspectRatio="xMidYMid meet">

<g transform="translate(0.000000,640.000000) scale(0.100000,-0.100000)"
fill="#000000" stroke="none">
<path d="M3037 6186 c-201 -71 -394 -182 -526 -301 -49 -44 -70 -98 -49 -123
27 -31 116 -197 122 -227 l6 -30 -25 28 c-14 15 -25 40 -25 55 0 21 -2 24 -10
12 -18 -28 -12 -115 10 -143 26 -33 26 -34 -12 -57 -40 -24 -76 -25 -106 -4
-12 8 -22 11 -22 7 0 -13 81 -63 102 -63 17 0 17 -1 0 -18 -35 -35 -100 -167
-110 -222 -12 -64 -9 -73 11 -33 9 15 29 41 45 57 l30 28 -5 -63 c-6 -87 -6
-86 -55 -97 -29 -7 -35 -10 -18 -11 14 -1 36 -10 50 -21 14 -11 31 -20 38 -20
23 0 13 -48 -15 -70 l-28 -22 35 4 c19 3 43 8 53 13 15 6 16 4 7 -20 -5 -14
-10 -38 -9 -53 0 -24 3 -22 20 18 l21 45 13 -32 c8 -18 17 -33 20 -33 3 0 -2
16 -10 36 -11 28 -12 40 -4 50 14 17 29 18 29 4 0 -6 9 -29 20 -52 11 -22 17
-44 15 -48 -3 -4 6 -15 18 -23 24 -16 73 -117 57 -117 -13 0 -46 38 -82 92
-16 27 -32 48 -35 48 -15 0 88 -139 108 -145 11 -4 26 -18 34 -33 18 -34 19
-24 1 19 -7 19 -17 45 -21 57 l-7 24 29 -18 c28 -18 28 -18 12 1 -17 20 -59
99 -59 110 0 3 9 1 21 -5 11 -7 23 -9 27 -6 3 3 0 6 -5 6 -16 0 -53 82 -53
116 1 25 6 19 34 -40 19 -37 42 -76 52 -85 16 -15 16 -15 0 9 -26 39 -21 54
12 34 21 -14 20 -11 -8 13 -34 30 -34 31 -22 72 11 35 17 41 39 41 21 0 24 -3
15 -12 -18 -18 -14 -27 9 -21 16 4 20 2 17 -8 -2 -8 -14 -15 -26 -17 -28 -4
-28 -17 3 -47 28 -29 85 -34 106 -9 11 14 15 13 30 -7 l17 -23 -5 27 c-6 33 3
34 36 5 l24 -23 -20 35 c-16 27 -19 41 -11 60 12 33 13 33 38 20 20 -10 21
-10 11 8 -8 15 -7 23 4 32 13 11 15 7 16 -26 0 -22 4 -48 8 -58 6 -17 11 -13
29 25 21 44 102 133 102 112 0 -5 -11 -27 -25 -47 -21 -31 -22 -35 -6 -26 30
16 80 69 97 104 25 49 125 146 151 146 21 0 23 -5 23 -48 0 -26 4 -61 9 -79
10 -34 16 -30 -139 -96 -19 -9 -48 -27 -65 -41 l-30 -26 57 19 c31 11 58 18
60 15 3 -2 22 6 44 17 31 17 33 20 12 15 -42 -10 -34 1 23 30 55 28 54 28 66
-2 6 -16 14 -18 38 -13 l30 7 -27 1 c-23 1 -28 6 -28 26 0 17 7 28 23 34 27
10 46 -17 47 -65 l0 -32 -72 -4 c-80 -4 -126 -22 -179 -69 -19 -17 -26 -26
-16 -19 24 17 22 -3 -3 -25 -39 -35 -11 -27 34 10 26 21 46 32 46 26 0 -9 5
-9 20 -1 16 8 20 8 20 -4 0 -8 -8 -20 -17 -25 -17 -10 -17 -12 1 -26 35 -26
81 -19 111 18 17 19 24 24 20 12 -4 -11 -9 -42 -10 -70 -1 -27 0 -35 2 -16 2
19 12 41 22 50 9 9 11 12 4 7 -19 -12 -16 -2 12 55 25 48 52 59 40 16 -5 -18
-2 -17 19 8 l26 30 0 -30 c0 -56 -21 -107 -63 -153 -42 -45 -38 -47 16 -9 37
26 42 18 14 -24 -39 -58 -41 -65 -12 -39 l27 25 -6 -25 c-4 -14 -23 -59 -43
-100 -46 -95 -149 -200 -288 -293 -115 -76 -141 -85 -184 -63 -55 29 -230 176
-262 221 -18 25 -34 45 -36 45 -6 0 7 -21 24 -41 11 -14 8 -20 -25 -46 -31
-25 -48 -31 -83 -31 -54 1 -97 -11 -79 -22 8 -5 8 -9 -4 -13 -9 -4 -15 -1 -13
6 2 14 -47 11 -73 -3 -10 -6 -1 -8 25 -4 28 3 36 1 29 -6 -14 -14 -189 -27
-181 -13 4 6 24 9 46 8 22 -1 45 1 53 6 7 5 -19 7 -61 6 -47 -2 -76 -8 -79
-15 -2 -7 -10 -12 -18 -12 -7 0 -30 -26 -51 -57 -45 -68 -100 -99 -186 -108
-32 -3 -61 -6 -65 -8 -4 -1 -41 20 -83 46 -105 65 -147 63 -114 -7 21 -43 70
-67 143 -71 30 -1 57 -7 61 -13 3 -5 25 -15 48 -22 43 -13 43 -13 21 -29 -40
-27 -67 -65 -55 -73 8 -5 4 -8 -9 -8 -28 0 -50 -46 -32 -67 21 -25 54 -33 92
-21 25 8 32 14 24 20 -9 5 -10 8 -1 8 18 0 22 -11 34 -95 6 -42 24 -122 40
-177 l30 -100 -35 -107 c-19 -58 -52 -172 -72 -253 -36 -143 -38 -147 -66
-153 -16 -4 -45 -21 -64 -39 -20 -18 -87 -64 -150 -102 -62 -38 -116 -77 -120
-87 -3 -9 -36 -33 -72 -52 -37 -19 -64 -34 -59 -35 14 0 152 72 200 106 45 32
49 33 75 20 15 -8 51 -39 80 -68 l53 -54 -34 -119 -35 -118 -68 -23 c-67 -23
-298 -134 -291 -140 2 -2 57 23 123 56 65 33 124 60 129 60 6 0 23 -23 40 -51
37 -62 59 -84 77 -73 7 5 23 7 35 6 12 -2 39 5 59 16 l38 20 -47 33 c-26 18
-45 34 -43 37 2 2 47 -29 100 -69 52 -41 93 -75 91 -78 -3 -2 -25 13 -50 34
-25 20 -48 35 -51 32 -6 -6 52 -51 126 -100 77 -50 152 -69 253 -65 71 3 82 1
85 -15 5 -26 -33 -99 -80 -152 -45 -51 -49 -75 -28 -185 8 -41 7 -57 -3 -69
-7 -9 -26 -60 -42 -113 -27 -95 -39 -115 -51 -83 -4 8 -14 15 -24 15 -10 0
-20 7 -24 15 -3 8 -15 15 -26 15 -11 0 -20 5 -20 10 0 6 -11 10 -25 10 -14 0
-25 5 -25 10 0 6 -11 10 -25 10 -14 0 -25 5 -25 10 0 6 -11 10 -25 10 -14 0
-25 5 -25 11 0 6 -10 9 -22 8 -13 -1 -31 1 -41 6 -10 4 -23 2 -32 -5 -8 -6
-18 -9 -24 -6 -5 4 -15 0 -23 -7 -7 -7 -21 -16 -30 -20 -10 -3 -18 -15 -18
-26 0 -10 -7 -22 -16 -25 -10 -4 -14 -14 -11 -25 2 -10 1 -25 -4 -33 -6 -11
-2 -24 11 -41 22 -28 25 -37 10 -37 -5 0 -10 7 -10 16 0 8 -5 12 -10 9 -7 -4
-7 -12 0 -25 5 -10 7 -25 4 -33 -3 -8 -1 -18 5 -22 6 -3 11 -17 11 -30 0 -13
5 -27 10 -30 6 -3 10 -14 10 -25 0 -10 7 -21 16 -24 8 -3 13 -10 10 -15 -4 -5
2 -17 11 -27 10 -10 18 -21 18 -24 0 -12 50 -60 63 -60 25 0 11 -17 -28 -35
-22 -10 -38 -20 -36 -22 2 -2 37 13 77 33 73 36 74 37 111 115 36 77 38 79
108 114 39 20 73 42 77 50 9 26 19 16 20 -23 2 -37 -1 -39 -65 -78 -66 -40
-67 -41 -70 -87 -3 -49 -9 -55 -31 -35 -11 11 -12 9 -3 -8 6 -11 18 -27 28
-35 9 -7 45 -50 79 -94 46 -58 109 -171 234 -415 95 -184 184 -346 198 -360
l26 -25 -17 25 c-13 20 -16 52 -16 174 0 135 2 155 24 210 14 34 27 75 31 91
3 17 -12 -15 -35 -70 l-41 -100 3 -128 c2 -70 2 -127 1 -127 -1 0 -50 96 -109
213 -163 325 -231 444 -302 535 -62 78 -66 85 -63 130 1 26 7 53 13 59 12 15
118 77 122 72 2 -2 18 -56 36 -119 18 -63 37 -122 42 -130 8 -13 9 -13 5 1 -3
8 -20 76 -37 150 -18 74 -37 142 -41 152 -18 34 7 15 56 -45 89 -108 327 -307
369 -308 15 -1 61 -42 69 -63 3 -9 11 -17 17 -17 5 0 10 -6 10 -13 0 -7 8 -20
18 -29 27 -26 42 -46 42 -57 0 -6 9 -15 20 -21 11 -6 18 -15 15 -20 -3 -5 3
-15 15 -22 11 -7 20 -18 20 -25 0 -7 7 -16 17 -21 12 -7 -3 -13 -58 -22 -106
-17 -197 -38 -174 -39 11 0 67 8 124 18 109 20 141 16 141 -20 0 -27 48 -63
86 -65 19 0 37 3 40 8 3 4 15 8 28 8 12 0 26 3 29 7 4 3 18 8 32 9 22 2 25 -1
24 -29 0 -18 -13 -63 -28 -102 l-29 -70 -48 -7 c-186 -28 -376 -48 -386 -42
-10 5 -10 4 -1 -6 11 -11 48 -9 220 14 189 25 412 65 281 50 -27 -3 -48 -3
-48 0 0 3 12 36 27 72 29 74 29 77 19 118 -5 19 -3 26 4 21 6 -4 20 1 30 10
10 9 23 14 28 11 5 -3 15 1 22 9 7 8 21 15 31 15 11 0 19 5 19 10 0 6 9 10 20
10 11 0 23 7 26 15 4 8 14 15 24 15 11 0 22 5 25 10 3 6 14 10 25 10 10 0 21
7 24 16 4 9 13 14 21 10 9 -3 18 1 21 9 4 8 15 15 25 15 11 0 22 7 25 15 4 8
14 15 24 15 10 0 21 7 24 16 5 13 10 12 38 -8 18 -13 42 -28 53 -33 18 -10 20
-20 19 -105 -1 -69 -7 -111 -22 -152 -15 -42 -19 -73 -16 -115 3 -35 -7 -141
-24 -263 -27 -189 -29 -221 -18 -209 10 9 56 394 56 462 0 41 7 93 15 116 8
23 17 64 21 91 4 30 11 47 17 43 7 -4 8 6 4 28 -5 24 -4 30 3 19 8 -12 10 -11
10 5 0 12 -5 26 -12 33 -7 7 -8 12 -2 12 21 0 33 -22 24 -45 -5 -12 -9 -64 -9
-115 -1 -89 -22 -365 -41 -540 -6 -47 -9 -92 -9 -100 3 -33 18 73 30 205 6 77
13 141 14 143 2 2 21 -14 44 -35 73 -68 94 -83 111 -83 9 0 20 -4 26 -9 5 -5
29 -11 54 -13 25 -3 37 -3 27 -1 -19 5 -44 43 -28 43 16 0 61 -23 61 -31 0 -9
41 0 57 13 14 11 43 66 43 81 0 6 -6 4 -12 -5 -7 -8 -21 -18 -31 -21 -15 -6
-16 -3 -7 13 6 10 20 26 31 34 28 19 28 72 1 163 -15 51 -29 61 -47 37 -13
-18 -14 -17 -15 9 0 21 4 28 18 25 30 -4 119 34 169 73 26 21 49 36 51 34 3
-2 -3 -27 -12 -54 -20 -62 -20 -58 4 -71 38 -20 78 13 116 95 38 82 45 86 161
98 l52 6 -5 -37 c-2 -20 7 5 21 56 13 51 27 97 30 103 9 13 69 11 83 -3 14
-14 16 -60 3 -73 -11 -12 -45 -164 -38 -171 2 -3 10 25 17 62 7 39 21 76 34
90 20 22 23 22 53 9 20 -8 35 -23 39 -39 l6 -25 26 19 c37 27 68 17 76 -23 5
-24 9 -28 15 -18 5 8 7 19 5 26 -5 11 7 64 40 175 12 42 14 68 7 110 -7 42 -6
57 4 62 88 51 260 220 297 292 27 52 29 123 5 160 -23 35 -92 66 -163 73 -46
5 -54 9 -55 27 -1 15 -3 13 -9 -9 -15 -59 -14 -60 41 -56 60 4 132 -20 154
-52 36 -51 7 -129 -87 -231 -60 -67 -175 -162 -184 -154 -2 3 2 36 10 74 21
101 48 285 43 290 -2 2 -9 -28 -16 -68 -44 -271 -55 -321 -64 -297 -5 13 -11
19 -14 12 -2 -7 1 -22 8 -34 10 -20 9 -21 -7 -14 -61 24 -77 26 -166 17 -88
-8 -96 -8 -140 15 -27 13 -48 26 -48 29 0 2 16 28 35 56 19 28 31 56 28 62 -4
5 -10 1 -15 -10 -9 -20 -4 37 7 86 3 14 -1 10 -9 -10 -8 -19 -15 -56 -15 -82
-1 -44 -4 -49 -72 -111 -98 -89 -123 -96 -233 -64 -79 24 -89 25 -120 12 -35
-15 -35 -15 -30 11 4 20 0 27 -16 31 -11 3 -20 12 -20 19 0 8 -8 18 -17 21
-10 4 -22 12 -26 20 -4 7 -16 13 -27 13 -10 0 -20 4 -22 10 -2 5 -38 -4 -82
-21 -43 -16 -80 -28 -82 -26 -2 2 35 19 83 38 104 41 112 44 93 30 -45 -32 21
-2 150 68 200 109 449 215 465 199 3 -2 0 -31 -6 -62 -6 -32 -8 -60 -6 -63 4
-4 18 65 32 157 16 111 25 230 25 341 l0 127 75 27 c42 16 88 28 103 28 22 1
229 -42 240 -49 2 -2 -6 -57 -18 -124 -12 -67 -19 -124 -17 -127 3 -2 8 13 11
34 16 90 16 92 44 95 15 2 26 8 25 13 -2 13 27 45 41 45 6 0 0 -9 -14 -20 -14
-11 -20 -20 -14 -20 6 0 23 11 38 25 23 21 26 32 26 92 1 44 6 75 15 87 19 25
19 60 0 76 -24 20 -18 96 16 199 l32 94 -17 91 c-9 51 -16 141 -17 201 l-1
109 -56 50 c-111 99 -335 323 -435 435 -79 88 -125 129 -203 182 -59 39 -104
76 -107 88 -3 12 -47 91 -98 177 -76 126 -100 159 -129 174 -19 10 -118 48
-220 85 -222 80 -373 141 -470 190 -40 20 -74 34 -76 32 -6 -5 211 -107 306
-145 41 -15 148 -55 237 -87 89 -32 161 -60 159 -62 -2 -2 -36 -13 -76 -24
l-73 -20 -81 49 c-130 79 -429 227 -453 224 -17 -2 -23 4 -29 30 -10 43 -8 37
-27 83 -35 83 -53 111 -89 134 l-37 24 26 46 c37 65 40 67 63 46 19 -17 20
-17 29 6 5 13 21 35 36 49 14 13 39 48 56 76 l29 52 29 -29 c38 -38 58 -37 30
1 -27 36 -20 46 22 31 18 -6 44 -11 58 -10 l26 1 -29 12 c-50 23 -56 49 -28
119 22 55 24 72 20 159 -3 54 -1 98 3 98 16 0 52 -45 75 -95 31 -65 31 -30 0
57 -23 66 -61 130 -74 125 -4 -1 -8 1 -10 6 -5 17 -1 27 12 27 21 0 65 38 82
72 l15 30 -28 -21 c-39 -28 -74 -35 -97 -18 -17 13 -18 19 -8 59 12 46 108
226 140 261 15 17 15 21 -6 61 -23 42 -113 130 -221 215 -157 122 -469 264
-611 277 -46 4 -71 -1 -153 -30z m269 -30 c148 -50 344 -161 529 -301 138
-104 202 -161 192 -171 -4 -4 -33 17 -65 48 -69 67 -260 210 -275 205 -12 -4
-126 -255 -127 -279 0 -10 -4 -18 -9 -18 -12 0 12 69 72 212 l46 108 -102 57
c-163 92 -321 153 -395 153 -58 0 -402 -144 -402 -168 0 -5 18 -72 40 -148 22
-76 40 -148 39 -159 0 -23 -88 261 -89 288 0 9 -3 17 -7 17 -11 0 -180 -122
-235 -170 -27 -23 -48 -36 -48 -30 0 13 202 163 300 223 98 59 235 125 297
142 76 21 161 18 239 -9z m-117 -70 c9 -11 6 -13 -14 -13 -20 0 -23 2 -14 13
6 8 13 14 14 14 1 0 8 -6 14 -14z m-24 -39 c-10 -7 -40 -32 -65 -57 -25 -25
-31 -32 -13 -16 51 46 48 25 -4 -25 -25 -24 -42 -37 -38 -29 4 8 -2 6 -14 -5
-11 -11 -22 -32 -23 -47 -1 -15 -5 -25 -9 -23 -5 4 -6 23 0 59 3 21 142 152
163 153 22 1 22 1 3 -10z m69 -29 c-3 -5 -12 -1 -20 9 -20 27 -17 39 6 18 11
-10 17 -22 14 -27z m-44 -8 c6 -11 8 -20 4 -20 -4 0 -5 -3 -1 -6 3 -3 22 6 43
20 21 14 40 23 43 19 3 -3 -1 -8 -9 -11 -8 -2 -34 -25 -58 -49 -44 -45 -63
-52 -43 -15 6 12 11 30 11 42 0 19 -4 21 -27 16 -27 -6 -27 -6 -9 9 26 20 33
19 46 -5z m-30 -29 c0 -4 -5 -22 -11 -40 -8 -24 -16 -30 -29 -26 -12 4 -25 -3
-38 -22 -18 -24 -20 -25 -16 -6 11 41 94 125 94 94z m193 -115 c-3 -52 -105
-118 -135 -88 -16 16 -4 54 20 63 17 7 22 5 20 -6 -4 -18 2 -19 34 -5 57 27
35 66 -31 57 -39 -5 -39 -4 -31 19 5 13 16 37 25 54 l15 29 43 -46 c33 -35 42
-53 40 -77z m-136 53 c-18 -43 -19 -51 -7 -59 12 -7 12 -10 -3 -16 -14 -5 -17
-16 -15 -50 3 -40 6 -44 28 -44 14 0 45 5 69 11 24 5 46 8 48 5 7 -7 -93 -25
-184 -34 -46 -4 -83 -4 -83 0 0 4 15 8 33 8 67 0 74 7 67 56 -4 25 -4 47 0 49
4 3 11 20 14 39 6 29 39 86 51 86 2 0 -6 -23 -18 -51z m-71 -37 c-17 -16 -18
-16 -5 5 7 12 15 20 18 17 3 -2 -3 -12 -13 -22z m-170 -2 c0 -12 -4 -16 -9
-11 -5 5 -6 14 -3 20 10 15 12 14 12 -9z m116 -13 c-12 -13 -20 -26 -17 -29 3
-2 -3 -13 -14 -22 -14 -13 -21 -14 -27 -5 -4 7 -3 10 3 6 11 -7 29 9 34 28 4
18 32 56 37 50 3 -3 -4 -16 -16 -28z m-48 -30 c7 -6 6 -7 -4 -4 -8 2 -16 14
-17 28 -1 19 -1 20 4 4 3 -11 10 -24 17 -28z m259 36 c3 -5 -14 -9 -37 -9 -30
-1 -36 1 -21 6 26 11 53 12 58 3z m87 -7 c0 -8 -4 -17 -9 -21 -6 -3 -9 4 -8
15 1 23 17 28 17 6z m-230 -6 c0 -5 -5 -10 -11 -10 -5 0 -7 5 -4 10 3 6 8 10
11 10 2 0 4 -4 4 -10z m-40 -13 c0 -2 -10 -12 -22 -23 l-23 -19 19 23 c18 21
26 27 26 19z m30 -62 c0 -22 -4 -25 -35 -25 -19 0 -35 4 -35 8 0 6 50 37 68
41 1 1 2 -10 2 -24z m-90 0 c0 -13 -37 -23 -51 -13 -12 8 -11 9 2 5 9 -3 22
-1 30 4 16 10 19 11 19 4z m145 -79 c-10 -7 -26 -12 -34 -11 -9 2 -20 4 -26 5
-17 2 28 19 54 19 24 1 24 0 6 -13z m-25 -30 c0 -11 -19 -15 -25 -6 -3 5 1 10
9 10 9 0 16 -2 16 -4z m154 -122 c204 -30 481 -119 469 -150 -3 -8 -6 -14 -7
-14 -1 0 -56 18 -121 40 -195 66 -340 91 -565 100 -107 3 -185 7 -172 8 12 1
22 8 22 16 0 9 13 17 33 19 51 8 232 -2 341 -19z m-401 -1 c-7 -2 -21 -2 -30
0 -10 3 -4 5 12 5 17 0 24 -2 18 -5z m-93 -18 c-34 -10 -39 -13 -20 -15 14 -1
-9 -10 -50 -20 -86 -22 -100 -23 -100 -11 0 9 164 60 195 59 11 0 0 -6 -25
-13z m58 -12 c-10 -2 -26 -2 -35 0 -10 3 -2 5 17 5 19 0 27 -2 18 -5z m795
-179 c11 -11 -3 -24 -18 -18 -8 4 -12 10 -9 15 6 11 18 12 27 3z m-118 -44
c-3 -5 -13 -10 -21 -10 -8 0 -14 5 -14 10 0 6 9 10 21 10 11 0 17 -4 14 -10z
m-135 -30 c0 -5 -7 -10 -16 -10 -8 0 -12 5 -9 10 3 6 10 10 16 10 5 0 9 -4 9
-10z m-156 -31 c-3 -5 -10 -7 -15 -3 -5 3 -7 10 -3 15 3 5 10 7 15 3 5 -3 7
-10 3 -15z m239 -164 c-24 -18 -25 -15 -17 36 l7 44 14 -34 c13 -30 12 -34 -4
-46z m-647 -22 c-1 -2 -10 3 -20 10 -15 11 -16 16 -4 42 l13 29 6 -40 c4 -21
6 -40 5 -41z m14 -35 c0 -4 -15 -2 -32 4 -41 14 -42 14 -33 27 7 12 65 -16 65
-31z m14 -28 c16 -16 1 -21 -41 -14 -48 7 -68 18 -59 32 7 11 85 -3 100 -18z
m646 -79 c0 -30 -17 -34 -22 -6 -4 17 -1 25 8 25 8 0 14 -9 14 -19z m-662 -51
c12 0 25 7 30 16 7 12 11 13 17 5 11 -18 -24 -51 -55 -51 -15 0 -35 9 -46 21
-16 17 -16 22 -4 29 10 7 19 5 26 -5 6 -8 21 -15 32 -15z m621 -2 c-16 -30
-28 -38 -61 -38 -36 0 -42 13 -16 36 12 11 18 13 14 7 -12 -21 22 -15 45 8 25
25 35 19 18 -13z m-612 16 c-3 -3 -12 -4 -19 -1 -8 3 -5 6 6 6 11 1 17 -2 13
-5z m843 -45 c0 -19 4 -28 11 -24 6 4 8 13 5 21 -4 12 -2 12 14 4 27 -15 25
-27 -16 -96 -46 -77 -75 -107 -88 -94 -16 16 -26 12 -26 -12 0 -15 -3 -19 -10
-12 -18 18 9 72 48 95 47 28 81 59 94 84 6 11 -8 2 -31 -20 -28 -27 -44 -36
-51 -29 -7 7 -4 16 10 29 12 11 20 31 20 52 0 18 5 33 10 33 6 0 10 -14 10
-31z m-60 -93 c0 -3 -4 -8 -10 -11 -5 -3 -10 -1 -10 4 0 6 5 11 10 11 6 0 10
-2 10 -4z m-794 -358 l29 -33 -30 27 c-30 27 -32 27 -50 10 -19 -17 -19 -17
-1 6 11 12 20 22 21 22 1 0 14 -15 31 -32z m590 -47 c3 -15 8 -20 12 -14 5 7
19 1 41 -17 l33 -28 -85 -90 c-97 -102 -128 -151 -153 -237 -9 -33 -21 -63
-27 -67 -6 -3 -38 -10 -71 -13 -34 -4 -83 -18 -111 -31 -52 -25 -38 -26 30 -1
48 18 170 33 162 20 -3 -4 -6 -33 -8 -63 -1 -30 -7 -65 -12 -77 -6 -13 -6 -46
0 -87 9 -65 9 -66 -21 -95 -17 -16 -89 -67 -161 -114 -71 -47 -144 -99 -162
-116 l-32 -31 -59 113 c-115 214 -147 322 -118 391 9 21 16 64 16 95 0 31 5
73 11 95 l11 38 26 -25 c15 -14 50 -39 77 -55 28 -17 58 -44 68 -61 10 -17 22
-31 28 -31 23 0 -46 79 -94 108 -30 18 -64 43 -76 56 l-21 22 37 62 c40 65
144 201 154 202 12 0 44 -127 44 -177 0 -29 3 -53 8 -53 16 0 5 118 -16 182
l-23 68 30 -24 c115 -87 142 -93 220 -44 82 52 226 160 227 172 1 6 4 -2 6
-19 2 -16 6 -41 9 -54z m141 57 c-3 -8 -6 -5 -6 6 -1 11 2 17 5 13 3 -3 4 -12
1 -19z m-867 -38 c0 -5 -4 -10 -10 -10 -5 0 -10 5 -10 10 0 6 5 10 10 10 6 0
10 -4 10 -10z m901 -40 c-12 -37 -80 -139 -166 -250 -72 -94 -102 -162 -112
-251 -3 -33 -10 -62 -14 -65 -11 -6 -1 86 17 158 19 79 43 121 110 198 87 99
142 177 156 222 7 23 14 36 16 29 2 -6 -1 -25 -7 -41z m-130 23 c13 -16 12
-17 -3 -4 -17 13 -22 21 -14 21 2 0 10 -8 17 -17z m54 -25 c5 4 5 1 1 -6 -6
-10 -11 -10 -22 -1 -8 6 -14 14 -14 16 0 3 6 0 13 -6 8 -6 18 -7 22 -3z
m-1165 -14 c0 0 -9 -9 -19 -18 -14 -13 -21 -14 -27 -5 -5 8 -3 10 6 4 10 -6
12 -4 7 8 -4 11 0 15 14 14 10 -1 19 -2 19 -3z m290 -14 c0 -5 -2 -10 -4 -10
-3 0 -8 5 -11 10 -3 6 -1 10 4 10 6 0 11 -4 11 -10z m-231 -31 c-16 -10 -23
-4 -14 10 3 6 11 8 17 5 6 -4 5 -9 -3 -15z m221 0 c0 -6 -4 -7 -10 -4 -5 3
-10 11 -10 16 0 6 5 7 10 4 6 -3 10 -11 10 -16z m959 -30 c-12 -24 -53 -84
-92 -133 -74 -97 -122 -188 -133 -255 -4 -23 -10 -44 -15 -47 -12 -7 0 50 24
116 24 66 47 103 121 195 31 39 68 93 83 122 15 28 29 50 31 48 2 -2 -6 -22
-19 -46z m-1299 7 c0 -2 -7 -7 -16 -10 -8 -3 -12 -2 -9 4 6 10 25 14 25 6z
m1574 -92 c94 -48 203 -106 242 -130 39 -24 77 -44 84 -44 7 0 -8 -18 -34 -41
-29 -26 -46 -49 -46 -63 0 -36 -79 -139 -204 -266 l-117 -119 -16 36 c-8 21
-17 53 -19 73 -8 72 -37 176 -63 224 l-26 50 -3 -60 c-4 -75 8 -116 70 -238
28 -54 46 -101 41 -105 -5 -3 -39 -28 -76 -55 -38 -26 -69 -47 -71 -45 -5 7
-25 248 -37 460 l-12 206 30 74 c17 41 33 86 37 102 4 19 13 27 27 27 12 0 98
-39 193 -86z m-1984 65 c0 -5 -4 -7 -10 -4 -5 3 -10 3 -10 -2 0 -4 20 -17 43
-28 41 -20 42 -20 14 -23 -17 -2 -36 3 -47 13 -14 13 -19 13 -23 3 -3 -7 -5
-2 -4 12 1 24 13 40 30 40 4 0 7 -5 7 -11z m398 -13 c-7 -8 -17 -12 -22 -9 -4
3 -2 9 5 14 22 13 31 11 17 -5z m299 -8 c-3 -8 -6 -5 -6 6 -1 11 2 17 5 13 3
-3 4 -12 1 -19z m-252 2 c-3 -5 -14 -10 -23 -9 -14 0 -13 2 3 9 27 11 27 11
20 0z m240 -101 c-30 -57 -55 -100 -55 -96 0 4 14 34 30 67 17 33 27 60 23 60
-4 0 -33 -21 -65 -46 -32 -25 -58 -41 -58 -35 0 6 3 11 8 11 4 0 19 10 34 23
14 12 36 30 47 40 12 9 28 17 37 17 8 0 13 4 9 9 -5 8 35 60 43 56 1 -1 -23
-49 -53 -106z m-630 91 c3 -5 1 -10 -4 -10 -6 0 -11 5 -11 10 0 6 2 10 4 10 3
0 8 -4 11 -10z m285 6 c0 -3 -4 -8 -10 -11 -5 -3 -10 -1 -10 4 0 6 5 11 10 11
6 0 10 -2 10 -4z m200 -9 c0 -4 10 -2 23 4 l22 12 -20 -22 c-11 -13 -21 -18
-23 -13 -2 6 -12 7 -24 4 -14 -3 -19 -1 -14 6 9 15 5 15 -30 2 -24 -9 -25 -9
-14 5 13 15 80 17 80 2z m70 -2 c-7 -8 -18 -15 -24 -15 -6 0 -2 7 8 15 25 19
32 19 16 0z m40 5 c0 -5 -5 -10 -11 -10 -5 0 -7 5 -4 10 3 6 8 10 11 10 2 0 4
-4 4 -10z m-655 -30 c3 -5 1 -10 -4 -10 -6 0 -11 5 -11 10 0 6 2 10 4 10 3 0
8 -4 11 -10z m125 -15 c8 -9 9 -15 2 -15 -6 0 -14 5 -17 10 -4 6 -11 7 -17 4
-7 -4 -8 -2 -4 4 10 16 21 15 36 -3z m157 1 c1 -1 0 -12 -4 -25 -3 -13 -11
-20 -19 -17 -9 3 -11 -1 -8 -12 5 -16 5 -16 -5 0 -6 9 -25 20 -42 23 -38 9
-21 25 26 25 24 0 27 2 15 11 -11 8 -9 9 10 3 14 -3 26 -7 27 -8z m271 2 c33
0 33 0 10 -12 -32 -17 -88 -36 -88 -31 0 3 15 11 33 19 l32 14 -30 3 c-43 3
-57 1 -90 -11 -21 -8 -26 -13 -16 -19 7 -5 22 -6 32 -4 10 3 19 1 19 -4 0 -6
-17 -9 -37 -8 -21 1 -37 4 -35 8 1 4 2 11 2 17 0 5 11 12 25 16 14 3 25 10 25
14 0 4 19 5 43 3 23 -3 57 -5 75 -5z m-241 -70 c-3 -8 -6 -5 -6 6 -1 11 2 17
5 13 3 -3 4 -12 1 -19z m443 -53 c6 -39 18 -94 27 -123 21 -66 24 -56 -105
-374 -139 -344 -206 -464 -395 -705 -202 -260 -237 -323 -200 -366 16 -19 16
-20 1 -8 -15 11 -18 11 -19 0 0 -8 -4 -5 -8 6 -8 21 0 56 58 240 31 100 31
100 64 100 27 0 35 6 50 37 25 51 27 93 5 92 -10 -1 -18 1 -18 5 0 17 164 375
238 520 46 90 115 243 153 340 73 184 130 313 135 308 2 -1 8 -34 14 -72z
m-267 20 c-10 -8 -20 -9 -21 -4 -2 5 -8 7 -12 4 -5 -3 -7 -11 -4 -18 2 -7 -10
-19 -28 -26 -18 -8 -36 -16 -40 -19 -5 -2 -8 12 -8 31 0 19 5 34 13 35 43 5
92 14 96 17 2 3 8 2 13 -1 5 -3 1 -12 -9 -19z m-225 -55 c-3 -36 0 -61 6 -64
6 -3 0 -3 -14 0 -31 6 -84 -12 -75 -26 3 -5 1 -10 -5 -10 -7 0 -10 6 -7 13 2
6 -4 17 -14 22 -18 10 -17 12 6 39 13 15 23 33 21 39 -1 7 -1 9 2 4 2 -4 17 4
34 18 44 38 51 33 46 -35z m370 -6 c3 -2 -202 -493 -220 -527 -5 -10 -12 -16
-15 -14 -10 11 -42 340 -37 380 3 23 7 57 7 75 2 30 9 36 75 73 39 22 72 35
72 29 0 -6 5 -8 11 -4 8 5 8 9 -1 14 -9 6 -8 10 6 18 13 8 27 4 58 -16 23 -14
42 -27 44 -28z m169 -16 c-3 -8 -6 -5 -6 6 -1 11 2 17 5 13 3 -3 4 -12 1 -19z
m909 -733 c20 -148 44 -317 54 -375 29 -161 66 -228 433 -788 l107 -163 -25
-9 c-33 -13 -204 -47 -275 -55 -50 -6 -56 -4 -69 16 -7 13 -87 154 -176 314
-181 324 -264 485 -288 560 -22 68 -43 233 -67 535 -11 140 -27 297 -35 348
-9 52 -13 97 -10 101 2 5 17 11 32 14 38 8 152 104 216 182 l52 64 7 -237 c6
-182 16 -300 44 -507z m-1566 725 c0 -5 -5 -10 -11 -10 -5 0 -7 5 -4 10 3 6 8
10 11 10 2 0 4 -4 4 -10z m220 -10 c0 -5 -4 -10 -10 -10 -5 0 -10 5 -10 10 0
6 5 10 10 10 6 0 10 -4 10 -10z m-60 -20 c0 -5 -5 -10 -11 -10 -5 0 -7 5 -4
10 3 6 8 10 11 10 2 0 4 -4 4 -10z m-150 -20 c0 -5 -4 -10 -10 -10 -5 0 -10 5
-10 10 0 6 5 10 10 10 6 0 10 -4 10 -10z m1695 -270 c14 -27 23 -50 20 -50 -2
0 -16 23 -30 50 -14 28 -23 50 -20 50 2 0 16 -22 30 -50z m-957 -227 c34 -67
66 -125 72 -128 7 -4 28 7 48 24 20 18 69 52 107 78 39 25 102 67 142 94 l71
48 6 -117 c24 -441 34 -536 78 -726 l32 -139 -70 -66 c-307 -292 -440 -404
-562 -475 -8 -5 4 20 26 55 84 134 225 457 286 654 64 209 73 266 27 169 -34
-73 -204 -329 -286 -432 l-59 -73 -15 38 c-9 21 -32 70 -52 108 -72 138 -108
272 -129 471 l-10 91 55 145 c30 79 71 203 92 275 l38 130 21 -51 c11 -28 48
-106 82 -173z m1176 -74 c83 -66 99 -96 75 -138 -13 -23 -22 -26 -66 -26 -62
0 -71 -7 -50 -39 16 -24 16 -24 -19 -28 -28 -3 -34 -1 -31 11 12 43 12 46 -8
44 -11 -1 -29 -4 -40 -8 -27 -8 -75 29 -75 58 0 23 115 187 130 187 5 0 43
-27 84 -61z m-1765 -14 c1 -17 -1 -18 -10 -5 -8 12 -9 9 -5 -12 4 -18 2 -28
-5 -28 -8 0 -10 12 -5 38 3 20 6 44 7 52 1 21 17 -19 18 -45z m218 -217 c-3
-8 -6 -5 -6 6 -1 11 2 17 5 13 3 -3 4 -12 1 -19z m1642 -142 c12 -12 21 -30
21 -40 0 -31 -69 34 -100 95 l-28 55 21 10 c20 8 24 4 44 -45 12 -29 31 -63
42 -75z m-1672 92 c0 -18 -2 -25 -4 -15 -4 13 -17 0 -53 -52 -27 -39 -97 -134
-157 -212 -136 -177 -143 -185 -143 -178 0 4 62 87 138 185 75 99 155 207 177
242 22 34 40 62 41 62 1 0 1 -15 1 -32z m1518 -31 c8 -19 35 -59 60 -90 l46
-57 -28 0 c-31 0 -71 35 -117 104 -32 48 -33 63 -3 69 12 2 23 5 25 6 2 0 9
-14 17 -32z m-1508 -119 c-2 -24 -4 -7 -4 37 0 44 2 63 4 43 2 -21 2 -57 0
-80z m-358 33 c16 -9 17 -16 7 -60 l-10 -50 -47 44 c-27 25 -54 45 -60 45 -7
0 -4 7 7 15 22 16 77 20 103 6z m2141 -16 c0 -12 -34 -43 -42 -38 -5 3 -2 14
8 24 16 18 34 25 34 14z m-66 -21 c3 -9 6 -30 6 -47 l0 -32 -62 3 c-57 4 -88
14 -88 31 0 3 27 4 60 3 57 -4 60 -3 61 20 1 12 1 26 0 31 -2 14 17 7 23 -9z
m76 -17 c0 -8 -11 -24 -25 -37 -22 -21 -25 -22 -25 -5 0 19 27 55 42 55 4 0 8
-6 8 -13z m-2241 -29 c41 -34 69 -77 64 -98 -4 -15 -10 -12 -40 21 -19 21 -54
51 -78 67 -25 16 -41 33 -37 36 12 12 62 -2 91 -26z m2545 -16 l98 -27 57
-115 c31 -63 64 -119 73 -124 13 -8 23 -5 43 14 l25 23 0 -23 c0 -13 -7 -50
-16 -82 l-17 -59 30 -32 c51 -53 53 -64 53 -255 0 -156 2 -181 17 -193 15 -12
16 -12 11 3 -4 9 0 24 7 35 13 17 14 17 15 1 0 -10 -4 -18 -9 -18 -4 0 -6 -12
-2 -27 8 -39 4 -288 -6 -343 -8 -40 -12 -46 -48 -58 -117 -41 -176 -65 -172
-68 2 -2 47 12 101 32 54 19 101 32 104 29 7 -7 7 -7 -73 -34 -119 -40 -254
-101 -394 -178 -73 -41 -135 -72 -138 -70 -3 4 212 123 339 188 26 13 46 25
44 26 -6 7 -108 -44 -275 -135 -110 -60 -176 -92 -179 -84 -2 7 -14 12 -26 12
-13 0 -26 3 -30 7 -8 9 -25 11 -106 16 l-55 3 0 82 c0 45 3 82 7 82 4 0 12 9
18 20 8 15 7 34 -3 74 l-15 54 40 78 c22 43 40 80 41 81 2 1 57 18 122 38 145
44 309 121 353 166 45 46 89 167 113 314 20 122 20 126 2 155 -10 16 -55 90
-101 163 -45 74 -89 141 -98 148 -19 15 -68 109 -57 109 5 -1 52 -13 107 -28z
m-2055 -132 c-1 -8 -9 17 -20 55 -10 39 -18 77 -18 85 1 8 9 -16 20 -55 10
-38 18 -77 18 -85z m-659 125 c0 -2 -10 -9 -22 -15 -22 -11 -22 -10 -4 4 21
17 26 19 26 11z m2215 -44 c-65 -23 -158 -71 -152 -77 3 -3 24 4 47 16 25 13
49 18 62 14 14 -4 18 -2 14 5 -4 6 -1 12 6 13 7 0 18 2 23 2 6 1 25 11 42 24
30 22 73 30 73 14 0 -4 -33 -22 -72 -39 -40 -16 -99 -42 -130 -56 l-56 -26
-17 25 c-9 14 -15 27 -13 29 14 15 169 74 193 74 26 0 23 -2 -20 -18z m257
-17 c33 -5 38 -11 52 -53 13 -39 14 -43 1 -27 -19 26 -19 9 0 -28 9 -16 14
-30 12 -32 -2 -2 -32 30 -68 70 -35 41 -65 71 -67 67 -1 -4 16 -28 38 -52 23
-24 54 -60 71 -80 l29 -37 -42 13 c-38 11 -45 17 -61 61 -10 27 -23 54 -28 59
-6 6 1 -21 15 -59 13 -37 20 -64 15 -59 -9 9 -59 149 -59 166 0 5 12 6 28 3
15 -3 44 -8 64 -12z m-1805 -116 c-3 -7 -5 -2 -5 12 0 14 2 19 5 13 2 -7 2
-19 0 -25z m10 -55 c-3 -10 -5 -4 -5 12 0 17 2 24 5 18 2 -7 2 -21 0 -30z
m933 3 c0 -2 -8 -10 -17 -17 -16 -13 -17 -12 -4 4 13 16 21 21 21 13z m-17
-74 c-72 -89 -278 -295 -383 -384 -73 -61 -138 -105 -212 -144 -117 -60 -147
-60 -44 1 35 20 97 62 139 93 86 66 527 478 528 496 0 7 2 6 6 -2 3 -7 -12
-34 -34 -60z m-1365 19 c-12 -22 -24 -38 -26 -36 -5 4 37 75 44 75 3 0 -6 -18
-18 -39z m470 -51 c0 -22 -1 -22 -8 5 -4 17 -8 41 -8 55 0 22 1 22 8 -5 4 -16
8 -41 8 -55z m-528 -72 c28 -23 40 -41 40 -60 0 -43 -13 -40 -65 12 -41 42
-46 51 -35 65 16 20 15 20 60 -17z m537 -5 c-3 -10 -5 -4 -5 12 0 17 2 24 5
18 2 -7 2 -21 0 -30z m2157 -3 c10 -13 9 -13 -6 -1 -10 7 -18 21 -17 30 0 13
1 14 6 1 3 -8 11 -22 17 -30z m458 30 c20 -6 87 -21 148 -34 166 -35 185 -61
178 -238 l-3 -76 -25 20 -25 21 24 -8 23 -7 -4 101 c-3 76 -8 105 -20 117 -15
15 -17 8 -23 -95 -4 -61 -11 -111 -16 -111 -4 0 -65 14 -134 30 -187 44 -193
44 -357 -38 -5 -2 -7 27 -6 65 l2 68 3 -57 c2 -32 6 -58 8 -58 2 0 21 9 42 19
21 11 50 24 64 30 28 10 31 21 45 184 7 85 8 85 76 67z m-140 -31 c-65 -32
-90 -58 -102 -112 l-8 -32 -1 29 c-1 17 10 43 25 63 25 33 105 82 134 82 8 0
-13 -13 -48 -30z m-3049 -56 c17 -18 26 -33 19 -33 -12 0 -81 88 -82 105 0 5
7 -2 17 -15 9 -14 30 -40 46 -57z m584 -10 c-3 -10 -5 -2 -5 17 0 19 2 27 5
18 2 -10 2 -26 0 -35z m2129 -65 c-18 -106 -35 -172 -42 -165 -3 3 2 29 10 58
18 58 22 115 5 69 -7 -21 -8 -20 -4 9 3 18 5 41 6 50 1 9 5 6 10 -9 6 -18 7
-13 3 21 -5 52 3 86 18 71 7 -7 5 -43 -6 -104z m-2597 78 c9 -10 8 -15 -2 -19
-8 -3 -13 3 -13 14 0 23 0 23 15 5z m481 -158 c-8 -4 -53 -6 -100 -5 l-85 1
90 5 90 6 -2 60 -2 60 12 -60 c11 -52 10 -61 -3 -67z m-222 21 c20 -10 30 -18
22 -19 -15 0 -120 66 -120 76 0 3 14 -5 31 -17 17 -12 47 -30 67 -40z m2290
-61 c-11 -30 -12 -48 -5 -59 18 -29 -30 -109 -91 -151 -110 -76 -362 -160
-516 -173 -68 -5 -80 -4 -92 12 -7 10 -14 21 -14 24 0 3 41 12 91 19 154 21
361 85 464 143 50 29 131 128 153 189 9 26 18 45 20 43 2 -2 -2 -23 -10 -47z
m629 -43 c147 -35 200 -53 207 -72 4 -9 4 -18 1 -21 -3 -3 -5 0 -5 6 0 6 -8 9
-17 6 -14 -4 -15 -3 -5 4 11 7 11 10 -2 15 -8 3 -16 1 -19 -6 -2 -8 -36 -4
-118 13 -119 25 -194 30 -242 17 -26 -7 -27 -6 -17 13 8 15 8 20 -3 20 -22 0
-115 -50 -121 -65 -7 -19 -8 -19 49 6 25 11 48 19 50 17 2 -2 -23 -16 -55 -30
-57 -25 -60 -25 -60 -7 0 22 75 74 121 84 16 4 31 11 34 16 11 16 90 10 202
-16z m153 -99 c0 -3 -4 -8 -10 -11 -5 -3 -10 -1 -10 4 0 6 5 11 10 11 6 0 10
-2 10 -4z m-2870 -9 c0 -2 -15 -16 -32 -33 l-33 -29 29 33 c28 30 36 37 36 29z
m2869 -43 c7 9 18 16 24 16 10 0 -8 -19 -48 -50 -17 -13 -18 -13 -10 0 5 8 9
24 7 35 -2 18 -1 19 6 2 7 -17 9 -17 21 -3z m-2726 -31 c-7 -2 -19 -2 -25 0
-7 3 -2 5 12 5 14 0 19 -2 13 -5z m-109 -17 c-21 -15 -30 -14 -19 3 3 6 14 11
23 11 13 0 13 -2 -4 -14z m-14 -42 c0 -2 -16 -4 -35 -4 -19 0 -35 4 -35 8 0 4
16 6 35 4 19 -2 35 -6 35 -8z m11 -236 c43 -35 75 -66 71 -69 -7 -7 -145 -40
-149 -36 -6 7 -15 167 -9 167 4 0 43 -28 87 -62z m-491 34 c0 -13 -12 -22 -22
-16 -10 6 -1 24 13 24 5 0 9 -4 9 -8z m-56 -23 c-3 -5 -10 -7 -15 -3 -5 3 -7
10 -3 15 3 5 10 7 15 3 5 -3 7 -10 3 -15z m106 11 c0 -5 -4 -10 -10 -10 -5 0
-10 5 -10 10 0 6 5 10 10 10 6 0 10 -4 10 -10z m-25 -22 c4 -4 13 -4 20 -2 7
3 16 1 20 -5 3 -6 14 -11 24 -11 10 0 24 -6 31 -14 6 -8 17 -13 24 -10 7 3 18
-2 25 -10 7 -8 18 -13 25 -10 7 3 19 -2 26 -10 7 -9 16 -13 21 -10 5 3 12 -2
15 -10 3 -9 12 -16 19 -16 18 0 27 -16 31 -52 6 -45 -8 -60 -83 -97 -69 -33
-70 -34 -111 -117 -36 -72 -45 -84 -67 -84 -15 0 -25 6 -25 14 0 8 -9 18 -20
21 -11 3 -20 13 -20 21 0 8 -5 14 -10 14 -6 0 -15 11 -20 25 -5 14 -14 25 -19
25 -6 0 -8 7 -5 15 4 8 -1 17 -10 21 -11 4 -14 13 -11 24 3 10 2 21 -3 24 -17
10 -36 176 -21 176 5 0 9 7 9 15 0 43 106 93 135 63z m75 2 c0 -5 -4 -10 -10
-10 -5 0 -10 5 -10 10 0 6 5 10 10 10 6 0 10 -4 10 -10z m-199 -23 c-13 -13
-26 -3 -16 12 3 6 11 8 17 5 6 -4 6 -10 -1 -17z m249 3 c0 -5 -4 -10 -10 -10
-5 0 -10 5 -10 10 0 6 5 10 10 10 6 0 10 -4 10 -10z m50 -20 c0 -5 -4 -10 -9
-10 -6 0 -13 5 -16 10 -3 6 1 10 9 10 9 0 16 -4 16 -10z m3186 -20 c56 -27 79
-71 69 -131 -12 -72 -114 -197 -236 -290 -86 -66 -122 -76 -42 -13 178 142
262 249 263 335 0 61 -74 109 -170 109 -31 0 -50 4 -50 11 0 19 114 4 166 -21z
m-3508 -1 c-2 -6 -8 -10 -13 -10 -5 0 -11 4 -13 10 -2 6 4 11 13 11 9 0 15 -5
13 -11z m372 1 c0 -5 -4 -10 -9 -10 -6 0 -13 5 -16 10 -3 6 1 10 9 10 9 0 16
-4 16 -10z m470 -76 c23 -36 39 -68 37 -70 -3 -3 -15 12 -27 33 -13 21 -32 53
-42 71 -36 59 -10 33 32 -34z m-430 46 c0 -5 -4 -10 -10 -10 -5 0 -10 5 -10
10 0 6 5 10 10 10 6 0 10 -4 10 -10z m-420 -25 c0 -8 -4 -15 -10 -15 -5 0 -10
7 -10 15 0 8 5 15 10 15 6 0 10 -7 10 -15z m465 -5 c3 -5 -1 -10 -9 -10 -9 0
-16 5 -16 10 0 6 4 10 9 10 6 0 13 -4 16 -10z m75 -31 c0 -5 -4 -9 -10 -9 -5
0 -10 7 -10 16 0 8 5 12 10 9 6 -3 10 -10 10 -16z m-33 -15 c-9 -9 -28 6 -21
18 4 6 10 6 17 -1 6 -6 8 -13 4 -17z m43 -24 c0 -5 -4 -10 -9 -10 -6 0 -13 5
-16 10 -3 6 1 10 9 10 9 0 16 -4 16 -10z m608 -96 c23 -3 42 -9 42 -13 -1 -6
-161 -81 -173 -81 -6 0 -127 175 -127 183 0 2 48 -15 108 -39 59 -24 126 -46
150 -50z m-1148 65 c0 -5 -4 -9 -10 -9 -5 0 -10 7 -10 16 0 8 5 12 10 9 6 -3
10 -10 10 -16z m580 1 c0 -5 -4 -10 -10 -10 -5 0 -10 5 -10 10 0 6 5 10 10 10
6 0 10 -4 10 -10z m40 -40 c0 -5 -4 -10 -10 -10 -5 0 -10 5 -10 10 0 6 5 10
10 10 6 0 10 -4 10 -10z m329 -49 c44 -63 50 -81 26 -81 -8 0 -12 6 -9 15 3 7
-5 29 -19 47 -26 35 -50 78 -44 78 2 0 23 -27 46 -59z m487 -36 c48 -52 90
-92 93 -90 3 3 -16 27 -42 53 -26 26 -47 50 -47 53 0 4 91 9 203 12 202 6 320
19 344 38 7 6 17 8 22 5 5 -4 14 2 20 11 6 10 11 14 11 8 0 -5 -10 -21 -23
-35 -12 -14 -18 -20 -13 -13 5 8 7 16 4 19 -3 2 -36 -36 -73 -86 -39 -52 -73
-89 -80 -86 -7 2 -18 -1 -24 -7 -8 -8 -22 0 -54 31 l-44 43 -44 -44 c-53 -54
-89 -65 -114 -37 -10 11 -23 20 -28 20 -6 0 1 -13 16 -28 15 -15 27 -31 27
-35 0 -4 -18 -16 -41 -28 -23 -11 -38 -16 -35 -11 3 5 19 15 36 22 17 7 29 16
28 20 -2 4 -57 64 -124 134 -66 69 -117 126 -113 126 4 0 47 -43 95 -95z
m-1426 69 c0 -8 -4 -12 -10 -9 -5 3 -10 10 -10 16 0 5 5 9 10 9 6 0 10 -7 10
-16z m650 -14 c0 -5 -4 -10 -10 -10 -5 0 -10 5 -10 10 0 6 5 10 10 10 6 0 10
-4 10 -10z m610 0 c-8 -5 -19 -10 -25 -10 -5 0 -3 5 5 10 8 5 20 10 25 10 6 0
3 -5 -5 -10z m-1240 -36 c0 -8 -4 -12 -10 -9 -5 3 -10 10 -10 16 0 5 5 9 10 9
6 0 10 -7 10 -16z m670 -4 c0 -5 -4 -10 -10 -10 -5 0 -10 5 -10 10 0 6 5 10
10 10 6 0 10 -4 10 -10z m420 -28 c-41 -20 -77 -38 -79 -40 -3 -1 15 -24 40
-50 25 -26 76 -83 114 -127 38 -44 75 -86 84 -92 8 -7 10 -13 5 -13 -21 0
-261 277 -250 288 10 10 139 70 151 71 6 0 -24 -17 -65 -37z m-1060 -13 c0 -5
-4 -9 -10 -9 -5 0 -10 7 -10 16 0 8 5 12 10 9 6 -3 10 -10 10 -16z m680 5 c0
-17 -22 -14 -28 4 -2 7 3 12 12 12 9 0 16 -7 16 -16z m1361 3 c-1 -12 -15 -9
-19 4 -3 6 1 10 8 8 6 -3 11 -8 11 -12z m56 -13 c-9 -9 -28 6 -21 18 4 6 10 6
17 -1 6 -6 8 -13 4 -17z m53 1 c0 -8 -4 -15 -9 -15 -13 0 -22 16 -14 24 11 11
23 6 23 -9z m-1433 -31 c-9 -9 -28 6 -21 18 4 6 10 6 17 -1 6 -6 8 -13 4 -17z
m1403 13 c8 -3 24 -8 35 -10 17 -3 16 -5 -8 -15 -34 -15 -69 -7 -84 17 -10 16
-8 18 15 16 15 -1 34 -5 42 -8z m80 9 c0 -3 -4 -8 -10 -11 -5 -3 -10 -1 -10 4
0 6 5 11 10 11 6 0 10 -2 10 -4z m-2170 -27 c0 -5 -4 -9 -10 -9 -5 0 -10 7
-10 16 0 8 5 12 10 9 6 -3 10 -10 10 -16z m857 15 c-3 -3 -12 -4 -19 -1 -8 3
-5 6 6 6 11 1 17 -2 13 -5z m190 -149 c35 -38 59 -71 54 -73 -13 -4 -164 35
-223 59 -48 19 -102 62 -103 82 0 5 -8 14 -17 21 -24 18 -23 26 5 27 12 1 51
9 87 18 l65 17 35 -40 c19 -22 63 -72 97 -111z m928 146 c3 -5 1 -12 -5 -16
-5 -3 -10 1 -10 9 0 18 6 21 15 7z m-1330 -24 c23 4 35 2 35 -6 0 -6 -16 -11
-38 -11 -36 0 -62 14 -62 33 0 5 7 2 15 -7 10 -10 26 -13 50 -9z m168 16 c-7
-2 -19 -2 -25 0 -7 3 -2 5 12 5 14 0 19 -2 13 -5z m1217 -3 c0 -5 -7 -10 -16
-10 -8 0 -12 -5 -9 -10 4 -6 11 -8 16 -5 5 4 9 2 9 -4 0 -6 -12 -13 -27 -17
-16 -3 -34 -7 -40 -10 -28 -8 -11 32 20 47 40 20 47 22 47 9z m-1267 -7 c-7
-2 -19 -2 -25 0 -7 3 -2 5 12 5 14 0 19 -2 13 -5z m924 -25 c35 -33 41 -52 21
-64 -7 -5 -8 -3 -3 5 4 8 -5 26 -26 47 l-33 34 -38 -37 c-36 -35 -37 -38 -20
-56 9 -11 31 -28 47 -38 17 -11 23 -19 15 -19 -18 0 -90 57 -90 71 0 13 71 89
83 89 6 0 26 -14 44 -32z m-959 3 c3 -8 -1 -12 -9 -9 -7 2 -15 10 -17 17 -3 8
1 12 9 9 7 -2 15 -10 17 -17z m1080 -11 l-22 -30 24 -32 23 -33 -26 24 c-35
32 -35 15 0 -21 30 -31 26 -39 -25 -56 -37 -13 -79 -2 -88 22 -9 23 36 76 64
76 15 0 22 5 19 13 -2 6 7 24 21 40 34 36 38 34 10 -3z m-1771 -6 c-9 -9 -28
6 -21 18 4 6 10 6 17 -1 6 -6 8 -13 4 -17z m2196 0 c4 -8 13 -14 20 -14 17 -1
52 -31 60 -52 3 -10 11 -18 17 -18 24 0 7 -28 -30 -49 -41 -23 -160 -147 -160
-167 0 -12 22 -24 44 -24 19 0 50 60 37 71 -6 5 -9 6 -6 3 8 -11 -25 -64 -40
-64 -31 0 -23 22 33 85 39 43 85 81 135 111 75 44 77 44 112 30 30 -13 35 -20
35 -49 0 -43 -31 -73 -70 -69 -36 4 -123 -38 -174 -83 -52 -46 -37 -45 20 1
44 37 72 40 41 6 -10 -10 -17 -29 -17 -43 0 -20 -2 -21 -11 -9 -8 11 -12 12
-16 3 -7 -20 -115 -15 -248 11 -18 3 -12 -1 15 -11 34 -12 82 -17 197 -17 83
-1 149 -4 146 -8 -2 -5 -38 -8 -79 -8 -59 0 -74 -3 -74 -15 0 -8 -7 -15 -15
-15 -9 0 -18 -7 -21 -15 -4 -8 -10 -12 -16 -9 -5 3 -17 -1 -27 -10 -17 -15
-20 -14 -54 19 -20 19 -41 35 -47 35 -5 0 -10 4 -10 9 0 6 12 6 32 0 18 -5 60
-8 93 -8 60 2 59 2 -20 9 -135 13 -310 82 -380 150 -16 17 -17 22 -6 32 9 8
11 9 7 1 -9 -16 80 -79 153 -109 66 -26 90 -31 52 -10 -15 9 -30 30 -38 57
-15 53 -16 62 -4 54 6 -3 17 10 27 30 10 22 23 35 35 35 11 0 19 7 19 15 0 8
9 15 20 15 12 0 20 7 20 16 0 9 9 18 19 21 11 3 21 14 23 25 2 14 18 27 48 38
48 20 90 17 103 -6z m37 16 c0 -5 -7 -10 -15 -10 -8 0 -15 5 -15 10 0 6 7 10
15 10 8 0 15 -4 15 -10z m-598 -17 c21 -19 23 -44 6 -62 -11 -10 -9 -11 7 -5
16 5 17 4 9 -5 -9 -10 -17 -10 -32 -2 -10 6 -22 8 -25 5 -8 -8 -47 15 -47 28
0 15 40 58 53 58 6 0 19 -7 29 -17z m-962 -3 c8 -5 12 -11 10 -14 -3 -2 -14 2
-24 10 -22 15 -10 19 14 4z m50 -21 c0 -5 -4 -9 -10 -9 -5 0 -10 7 -10 16 0 8
5 12 10 9 6 -3 10 -10 10 -16z m1550 11 c0 -5 -4 -10 -10 -10 -5 0 -10 5 -10
10 0 6 5 10 10 10 6 0 10 -4 10 -10z m-307 -7 c-7 -2 -19 -2 -25 0 -7 3 -2 5
12 5 14 0 19 -2 13 -5z m2 -37 c-14 -14 -30 -26 -35 -26 -5 0 -14 -8 -20 -17
-8 -15 -10 -12 -8 17 3 31 7 36 43 46 22 6 41 10 43 9 2 -2 -9 -15 -23 -29z
m65 24 c0 -5 -4 -10 -10 -10 -5 0 -10 5 -10 10 0 6 5 10 10 10 6 0 10 -4 10
-10z m743 -19 c51 -29 54 -29 159 -24 117 6 160 -4 180 -41 10 -20 10 -20 -8
-5 -10 9 -30 22 -42 29 -22 11 -23 10 -18 -8 11 -33 -36 -62 -98 -61 l-51 1
55 8 c55 8 83 30 73 56 -8 20 -82 18 -105 -3 -18 -16 -18 -16 -12 0 5 15 1 16
-27 10 -19 -3 -37 -10 -40 -15 -3 -5 -14 1 -24 12 -10 11 -24 20 -31 20 -7 0
-19 6 -26 13 -22 21 -56 20 -70 -2 -7 -12 -17 -21 -22 -21 -5 0 3 14 19 30 16
17 30 30 32 30 2 0 27 -13 56 -29z m-472 -4 c-1 -12 -15 -9 -19 4 -3 6 1 10 8
8 6 -3 11 -8 11 -12z m-1551 -7 c0 -5 -4 -10 -10 -10 -5 0 -10 5 -10 10 0 6 5
10 10 10 6 0 10 -4 10 -10z m1240 -5 c0 -8 -4 -15 -10 -15 -5 0 -10 7 -10 15
0 8 5 15 10 15 6 0 10 -7 10 -15z m-429 -33 c23 -18 51 -32 61 -32 23 0 23
-26 1 -35 -27 -10 -359 -19 -350 -9 19 20 201 109 222 109 12 -1 42 -16 66
-33z m1214 0 c-7 -8 -35 7 -35 18 0 6 7 6 20 -2 10 -7 17 -14 15 -16z m-1994
-5 c-1 -12 -15 -9 -19 4 -3 6 1 10 8 8 6 -3 11 -8 11 -12z m1169 3 c0 -5 -7
-10 -16 -10 -8 0 -12 5 -9 10 3 6 10 10 16 10 5 0 9 -4 9 -10z m756 -6 c18
-14 18 -14 -6 -3 -31 14 -36 19 -24 19 6 0 19 -7 30 -16z m-801 -24 c-3 -5
-10 -10 -16 -10 -5 0 -9 5 -9 10 0 6 7 10 16 10 8 0 12 -4 9 -10z m840 0 c-3
-5 -14 -10 -23 -10 -15 0 -15 2 -2 10 20 13 33 13 25 0z m-1925 -15 c0 -9 -6
-12 -15 -9 -8 4 -15 10 -15 15 0 5 7 9 15 9 8 0 15 -7 15 -15z m2014 -5 c17
-6 26 -6 26 0 0 6 4 10 8 10 5 0 9 -7 9 -15 0 -12 -7 -14 -31 -9 -17 4 -40 10
-51 15 -30 12 7 12 39 -1z m-1564 -4 c0 -8 -92 -58 -97 -53 -3 3 17 17 44 31
53 28 53 28 53 22z m590 -6 c0 -5 -4 -10 -10 -10 -5 0 -10 5 -10 10 0 6 5 10
10 10 6 0 10 -4 10 -10z m740 0 c10 -5 23 -24 29 -42 10 -28 8 -36 -13 -67
-23 -33 -58 -105 -130 -265 -14 -32 -29 -57 -32 -54 -2 3 1 18 8 33 11 25 10
29 -11 46 -13 11 -27 17 -30 13 -3 -4 -1 -8 4 -11 32 -12 35 -19 23 -54 -6
-19 -16 -37 -21 -40 -14 -10 -49 2 -44 15 8 22 28 83 81 246 43 135 57 167 77
177 29 15 35 16 59 3z m-1750 -20 c0 -5 -4 -10 -10 -10 -5 0 -10 5 -10 10 0 6
5 10 10 10 6 0 10 -4 10 -10z m225 -37 c119 -18 445 -21 519 -4 42 10 50 9 61
-6 16 -22 -3 -43 -62 -68 -24 -11 -43 -22 -43 -27 0 -4 -6 -5 -14 -2 -8 3 -19
-3 -26 -16 -6 -11 -15 -18 -20 -15 -4 3 -15 -2 -23 -10 -9 -8 -20 -15 -25 -15
-14 0 -71 -30 -77 -41 -4 -5 -11 -6 -17 -3 -6 4 -16 0 -22 -8 -13 -17 -62 -32
-69 -20 -2 4 -2 1 -1 -5 2 -7 -5 -13 -16 -13 -11 0 -20 -5 -20 -11 0 -6 -7 -8
-16 -5 -9 4 -22 2 -28 -3 -11 -9 -45 -14 -76 -12 -14 1 -47 58 -39 66 2 1 42
10 89 20 128 25 353 79 343 82 -5 2 -55 -7 -111 -21 -98 -23 -115 -23 -91 1 5
5 9 30 6 54 l-4 44 -1 -46 c-3 -62 -23 -78 -129 -100 -114 -24 -122 -23 -132
5 -5 13 -17 26 -25 29 -9 4 -16 13 -16 21 0 7 -7 17 -16 20 -8 3 -13 10 -9 16
3 5 -3 15 -15 22 -11 7 -20 19 -20 26 0 7 -7 15 -15 18 -8 4 -15 13 -15 20 0
8 -7 17 -15 20 -8 4 -15 12 -15 19 0 9 11 9 53 -2 28 -7 97 -21 152 -30z m705
27 c0 -5 -4 -10 -9 -10 -6 0 -13 5 -16 10 -3 6 1 10 9 10 9 0 16 -4 16 -10z
m40 0 c0 -5 -7 -10 -16 -10 -8 0 -12 5 -9 10 3 6 10 10 16 10 5 0 9 -4 9 -10z
m44 -24 c3 -13 9 -32 12 -41 6 -15 4 -16 -17 -3 -33 18 -39 29 -28 50 13 25
26 23 33 -6z m-974 -12 c0 -8 -4 -12 -10 -9 -5 3 -10 10 -10 16 0 5 5 9 10 9
6 0 10 -7 10 -16z m805 6 c3 -5 -1 -10 -9 -10 -9 0 -16 5 -16 10 0 6 4 10 9
10 6 0 13 -4 16 -10z m705 2 c0 -5 12 -13 28 -18 l27 -11 -43 -40 c-35 -33
-52 -42 -90 -45 -53 -5 -65 -1 -39 13 9 6 17 19 17 29 0 11 5 20 10 20 6 0 10
11 10 24 0 25 13 33 58 35 12 0 22 -3 22 -7z m-670 -33 c0 -5 -7 -9 -15 -9
-15 0 -20 12 -9 23 8 8 24 -1 24 -14z m580 1 c0 -5 -4 -10 -10 -10 -5 0 -10 5
-10 10 0 6 5 10 10 10 6 0 10 -4 10 -10z m-1390 -21 c0 -5 -4 -9 -10 -9 -5 0
-10 7 -10 16 0 8 5 12 10 9 6 -3 10 -10 10 -16z m760 -4 c0 -8 -4 -15 -10 -15
-5 0 -10 7 -10 15 0 8 5 15 10 15 6 0 10 -7 10 -15z m110 -15 c8 -5 11 -12 8
-16 -10 -9 -38 3 -38 16 0 12 10 13 30 0z m497 -16 c-9 -9 -28 6 -21 18 4 6
10 6 17 -1 6 -6 8 -13 4 -17z m-1337 -5 c0 -5 -4 -9 -10 -9 -5 0 -10 7 -10 16
0 8 5 12 10 9 6 -3 10 -10 10 -16z m690 11 c0 -5 -7 -10 -15 -10 -8 0 -15 5
-15 10 0 6 7 10 15 10 8 0 15 -4 15 -10z m-50 -31 c0 -5 -7 -9 -15 -9 -9 0
-12 6 -9 15 6 15 24 11 24 -6z m260 1 c12 -8 11 -10 -7 -10 -12 0 -25 5 -28
10 -8 13 15 13 35 0z m-870 -26 c0 -8 -4 -12 -10 -9 -5 3 -10 10 -10 16 0 5 5
9 10 9 6 0 10 -7 10 -16z m560 0 c0 -8 -4 -12 -10 -9 -5 3 -10 10 -10 16 0 5
5 9 10 9 6 0 10 -7 10 -16z m390 6 c0 -5 -2 -10 -4 -10 -3 0 -8 5 -11 10 -3 6
-1 10 4 10 6 0 11 -4 11 -10z m-25 -10 c3 -5 -3 -10 -14 -10 -11 0 -23 5 -26
10 -3 6 3 10 14 10 11 0 23 -4 26 -10z m73 -9 c3 -8 -1 -12 -9 -9 -7 2 -15 10
-17 17 -3 8 1 12 9 9 7 -2 15 -10 17 -17z m397 13 c22 -9 47 -61 40 -84 -8
-26 -85 -86 -147 -115 -58 -27 -80 -30 -109 -15 -34 19 -22 48 37 93 31 23 80
61 108 84 60 49 51 44 71 37z m-880 -24 c-3 -5 -10 -10 -16 -10 -5 0 -9 5 -9
10 0 6 7 10 16 10 8 0 12 -4 9 -10z m805 -5 c-14 -17 -137 -104 -158 -112 -7
-3 -19 3 -26 12 -11 16 -13 14 -9 -16 4 -32 3 -33 -11 -15 -22 27 -20 43 7 52
12 3 29 12 37 19 15 13 19 15 40 15 6 0 10 7 10 15 0 8 6 15 14 15 7 0 19 7
26 15 7 8 28 15 47 15 31 0 34 -2 23 -15z m-1290 -11 c0 -8 -4 -12 -10 -9 -5
3 -10 10 -10 16 0 5 5 9 10 9 6 0 10 -7 10 -16z m910 -14 c17 -16 29 -34 25
-40 -5 -8 -11 -8 -20 0 -7 6 -19 8 -27 5 -18 -7 -31 20 -23 46 8 24 7 24 45
-11z m31 14 c11 -14 10 -15 -11 -12 -13 1 -25 9 -28 16 -5 17 23 15 39 -4z
m65 1 c-3 -8 -2 -15 3 -15 4 0 8 -7 8 -15 0 -15 -16 -22 -18 -7 -6 34 -5 52 3
52 6 0 8 -7 4 -15z m201 9 c-3 -3 -12 -4 -19 -1 -8 3 -5 6 6 6 11 1 17 -2 13
-5z m-767 -12 c0 -13 -12 -22 -22 -16 -10 6 -1 24 13 24 5 0 9 -4 9 -8z m730
-12 c0 -5 -7 -10 -15 -10 -8 0 -15 5 -15 10 0 6 7 10 15 10 8 0 15 -4 15 -10z
m-780 -21 c0 -5 -4 -9 -10 -9 -5 0 -10 7 -10 16 0 8 5 12 10 9 6 -3 10 -10 10
-16z m-360 -10 c0 -5 -4 -9 -10 -9 -5 0 -10 7 -10 16 0 8 5 12 10 9 6 -3 10
-10 10 -16z m958 4 c5 -18 -23 -16 -39 3 -11 14 -10 15 11 12 13 -1 25 -9 28
-15z m70 -24 c2 -32 1 -33 -13 -15 -18 24 -20 59 -2 54 6 -3 13 -20 15 -39z
m62 20 c0 -5 -4 -9 -10 -9 -5 0 -10 7 -10 16 0 8 5 12 10 9 6 -3 10 -10 10
-16z m-775 -9 c-3 -5 -10 -10 -16 -10 -5 0 -9 5 -9 10 0 6 7 10 16 10 8 0 12
-4 9 -10z m566 -23 c-13 -13 -26 -3 -16 12 3 6 11 8 17 5 6 -4 6 -10 -1 -17z
m-611 3 c0 -5 -7 -10 -15 -10 -8 0 -15 5 -15 10 0 6 7 10 15 10 8 0 15 -4 15
-10z m660 0 c0 -5 -4 -10 -10 -10 -5 0 -10 5 -10 10 0 6 5 10 10 10 6 0 10 -4
10 -10z m68 -8 c3 -9 -2 -13 -14 -10 -9 1 -19 9 -22 16 -3 9 2 13 14 10 9 -1
19 -9 22 -16z m-977 -15 c-13 -13 -26 -3 -16 12 3 6 11 8 17 5 6 -4 6 -10 -1
-17z m829 12 c0 -7 9 -9 23 -6 12 4 29 2 37 -3 9 -5 19 -5 27 2 10 8 19 6 34
-8 11 -10 30 -19 41 -19 12 0 23 -6 25 -12 3 -7 0 -13 -7 -13 -8 0 -7 -6 1
-22 7 -13 15 -25 18 -28 3 -3 11 -14 17 -25 6 -11 23 -26 37 -33 15 -7 27 -20
27 -28 0 -17 -12 -18 -28 -2 -9 9 -12 9 -12 0 0 -7 11 -18 25 -24 15 -6 25
-20 25 -31 0 -20 0 -20 -21 -1 -22 19 -22 19 -12 -1 12 -27 10 -100 -5 -118
-6 -7 -25 -13 -41 -12 -17 1 -28 -2 -26 -6 6 -10 -16 -17 -33 -11 -9 3 -8 8 5
19 10 8 13 12 7 9 -7 -3 -17 1 -24 9 -7 8 -18 15 -25 15 -7 0 -15 7 -19 15 -3
8 -11 15 -17 15 -13 0 -50 37 -86 84 -19 25 -23 42 -23 107 0 86 8 139 21 139
5 0 9 -5 9 -11z m-630 -9 c0 -5 -7 -10 -15 -10 -8 0 -15 5 -15 10 0 6 7 10 15
10 8 0 15 -4 15 -10z m-55 -20 c-3 -5 -10 -10 -16 -10 -5 0 -9 5 -9 10 0 6 7
10 16 10 8 0 12 -4 9 -10z m-105 -10 c0 -5 -4 -10 -9 -10 -6 0 -13 5 -16 10
-3 6 1 10 9 10 9 0 16 -4 16 -10z m51 -3 c-1 -12 -15 -9 -19 4 -3 6 1 10 8 8
6 -3 11 -8 11 -12z m963 -43 c4 -11 1 -14 -11 -12 -9 2 -18 9 -21 16 -6 18 25
15 32 -4z m30 -50 c4 -11 1 -14 -11 -12 -9 2 -18 9 -21 16 -6 18 25 15 32 -4z
m66 -45 c0 -9 -7 -22 -15 -29 -12 -10 -15 -9 -15 6 0 11 3 30 7 42 4 18 8 20
14 10 5 -7 9 -20 9 -29z m9 -76 c-14 -26 -14 -26 -17 -4 -5 34 6 57 20 43 9
-9 8 -18 -3 -39z m21 -37 c0 -7 -9 -21 -20 -31 -22 -20 -26 -9 -9 29 12 25 29
26 29 2z m-52 -16 c3 -21 2 -22 -12 -11 -19 16 -21 44 -3 39 6 -3 14 -15 15
-28z m-262 8 c3 -4 -1 -5 -10 -4 -8 1 -18 5 -22 8 -3 4 1 5 10 4 8 -1 18 -5
22 -8z m-36 -33 c0 -8 -4 -15 -10 -15 -5 0 -7 7 -4 15 4 8 8 15 10 15 2 0 4
-7 4 -15z m86 -7 c3 -4 -1 -5 -10 -4 -8 1 -18 5 -22 8 -3 4 1 5 10 4 8 -1 18
-5 22 -8z m205 -11 c-1 -12 -15 -9 -19 4 -3 6 1 10 8 8 6 -3 11 -8 11 -12z
m-159 -29 c-12 -12 -35 -1 -27 12 3 5 13 6 21 3 10 -4 12 -9 6 -15z m-22 -49
c0 -5 -4 -9 -9 -9 -14 0 -28 23 -28 44 0 17 2 17 19 -4 10 -12 18 -26 18 -31z
m160 36 c0 -8 -4 -15 -10 -15 -5 0 -10 7 -10 15 0 8 5 15 10 15 6 0 10 -7 10
-15z m-35 -4 c7 -12 -12 -24 -25 -16 -11 7 -4 25 10 25 5 0 11 -4 15 -9z m-65
-46 c12 -15 11 -17 -9 -13 -14 1 -27 13 -32 26 -7 20 -6 21 10 13 10 -6 24
-17 31 -26z m148 23 c-7 -20 -34 -32 -54 -23 -17 7 -16 9 11 21 38 17 48 17
43 2z"/>
<path d="M3385 4199 c-28 -56 -78 -145 -112 -198 -35 -52 -63 -96 -63 -98 0
-12 64 73 99 130 55 90 133 246 129 258 -2 6 -26 -36 -53 -92z"/>
<path d="M2851 3840 c18 -22 34 -40 36 -40 2 0 -9 18 -23 40 -15 22 -31 40
-36 40 -5 0 6 -18 23 -40z"/>
<path d="M3188 3763 c7 -3 16 -2 19 1 4 3 -2 6 -13 5 -11 0 -14 -3 -6 -6z"/>
<path d="M2595 3785 c-14 -13 -25 -34 -26 -47 -4 -100 2 -114 41 -95 26 13 38
54 39 130 1 45 -18 49 -54 12z"/>
<path d="M2447 3474 c-15 -15 -27 -38 -27 -53 0 -14 -3 -35 -5 -46 -8 -32 7
-47 38 -36 27 10 42 48 49 121 4 45 -19 51 -55 14z"/>
<path d="M2292 3177 c-13 -14 -23 -41 -26 -72 -7 -63 2 -79 36 -66 20 8 27 20
36 67 7 31 12 66 12 76 0 25 -32 23 -58 -5z"/>
<path d="M2425 3960 c-3 -5 -1 -10 4 -10 6 0 11 5 11 10 0 6 -2 10 -4 10 -3 0
-8 -4 -11 -10z"/>
<path d="M2326 3781 c-14 -26 -24 -163 -12 -150 6 6 35 173 31 177 -2 2 -11
-10 -19 -27z"/>
<path d="M3406 3536 c-14 -25 -26 -51 -26 -59 0 -16 31 -47 47 -47 6 0 13 -5
15 -12 5 -14 58 -2 58 13 0 6 7 17 15 25 23 23 18 50 -16 89 -41 47 -61 45
-93 -9z"/>
<path d="M3473 3143 c-36 -66 -37 -79 -5 -113 34 -35 81 -41 89 -11 3 11 11
22 19 25 27 10 15 57 -25 97 -21 22 -43 39 -48 39 -5 0 -19 -17 -30 -37z"/>
<path d="M3559 2723 c-29 -74 -18 -130 22 -120 10 3 20 -1 23 -9 4 -10 12 -11
36 -3 17 6 29 16 28 23 -1 6 4 21 11 34 16 31 -7 68 -54 88 -47 19 -54 18 -66
-13z"/>
<path d="M3727 2393 c-2 -5 -10 -29 -16 -54 -16 -57 -3 -89 34 -89 14 0 25 -4
25 -10 0 -15 36 -12 50 5 6 8 9 18 6 24 -3 5 1 11 9 15 22 8 18 50 -7 72 -37
33 -92 53 -101 37z"/>
<path d="M3906 3284 c-20 -19 -20 -28 -1 -44 8 -7 15 -25 15 -41 0 -22 5 -29
19 -29 16 0 19 7 17 53 -2 75 -18 94 -50 61z"/>
<path d="M1985 2910 c-3 -5 -2 -10 4 -10 6 0 26 -16 45 -35 l35 -35 7 36 c5
26 3 39 -7 45 -19 12 -76 11 -84 -1z"/>
<path d="M1930 2844 c14 -10 44 -35 67 -57 24 -23 45 -38 48 -35 9 9 -54 77
-86 94 -38 19 -59 18 -29 -2z"/>
<path d="M4258 2743 c7 -3 16 -2 19 1 4 3 -2 6 -13 5 -11 0 -14 -3 -6 -6z"/>
<path d="M4308 2722 c20 -22 25 -21 16 2 -3 9 -12 16 -20 16 -11 0 -10 -4 4
-18z"/>
<path d="M1934 2419 c-3 -6 14 -32 40 -57 l46 -47 0 30 c0 23 -7 35 -30 48
-16 10 -30 22 -30 28 0 13 -17 11 -26 -2z"/>
<path d="M4662 2340 c0 -14 2 -19 5 -12 2 6 2 18 0 25 -3 6 -5 1 -5 -13z"/>
<path d="M3917 956 c-3 -8 -2 -18 4 -22 16 -9 22 2 11 21 -8 15 -10 16 -15 1z"/>
<path d="M3445 4990 c-18 -8 -17 -9 8 -9 15 -1 27 4 27 9 0 12 -8 12 -35 0z"/>
<path d="M3314 4919 c-19 -22 -19 -22 4 -10 12 6 22 16 22 21 0 15 -5 12 -26
-11z"/>
<path d="M3005 4880 c3 -5 8 -10 11 -10 2 0 4 5 4 10 0 6 -5 10 -11 10 -5 0
-7 -4 -4 -10z"/>
<path d="M2620 4802 c0 -12 19 -26 26 -19 2 2 -2 10 -11 17 -9 8 -15 8 -15 2z"/>
<path d="M2770 4566 c0 -11 30 -66 36 -66 2 0 -3 15 -12 33 -19 36 -24 44 -24
33z"/>
<path d="M2994 4465 c11 -8 27 -15 35 -15 10 1 7 6 -9 15 -33 19 -50 18 -26 0z"/>
<path d="M3310 4454 l-35 -14 35 5 c19 3 39 10 44 15 14 14 -2 12 -44 -6z"/>
<path d="M1128 2810 c40 -25 51 -51 54 -137 3 -63 1 -68 -22 -80 -18 -9 -20
-13 -8 -13 10 0 26 9 37 21 18 20 20 20 29 2 7 -13 4 -33 -11 -70 -22 -60 -36
-65 -103 -34 -53 24 -58 34 -39 71 14 26 19 29 31 19 12 -10 18 -9 32 6 15 17
15 17 0 6 -14 -10 -20 -7 -41 21 -50 68 -57 84 -59 128 l-1 45 -6 -50 c-4 -31
-2 -54 5 -60 6 -5 21 -24 32 -42 l22 -31 -27 -42 c-28 -42 -28 -42 -77 -36
-66 7 -82 23 -67 68 8 24 24 42 51 57 22 12 40 25 40 27 0 3 -18 -5 -41 -18
-47 -26 -64 -57 -104 -186 -27 -89 -27 -90 -10 -135 13 -34 25 -48 46 -56 16
-6 37 -24 47 -42 37 -67 51 -79 95 -79 27 0 59 -10 87 -26 41 -23 48 -24 86
-14 32 9 50 9 76 0 28 -10 43 -9 103 9 58 18 74 27 95 58 33 48 77 91 98 96 9
2 6 4 -8 3 -14 0 -33 -7 -42 -15 -16 -13 -18 -11 -18 16 0 19 -12 45 -30 68
-16 21 -31 45 -31 54 -5 70 -11 88 -36 109 l-28 23 45 -20 c53 -23 75 -59 92
-152 7 -35 14 -56 16 -46 5 22 -13 106 -33 153 -10 24 -24 38 -46 46 -23 8
-27 13 -17 19 9 6 3 8 -19 7 -17 -1 -38 4 -46 10 -12 10 -16 10 -19 0 -7 -18
-43 44 -60 99 -8 27 -20 45 -32 49 -11 4 -36 23 -56 44 -33 34 -88 70 -107 70
-4 0 7 -9 25 -20z m177 -234 c40 -17 53 -52 35 -95 l-12 -29 -56 25 c-31 14
-58 26 -60 28 -7 6 39 85 49 85 5 0 25 -6 44 -14z m123 -125 c3 -46 1 -51 -18
-51 -12 0 -34 7 -51 15 -29 16 -29 16 -13 48 9 17 17 44 16 60 l-1 29 32 -25
c28 -21 32 -32 35 -76z m46 -93 c19 -27 21 -45 4 -26 -29 30 -40 48 -30 48 6
0 18 -10 26 -22z"/>
<path d="M1054 2804 c-18 -14 -18 -14 6 -3 31 14 36 19 24 19 -6 0 -19 -7 -30
-16z"/>
<path d="M1545 2670 c-33 -16 -55 -29 -50 -29 6 0 37 13 70 29 33 15 56 28 50
28 -5 0 -37 -12 -70 -28z"/>
<path d="M1317 2655 c9 -19 18 -33 21 -31 4 5 -26 66 -33 66 -3 0 3 -16 12
-35z"/>
<path d="M1675 2641 c-6 -6 -50 -26 -100 -45 -49 -19 -84 -35 -77 -36 15 0
157 55 192 75 16 9 19 14 10 15 -9 0 -20 -4 -25 -9z"/>
<path d="M1450 2630 c-8 -5 -10 -10 -5 -10 6 0 17 5 25 10 8 5 11 10 5 10 -5
0 -17 -5 -25 -10z"/>
<path d="M1340 2601 c0 -18 18 -21 30 -6 10 13 9 15 -9 15 -11 0 -21 -4 -21
-9z"/>
<path d="M5312 1730 c0 -14 2 -19 5 -12 2 6 2 18 0 25 -3 6 -5 1 -5 -13z"/>
<path d="M5302 1680 c0 -14 2 -19 5 -12 2 6 2 18 0 25 -3 6 -5 1 -5 -13z"/>
<path d="M5272 1530 c0 -14 2 -19 5 -12 2 6 2 18 0 25 -3 6 -5 1 -5 -13z"/>
<path d="M2165 1090 c-38 -26 -182 -105 -320 -175 -349 -178 -561 -295 -845
-465 -298 -178 -707 -450 -676 -450 4 0 45 26 89 59 336 242 836 536 1413 833
289 149 375 198 403 232 18 22 16 21 -64 -34z"/>
<path d="M1920 1070 c-19 -11 -30 -19 -25 -19 6 0 26 8 45 19 19 11 31 19 25
19 -5 0 -26 -8 -45 -19z"/>
<path d="M1830 1030 c-19 -11 -30 -19 -25 -19 6 0 26 8 45 19 19 11 31 19 25
19 -5 0 -26 -8 -45 -19z"/>
<path d="M1730 985 c-25 -13 -40 -24 -35 -24 6 0 30 11 55 24 25 13 41 24 35
24 -5 0 -30 -11 -55 -24z"/>
<path d="M1508 879 c-54 -27 -98 -51 -98 -54 0 -5 199 92 209 101 15 14 -27
-4 -111 -47z"/>
<path d="M2842 890 c0 -14 2 -19 5 -12 2 6 2 18 0 25 -3 6 -5 1 -5 -13z"/>
<path d="M2826 824 c-4 -14 -5 -28 -3 -31 3 -2 8 8 11 23 4 14 5 28 3 31 -3 2
-8 -8 -11 -23z"/>
<path d="M1298 769 c-32 -16 -58 -32 -58 -34 0 -3 27 8 60 25 33 17 60 32 60
35 0 7 2 8 -62 -26z"/>
<path d="M1188 709 c-21 -11 -38 -22 -38 -24 0 -3 18 4 40 15 22 11 40 23 40
25 0 7 0 7 -42 -16z"/>
<path d="M5046 548 c-4 -102 -3 -175 2 -180 6 -6 20 -8 33 -6 20 2 27 14 46
78 15 50 21 100 21 150 l-1 75 -7 -80 c-4 -44 -15 -110 -25 -147 -15 -59 -21
-68 -40 -68 l-23 0 5 175 c3 96 3 175 1 175 -3 0 -8 -77 -12 -172z"/>
<path d="M1108 664 c-38 -20 -36 -28 2 -9 17 9 30 18 30 20 0 7 -1 6 -32 -11z"/>
<path d="M4766 598 c-23 -118 -22 -136 11 -144 14 -4 33 -3 42 3 21 12 58 88
65 133 4 24 0 18 -12 -18 -9 -30 -21 -50 -25 -45 -5 4 -8 4 -6 -2 1 -5 -3 -22
-9 -37 -8 -20 -19 -28 -37 -28 -34 0 -40 19 -21 65 15 35 18 37 47 31 27 -5
30 -4 19 9 -17 20 -46 19 -54 -1 -13 -34 -16 -6 -5 50 6 32 8 60 6 62 -2 3
-12 -33 -21 -78z"/>
<path d="M1038 624 c-38 -20 -36 -28 2 -9 17 9 30 18 30 20 0 7 -1 6 -32 -11z"/>
<path d="M974 584 c-18 -14 -18 -15 4 -4 12 6 22 13 22 15 0 8 -5 6 -26 -11z"/>
<path d="M815 489 c-71 -44 -134 -85 -140 -92 -5 -6 3 -3 19 7 15 10 79 49
142 88 98 60 124 78 112 78 -2 0 -61 -37 -133 -81z"/>
<path d="M3528 493 c7 -3 16 -2 19 1 4 3 -2 6 -13 5 -11 0 -14 -3 -6 -6z"/>
<path d="M3473 483 c9 -2 23 -2 30 0 6 3 -1 5 -18 5 -16 0 -22 -2 -12 -5z"/>
<path d="M3418 473 c6 -2 18 -2 25 0 6 3 1 5 -13 5 -14 0 -19 -2 -12 -5z"/>
<path d="M5076 452 c-3 -5 1 -9 9 -9 8 0 15 4 15 9 0 4 -4 8 -9 8 -6 0 -12 -4
-15 -8z"/>
<path d="M557 325 c-53 -36 -97 -68 -97 -70 0 -5 175 109 195 126 23 22 -8 4
-98 -56z"/>
<path d="M3251 308 c30 -101 30 -153 3 -288 -4 -19 -3 -21 4 -10 6 8 15 49 22
92 11 65 10 87 -4 152 -10 42 -21 78 -26 81 -5 3 -4 -9 1 -27z"/>
<path d="M2115 279 c-71 -5 -139 -11 -150 -13 -11 -3 21 -3 70 -1 220 11 549
17 543 10 -3 -3 -69 -20 -145 -36 -274 -58 -650 -161 -818 -223 -91 -33 -2
-13 142 34 269 86 818 218 929 222 34 2 60 6 58 9 -5 9 -484 7 -629 -2z"/>
<path d="M1858 253 c7 -3 16 -2 19 1 4 3 -2 6 -13 5 -11 0 -14 -3 -6 -6z"/>
<path d="M356 185 c-49 -35 -96 -71 -105 -80 -9 -9 32 18 92 60 92 67 116 86
105 85 -2 0 -43 -29 -92 -65z"/>
<path d="M2722 240 c74 -22 123 -61 171 -135 26 -41 50 -81 53 -89 3 -9 11
-16 16 -16 6 0 0 17 -12 38 -38 65 -145 211 -154 212 -5 0 -1 -9 9 -20 10 -11
15 -20 11 -20 -4 0 -24 9 -46 20 -22 11 -47 20 -57 19 -11 0 -8 -4 9 -9z"/>
<path d="M2618 233 c7 -3 16 -2 19 1 4 3 -2 6 -13 5 -11 0 -14 -3 -6 -6z"/>
<path d="M2525 210 c-13 -5 -14 -9 -5 -9 8 0 24 4 35 9 13 5 14 9 5 9 -8 0
-24 -4 -35 -9z"/>
<path d="M2417 178 c-32 -11 -57 -22 -54 -24 2 -2 35 7 73 20 38 14 62 24 54
24 -8 0 -41 -9 -73 -20z"/>
<path d="M2247 118 c-49 -16 -86 -32 -84 -34 4 -4 177 53 185 61 10 9 -13 3
-101 -27z"/>
<path d="M2863 55 c0 -33 2 -45 4 -27 2 18 2 45 0 60 -2 15 -4 0 -4 -33z"/>
<path d="M175 49 c-60 -49 -66 -55 -40 -41 22 12 103 81 95 81 -3 0 -27 -18
-55 -40z"/>
<path d="M2033 42 c-56 -20 -101 -38 -98 -40 4 -4 215 69 215 74 0 7 -15 3
-117 -34z"/>
</g>
</svg>
