<?xml version="1.0" standalone="no"?>
<!DOCTYPE svg PUBLIC "-//W3C//DTD SVG 20010904//EN"
 "http://www.w3.org/TR/2001/REC-SVG-20010904/DTD/svg10.dtd">
<svg version="1.0" xmlns="http://www.w3.org/2000/svg"
 width="363.000000pt" height="829.000000pt" viewBox="0 0 363.000000 829.000000"
 preserveAspectRatio="xMidYMid meet">

<g transform="translate(0.000000,829.000000) scale(0.100000,-0.100000)"
fill="#000000" stroke="none">
<path d="M2000 8144 c-142 -48 -336 -169 -367 -228 -11 -21 -7 -33 32 -102 47
-81 51 -94 36 -94 -5 0 -14 12 -19 28 -8 23 -11 25 -17 9 -4 -10 -1 -35 8 -57
18 -47 5 -65 -42 -58 -35 5 -31 -9 6 -23 24 -9 24 -11 10 -27 -19 -21 -67
-122 -67 -141 0 -10 10 -5 29 13 l30 28 -4 -43 c-2 -31 -8 -45 -21 -50 -17 -6
-15 -9 13 -25 37 -21 39 -26 18 -44 -23 -19 -18 -31 10 -20 24 9 25 8 19 -18
l-7 -27 22 22 c11 12 21 27 21 33 0 5 4 10 9 10 7 0 19 -29 25 -60 2 -11 42
-52 59 -61 17 -10 17 -9 3 20 -18 35 -20 45 -6 36 6 -3 10 -2 10 4 0 5 -4 12
-9 15 -14 9 -32 66 -20 66 5 0 9 -6 9 -13 0 -7 6 -22 14 -33 14 -18 15 -17 14
14 -2 52 17 62 48 24 20 -23 30 -29 39 -22 9 8 14 6 19 -6 3 -9 12 -14 20 -11
7 3 19 0 26 -6 8 -9 8 -5 -1 16 -8 18 -9 31 -2 38 13 13 41 1 45 -19 3 -13 8
-9 20 13 9 17 26 39 38 50 l23 20 -12 -23 c-23 -44 26 -6 54 41 27 47 60 80
88 90 14 5 17 0 17 -27 0 -19 3 -41 6 -50 4 -11 -11 -23 -53 -45 -76 -39 -97
-55 -63 -46 14 3 30 7 37 9 7 1 20 9 30 18 10 8 28 21 41 27 18 10 22 9 22 -4
0 -8 4 -15 10 -15 5 0 7 14 5 31 -2 17 0 40 5 52 7 17 9 18 9 5 1 -27 3 -32
18 -46 29 -29 16 -49 -37 -55 -62 -7 -83 -18 -111 -59 -21 -29 -14 -31 20 -4
19 15 44 17 53 3 6 -9 12 -9 27 0 17 11 21 10 26 -7 3 -11 3 -24 0 -30 -3 -5
-4 -10 -1 -10 4 0 13 18 22 40 15 38 34 54 34 29 0 -8 5 -8 15 1 13 11 14 8 9
-21 -3 -19 -15 -47 -26 -62 l-20 -29 23 13 c23 12 23 12 7 -12 -13 -20 -13
-26 -2 -37 17 -16 18 -36 2 -26 -9 5 -9 2 1 -9 7 -9 17 -17 22 -17 15 0 10 30
-6 47 -14 14 -13 17 12 30 35 18 63 43 63 56 0 5 -9 -1 -19 -14 -11 -13 -23
-21 -27 -16 -4 4 -2 13 4 19 7 7 12 21 12 31 0 18 2 18 23 5 12 -9 20 -18 17
-21 -7 -7 30 -47 44 -47 6 0 5 5 -2 12 -21 21 -13 29 26 23 30 -4 33 -3 15 4
-27 12 -28 17 -7 88 10 36 14 70 9 99 -8 54 5 57 35 9 12 -19 23 -35 26 -35 8
0 -35 103 -50 119 -14 16 -13 19 14 39 17 13 30 28 30 34 0 9 -3 9 -12 0 -17
-17 -57 -15 -64 2 -7 17 24 89 66 158 36 58 35 61 -47 139 -102 97 -239 176
-377 218 -80 25 -96 25 -156 5z m156 -24 c32 -11 100 -43 151 -71 98 -55 284
-194 291 -219 2 -8 -15 3 -39 26 -53 50 -152 124 -166 124 -5 0 -24 -34 -43
-75 -18 -42 -34 -74 -36 -72 -3 2 8 30 22 63 50 112 56 96 -64 157 -154 78
-184 84 -278 52 -83 -28 -174 -71 -174 -83 0 -4 11 -43 25 -87 13 -43 22 -81
20 -84 -5 -5 -7 0 -35 96 -14 47 -26 71 -33 67 -7 -3 -3 2 8 11 31 26 171 94
213 104 57 14 74 13 138 -9z m-101 -76 c-20 -16 -20 -16 2 -10 12 4 24 2 28
-4 4 -7 1 -10 -6 -8 -17 3 -79 -24 -79 -34 0 -5 -9 -17 -20 -28 -11 -11 -20
-15 -20 -8 0 15 90 108 105 108 5 0 1 -8 -10 -16z m55 -4 c0 -5 8 -7 18 -4 14
5 14 3 -2 -10 -11 -9 -21 -22 -23 -29 -1 -6 -7 -34 -14 -60 -8 -35 -8 -51 0
-61 9 -10 7 -15 -7 -18 -16 -5 -17 0 -11 46 3 28 10 60 14 71 8 18 7 19 -8 6
-15 -12 -17 -12 -11 3 3 9 15 21 26 27 15 8 17 13 7 25 -8 10 -8 14 0 14 6 0
11 -4 11 -10z m-56 -54 c-3 -9 -12 -16 -20 -16 -7 0 -11 -6 -8 -14 3 -8 1 -16
-4 -20 -16 -10 -6 33 13 54 20 23 29 21 19 -4z m150 -55 c-3 -3 -9 1 -14 9 -8
12 -10 11 -10 -6 0 -14 -12 -28 -35 -40 -31 -16 -37 -17 -45 -4 -6 9 -5 19 1
25 6 6 12 6 17 -2 5 -8 14 -7 31 6 13 10 21 23 17 30 -9 14 -46 15 -46 0 0 -5
-4 -7 -10 -4 -6 4 -4 18 6 37 l16 30 39 -38 c21 -21 36 -40 33 -43z m-454 55
c0 -2 -8 -10 -17 -17 -16 -13 -17 -12 -4 4 13 16 21 21 21 13z m-40 -30 c0 -2
-8 -10 -17 -17 -16 -13 -17 -12 -4 4 13 16 21 21 21 13z m282 -31 c3 -13 1
-22 -3 -19 -9 5 -13 44 -5 44 2 0 6 -11 8 -25z m-322 2 c0 -2 -10 -12 -22 -23
l-23 -19 19 23 c18 21 26 27 26 19z m370 -47 c-24 -15 -37 -11 -16 5 11 8 22
12 25 9 3 -3 -1 -9 -9 -14z m38 -50 c-7 -11 -15 -15 -17 -9 -2 6 3 15 10 20
20 12 21 11 7 -11z m67 -81 c97 -13 205 -41 269 -68 78 -34 47 -35 -66 -2 -56
17 -132 35 -168 41 -98 15 -286 12 -354 -5 -33 -9 -61 -14 -63 -11 -2 2 24 11
59 20 35 9 79 20 98 25 49 13 135 13 225 0z m175 -159 c0 -5 -4 -10 -10 -10
-5 0 -10 5 -10 10 0 6 5 10 10 10 6 0 10 -4 10 -10z m-441 -148 c-6 -3 -6 -9
2 -18 6 -8 8 -14 3 -14 -4 0 1 -7 12 -15 18 -15 17 -16 -16 -9 -42 8 -49 13
-31 23 7 5 12 10 12 12 0 2 2 15 6 27 4 18 8 20 14 10 5 -7 4 -14 -2 -16z
m131 -72 c0 -5 -4 -10 -10 -10 -5 0 -10 5 -10 10 0 6 5 10 10 10 6 0 10 -4 10
-10z m295 -19 c3 -5 1 -12 -5 -16 -5 -3 -10 1 -10 9 0 18 6 21 15 7z"/>
<path d="M1846 7315 c4 -8 10 -15 15 -15 4 0 6 7 3 15 -4 8 -10 15 -15 15 -4
0 -6 -7 -3 -15z"/>
<path d="M2210 7301 c0 -9 30 -24 36 -18 2 1 -6 8 -16 15 -11 7 -20 8 -20 3z"/>
<path d="M1710 7281 c0 -6 4 -13 10 -16 6 -3 7 1 4 9 -7 18 -14 21 -14 7z"/>
<path d="M1740 7226 c0 -2 8 -10 18 -17 15 -13 16 -12 3 4 -13 16 -21 21 -21
13z"/>
<path d="M2259 7049 c-52 -53 -176 -139 -201 -139 -18 0 -94 54 -150 108 l-38
36 -23 -22 c-14 -13 -37 -22 -58 -23 -40 -2 -101 -16 -79 -19 26 -3 -22 -19
-60 -19 -26 -1 -31 2 -20 9 12 8 10 10 -11 10 -31 0 -85 -52 -73 -72 4 -7 4
-10 -1 -6 -4 4 -19 -1 -32 -12 -14 -11 -47 -23 -74 -26 -27 -4 -49 -10 -49
-15 0 -5 -5 -9 -11 -9 -5 0 -8 4 -5 8 2 4 -4 13 -15 20 -16 10 -19 9 -19 -3 0
-19 -10 -19 -38 1 -16 11 -20 19 -13 28 7 8 4 12 -10 13 -10 1 -19 -4 -19 -11
0 -15 29 -55 30 -41 0 6 4 4 9 -3 4 -7 19 -13 32 -14 13 -1 47 -8 74 -17 47
-15 49 -17 33 -33 -9 -9 -19 -14 -22 -11 -3 3 -11 -6 -17 -21 -7 -14 -16 -26
-20 -26 -4 0 -6 -7 -5 -16 3 -20 32 -38 41 -25 3 6 13 7 23 4 14 -5 15 -3 5 7
-9 10 -16 10 -25 2 -8 -6 -19 -7 -27 -2 -11 6 -4 18 27 51 45 49 58 48 44 -3
-10 -36 4 -130 34 -221 13 -39 14 -54 4 -80 -7 -17 -27 -88 -45 -157 -27 -104
-37 -126 -56 -135 -13 -5 -33 -19 -45 -30 -12 -11 -51 -37 -86 -58 -34 -20
-69 -46 -76 -58 l-13 -21 31 19 c17 10 36 24 42 30 13 16 52 -3 88 -41 24 -27
24 -27 8 -86 -23 -85 -6 -66 21 24 19 64 25 73 42 69 15 -4 22 3 34 31 19 45
19 56 0 56 -17 0 -15 5 115 275 45 94 107 231 137 305 29 74 58 139 62 143 4
4 11 -17 15 -47 3 -30 11 -66 17 -79 9 -20 1 -49 -56 -193 -84 -214 -131 -301
-228 -427 -119 -154 -159 -219 -154 -245 2 -12 0 -25 -4 -28 -8 -5 -13 9 -10
28 0 4 -12 0 -27 -8 -15 -7 -33 -14 -41 -14 -9 0 -6 -12 12 -42 26 -45 59 -56
100 -36 13 7 30 0 66 -26 70 -51 111 -66 187 -66 72 0 74 -3 49 -64 -6 -15 -5
-17 5 -11 9 5 11 4 6 -4 -4 -6 -11 -9 -15 -7 -4 3 -18 -9 -31 -26 -19 -26 -22
-39 -17 -86 3 -30 2 -62 -3 -71 -13 -26 -59 -201 -51 -198 3 1 47 -38 97 -88
49 -49 110 -101 134 -115 55 -32 117 -91 159 -153 18 -26 36 -45 42 -42 5 3 6
-1 3 -10 -4 -9 5 -30 20 -49 20 -27 32 -34 54 -32 15 2 33 4 40 5 7 0 11 5 8
10 -4 5 3 7 14 4 11 -3 31 2 45 11 46 30 26 35 -44 11 -69 -23 -70 -23 -87 -4
-16 17 -16 22 -4 29 13 8 12 10 -2 10 -9 0 -19 -6 -21 -12 -3 -8 -6 -6 -6 5
-1 25 -31 67 -47 67 -8 0 -14 5 -14 11 0 5 6 7 13 3 8 -5 8 -3 -2 9 -7 9 -17
15 -21 12 -4 -3 -7 3 -6 13 0 9 -4 16 -10 15 -6 -1 -11 5 -11 13 0 12 7 14 31
9 98 -20 154 -26 269 -26 70 1 139 4 153 7 20 5 26 2 31 -15 3 -11 10 -18 16
-14 6 3 7 1 3 -6 -4 -6 -11 -9 -16 -6 -4 3 -11 -1 -13 -7 -4 -10 -6 -10 -6 -1
-1 15 -52 -10 -104 -52 -7 -5 -19 -11 -27 -13 -19 -5 -40 -22 -40 -33 0 -10
44 8 81 33 14 9 29 15 32 12 3 -3 8 4 12 15 3 12 11 21 16 21 6 0 7 -4 4 -10
-3 -5 -2 -10 4 -10 5 0 11 3 13 8 2 4 17 14 34 23 30 16 33 16 63 -3 36 -23
39 -48 16 -143 -8 -33 -14 -80 -15 -105 0 -25 -9 -112 -20 -194 -11 -81 -19
-158 -19 -170 2 -36 48 296 49 351 0 28 7 79 16 114 9 34 14 79 12 100 -2 22
0 39 4 39 9 0 10 -8 10 -115 0 -74 1 -76 7 -25 3 30 9 50 13 44 4 -6 22 -10
40 -9 18 2 39 -3 47 -9 8 -6 16 -10 18 -8 1 1 6 2 11 2 4 0 0 -5 -8 -10 -12
-8 -11 -10 7 -10 12 0 25 -5 29 -12 5 -7 2 -9 -8 -6 -12 5 -12 0 3 -29 10 -20
25 -43 34 -53 13 -14 14 -19 3 -24 -10 -5 -10 -7 0 -12 6 -3 12 -10 12 -15 0
-6 -4 -7 -10 -4 -15 9 -12 -4 4 -20 10 -10 16 -11 25 -2 8 8 11 8 11 0 0 -19
-20 -26 -35 -13 -11 9 -17 7 -27 -9 -7 -12 -16 -21 -21 -21 -4 0 -5 5 -1 11 4
8 -1 9 -16 4 -16 -5 -20 -4 -15 5 5 9 2 10 -14 5 -14 -4 -21 -2 -21 7 0 8 -18
31 -40 52 -22 21 -40 43 -40 49 -1 28 -20 -21 -20 -50 0 -32 14 -45 22 -21 3
7 7 5 11 -6 5 -11 3 -15 -5 -10 -23 15 3 -16 32 -36 25 -18 29 -19 23 -4 -4
12 -3 15 5 10 7 -4 12 -13 12 -21 0 -7 7 -15 14 -18 11 -4 13 -1 10 11 -5 15
-4 15 9 0 15 -19 32 -25 22 -8 -3 6 1 10 9 10 8 0 18 -4 21 -10 9 -15 25 -12
19 4 -3 7 2 16 12 20 12 4 15 2 10 -9 -10 -27 2 -16 19 17 13 26 13 35 3 43
-7 5 -14 17 -14 25 -1 8 -5 33 -9 54 -5 26 -4 37 3 32 6 -4 8 2 5 14 -3 10
-14 22 -24 25 -21 7 -25 25 -9 41 6 6 3 10 -10 10 -13 0 -19 -5 -15 -14 2 -7
0 -10 -5 -7 -19 12 -10 33 21 47 23 12 27 17 15 21 -9 4 -20 -1 -25 -11 -6 -9
-11 -12 -11 -6 0 6 -6 11 -14 11 -8 0 -11 -8 -8 -20 3 -14 1 -18 -6 -13 -7 4
-12 2 -12 -4 0 -6 -5 -8 -11 -4 -8 4 -7 9 2 15 10 6 11 11 3 17 -6 4 -14 20
-18 36 -6 23 -11 27 -31 24 -13 -3 -22 -2 -20 2 3 4 -5 10 -18 14 -31 7 -117
65 -117 79 0 6 10 1 23 -10 33 -31 108 -67 101 -49 -3 8 -14 16 -25 19 -19 5
-27 37 -9 37 6 0 18 8 28 18 10 10 29 26 42 35 14 9 19 17 12 17 -8 0 -10 5
-6 12 4 7 3 8 -4 4 -7 -4 -12 -14 -12 -21 0 -9 -6 -12 -15 -9 -23 9 -18 34 11
44 33 13 32 13 37 -7 4 -15 5 -15 6 2 1 17 3 18 11 5 8 -13 10 -13 10 1 0 21
81 50 88 31 2 -7 10 -12 18 -12 8 0 14 -6 14 -12 0 -9 4 -8 10 2 8 12 10 11
10 -6 0 -11 5 -25 12 -32 9 -9 8 -15 -8 -28 -19 -15 -19 -15 1 -5 11 5 29 17
40 25 16 13 17 15 3 10 -13 -4 -18 -1 -18 12 0 16 -2 17 -10 4 -8 -12 -10 -11
-10 7 0 21 -30 47 -44 38 -3 -3 -4 -2 -1 2 3 3 0 12 -5 19 -8 8 -7 11 2 10 7
0 13 4 13 9 0 6 -4 8 -10 6 -23 -9 -95 -9 -90 0 8 12 -18 7 -27 -6 -5 -6 -8
-5 -8 4 0 7 -6 11 -13 8 -28 -11 -41 10 -38 60 1 26 7 53 12 59 5 6 5 24 -1
43 -7 27 -4 42 17 86 15 30 34 56 42 58 9 2 -15 2 -54 0 l-70 -4 -26 43 c-37
60 -219 389 -258 467 -43 84 -56 154 -76 401 -10 113 -19 207 -21 209 -2 3
-10 -2 -17 -11 -6 -9 -53 -43 -102 -75 -50 -33 -97 -68 -104 -77 -7 -9 -17
-16 -20 -16 -4 0 -32 50 -61 112 -37 77 -54 122 -53 147 3 70 15 166 23 175 9
9 73 -34 107 -74 12 -14 22 -20 23 -14 0 12 -41 51 -87 83 -18 12 -33 26 -33
30 0 12 55 91 93 136 l34 39 39 -32 c21 -18 47 -32 58 -32 22 0 71 28 148 87
32 24 55 38 52 30 -5 -15 14 -39 43 -56 15 -8 8 -18 -42 -72 -65 -71 -93 -124
-101 -196 -3 -26 -7 -60 -9 -75 -4 -24 -2 -26 16 -19 17 6 22 18 25 61 6 71
33 129 92 198 28 31 59 73 71 92 11 19 21 31 21 27 0 -16 -23 -52 -81 -127
-32 -42 -65 -91 -73 -110 -19 -48 -30 -120 -18 -120 12 0 122 109 122 121 0 5
4 9 9 9 5 0 11 -80 14 -177 4 -120 15 -243 35 -377 35 -235 40 -247 227 -533
65 -98 120 -184 122 -190 3 -8 -3 -13 -13 -13 -9 0 -15 -3 -11 -6 3 -3 41 7
83 23 122 44 183 118 200 241 7 59 25 73 19 15 -4 -35 -4 -36 4 -8 13 45 13
67 -1 59 -7 -4 -8 -3 -4 5 7 10 -50 109 -132 231 -13 19 -19 36 -13 38 6 2 35
-4 65 -12 53 -16 54 -17 89 -91 35 -74 51 -87 75 -63 15 15 16 -3 2 -51 -8
-29 -6 -38 15 -66 23 -30 25 -40 25 -147 0 -91 3 -118 15 -128 10 -8 16 -34
17 -79 2 -60 2 -57 7 28 l6 94 53 18 c49 17 58 17 110 4 31 -8 65 -15 75 -15
16 0 18 -5 12 -32 -16 -79 -17 -83 -8 -70 6 7 25 21 44 31 31 16 34 23 37 67
2 27 8 54 14 62 8 9 7 24 -2 53 -12 36 -11 46 10 105 21 60 22 71 11 134 -6
38 -11 93 -11 123 l0 55 -197 199 c-109 109 -220 214 -246 232 -27 18 -51 40
-55 49 -3 10 -32 60 -64 113 -57 95 -101 136 -118 109 -4 -7 -10 -11 -14 -10
-3 1 -21 -2 -39 -5 -45 -10 -93 -49 -100 -82 -7 -29 -109 -153 -164 -198 -31
-25 -32 -25 -42 -7 -6 11 -13 34 -16 53 -10 60 -35 138 -47 145 -22 14 -2 -92
31 -162 l32 -69 -38 -32 c-21 -18 -41 -33 -45 -33 -10 0 -17 60 -28 245 -11
165 -10 172 11 219 24 54 31 123 14 130 -6 2 -17 22 -23 45 -7 23 -22 46 -35
52 -12 7 -24 15 -27 18 -3 4 -25 -14 -51 -40z m32 -56 c13 -16 12 -17 -3 -4
-17 13 -22 21 -14 21 2 0 10 -8 17 -17z m-481 3 c0 -2 -8 -10 -17 -17 -16 -13
-17 -12 -4 4 13 16 21 21 21 13z m-200 -19 c0 -2 -12 -14 -26 -28 -25 -22 -26
-23 -15 -2 9 18 19 26 39 32 1 1 2 0 2 -2z m741 -90 c-10 -9 -11 -8 -5 6 3 10
9 15 12 12 3 -3 0 -11 -7 -18z m-691 -9 c0 -5 -16 -7 -35 -5 -19 1 -35 5 -35
9 0 5 16 7 35 5 19 -1 35 -5 35 -9z m77 -32 c-12 -18 -24 -29 -26 -24 -2 5
-14 -1 -27 -13 -22 -21 -23 -24 -8 -41 16 -17 13 -28 -52 -182 -54 -129 -71
-160 -77 -144 -4 11 -10 80 -14 152 l-6 132 55 26 c31 15 72 41 92 58 20 18
36 29 36 25 0 -4 9 4 21 19 29 37 32 32 6 -8z m-257 5 c0 -16 -19 -23 -43 -15
-21 7 -21 7 -2 15 28 11 45 11 45 0z m134 0 c3 -4 -7 -6 -22 -4 -21 4 -24 2
-12 -6 12 -9 9 -11 -15 -11 -29 1 -29 1 -11 15 22 17 52 20 60 6z m-14 -56
c-7 -9 -19 -14 -26 -11 -8 3 -13 0 -11 -6 1 -6 -4 -13 -10 -15 -8 -3 -13 4
-13 16 0 15 8 21 33 24 17 2 34 5 36 5 2 1 -2 -5 -9 -13z m641 -72 c-12 -20
-14 -14 -5 12 4 9 9 14 11 11 3 -2 0 -13 -6 -23z m-341 -398 c6 -4 19 0 28 8
17 15 199 137 204 137 2 0 4 -46 6 -103 4 -164 21 -325 43 -415 l21 -85 -28
-27 c-126 -121 -258 -239 -302 -268 -61 -41 -64 -56 -3 -18 48 31 116 90 264
233 59 57 107 99 107 94 0 -16 -190 -209 -267 -271 -72 -58 -231 -149 -173
-99 14 12 24 23 22 25 -1 3 27 63 62 134 54 108 156 384 156 423 0 6 -23 -28
-51 -75 -29 -48 -81 -125 -116 -172 l-65 -86 -40 82 c-50 104 -78 212 -81 308
-1 66 4 91 47 215 27 77 50 146 52 154 3 7 26 -32 53 -87 27 -55 54 -103 61
-107z m694 24 c25 -22 46 -49 46 -59 0 -25 -26 -43 -53 -36 -30 7 -39 -1 -26
-25 8 -16 6 -19 -11 -19 -17 0 -20 4 -15 21 6 19 4 20 -22 15 -22 -5 -34 -2
-47 13 -17 19 -17 22 20 75 22 31 44 56 50 56 6 0 32 -18 58 -41z m-1114 -16
c-11 -17 -11 -17 -6 0 3 10 6 24 7 30 0 9 2 9 5 0 3 -7 0 -20 -6 -30z m1181
-229 c37 -38 31 -64 -15 -64 -24 0 -41 10 -73 43 -37 38 -63 76 -63 91 0 18
32 2 44 -21 8 -16 26 -39 40 -52 19 -18 23 -27 14 -33 -8 -5 2 -8 25 -8 20 0
37 4 37 8 0 5 -14 21 -31 38 -41 38 -63 81 -46 87 6 2 18 -10 25 -27 8 -17 27
-45 43 -62z m-1053 29 c-1 -51 -2 -53 -5 -15 -3 26 -8 40 -15 36 -6 -4 -6 2 1
15 18 32 21 26 19 -36z m-58 -37 c-16 -25 -35 -48 -41 -52 -6 -3 6 17 26 45
45 63 58 68 15 7z m-156 5 c3 -4 -7 -6 -22 -3 -24 5 -26 3 -13 -11 7 -9 17
-14 22 -11 5 3 9 -5 9 -17 0 -21 -1 -21 -21 5 -11 14 -27 26 -35 26 -8 0 -12
5 -9 10 8 12 62 13 69 1z m1322 -10 c-4 -5 -1 -11 5 -13 7 -2 4 -10 -7 -18
-16 -14 -17 -13 -11 3 3 9 2 17 -4 17 -6 0 -7 5 -4 10 3 6 11 10 16 10 6 0 8
-4 5 -9z m-1371 -46 c37 -36 30 -53 -7 -19 -18 16 -37 32 -42 36 -6 5 -2 8 7
8 10 0 29 -11 42 -25z m294 -95 c0 -8 -7 8 -15 35 -7 28 -13 57 -13 65 0 8 7
-7 15 -35 7 -27 13 -57 13 -65z m-184 20 c-25 -33 -48 -60 -51 -60 -3 0 16 27
41 60 25 33 48 60 51 60 3 0 -16 -27 -41 -60z m1205 40 c-16 -11 -40 -13 -40
-5 0 8 44 24 50 18 2 -2 -2 -8 -10 -13z m-70 0 c-8 -5 -19 -10 -25 -10 -5 0
-3 5 5 10 8 5 20 10 25 10 6 0 3 -5 -5 -10z m198 -16 c9 -6 19 -73 13 -82 -8
-13 -62 -3 -59 12 1 6 -3 21 -10 34 -7 12 -10 26 -7 31 3 5 -1 12 -7 15 -7 3
5 3 27 -1 22 -3 42 -7 43 -9z m-252 -9 c-25 -19 -18 -19 29 1 54 22 54 10 -1
-15 -38 -18 -49 -20 -55 -9 -9 13 15 38 35 38 6 0 2 -7 -8 -15z m-889 -92 c-3
-10 -5 -4 -5 12 0 17 2 24 5 18 2 -7 2 -21 0 -30z m10 -60 c-3 -10 -5 -4 -5
12 0 17 2 24 5 18 2 -7 2 -21 0 -30z m-297 -89 c0 -15 -5 -13 -31 13 -17 17
-29 36 -25 41 9 15 56 -31 56 -54z m307 29 c-3 -10 -5 -4 -5 12 0 17 2 24 5
18 2 -7 2 -21 0 -30z m1695 16 c121 -28 128 -34 128 -121 0 -61 -2 -69 -17
-64 -70 20 -186 46 -210 46 l-29 0 7 58 c4 31 8 67 8 80 1 27 -2 27 113 1z
m-147 -6 c-52 -27 -65 -44 -66 -87 -2 -32 -3 -35 -6 -12 -7 48 5 74 45 95 20
11 42 20 47 20 6 0 -3 -7 -20 -16z m-1714 -83 c56 -34 73 -40 121 -40 36 0 58
5 61 13 3 7 6 4 6 -7 1 -16 -6 -18 -71 -14 -67 3 -79 7 -144 51 -39 25 -79 57
-90 69 -15 18 -13 18 16 -5 19 -15 65 -45 101 -67z m-186 50 c10 -11 14 -20 9
-20 -5 0 -15 9 -22 20 -7 11 -11 20 -9 20 2 0 12 -9 22 -20z m362 -47 c-3 -10
-5 -4 -5 12 0 17 2 24 5 18 2 -7 2 -21 0 -30z m1508 -77 c-22 -12 -41 -22 -43
-21 -7 5 11 34 19 29 5 -3 17 0 26 5 10 6 23 10 28 11 6 0 -8 -11 -30 -24z
m174 -26 c88 -20 131 -34 131 -46 0 -2 -10 -2 -22 0 -13 3 -64 12 -113 22
l-90 17 -63 -25 c-78 -32 -85 -13 -9 24 28 14 57 26 62 27 6 0 53 -8 104 -19z
m-1679 -63 c0 -2 -10 -12 -22 -23 l-23 -19 19 23 c18 21 26 27 26 19z m1777
-17 c1 -11 -2 -22 -8 -25 -5 -4 -9 5 -9 19 0 30 15 35 17 6z m-297 -6 c0 -8
-5 -12 -10 -9 -6 4 -8 11 -5 16 9 14 15 11 15 -7z m-1483 -60 c-3 -3 -12 -4
-19 -1 -8 3 -5 6 6 6 11 1 17 -2 13 -5z m63 -193 c0 -4 -8 -7 -17 -8 -10 -1
-33 -5 -50 -9 -32 -6 -33 -5 -34 27 0 19 -2 44 -5 57 -4 20 1 19 51 -19 30
-23 55 -44 55 -48z m100 -51 c6 -11 8 -20 6 -20 -3 0 -10 9 -16 20 -6 11 -8
20 -6 20 3 0 10 -9 16 -20z m-200 6 c0 -2 -7 -7 -16 -10 -8 -3 -12 -2 -9 4 6
10 25 14 25 6z m351 -77 c27 -7 49 -17 49 -21 0 -5 -21 -18 -47 -30 l-47 -21
-24 29 -25 29 17 -27 c9 -16 13 -28 9 -28 -5 0 -16 14 -25 31 -10 16 -13 27
-8 24 15 -9 12 7 -5 29 -24 31 -18 35 21 16 19 -10 57 -24 85 -31z m563 -17
c-11 -9 -35 -36 -53 -59 -37 -48 -54 -53 -88 -21 -22 21 -23 21 -43 3 -11 -10
-17 -22 -14 -26 3 -5 -6 -9 -20 -9 -14 0 -27 -4 -30 -9 -3 -4 -30 15 -61 42
-38 35 -51 53 -43 58 7 3 81 9 163 12 83 3 161 10 175 15 35 15 38 14 14 -6z
m-784 -42 c0 -5 -2 -10 -4 -10 -3 0 -8 5 -11 10 -3 6 -1 10 4 10 6 0 11 -4 11
-10z m25 -20 c3 -5 1 -10 -4 -10 -6 0 -11 5 -11 10 0 6 2 10 4 10 3 0 8 -4 11
-10z m900 -6 c-8 -6 -11 -14 -8 -18 4 -4 -6 -2 -22 4 -23 9 -30 8 -37 -5 -10
-17 -48 -21 -48 -5 0 6 6 10 14 10 8 0 16 6 19 14 4 9 21 13 51 12 36 -1 43
-3 31 -12z m-705 -52 c30 -32 42 -43 26 -25 -17 18 -27 33 -23 33 14 0 65 -65
60 -77 -9 -23 -156 21 -188 57 -10 11 -21 18 -24 15 -4 -2 -7 5 -8 15 -1 15 8
21 40 28 23 6 47 10 52 11 6 1 35 -25 65 -57z m410 34 c0 -8 5 -18 12 -22 7
-4 8 -3 4 5 -4 6 10 0 31 -15 62 -42 66 -73 8 -74 -34 0 -48 20 -28 42 13 14
14 21 5 30 -11 11 -17 1 -13 -24 0 -3 -12 -3 -28 2 -30 8 -62 -2 -42 -14 6 -4
15 -5 20 -1 5 3 13 0 17 -6 5 -8 3 -9 -6 -4 -9 5 -11 4 -6 -3 4 -7 14 -12 22
-12 8 0 14 -4 14 -10 0 -14 -57 -21 -150 -18 l-85 3 65 32 c36 18 73 33 82 33
20 0 69 50 62 62 -3 4 0 8 5 8 6 0 11 -6 11 -14z m-588 -4 c-7 -2 -9 -9 -5
-15 5 -9 3 -9 -8 -1 -8 7 -23 14 -34 17 -11 2 -2 4 20 4 22 0 34 -2 27 -5z
m48 -52 c0 -5 -2 -10 -4 -10 -3 0 -8 5 -11 10 -3 6 -1 10 4 10 6 0 11 -4 11
-10z m615 -120 c3 -6 -1 -7 -9 -4 -18 7 -21 14 -7 14 6 0 13 -4 16 -10z m95
-69 c0 -5 9 -11 21 -14 12 -3 18 -10 14 -16 -3 -7 0 -8 9 -5 10 4 16 1 16 -7
0 -7 -3 -9 -7 -6 -3 4 -16 0 -29 -8 -20 -13 -23 -12 -30 3 -10 23 -12 62 -2
62 4 0 8 -4 8 -9z m-515 -71 c3 -5 1 -10 -4 -10 -6 0 -11 5 -11 10 0 6 2 10 4
10 3 0 8 -4 11 -10z m695 -80 c0 -5 -4 -10 -10 -10 -5 0 -10 5 -10 10 0 6 5
10 10 10 6 0 10 -4 10 -10z m-155 -150 c3 -5 1 -10 -4 -10 -6 0 -11 5 -11 10
0 6 2 10 4 10 3 0 8 -4 11 -10z"/>
<path d="M1546 6645 c-3 -9 -6 -26 -5 -38 1 -14 4 -9 9 13 9 37 7 52 -4 25z"/>
<path d="M2525 6308 c9 -41 14 -50 25 -43 4 2 7 19 6 37 -1 23 -7 34 -20 36
-16 3 -17 -1 -11 -30z"/>
<path d="M2770 5945 c13 -14 26 -25 28 -25 3 0 -5 11 -18 25 -13 14 -26 25
-28 25 -3 0 5 -11 18 -25z"/>
<path d="M1324 5771 c20 -22 26 -25 26 -13 0 4 -10 13 -22 21 -23 14 -23 14
-4 -8z"/>
<path d="M3466 5687 c-5 -32 -6 -61 -2 -64 13 -13 17 7 14 63 l-3 59 -9 -58z"/>
<path d="M1955 6925 c4 -16 11 -48 14 -70 4 -26 9 -34 13 -24 8 20 -9 100 -24
114 -7 7 -8 1 -3 -20z"/>
<path d="M2199 6898 c-13 -28 -43 -81 -66 -117 -32 -49 -35 -57 -13 -31 31 36
115 188 108 196 -3 2 -15 -19 -29 -48z"/>
<path d="M2420 6926 c0 -3 50 -31 112 -62 61 -31 129 -67 151 -81 21 -13 41
-22 43 -20 6 6 -54 41 -186 108 -128 66 -120 62 -120 55z"/>
<path d="M2510 6910 c8 -5 20 -10 25 -10 6 0 3 5 -5 10 -8 5 -19 10 -25 10 -5
0 -3 -5 5 -10z"/>
<path d="M1304 6899 c-4 -7 -3 -9 4 -5 5 3 13 0 15 -6 4 -9 6 -10 6 -1 1 17
-16 25 -25 12z"/>
<path d="M2570 6887 c0 -7 112 -49 117 -43 2 2 -15 11 -39 19 -24 8 -51 18
-60 22 -10 4 -18 5 -18 2z"/>
<path d="M2770 6810 c8 -5 20 -10 25 -10 6 0 3 5 -5 10 -8 5 -19 10 -25 10 -5
0 -3 -5 5 -10z"/>
<path d="M2020 6670 c-8 -5 -10 -10 -5 -10 6 0 17 5 25 10 8 5 11 10 5 10 -5
0 -17 -5 -25 -10z"/>
<path d="M1710 6645 c-13 -15 -16 -82 -5 -93 12 -12 33 25 38 66 5 45 -9 56
-33 27z"/>
<path d="M2142 6545 c0 -16 2 -22 5 -12 2 9 2 23 0 30 -3 6 -5 -1 -5 -18z"/>
<path d="M2217 6491 c-23 -39 -22 -46 9 -66 24 -16 27 -16 45 1 25 23 24 46
-4 72 -29 28 -29 28 -50 -7z"/>
<path d="M1625 6456 c-19 -13 -31 -81 -16 -90 13 -8 38 25 45 61 8 36 -3 48
-29 29z"/>
<path d="M1522 6263 c-20 -39 -23 -73 -7 -80 22 -8 32 5 40 55 5 34 4 42 -9
42 -8 0 -19 -8 -24 -17z"/>
<path d="M2256 6246 c-21 -33 -20 -55 2 -72 26 -20 47 -17 62 12 16 28 8 48
-27 71 -18 12 -22 11 -37 -11z"/>
<path d="M813 6033 c11 -13 18 -39 20 -70 1 -39 5 -49 16 -45 11 4 13 -2 8
-24 -4 -25 -3 -26 8 -11 17 23 29 22 81 -9 35 -21 44 -31 44 -53 0 -15 -3 -30
-6 -34 -11 -11 -55 16 -50 30 3 8 1 11 -4 8 -5 -3 -27 3 -48 13 -35 17 -40 17
-49 3 -8 -13 -14 -12 -44 6 -19 11 -33 26 -31 34 2 10 -2 9 -11 -3 -15 -19
-65 -14 -84 9 -9 12 -14 4 -27 -40 -9 -30 -16 -65 -16 -76 0 -21 32 -61 49
-61 5 0 13 -9 16 -20 10 -30 34 -50 61 -50 14 0 35 -5 47 -12 28 -15 133 -18
173 -4 16 6 48 31 70 55 21 25 31 42 22 38 -12 -4 -18 0 -20 16 -2 12 -10 22
-18 22 -9 0 -15 13 -17 40 -2 22 -7 47 -10 55 -3 8 -6 18 -5 22 1 3 -12 9 -28
13 -22 5 -36 18 -50 46 -11 21 -17 39 -13 39 5 0 -7 10 -24 21 -18 12 -33 25
-33 30 0 4 -10 14 -22 20 -22 12 -23 11 -5 -8z"/>
<path d="M729 5993 c-3 -18 -3 -31 -1 -28 7 6 42 -47 37 -55 -2 -3 8 -6 23 -7
15 0 19 1 10 4 -21 5 -50 49 -58 88 l-6 30 -5 -32z"/>
<path d="M2310 5974 c-15 -40 -12 -54 16 -64 22 -9 59 -1 54 11 -1 2 2 13 6
23 5 14 1 24 -15 38 -32 25 -50 23 -61 -8z"/>
<path d="M665 5929 c-4 -6 -5 -12 -2 -15 2 -3 7 2 10 11 7 17 1 20 -8 4z"/>
<path d="M1017 5846 c20 -26 27 -28 17 -3 -3 8 -12 18 -20 21 -11 4 -10 0 3
-18z"/>
<path d="M1190 5775 c-14 -8 -20 -14 -15 -14 6 0 21 6 35 14 14 8 21 14 15 14
-5 0 -21 -6 -35 -14z"/>
<path d="M2414 5776 c-3 -9 -7 -30 -8 -47 -1 -27 4 -33 27 -42 34 -11 47 -2
50 38 2 22 -5 32 -30 48 -29 17 -34 17 -39 3z"/>
<path d="M1040 5773 c0 -4 5 -15 10 -23 8 -13 10 -13 10 2 0 9 -4 20 -10 23
-5 3 -10 3 -10 -2z"/>
<path d="M1134 5744 c-18 -14 -18 -15 4 -4 12 6 22 13 22 15 0 8 -5 6 -26 -11z"/>
<path d="M2992 5670 c0 -14 2 -19 5 -12 2 6 2 18 0 25 -3 6 -5 1 -5 -13z"/>
<path d="M2981 5628 c-1 -10 -5 -18 -11 -18 -5 0 -7 -7 -3 -17 5 -14 8 -12 15
7 5 13 7 28 4 34 -2 6 -5 3 -5 -6z"/>
<path d="M2960 5560 c0 -7 -17 -29 -37 -49 -22 -21 -28 -29 -13 -20 31 20 66
66 57 76 -4 3 -7 0 -7 -7z"/>
<path d="M2645 5440 c-7 -12 2 -12 30 0 19 8 19 9 -2 9 -12 1 -25 -3 -28 -9z"/>
<path d="M2595 5430 c-8 -13 5 -13 25 0 13 8 13 10 -2 10 -9 0 -20 -4 -23 -10z"/>
<path d="M2538 5423 c6 -2 18 -2 25 0 6 3 1 5 -13 5 -14 0 -19 -2 -12 -5z"/>
<path d="M1342 5323 c-18 -9 -38 -25 -43 -36 -8 -14 -8 -18 0 -13 15 10 14 -3
-3 -19 -14 -15 -13 -52 4 -116 10 -37 26 -57 37 -46 9 9 -28 107 -40 107 -7 0
-6 4 3 10 13 9 13 11 0 20 -8 5 -10 10 -4 10 17 0 36 48 21 53 -7 2 7 7 31 11
24 3 48 3 54 0 7 -4 8 -2 4 4 -4 7 -3 12 2 12 6 0 12 -6 15 -13 7 -19 75 -38
81 -23 3 8 5 8 5 0 1 -7 17 -24 36 -38 27 -21 35 -23 35 -12 0 9 -6 15 -12 14
-7 -2 -12 3 -10 11 2 8 -3 11 -11 8 -7 -3 -19 4 -25 14 -7 10 -15 18 -20 17
-4 -1 -20 5 -37 12 -16 7 -44 13 -62 13 -17 1 -29 5 -27 9 7 11 4 10 -34 -9z"/>
<path d="M3151 5293 c0 -17 -7 -34 -13 -36 -10 -4 -10 -6 0 -6 16 -1 25 21 19
51 -3 18 -5 16 -6 -9z"/>
<path d="M3393 5273 c9 -2 25 -2 35 0 9 3 1 5 -18 5 -19 0 -27 -2 -17 -5z"/>
<path d="M3503 5257 c0 -8 6 -14 14 -14 9 0 10 4 2 14 -6 7 -12 13 -14 13 -1
0 -2 -6 -2 -13z"/>
<path d="M3137 5220 c3 -11 7 -20 9 -20 2 0 4 9 4 20 0 11 -4 20 -9 20 -5 0
-7 -9 -4 -20z"/>
<path d="M3037 5209 c7 -7 15 -10 18 -7 3 3 -2 9 -12 12 -14 6 -15 5 -6 -5z"/>
<path d="M2987 5189 c7 -7 15 -10 18 -7 3 3 -2 9 -12 12 -14 6 -15 5 -6 -5z"/>
<path d="M2927 5174 c-34 -18 -27 -38 8 -22 13 6 22 16 18 21 -4 6 0 8 11 4
10 -4 15 -3 11 3 -8 13 -14 12 -48 -6z"/>
<path d="M1591 5143 c-1 -12 4 -25 9 -28 12 -7 12 2 0 30 -8 19 -9 19 -9 -2z"/>
<path d="M2886 5139 c4 -7 1 -10 -7 -7 -17 6 -69 -19 -69 -33 0 -6 -5 -7 -12
-3 -7 4 -8 3 -4 -4 5 -8 22 -4 57 13 27 14 47 30 44 35 -3 6 -8 10 -11 10 -3
0 -2 -5 2 -11z"/>
<path d="M3352 5130 c0 -14 2 -19 5 -12 2 6 2 18 0 25 -3 6 -5 1 -5 -13z"/>
<path d="M1490 5130 c-8 -5 -10 -10 -5 -10 6 0 17 5 25 10 8 5 11 10 5 10 -5
0 -17 -5 -25 -10z"/>
<path d="M3479 5124 c-7 -9 -6 -12 6 -10 22 3 40 23 20 23 -8 0 -20 -6 -26
-13z"/>
<path d="M1522 5093 c-11 -10 -22 -31 -25 -48 -4 -26 2 -38 45 -85 l51 -55
-42 54 c-47 61 -53 99 -19 131 27 24 18 27 -10 3z"/>
<path d="M3110 5074 c0 -24 -10 -40 -41 -68 -57 -52 -83 -60 -137 -41 -52 17
-64 19 -39 4 20 -12 23 -54 5 -66 -7 -4 -22 -7 -33 -6 -11 1 -5 -3 13 -9 17
-6 32 -15 32 -19 0 -4 -18 -23 -40 -40 -22 -18 -40 -37 -40 -42 0 -5 7 -4 15
3 12 10 18 10 30 0 22 -18 18 -40 -12 -74 -23 -25 -24 -27 -4 -11 l24 20 -7
-30 c-15 -61 4 -17 42 100 38 114 41 120 67 120 35 0 55 -28 38 -52 -17 -23
-63 -111 -63 -118 0 -4 5 -3 10 0 22 13 110 22 111 11 1 -6 6 9 13 33 14 54
38 73 63 49 14 -14 15 -22 5 -43 -7 -14 -12 -31 -11 -38 0 -7 4 -2 10 11 11
30 49 26 65 -6 9 -19 13 -20 17 -8 8 20 43 21 55 1 12 -23 36 95 34 168 -1 42
2 56 11 51 7 -4 9 -4 5 1 -4 4 -2 15 5 23 10 13 9 14 -9 4 -12 -6 -24 -9 -26
-6 -3 2 -4 -7 -2 -22 l2 -26 -22 21 c-27 25 -49 26 -107 6 -30 -11 -46 -12
-53 -5 -8 8 -5 9 9 5 15 -5 16 -4 6 3 -7 5 -21 8 -30 6 -9 -3 -22 0 -30 5 -12
8 -9 15 12 41 30 35 31 39 17 60 -7 11 -10 8 -10 -16z m170 -112 c0 -22 -19
-42 -39 -41 -11 0 -8 4 7 11 24 12 29 33 10 41 -8 3 -6 6 5 6 10 1 17 -6 17
-17z m-185 -22 c3 -5 1 -10 -4 -10 -6 0 -11 5 -11 10 0 6 2 10 4 10 3 0 8 -4
11 -10z"/>
<path d="M3470 5085 c-7 -8 -16 -13 -20 -10 -4 3 -13 -2 -20 -10 -7 -8 -9 -15
-5 -15 5 0 0 -9 -10 -20 -34 -38 -9 -20 35 25 24 25 42 45 38 45 -3 0 -11 -7
-18 -15z"/>
<path d="M1605 5080 c3 -5 8 -10 11 -10 2 0 4 5 4 10 0 6 -5 10 -11 10 -5 0
-7 -4 -4 -10z"/>
<path d="M3342 5070 c0 -14 2 -19 5 -12 2 6 2 18 0 25 -3 6 -5 1 -5 -13z"/>
<path d="M1330 5068 c0 -4 7 -8 15 -8 8 0 15 4 15 8 0 5 -7 9 -15 9 -8 0 -15
-4 -15 -9z"/>
<path d="M1371 5024 c19 -21 52 -23 64 -4 3 5 -4 6 -15 3 -13 -3 -20 0 -20 8
0 11 -2 11 -10 -1 -8 -13 -10 -13 -10 1 0 9 -7 16 -15 16 -12 0 -11 -5 6 -23z"/>
<path d="M3380 5025 c-7 -8 -9 -15 -5 -15 4 0 1 -8 -6 -17 -13 -16 -12 -17 4
-4 9 8 15 16 12 19 -3 3 0 11 6 19 6 7 9 13 6 13 -2 0 -10 -7 -17 -15z"/>
<path d="M1452 4976 c-46 -33 -53 -43 -14 -20 19 10 38 25 44 32 15 17 8 14
-30 -12z"/>
<path d="M1308 4894 c-38 -19 -68 -37 -68 -39 0 -3 32 11 70 30 39 19 70 37
70 40 0 7 3 8 -72 -31z"/>
<path d="M2745 4900 c-16 -16 -25 -30 -19 -29 8 0 60 59 52 59 -3 0 -17 -13
-33 -30z"/>
<path d="M2798 4868 c-13 -13 -17 -17 -8 -10 9 6 22 12 28 12 6 0 14 5 17 10
11 19 -14 10 -37 -12z"/>
<path d="M1696 4693 c49 -94 91 -169 93 -168 4 5 -157 317 -171 330 -6 6 30
-67 78 -162z"/>
<path d="M2736 4851 c-3 -5 1 -11 9 -14 9 -4 12 -1 8 9 -6 16 -10 17 -17 5z"/>
<path d="M2796 4839 c-8 -12 -32 -25 -53 -30 l-38 -7 46 1 c40 0 49 5 63 29
20 33 4 38 -18 7z"/>
<path d="M2718 4823 c7 -3 16 -2 19 1 4 3 -2 6 -13 5 -11 0 -14 -3 -6 -6z"/>
<path d="M2160 4780 c-8 -5 -10 -10 -5 -10 6 0 17 5 25 10 8 5 11 10 5 10 -5
0 -17 -5 -25 -10z"/>
<path d="M2745 4780 c-3 -5 1 -10 9 -10 8 0 18 5 21 10 3 6 -1 10 -9 10 -8 0
-18 -4 -21 -10z"/>
<path d="M1038 4754 c-27 -13 -48 -27 -48 -29 0 -3 23 6 50 20 28 14 50 28 50
30 0 7 1 7 -52 -21z"/>
<path d="M2775 4744 l-30 -26 33 22 c17 12 32 23 32 26 0 7 -4 5 -35 -22z"/>
<path d="M3071 4714 c0 -11 3 -14 6 -6 3 7 2 16 -1 19 -3 4 -6 -2 -5 -13z"/>
<path d="M3141 4714 c0 -11 3 -14 6 -6 3 7 2 16 -1 19 -3 4 -6 -2 -5 -13z"/>
<path d="M918 4689 c-21 -11 -38 -22 -38 -24 0 -3 18 4 40 15 22 11 40 23 40
25 0 7 0 7 -42 -16z"/>
<path d="M2905 4700 c3 -5 8 -10 11 -10 2 0 4 5 4 10 0 6 -5 10 -11 10 -5 0
-7 -4 -4 -10z"/>
<path d="M2935 4691 c-4 -13 -11 -19 -18 -15 -7 4 -9 4 -5 -1 4 -4 3 -14 -4
-22 -8 -10 -8 -12 4 -8 16 6 42 54 34 62 -2 2 -7 -5 -11 -16z"/>
<path d="M3293 4655 c0 -27 2 -38 4 -22 2 15 2 37 0 50 -2 12 -4 0 -4 -28z"/>
<path d="M2181 4674 c0 -11 3 -14 6 -6 3 7 2 16 -1 19 -3 4 -6 -2 -5 -13z"/>
<path d="M2800 4675 c-14 -8 -20 -14 -14 -15 5 0 19 7 30 15 24 18 16 19 -16
0z"/>
<path d="M3061 4664 c0 -11 3 -14 6 -6 3 7 2 16 -1 19 -3 4 -6 -2 -5 -13z"/>
<path d="M813 4629 c-29 -17 -53 -33 -53 -36 0 -5 89 44 105 58 16 16 1 9 -52
-22z"/>
<path d="M1803 4595 c0 -38 2 -53 4 -32 2 20 2 52 0 70 -2 17 -4 1 -4 -38z"/>
<path d="M2867 4649 c7 -7 15 -10 18 -7 3 3 -2 9 -12 12 -14 6 -15 5 -6 -5z"/>
<path d="M3057 4633 c-13 -12 -7 -54 8 -60 17 -6 55 23 54 41 0 6 -7 1 -16
-11 -23 -34 -46 -30 -41 7 5 32 5 33 -5 23z"/>
<path d="M3233 4575 c0 -33 2 -45 4 -27 2 18 2 45 0 60 -2 15 -4 0 -4 -33z"/>
<path d="M2760 4601 c0 -6 4 -13 10 -16 6 -3 7 1 4 9 -7 18 -14 21 -14 7z"/>
<path d="M2146 4584 c-4 -9 -4 -19 -1 -22 2 -3 7 3 11 12 4 9 4 19 1 22 -2 3
-7 -3 -11 -12z"/>
<path d="M3281 4584 c0 -11 3 -14 6 -6 3 7 2 16 -1 19 -3 4 -6 -2 -5 -13z"/>
<path d="M703 4564 c-24 -14 -43 -27 -43 -30 0 -6 67 33 85 48 17 15 1 8 -42
-18z"/>
<path d="M2078 4563 c7 -3 16 -2 19 1 4 3 -2 6 -13 5 -11 0 -14 -3 -6 -6z"/>
<path d="M2770 4565 c0 -5 5 -17 10 -25 5 -8 10 -10 10 -5 0 6 -5 17 -10 25
-5 8 -10 11 -10 5z"/>
<path d="M1988 4553 c7 -3 16 -2 19 1 4 3 -2 6 -13 5 -11 0 -14 -3 -6 -6z"/>
<path d="M1906 4541 c-3 -4 6 -6 19 -3 14 2 25 6 25 8 0 8 -39 4 -44 -5z"/>
<path d="M624 4514 c-18 -14 -18 -15 4 -4 12 6 22 13 22 15 0 8 -5 6 -26 -11z"/>
<path d="M1800 4491 c15 -30 30 -35 17 -6 -7 14 -16 25 -20 25 -4 0 -3 -9 3
-19z"/>
<path d="M569 4479 l-24 -20 28 17 c15 9 27 18 27 20 0 8 -8 4 -31 -17z"/>
<path d="M1528 4463 c23 -2 61 -2 85 0 23 2 4 4 -43 4 -47 0 -66 -2 -42 -4z"/>
<path d="M1695 4460 c3 -5 12 -7 20 -3 21 7 19 13 -6 13 -11 0 -18 -4 -14 -10z"/>
<path d="M1748 4463 c7 -3 16 -2 19 1 4 3 -2 6 -13 5 -11 0 -14 -3 -6 -6z"/>
<path d="M452 4405 c-45 -31 -82 -58 -82 -60 0 -5 145 89 165 106 22 21 -6 5
-83 -46z"/>
<path d="M2522 4420 c0 -19 2 -27 5 -17 2 9 2 25 0 35 -3 9 -5 1 -5 -18z"/>
<path d="M1864 4396 c17 -18 61 -84 98 -147 87 -147 99 -163 47 -64 -56 107
-148 245 -164 245 -7 0 2 -15 19 -34z"/>
<path d="M1435 4400 c-3 -5 -1 -10 4 -10 6 0 11 5 11 10 0 6 -2 10 -4 10 -3 0
-8 -4 -11 -10z"/>
<path d="M2513 4325 c0 -22 2 -30 4 -17 2 12 2 30 0 40 -3 9 -5 -1 -4 -23z"/>
<path d="M209 4323 c-13 -16 -12 -17 4 -4 9 7 17 15 17 17 0 8 -8 3 -21 -13z"/>
<path d="M249 4256 c-58 -46 -111 -92 -119 -102 -8 -10 26 16 75 57 50 40 106
86 125 101 19 15 32 27 29 28 -3 0 -52 -38 -110 -84z"/>
<path d="M154 4278 l-19 -23 23 19 c12 11 22 21 22 23 0 8 -8 2 -26 -19z"/>
<path d="M1494 4247 c-29 -16 -284 -37 -330 -27 -39 9 -53 6 -136 -26 l-93
-36 4 -85 c4 -94 -11 -160 -41 -193 -11 -12 -18 -23 -17 -24 2 -2 51 0 109 5
140 11 210 11 210 1 0 -5 -23 -35 -50 -66 -88 -100 -103 -160 -54 -209 35 -35
82 -43 178 -29 143 21 248 90 275 182 29 100 112 191 160 175 26 -8 117 73
137 122 32 76 8 158 -58 198 -28 17 -51 20 -156 20 -68 0 -130 -4 -138 -8z
m-454 -101 c0 -19 3 -43 7 -53 3 -10 2 -15 -2 -10 -5 4 -12 26 -16 50 l-6 42
-3 -40 -3 -40 -6 35 c-6 32 2 49 22 50 4 0 7 -15 7 -34z m-8 -121 c4 30 5 27
2 -13 -3 -58 -38 -142 -59 -142 -11 0 -9 11 7 47 11 26 23 76 27 112 l6 66 5
-55 6 -55 6 40z"/>
<path d="M999 3940 c-8 -27 -12 -47 -8 -44 10 6 31 72 27 83 -2 5 -10 -12 -19
-39z"/>
<path d="M2502 4235 c0 -16 2 -22 5 -12 2 9 2 23 0 30 -3 6 -5 -1 -5 -18z"/>
<path d="M65 4198 l-40 -43 43 40 c23 21 42 40 42 42 0 8 -9 0 -45 -39z"/>
<path d="M2436 4119 c-4 -39 -5 -73 -3 -76 3 -2 8 28 12 67 4 39 5 73 2 76 -2
3 -8 -27 -11 -67z"/>
<path d="M2492 4150 c0 -19 2 -27 5 -17 2 9 2 25 0 35 -3 9 -5 1 -5 -18z"/>
<path d="M790 4099 c-63 -28 -120 -53 -127 -55 -6 -3 -19 -17 -28 -31 -15 -22
-22 -24 -68 -21 -37 2 -59 -2 -77 -15 -31 -22 -18 -23 15 -1 14 9 25 13 25 9
0 -12 -31 -34 -85 -60 -27 -14 -43 -25 -35 -25 18 0 116 55 125 70 3 5 26 10
50 10 37 0 47 5 64 29 15 21 52 41 138 76 111 46 150 65 128 65 -6 0 -62 -23
-125 -51z"/>
<path d="M3 4065 c0 -33 2 -45 4 -27 2 18 2 45 0 60 -2 15 -4 0 -4 -33z"/>
<path d="M614 4104 c-18 -14 -18 -15 4 -4 12 6 22 13 22 15 0 8 -5 6 -26 -11z"/>
<path d="M2482 4070 c0 -19 2 -27 5 -17 2 9 2 25 0 35 -3 9 -5 1 -5 -18z"/>
<path d="M564 4074 c-18 -14 -18 -15 4 -4 12 6 22 13 22 15 0 8 -5 6 -26 -11z"/>
<path d="M1871 4044 c0 -11 3 -14 6 -6 3 7 2 16 -1 19 -3 4 -6 -2 -5 -13z"/>
<path d="M491 4026 c-13 -14 -33 -27 -45 -29 -18 -4 -17 -4 4 -5 16 -1 33 9
48 29 28 35 24 38 -7 5z"/>
<path d="M2082 4030 c0 -14 2 -19 5 -12 2 6 2 18 0 25 -3 6 -5 1 -5 -13z"/>
<path d="M2423 3995 c0 -22 2 -30 4 -17 2 12 2 30 0 40 -3 9 -5 -1 -4 -23z"/>
<path d="M1872 3995 c0 -16 2 -22 5 -12 2 9 2 23 0 30 -3 6 -5 -1 -5 -18z"/>
<path d="M2472 4000 c0 -14 2 -19 5 -12 2 6 2 18 0 25 -3 6 -5 1 -5 -13z"/>
<path d="M41 3964 c0 -11 3 -14 6 -6 3 7 2 16 -1 19 -3 4 -6 -2 -5 -13z"/>
<path d="M2462 3940 c0 -14 2 -19 5 -12 2 6 2 18 0 25 -3 6 -5 1 -5 -13z"/>
<path d="M390 3935 c-11 -13 -10 -14 4 -9 9 3 16 10 16 15 0 13 -6 11 -20 -6z"/>
<path d="M2412 3920 c0 -19 2 -27 5 -17 2 9 2 25 0 35 -3 9 -5 1 -5 -18z"/>
<path d="M40 3920 c6 -11 13 -20 16 -20 2 0 0 9 -6 20 -6 11 -13 20 -16 20 -2
0 0 -9 6 -20z"/>
<path d="M375 3900 c-3 -5 -1 -10 4 -10 6 0 11 5 11 10 0 6 -2 10 -4 10 -3 0
-8 -4 -11 -10z"/>
<path d="M2452 3880 c0 -14 2 -19 5 -12 2 6 2 18 0 25 -3 6 -5 1 -5 -13z"/>
<path d="M638 3883 c7 -3 16 -2 19 1 4 3 -2 6 -13 5 -11 0 -14 -3 -6 -6z"/>
<path d="M1863 3810 c0 -41 2 -58 4 -37 2 20 2 54 0 75 -2 20 -4 3 -4 -38z"/>
<path d="M2402 3855 c0 -16 2 -22 5 -12 2 9 2 23 0 30 -3 6 -5 -1 -5 -18z"/>
<path d="M813 3853 c9 -2 25 -2 35 0 9 3 1 5 -18 5 -19 0 -27 -2 -17 -5z"/>
<path d="M140 3835 c14 -8 30 -14 35 -14 6 0 -1 6 -15 14 -14 8 -29 14 -35 14
-5 0 1 -6 15 -14z"/>
<path d="M738 3843 c6 -2 18 -2 25 0 6 3 1 5 -13 5 -14 0 -19 -2 -12 -5z"/>
<path d="M2442 3830 c0 -14 2 -19 5 -12 2 6 2 18 0 25 -3 6 -5 1 -5 -13z"/>
<path d="M668 3833 c6 -2 18 -2 25 0 6 3 1 5 -13 5 -14 0 -19 -2 -12 -5z"/>
<path d="M593 3823 c9 -2 23 -2 30 0 6 3 -1 5 -18 5 -16 0 -22 -2 -12 -5z"/>
<path d="M498 3813 c12 -2 30 -2 40 0 9 3 -1 5 -23 4 -22 0 -30 -2 -17 -4z"/>
<path d="M2392 3790 c0 -19 2 -27 5 -17 2 9 2 25 0 35 -3 9 -5 1 -5 -18z"/>
<path d="M273 3803 c26 -2 67 -2 90 0 23 2 2 3 -48 3 -49 0 -68 -1 -42 -3z"/>
<path d="M2432 3780 c0 -14 2 -19 5 -12 2 6 2 18 0 25 -3 6 -5 1 -5 -13z"/>
<path d="M2382 3725 c0 -16 2 -22 5 -12 2 9 2 23 0 30 -3 6 -5 -1 -5 -18z"/>
<path d="M2421 3734 c0 -11 3 -14 6 -6 3 7 2 16 -1 19 -3 4 -6 -2 -5 -13z"/>
<path d="M2411 3684 c0 -11 3 -14 6 -6 3 7 2 16 -1 19 -3 4 -6 -2 -5 -13z"/>
<path d="M1853 3655 c0 -22 2 -30 4 -17 2 12 2 30 0 40 -3 9 -5 -1 -4 -23z"/>
<path d="M2372 3670 c0 -14 2 -19 5 -12 2 6 2 18 0 25 -3 6 -5 1 -5 -13z"/>
<path d="M2401 3644 c0 -11 3 -14 6 -6 3 7 2 16 -1 19 -3 4 -6 -2 -5 -13z"/>
<path d="M2361 3614 c0 -11 3 -14 6 -6 3 7 2 16 -1 19 -3 4 -6 -2 -5 -13z"/>
<path d="M2391 3604 c0 -11 3 -14 6 -6 3 7 2 16 -1 19 -3 4 -6 -2 -5 -13z"/>
<path d="M2351 3564 c0 -11 3 -14 6 -6 3 7 2 16 -1 19 -3 4 -6 -2 -5 -13z"/>
<path d="M2381 3564 c0 -11 3 -14 6 -6 3 7 2 16 -1 19 -3 4 -6 -2 -5 -13z"/>
<path d="M1842 3520 c0 -19 2 -27 5 -17 2 9 2 25 0 35 -3 9 -5 1 -5 -18z"/>
<path d="M2371 3524 c0 -11 3 -14 6 -6 3 7 2 16 -1 19 -3 4 -6 -2 -5 -13z"/>
<path d="M2341 3514 c0 -11 3 -14 6 -6 3 7 2 16 -1 19 -3 4 -6 -2 -5 -13z"/>
<path d="M2361 3484 c0 -11 3 -14 6 -6 3 7 2 16 -1 19 -3 4 -6 -2 -5 -13z"/>
<path d="M2331 3464 c0 -11 3 -14 6 -6 3 7 2 16 -1 19 -3 4 -6 -2 -5 -13z"/>
<path d="M2351 3444 c0 -11 3 -14 6 -6 3 7 2 16 -1 19 -3 4 -6 -2 -5 -13z"/>
<path d="M1833 3400 c0 -25 2 -35 4 -22 2 12 2 32 0 45 -2 12 -4 2 -4 -23z"/>
<path d="M2314 3406 c-3 -21 -4 -39 -1 -42 2 -3 8 11 11 32 4 20 5 38 2 41 -2
3 -8 -11 -12 -31z"/>
<path d="M2341 3404 c0 -11 3 -14 6 -6 3 7 2 16 -1 19 -3 4 -6 -2 -5 -13z"/>
<path d="M2031 3384 c0 -11 3 -14 6 -6 3 7 2 16 -1 19 -3 4 -6 -2 -5 -13z"/>
<path d="M2331 3364 c0 -11 3 -14 6 -6 3 7 2 16 -1 19 -3 4 -6 -2 -5 -13z"/>
<path d="M2291 3300 c-13 -60 -13 -70 -2 -50 10 18 25 100 18 100 -3 0 -10
-23 -16 -50z"/>
<path d="M2311 3284 c-8 -32 -21 -64 -30 -71 -10 -8 -11 -12 -4 -13 9 0 10 -7
4 -22 -17 -42 -24 -63 -26 -78 -1 -8 -5 -35 -8 -60 -4 -25 -5 -40 -2 -35 12
27 86 318 83 327 -2 6 -10 -15 -17 -48z"/>
<path d="M1822 3280 c0 -19 2 -27 5 -17 2 9 2 25 0 35 -3 9 -5 1 -5 -18z"/>
<path d="M1812 3185 c0 -16 2 -22 5 -12 2 9 2 23 0 30 -3 6 -5 -1 -5 -18z"/>
<path d="M1802 3095 c0 -16 2 -22 5 -12 2 9 2 23 0 30 -3 6 -5 -1 -5 -18z"/>
<path d="M1792 3010 c0 -14 2 -19 5 -12 2 6 2 18 0 25 -3 6 -5 1 -5 -13z"/>
<path d="M2233 2955 c0 -22 2 -30 4 -17 2 12 2 30 0 40 -3 9 -5 -1 -4 -23z"/>
<path d="M1782 2950 c0 -14 2 -19 5 -12 2 6 2 18 0 25 -3 6 -5 1 -5 -13z"/>
<path d="M2221 2814 c0 -11 3 -14 6 -6 3 7 2 16 -1 19 -3 4 -6 -2 -5 -13z"/>
<path d="M1779 2768 c-3 -22 -1 -34 4 -29 5 5 7 21 5 37 -3 27 -4 26 -9 -8z"/>
<path d="M2193 2748 c-4 -7 -8 -29 -9 -48 -1 -19 -4 -48 -8 -65 l-6 -30 11 29
c9 22 14 25 21 15 5 -9 6 -4 2 16 -4 23 -3 26 5 15 17 -24 13 -2 -5 25 -13 20
-14 28 -4 40 7 8 10 15 7 15 -3 0 -9 -6 -14 -12z"/>
<path d="M1937 2693 c-4 -3 -7 -13 -7 -22 1 -13 3 -13 11 2 11 19 8 33 -4 20z"/>
<path d="M1753 2620 c0 -30 2 -43 4 -27 2 15 2 39 0 55 -2 15 -4 2 -4 -28z"/>
<path d="M2110 2650 c0 -5 5 -10 11 -10 5 0 7 5 4 10 -3 6 -8 10 -11 10 -2 0
-4 -4 -4 -10z"/>
<path d="M1927 2623 c-4 -3 -7 -11 -7 -17 0 -6 5 -5 12 2 6 6 9 14 7 17 -3 3
-9 2 -12 -2z"/>
<path d="M1917 2583 c-4 -3 -7 -13 -7 -22 1 -13 3 -13 11 2 11 19 8 33 -4 20z"/>
<path d="M2176 2575 c-3 -9 -6 -31 -5 -48 1 -28 2 -26 10 12 9 46 6 65 -5 36z"/>
<path d="M2163 2425 c0 -22 2 -30 4 -17 2 12 2 30 0 40 -3 9 -5 -1 -4 -23z"/>
<path d="M1691 2364 c0 -11 3 -14 6 -6 3 7 2 16 -1 19 -3 4 -6 -2 -5 -13z"/>
<path d="M2152 2340 c0 -14 2 -19 5 -12 2 6 2 18 0 25 -3 6 -5 1 -5 -13z"/>
<path d="M1681 2314 c0 -11 3 -14 6 -6 3 7 2 16 -1 19 -3 4 -6 -2 -5 -13z"/>
<path d="M2142 2280 c0 -14 2 -19 5 -12 2 6 2 18 0 25 -3 6 -5 1 -5 -13z"/>
<path d="M2131 2224 c0 -11 3 -14 6 -6 3 7 2 16 -1 19 -3 4 -6 -2 -5 -13z"/>
<path d="M1662 2200 c0 -14 2 -19 5 -12 2 6 2 18 0 25 -3 6 -5 1 -5 -13z"/>
<path d="M2121 2184 c0 -11 3 -14 6 -6 3 7 2 16 -1 19 -3 4 -6 -2 -5 -13z"/>
<path d="M1651 2134 c0 -11 3 -14 6 -6 3 7 2 16 -1 19 -3 4 -6 -2 -5 -13z"/>
<path d="M1642 2060 c0 -14 2 -19 5 -12 2 6 2 18 0 25 -3 6 -5 1 -5 -13z"/>
<path d="M1632 1985 c0 -16 2 -22 5 -12 2 9 2 23 0 30 -3 6 -5 -1 -5 -18z"/>
<path d="M1622 1885 c0 -16 2 -22 5 -12 2 9 2 23 0 30 -3 6 -5 -1 -5 -18z"/>
<path d="M1601 1826 c-9 -11 -34 -202 -87 -676 -4 -30 -15 -70 -25 -88 -14
-25 -19 -53 -19 -116 0 -65 -6 -99 -25 -150 -14 -37 -25 -79 -25 -94 0 -46
-28 -161 -70 -290 -37 -112 -40 -130 -35 -198 10 -144 51 -198 159 -209 60 -7
67 -5 101 21 45 34 116 133 152 209 25 57 26 63 22 214 -7 287 -2 388 21 420
15 23 20 45 20 98 0 56 9 94 50 213 28 80 54 154 57 165 5 15 -3 11 -35 -16
-46 -39 -142 -95 -142 -82 1 4 22 18 48 30 26 12 66 38 89 57 22 20 42 33 45
31 2 -3 19 30 36 72 18 42 30 78 28 80 -2 2 -9 -10 -16 -26 -7 -18 -35 -45
-68 -67 -133 -87 -177 -118 -181 -126 -4 -10 -121 228 -121 246 0 6 12 -15 27
-46 14 -32 29 -55 34 -52 5 2 -6 34 -23 69 -22 45 -35 61 -41 52 -6 -8 -7 -6
-3 6 3 10 6 24 6 30 0 7 14 -15 30 -48 17 -33 44 -82 60 -110 16 -27 31 -54
33 -60 3 -5 17 2 33 17 30 27 230 139 237 132 2 -2 16 36 31 86 21 67 26 100
21 128 l-7 37 -25 -66 c-22 -60 -28 -68 -66 -84 -23 -10 -72 -32 -110 -48 -37
-17 -69 -28 -71 -26 -21 21 -126 164 -127 173 -1 6 -1 32 1 59 2 50 -1 55 -19
33z m70 -581 l10 -20 -16 20 c-9 11 -21 29 -26 40 l-10 20 16 -20 c9 -11 21
-29 26 -40z"/>
<path d="M1701 1334 c0 -11 3 -14 6 -6 3 7 2 16 -1 19 -3 4 -6 -2 -5 -13z"/>
</g>
</svg>
