<?xml version="1.0" encoding="UTF-8"?>
<svg version="1.1" xmlns="http://www.w3.org/2000/svg" width="700" height="700">
<path d="M0 0 C22.71305525 18.98182703 36.24590149 45.10210292 39.71875 74.43359375 C42.09621572 102.2283293 35.41741478 130.93901965 18.03125 153.18359375 C16.73492689 154.67695797 15.4224118 156.1564272 14.09375 157.62109375 C13.39765625 158.44609375 12.7015625 159.27109375 11.984375 160.12109375 C1.2370506 172.6215278 -11.92333648 181.54513331 -26.828125 188.36328125 C-27.51310059 188.67966553 -28.19807617 188.9960498 -28.90380859 189.32202148 C-30.57001247 190.0911505 -32.23794957 190.85652296 -33.90625 191.62109375 C-33.50425888 193.07444626 -33.50425888 193.07444626 -33.09414673 194.55715942 C-32.82244518 195.53946517 -32.82244518 195.53946517 -32.54525471 196.54161549 C-32.12636999 198.05604463 -31.70748507 199.57047372 -31.28859997 201.08490276 C-30.05801103 205.53395139 -28.82742621 209.98300115 -27.59684753 214.43205261 C-25.03305989 223.70119039 -22.46924166 232.97031969 -19.90530109 242.23941517 C-18.40169242 247.67522993 -16.89810631 253.11105094 -15.39453125 258.546875 C-15.08868544 259.65258787 -14.78283962 260.75830074 -14.46772575 261.89752007 C-10.15388693 277.4933403 -5.84115688 293.08946675 -1.5292511 308.68582153 C0.22746777 315.03977816 1.98440201 321.39367523 3.74134445 327.74757004 C5.13961074 332.80441078 6.53772609 337.86129315 7.93548584 342.91827393 C9.25152527 347.67958584 10.56791557 352.44080061 11.88459778 357.20193481 C12.38138431 358.99849375 12.87806002 360.79508334 13.37461853 362.59170532 C15.6939855 370.98288756 18.01705839 379.37281247 20.38134766 387.75146484 C20.88399895 389.53462349 20.88399895 389.53462349 21.39680481 391.35380554 C21.99773794 393.48082312 22.6009687 395.60719365 23.20707703 397.73274231 C23.46141006 398.63199936 23.7157431 399.53125641 23.9777832 400.45776367 C24.19586136 401.22295822 24.41393951 401.98815277 24.6386261 402.77653503 C25.09375 404.62109375 25.09375 404.62109375 25.09375 406.62109375 C-39.25625 406.62109375 -103.60625 406.62109375 -169.90625 406.62109375 C-167.65644339 394.24715737 -167.65644339 394.24715737 -166.25585938 389.25463867 C-165.93851334 388.11375793 -165.6211673 386.9728772 -165.29420471 385.79742432 C-164.94961716 384.57778992 -164.6050296 383.35815552 -164.25 382.1015625 C-163.87538726 380.76125783 -163.50125231 379.42081954 -163.12754822 378.08026123 C-162.31892032 375.18291955 -161.5073094 372.28643691 -160.69332886 369.39059448 C-159.37920487 364.71498789 -158.07183719 360.0375095 -156.76586914 355.35961914 C-156.54029233 354.55167121 -156.31471552 353.74372328 -156.08230305 352.91129208 C-155.61673929 351.24375921 -155.15119421 349.57622113 -154.68566704 347.90867805 C-153.96303665 345.32102207 -153.23975934 342.73354757 -152.51637268 340.14610291 C-148.71514946 326.54532103 -144.94382539 312.93638569 -141.18359375 299.32421875 C-140.89970921 298.29669809 -140.61582466 297.26917744 -140.32333755 296.21051979 C-137.78389702 287.01862699 -135.24563457 277.82640909 -132.70849609 268.63388062 C-125.5241391 242.60587895 -118.2676302 216.5996134 -110.90625 190.62109375 C-112.03232666 190.42205444 -112.03232666 190.42205444 -113.18115234 190.21899414 C-116.90885969 189.40111605 -120.14675113 187.76692539 -123.53125 186.05859375 C-124.59303467 185.52286743 -124.59303467 185.52286743 -125.67626953 184.97631836 C-135.97043326 179.65171064 -144.49860346 172.53672655 -152.90625 164.62109375 C-153.52113281 164.07066406 -154.13601563 163.52023437 -154.76953125 162.953125 C-173.79621161 145.23862949 -184.05155842 117.34603598 -185.2265625 91.91015625 C-186.05090449 62.33419918 -177.500036 36.8291465 -158.90625 13.62109375 C-158.37 12.94175781 -157.83375 12.26242188 -157.28125 11.5625 C-118.90338436 -35.26266759 -45.19602013 -36.63139853 0 0 Z " fill="#00AEC7" transform="translate(422.90625,159.37890625)"/>
<path d="M0 0 C1.16716553 -0.00570007 2.33433105 -0.01140015 3.53686523 -0.01727295 C6.00438546 -0.02667999 8.471918 -0.03323974 10.93945312 -0.03710938 C14.62133368 -0.0467026 18.30262773 -0.07772107 21.984375 -0.109375 C42.41963912 -0.20097757 62.63402516 1.39230511 82.6875 5.453125 C83.74469238 5.66364502 84.80188477 5.87416504 85.89111328 6.09106445 C143.64726269 17.95040679 196.48529482 43.44237128 241.6875 81.203125 C242.68652344 82.01523438 243.68554688 82.82734375 244.71484375 83.6640625 C252.5464535 90.11543855 259.81104089 97.11320482 267 104.265625 C267.91885986 105.17530029 268.83771973 106.08497559 269.78442383 107.0222168 C275.84564614 113.11080355 281.33048385 119.49304472 286.6875 126.203125 C287.75963671 127.48570273 288.83594789 128.76481228 289.91796875 130.0390625 C312.20420545 156.57029666 330.12267152 187.95040388 342.6875 220.203125 C343.0184668 221.04391602 343.34943359 221.88470703 343.69042969 222.75097656 C351.05028719 241.6189749 356.35319392 261.00153397 360.4375 280.828125 C360.62401123 281.71862549 360.81052246 282.60912598 361.00268555 283.52661133 C361.6329306 286.74399958 362.17302806 289.96497811 362.6875 293.203125 C362.8765239 294.39196793 362.8765239 294.39196793 363.06936646 295.60482788 C365.72401797 312.83780049 366.20865149 329.85132172 366.125 347.265625 C366.12169406 348.6225377 366.11862409 349.97945099 366.11578369 351.33636475 C366.06051515 370.89636991 365.51563457 389.96631178 361.6875 409.203125 C361.47319336 410.33540527 361.25888672 411.46768555 361.03808594 412.63427734 C349.02221774 475.08356029 320.03846079 532.85719519 277.6875 580.203125 C277.15576172 580.79802734 276.62402344 581.39292969 276.07617188 582.00585938 C263.29048129 596.21050499 249.6183545 609.44972445 234.33740234 620.95166016 C232.6948573 622.19754443 231.07386106 623.467065 229.45703125 624.74609375 C178.5372651 664.90138564 114.99783402 688.8218538 50.6875 695.203125 C49.75542725 695.2973877 48.82335449 695.39165039 47.86303711 695.48876953 C-14.25362909 701.03959943 -78.02222788 690.12558673 -134.3125 663.203125 C-135.60534912 662.58848389 -135.60534912 662.58848389 -136.92431641 661.96142578 C-179.90454676 641.3904087 -222.71201601 610.57804899 -252.2890625 572.78515625 C-254.48964247 569.97708027 -256.80212639 567.28570165 -259.125 564.578125 C-298.05143859 517.86639869 -322.05895351 458.90370522 -331.3125 399.203125 C-331.47766113 398.15656738 -331.64282227 397.11000977 -331.81298828 396.03173828 C-336.66666322 363.78265711 -336.18755709 329.40820832 -331.3125 297.203125 C-331.17859863 296.24680176 -331.04469727 295.29047852 -330.90673828 294.30517578 C-319.72314019 215.23374834 -277.46974596 139.60856477 -217.3125 87.203125 C-216.81218262 86.76339355 -216.31186523 86.32366211 -215.79638672 85.87060547 C-202.47781809 74.19640815 -188.24629699 63.71517401 -173.3125 54.203125 C-172.73773926 53.83654785 -172.16297852 53.4699707 -171.57080078 53.09228516 C-126.37138893 24.54326588 -75.30619766 7.35719166 -22.3125 1.203125 C-21.57409882 1.11466309 -20.83569763 1.02620117 -20.07492065 0.93505859 C-13.37517178 0.19181644 -6.7371703 0.02622579 0 0 Z M-196.3125 92.203125 C-197.72015625 93.33234375 -197.72015625 93.33234375 -199.15625 94.484375 C-207.62757837 101.40993696 -215.37829542 109.05323489 -223.125 116.765625 C-223.66061554 117.29606415 -224.19623108 117.8265033 -224.74807739 118.37301636 C-231.73912161 125.31078884 -238.23191949 132.43628893 -244.3125 140.203125 C-245.18007935 141.29765991 -245.18007935 141.29765991 -246.06518555 142.41430664 C-261.42751082 161.91558393 -274.661054 182.69191553 -285.32666016 205.13671875 C-285.99209836 206.53153523 -286.66649025 207.92211037 -287.34912109 209.30859375 C-305.86164015 246.99328307 -317.32728523 291.42038305 -317.515625 333.421875 C-317.52268463 334.46963104 -317.52974426 335.51738708 -317.53701782 336.59689331 C-317.86584731 368.03325941 -317.86584731 368.03325941 -314.3125 399.203125 C-314.11382324 400.33121582 -313.91514648 401.45930664 -313.71044922 402.62158203 C-301.47171563 470.52592636 -270.16206471 530.71953987 -222.3125 580.203125 C-221.75143555 580.78610352 -221.19037109 581.36908203 -220.61230469 581.96972656 C-214.38709728 588.41171426 -208.0610499 594.48131333 -201.0234375 600.046875 C-198.2420144 602.25918847 -195.56573146 604.56920962 -192.875 606.890625 C-139.86532036 650.96302275 -67.1725645 679.09441445 2.00390625 679.40625 C3.05024734 679.41330963 4.09658844 679.42036926 5.17463684 679.42764282 C36.56472243 679.76013522 36.56472243 679.76013522 67.6875 676.203125 C68.83154297 675.99913086 69.97558594 675.79513672 71.15429688 675.58496094 C124.43000626 665.85598371 174.56568661 645.16534884 217.6875 612.203125 C218.27869629 611.75614258 218.86989258 611.30916016 219.47900391 610.84863281 C227.78736336 604.55448976 235.53812557 597.84047235 243.10839844 590.68066406 C244.6722668 589.21737845 246.25648506 587.78071238 247.8515625 586.3515625 C254.21912344 580.64116265 260.10031474 574.68875211 265.6875 568.203125 C266.62048638 567.14399591 267.55411545 566.08543273 268.48828125 565.02734375 C312.19403037 515.19777023 338.73749155 453.68655583 347.6875 388.203125 C347.81882324 387.26194824 347.95014648 386.32077148 348.08544922 385.35107422 C359.09421008 302.48428666 333.33363277 215.9214062 283.56665039 149.56542969 C281.65106943 147.07411481 279.68035307 144.63294917 277.6875 142.203125 C277.25663086 141.67750977 276.82576172 141.15189453 276.38183594 140.61035156 C263.36859076 124.80922208 249.48399959 109.04596552 233.375 96.33203125 C230.5406103 94.08676615 227.80752994 91.74404062 225.0625 89.390625 C199.46942645 68.10139309 169.61735278 51.32320303 138.6875 39.203125 C137.96272461 38.91131348 137.23794922 38.61950195 136.49121094 38.31884766 C41.21634856 0.0855007 -70.00337708 11.74271037 -196.3125 92.203125 Z " fill="#00AEC7" transform="translate(334.3125,1.796875)"/>
<path d="M0 0 C1.18770996 0.30599121 1.18770996 0.30599121 2.39941406 0.61816406 C31.43664763 8.27009328 55.42547067 22.28254102 77 43 C77.5561499 43.53278564 78.1122998 44.06557129 78.68530273 44.61450195 C106.60687054 71.86659852 121.62415938 111.15622037 122.3515625 149.77172852 C122.42981411 162.428111 121.88737925 174.65802296 119 187 C118.80664062 187.82870605 118.61328125 188.65741211 118.4140625 189.51123047 C112.49436279 213.92542411 101.60891168 236.09411117 85 255 C84.29359375 255.82757813 83.5871875 256.65515625 82.859375 257.5078125 C75.21831218 266.27579466 66.73687047 274.58251719 57 281 C58.53562716 289.76100866 60.91738885 298.27304489 63.3125 306.828125 C63.75428697 308.41665635 64.1957342 310.00528221 64.63687134 311.59399414 C65.58751068 315.01510039 66.54035105 318.43558289 67.49493408 321.85559082 C69.02417638 327.33468624 70.54843914 332.815159 72.07177734 338.29589844 C73.6887576 344.1129115 75.3059392 349.92986773 76.9246521 355.74639893 C82.62842216 376.24359772 88.29971716 396.7497504 93.96826172 417.25671387 C95.82902679 423.98834319 97.69038087 430.71980958 99.55231857 437.45111465 C100.81987263 442.03379465 102.08670866 446.61667038 103.35186768 451.20001221 C105.79858056 460.06078917 108.25408573 468.91894946 110.73106575 477.77132034 C111.952471 482.1381365 113.17010159 486.5060012 114.3874321 490.87395477 C114.97406173 492.97476479 115.56253973 495.07505961 116.15294266 497.17481232 C116.97036072 500.08239344 117.78149562 502.99166032 118.59130859 505.90136719 C118.83634502 506.76659248 119.08138145 507.63181778 119.33384323 508.52326202 C119.55467197 509.32131004 119.77550072 510.11935806 120.00302124 510.94158936 C120.19663931 511.63268169 120.39025738 512.32377403 120.58974266 513.03580856 C121 515 121 515 121 519 C17.38 519 -86.24 519 -193 519 C-188.37876785 499.35976338 -188.37876785 499.35976338 -185.80534363 490.25047302 C-185.61652304 489.58034117 -185.42770245 488.91020931 -185.23316002 488.21977043 C-185.03762346 487.52591806 -184.84208691 486.8320657 -184.640625 486.1171875 C-184.21871914 484.6095162 -183.79716592 483.10174617 -183.37593079 481.59388733 C-182.4751462 478.37154618 -181.57238654 475.14976813 -180.66799927 471.92843628 C-178.45852074 464.05749419 -176.26027184 456.18341186 -174.06129646 448.30953026 C-173.54691629 446.46783281 -173.03241306 444.62616973 -172.51778984 442.78454018 C-166.74000475 422.10739784 -161.02860404 401.41209868 -155.32725525 380.71377182 C-153.07446302 372.53551665 -150.82049858 364.35758442 -148.56640625 356.1796875 C-148.32713787 355.31155363 -148.08786949 354.44341976 -147.84135056 353.54897881 C-141.2647117 329.68900321 -134.6404879 305.84228117 -128 282 C-130.64877524 279.31253129 -133.29602164 276.95376612 -136.3125 274.6875 C-148.73553264 264.79304923 -159.30453855 253.26939393 -168 240 C-168.43151367 239.34306152 -168.86302734 238.68612305 -169.30761719 238.00927734 C-191.93020082 202.96198615 -199.11215017 159.75455651 -190.47851562 119.05151367 C-185.16732452 96.04709491 -175.01233041 74.27799969 -160 56 C-159.54367188 55.43829102 -159.08734375 54.87658203 -158.6171875 54.29785156 C-137.28705969 28.16274176 -108.68260338 9.67279251 -76 1 C-75.18402344 0.77844238 -74.36804688 0.55688477 -73.52734375 0.32861328 C-50.98442894 -5.49914104 -22.55500761 -5.98833851 0 0 Z M-123 51 C-124.24523437 52.06347656 -124.24523437 52.06347656 -125.515625 53.1484375 C-151.20136713 75.60376421 -168.22210762 107.97221965 -170.87109375 142.18359375 C-172.54259953 178.70346254 -162.37705859 213.26205549 -138 241 C-137.29230469 241.84046875 -136.58460938 242.6809375 -135.85546875 243.546875 C-126.54392799 254.35161779 -115.35731468 262.95326684 -103 270 C-102.34 270 -101.68 270 -101 270 C-111.45423507 308.26851159 -121.95701518 346.52310694 -132.5625 384.75 C-134.48195489 391.66921978 -136.401268 398.58847888 -138.3203125 405.5078125 C-138.55567341 406.35641909 -138.79103432 407.20502567 -139.03352737 408.07934761 C-143.92577877 425.72013491 -148.80263821 443.36515104 -153.66647339 461.01379395 C-154.50924597 464.0718186 -155.35262559 467.12967474 -156.19656372 470.18737793 C-157.17082145 473.71742772 -158.14383032 477.24781914 -159.11577225 480.77850723 C-159.63979472 482.68100248 -160.16502118 484.58316597 -160.6902771 486.48532104 C-161.15091049 488.16055344 -161.15091049 488.16055344 -161.62084961 489.86962891 C-161.88900986 490.84284088 -162.1571701 491.81605286 -162.43345642 492.8187561 C-163.04189881 494.7857111 -163.04189881 494.7857111 -163 496 C-79.18 496 4.64 496 91 496 C89.44038973 487.20462299 89.44038973 487.20462299 87.34960938 478.63354492 C87.03225327 477.4926239 86.71489716 476.35170288 86.38792419 475.1762085 C86.04334671 473.95661438 85.69876923 472.73702026 85.34375 471.48046875 C84.96922949 470.1405301 84.59518606 468.80045803 84.22157288 467.46026611 C83.41302853 464.56329291 82.60150404 461.66717784 81.78762817 458.771698 C80.47170062 454.08954265 79.16277031 449.40544933 77.85522461 444.72094727 C77.39555499 443.07426414 76.93588395 441.4275814 76.47621155 439.78089905 C76.24392412 438.94872423 76.0116367 438.11654942 75.77231026 437.25915718 C75.04903438 434.66889004 74.32511375 432.07880379 73.60105896 429.48875427 C67.82382427 408.81751915 62.10945924 388.12890375 56.39254761 367.44092178 C55.05379292 362.59680807 53.7144031 357.75287001 52.375 352.90893555 C50.56925203 346.37835126 48.76363021 339.84773214 46.95825005 333.31704617 C43.21165714 319.76441506 39.46342451 306.21223765 35.71484375 292.66015625 C35.28001269 291.08812848 35.28001269 291.08812848 34.83639717 289.48434258 C33.22429945 283.65621879 31.61216592 277.82810492 30 272 C33.57969455 269.1019366 37.22320461 266.48275779 41.0625 263.9375 C47.99084503 259.23431688 53.98223361 253.80036153 60 248 C60.70640625 247.35675781 61.4128125 246.71351563 62.140625 246.05078125 C79.40326399 229.87582886 89.8184272 207.47146311 96 185 C96.19207031 184.30825684 96.38414062 183.61651367 96.58203125 182.90380859 C101.96381158 162.34725643 100.83981865 138.31319634 95 118 C94.79632813 117.28134766 94.59265625 116.56269531 94.3828125 115.82226562 C88.24161878 94.95357955 76.89449164 76.71926805 62 61 C61.16726563 60.1028125 60.33453125 59.205625 59.4765625 58.28125 C52.62091312 51.12403247 45.29305352 45.38590299 37 40 C35.92234375 39.30003906 34.8446875 38.60007812 33.734375 37.87890625 C18.15708209 28.41071755 0.91951071 22.90155778 -17 20 C-17.91523438 19.84917969 -18.83046875 19.69835937 -19.7734375 19.54296875 C-22.19405259 19.23316306 -24.56056692 19.08546919 -27 19 C-28.28519531 18.9484375 -29.57039062 18.896875 -30.89453125 18.84375 C-64.31681126 17.94558213 -97.65529566 28.97222006 -123 51 Z " fill="#00AEC7" transform="translate(386,92)"/>
</svg>
