<?xml version="1.0" standalone="no"?>
<!DOCTYPE svg PUBLIC "-//W3C//DTD SVG 20010904//EN"
 "http://www.w3.org/TR/2001/REC-SVG-20010904/DTD/svg10.dtd">
<svg version="1.0" xmlns="http://www.w3.org/2000/svg"
 width="538.000000pt" height="640.000000pt" viewBox="0 0 538.000000 640.000000"
 preserveAspectRatio="xMidYMid meet">

<g transform="translate(0.000000,640.000000) scale(0.100000,-0.100000)"
fill="#000000" stroke="none">
<path d="M2210 6197 c-114 -47 -247 -154 -328 -265 -88 -120 -97 -154 -63
-233 34 -80 35 -89 9 -89 -13 0 -30 6 -38 13 -7 6 -4 -2 8 -20 26 -37 27 -46
6 -78 -9 -14 -12 -25 -6 -25 6 0 14 9 17 20 4 11 11 18 16 15 15 -10 10 -20
-22 -44 -18 -13 -29 -19 -25 -12 4 6 4 11 1 11 -3 0 -17 -24 -31 -53 -27 -61
-65 -87 -93 -65 -14 11 -14 11 -3 -3 10 -14 8 -19 -14 -33 -63 -42 -75 23 -15
81 26 25 49 63 69 113 19 49 38 79 53 88 19 10 20 12 5 10 -11 -2 -32 9 -47
25 -15 15 -36 27 -46 27 -11 -1 -7 -6 13 -14 18 -8 35 -19 39 -26 4 -6 -8 -50
-26 -97 -30 -78 -39 -90 -101 -144 -38 -33 -73 -59 -79 -59 -14 0 -25 33 -12
37 5 2 19 11 29 19 18 14 18 14 -4 4 -49 -24 -40 -2 30 75 15 17 37 57 48 89
23 68 23 69 10 61 -14 -9 -12 9 3 24 10 10 9 11 -5 6 -15 -6 -22 -24 -20 -55
1 -20 -76 -155 -90 -158 -27 -5 -32 37 -13 104 19 64 21 122 4 139 -7 7 -8 -4
-3 -35 7 -41 6 -44 -9 -31 -27 22 -22 68 11 85 46 26 16 18 -60 -16 -40 -17
-85 -42 -99 -56 -15 -13 -55 -80 -89 -149 -48 -96 -71 -131 -99 -151 -21 -15
-84 -71 -142 -124 -137 -126 -370 -318 -381 -312 -4 3 -44 -2 -89 -11 -45 -8
-101 -15 -125 -15 -37 0 -46 -4 -61 -27 -10 -16 -30 -40 -45 -55 -19 -18 -28
-37 -29 -60 0 -27 -8 -40 -44 -68 -29 -23 -52 -55 -71 -95 -15 -33 -44 -91
-66 -129 -21 -37 -41 -78 -44 -91 -9 -38 23 -84 150 -215 67 -69 147 -157 178
-196 56 -70 57 -71 113 -78 67 -8 88 -18 220 -106 55 -37 188 -122 295 -190
158 -100 392 -252 409 -266 1 -1 -5 -26 -14 -54 -16 -48 -16 -81 2 -160 1 -8
3 -123 3 -254 l0 -239 -154 -311 c-85 -171 -174 -356 -199 -412 -51 -113 -193
-532 -183 -541 3 -4 6 1 6 10 0 50 162 305 324 512 39 50 100 131 136 180 60
84 65 95 71 160 4 39 8 183 8 320 1 236 2 256 26 336 13 47 38 117 54 155 16
38 59 152 96 253 134 370 174 442 334 591 l105 99 23 -35 c13 -19 28 -34 33
-34 5 0 12 -11 16 -25 5 -20 -18 -65 -114 -228 -158 -266 -352 -630 -418 -783
-78 -181 -101 -266 -128 -484 -14 -107 -30 -224 -36 -260 -5 -36 -16 -118 -24
-182 -9 -71 -23 -132 -35 -156 -25 -50 -86 -124 -241 -297 -114 -127 -203
-236 -225 -275 -13 -24 6 -2 78 90 36 47 90 111 119 143 52 58 54 59 173 93
175 51 229 53 337 15 100 -36 99 -36 92 -16 -4 8 -10 13 -14 10 -4 -3 -41 7
-81 21 -62 21 -86 25 -149 21 -41 -3 -86 -8 -100 -11 -14 -3 -7 1 15 8 64 23
160 19 239 -9 39 -13 72 -22 75 -19 3 2 -5 35 -17 72 -24 75 -27 99 -12 122 7
11 8 5 4 -20 -3 -23 4 -64 23 -120 l28 -85 -17 -70 c-16 -66 -48 -287 -48
-332 0 -17 5 -20 21 -16 19 5 21 3 17 -18 -3 -13 -9 -33 -12 -44 l-8 -20 13
20 c6 11 13 21 14 23 2 2 56 -24 121 -56 66 -33 135 -65 154 -70 51 -16 159
-29 379 -48 366 -31 562 -5 728 96 45 28 84 50 87 50 13 0 4 -19 -19 -41 -13
-13 -25 -27 -25 -31 0 -12 -158 -165 -205 -199 -44 -32 -60 -54 -30 -43 8 4
15 1 15 -6 0 -8 -9 -10 -26 -6 -19 5 -34 -1 -64 -24 -21 -16 -43 -30 -48 -30
-6 0 -15 -6 -19 -12 -17 -28 -260 -145 -287 -139 -4 1 -14 -3 -22 -10 -7 -6
-18 -8 -24 -4 -6 4 -16 2 -23 -3 -7 -5 -19 -10 -27 -11 -8 -1 -26 -2 -40 -4
-14 -1 -31 -6 -38 -10 -6 -5 -17 -5 -22 -2 -6 4 -16 2 -23 -4 -7 -5 -19 -9
-28 -8 -8 2 -71 60 -140 130 -68 70 -130 127 -137 127 -14 0 -16 -26 -2 -35 6
-4 7 1 3 12 -10 27 88 -60 165 -146 78 -87 90 -103 68 -95 -8 3 -21 2 -28 -2
-7 -4 -19 -9 -28 -10 -8 -2 -30 -5 -48 -8 -22 -3 -44 2 -70 15 -21 12 -29 14
-18 5 11 -9 24 -16 30 -16 5 0 1 -6 -9 -14 -10 -7 -26 -11 -36 -9 -9 3 -20 0
-23 -6 -4 -5 -14 -7 -22 -4 -9 3 -20 0 -24 -7 -12 -19 -30 -2 -31 28 -1 29 -3
24 -13 -21 -5 -22 -11 -27 -25 -22 -11 3 -22 1 -26 -5 -4 -6 -15 -8 -25 -5
-10 3 -21 1 -25 -5 -4 -6 -13 -9 -20 -6 -8 3 -19 -1 -25 -9 -6 -7 -19 -11 -29
-8 -10 3 -22 0 -25 -6 -4 -6 -16 -11 -27 -11 -10 0 -19 -4 -19 -10 0 -15 -40
-12 -40 3 0 6 -6 3 -12 -8 -16 -28 -50 -54 -64 -48 -7 2 -15 0 -19 -6 -3 -6
-15 -11 -26 -11 -11 0 -22 -7 -25 -15 -4 -8 -12 -15 -20 -15 -7 0 -21 -16 -30
-35 -16 -35 -16 -36 11 -61 17 -16 34 -23 45 -19 10 3 21 1 25 -5 5 -8 14 -6
31 4 26 18 48 21 39 6 -4 -6 -12 -7 -18 -4 -9 5 -9 3 0 -6 9 -10 16 -10 26 -2
10 9 16 9 25 0 9 -9 12 3 10 52 -1 47 -3 53 -5 24 l-4 -41 -58 1 c-34 1 -68 8
-81 17 l-24 15 22 22 c12 12 22 19 22 15 0 -3 8 1 18 10 10 10 22 14 25 10 4
-3 15 1 26 11 17 16 20 16 35 1 15 -15 16 -15 16 4 0 14 6 21 20 21 11 0 20 5
20 10 0 6 7 10 15 10 8 0 24 4 35 10 11 5 29 15 40 20 12 6 25 8 30 5 5 -3 11
-1 15 5 3 5 17 10 30 10 13 0 26 4 29 9 3 5 15 7 26 4 11 -3 20 0 20 6 0 6 5
11 11 11 8 0 9 -45 4 -160 -4 -89 -3 -160 1 -160 5 0 11 69 12 153 2 85 9 158
14 165 6 7 19 10 29 7 9 -3 20 -1 24 5 4 6 15 8 25 5 10 -3 21 -1 25 5 3 6 11
8 16 4 6 -3 18 -3 27 1 38 17 67 5 194 -77 162 -105 207 -144 214 -181 3 -16
11 -43 19 -60 14 -29 15 -30 10 -5 -3 14 -8 34 -11 45 -6 18 4 8 50 -52 8 -11
15 -16 16 -10 0 6 -29 47 -64 91 -36 45 -76 103 -89 130 -14 27 -41 73 -61
103 -27 40 -34 57 -25 67 6 7 17 10 24 8 8 -3 19 -2 26 2 7 4 30 9 52 11 22 2
46 8 52 13 7 5 15 7 18 3 4 -3 13 0 21 6 8 7 20 10 25 7 6 -4 18 -2 28 3 10 5
35 17 55 25 20 9 40 21 43 26 4 6 10 8 15 5 4 -3 13 2 20 10 7 8 18 15 25 15
7 0 18 7 25 15 7 8 16 13 20 10 4 -3 13 2 20 10 7 8 19 15 27 15 7 0 16 7 19
15 4 8 13 15 20 15 8 0 17 7 20 15 16 41 24 2 26 -127 l2 -143 3 135 c3 154 7
180 29 180 8 0 17 7 20 15 4 8 13 15 20 15 8 0 17 7 20 15 4 8 11 15 18 15 6
0 26 16 43 35 18 19 37 35 43 35 5 0 10 5 10 10 0 6 16 25 35 43 19 17 35 38
35 44 0 7 7 13 15 13 9 0 19 9 23 20 7 18 13 12 48 -42 39 -61 41 -69 63 -228
27 -195 46 -295 72 -370 l19 -56 -25 -64 c-14 -35 -25 -68 -25 -73 0 -4 13
-19 29 -33 21 -17 28 -31 24 -47 -4 -19 -3 -20 7 -5 13 21 0 52 -30 68 -19 10
-19 12 6 82 l26 71 -26 86 c-23 74 -66 319 -66 374 0 13 12 3 39 -31 22 -27
51 -58 65 -70 23 -18 28 -32 41 -134 8 -62 22 -143 31 -179 14 -60 14 -71 0
-126 -9 -34 -16 -81 -16 -106 0 -39 3 -46 19 -44 18 1 18 3 4 30 -20 40 -10
107 22 141 13 14 28 26 32 26 10 1 74 59 94 84 13 18 12 19 -3 13 -19 -7 -25
8 -7 18 16 10 35 -23 58 -100 24 -78 29 -133 18 -185 l-7 -35 16 30 15 30 -6
-30 c-5 -25 -4 -28 7 -17 24 24 15 156 -19 248 -29 81 -29 81 -12 122 10 23
20 59 23 79 3 21 3 30 0 20 -3 -9 -10 -17 -15 -17 -16 0 -10 25 11 43 20 16
21 52 6 137 -14 85 -97 211 -184 281 -51 40 -74 51 -52 24 7 -9 10 -18 7 -21
-10 -10 -27 6 -27 25 0 11 -15 26 -36 37 -20 11 -44 23 -55 29 -14 7 -19 21
-19 51 0 46 -18 68 -45 58 -13 -5 -16 -3 -13 7 3 8 14 15 26 15 22 1 72 41 72
58 0 5 8 14 17 21 15 12 15 15 -1 49 -9 20 -23 36 -30 36 -8 0 -19 7 -26 15
-7 8 -16 13 -20 10 -4 -3 -10 2 -14 10 -3 8 -1 15 3 15 19 0 107 -43 139 -67
18 -14 36 -23 38 -20 9 9 -79 64 -133 83 -46 16 -53 22 -52 44 2 22 2 22 6 4
3 -16 20 -28 63 -43 33 -12 62 -26 65 -31 10 -16 28 -11 21 5 -15 38 -16 48
-1 22 9 -15 13 -33 9 -39 -4 -6 -3 -8 4 -4 9 5 23 -18 27 -44 0 -3 8 -16 17
-30 9 -14 23 -38 32 -55 27 -53 17 -20 -18 56 -18 41 -86 187 -151 324 -64
138 -124 266 -133 285 -9 19 -94 197 -190 395 -244 507 -226 454 -306 880 -17
91 -114 539 -141 649 l-14 59 32 29 c26 26 31 36 28 72 -3 55 24 159 55 213
35 60 128 111 242 132 64 13 60 -4 -6 -19 -173 -38 -259 -130 -278 -300 -8
-73 -10 -73 81 5 63 54 163 117 150 94 -61 -103 -130 -179 -164 -179 -22 0
-31 -8 -50 -46 -25 -52 -21 -62 29 -66 30 -3 36 1 56 37 16 28 20 43 12 52 -7
9 -3 22 14 45 l23 33 3 -25 c2 -14 19 -90 38 -169 25 -104 33 -155 29 -183 -5
-29 -3 -44 9 -57 10 -11 19 -53 26 -122 17 -163 31 -241 51 -286 24 -54 24
-55 -6 -83 -14 -13 -25 -27 -25 -31 0 -5 22 -18 49 -30 46 -20 53 -27 93 -107
24 -48 119 -233 210 -412 222 -434 341 -731 462 -1153 l65 -226 -38 -68 c-47
-86 -71 -123 -81 -123 -4 0 -15 18 -25 40 -10 22 -20 38 -22 36 -2 -2 10 -30
27 -62 17 -33 29 -52 27 -44 -2 8 7 26 20 40 28 30 113 194 138 265 9 28 20
57 25 66 12 23 -61 395 -136 697 -62 247 -66 272 -75 429 -5 91 -6 176 -3 188
3 12 -5 50 -17 85 -20 59 -21 76 -16 214 3 83 15 219 26 303 11 83 27 218 36
300 16 145 17 149 57 210 38 59 41 69 53 184 13 111 17 125 49 172 29 45 35
63 41 132 l7 80 88 85 c86 82 89 87 95 140 5 39 25 89 69 175 70 134 80 178
64 277 -10 65 -10 68 18 114 16 26 36 58 45 73 13 22 25 27 85 33 46 5 84 4
114 -4 52 -14 65 -13 101 13 15 10 40 19 56 20 41 1 60 11 85 45 98 132 85
122 152 129 33 4 119 25 189 46 102 30 145 49 208 91 43 28 79 56 79 61 0 5
-17 -5 -37 -22 -42 -34 -64 -41 -42 -13 8 10 1 4 -16 -12 -16 -17 -37 -37 -46
-43 -19 -15 -239 -83 -268 -83 -45 0 -52 92 -8 110 18 7 18 9 5 9 -23 1 -23 2
7 53 54 91 60 107 45 121 -9 9 -11 9 -6 0 4 -7 -5 -19 -21 -28 -24 -14 -25
-15 -5 -12 27 6 27 6 1 -37 -27 -46 -43 -47 -36 -1 7 43 2 45 -11 5 -9 -23 -8
-33 4 -45 14 -14 13 -18 -11 -46 -14 -18 -35 -50 -47 -73 -25 -49 -84 -128
-104 -139 -23 -13 -64 19 -64 49 0 14 20 53 44 87 24 34 49 72 55 85 11 21 11
22 -7 11 -16 -10 -27 -8 -65 11 -26 13 -57 34 -69 48 l-23 24 22 15 c71 48
115 84 95 78 -16 -5 -22 -2 -22 9 0 8 -11 28 -25 45 l-26 30 53 30 c77 44 55
38 -50 -15 -50 -25 -105 -49 -121 -54 -33 -9 -31 -12 -57 93 -3 15 -10 29 -14
32 -10 6 2 -44 28 -120 33 -94 73 -301 70 -358 -3 -51 -4 -52 -36 -55 -19 -2
-44 4 -58 12 -22 15 -23 21 -18 74 4 37 -1 99 -15 178 -12 67 -21 136 -21 155
0 23 -3 30 -9 20 -7 -11 -10 -11 -15 0 -3 8 -4 3 -2 -11 29 -157 33 -357 8
-382 -8 -8 -23 -9 -49 -2 -32 8 -38 13 -36 34 8 84 11 172 7 155 -4 -11 -11
-25 -16 -32 -5 -7 -7 -16 -4 -21 3 -6 -2 -16 -12 -23 -16 -13 -16 -12 -2 6 14
20 14 20 -7 1 -13 -10 -20 -24 -16 -30 3 -6 3 -8 -2 -4 -9 8 -89 -51 -81 -60
3 -2 -6 -18 -19 -34 -48 -57 -52 -149 -8 -185 17 -13 16 -13 -4 -3 -32 15 -43
41 -43 100 0 47 3 55 37 86 20 19 32 34 27 34 -6 0 -24 -14 -42 -31 -22 -21
-33 -44 -38 -76 -9 -59 3 -92 43 -118 27 -19 29 -23 14 -33 -13 -9 -10 -10 14
-6 36 7 53 8 83 6 29 -2 24 -22 -23 -92 -40 -60 -68 -131 -104 -267 -26 -102
-27 -103 -86 -154 -89 -76 -109 -84 -168 -70 -92 21 -196 115 -221 201 l-13
45 61 65 c66 70 180 218 209 272 l18 33 -21 -27 c-12 -16 -29 -28 -39 -28 -10
0 -40 -7 -67 -15 -43 -13 -56 -23 -94 -77 -69 -96 -92 -137 -84 -150 5 -7 3
-8 -6 -3 -9 5 -11 2 -6 -11 3 -11 10 -41 16 -67 21 -95 72 -162 172 -225 26
-16 45 -31 43 -34 -2 -2 21 -4 52 -4 42 0 62 5 75 18 10 10 24 16 30 12 7 -4
8 -3 4 4 -8 13 28 35 39 24 5 -4 5 -2 2 5 -4 6 20 33 58 64 36 29 65 57 65 62
0 6 2 8 5 5 10 -9 -17 -58 -28 -51 -6 3 -7 1 -4 -4 9 -15 -57 -73 -132 -117
-67 -39 -120 -46 -193 -26 -45 13 -132 80 -159 123 -24 39 -50 125 -51 169
l-1 33 -19 -45 c-12 -28 -15 -46 -9 -48 6 -2 11 -19 11 -38 0 -79 55 -152 167
-226 60 -39 66 -40 128 -36 35 2 59 0 52 -4 -18 -11 -115 -10 -137 2 -17 9
-23 4 -45 -31 -47 -74 -49 -72 47 -67 93 5 115 15 196 92 51 49 54 65 6 36
-19 -12 -37 -20 -39 -18 -5 5 64 46 78 47 4 1 21 16 38 33 l30 33 -15 -30 c-8
-17 -50 -65 -94 -107 -91 -87 -117 -98 -233 -98 -90 0 -123 18 -176 94 -28 40
-33 58 -35 110 -3 97 -3 119 4 157 l6 35 -30 -28 c-17 -16 -56 -44 -88 -64
-52 -32 -60 -41 -80 -97 -13 -34 -36 -88 -51 -119 l-29 -58 -64 0 c-57 0 -68
-3 -106 -34 -23 -18 -42 -37 -43 -42 0 -5 -12 -29 -27 -54 -26 -44 -36 -69
-121 -303 -23 -64 -43 -116 -45 -114 -13 13 -23 147 -15 192 12 65 74 164 139
223 26 23 41 41 33 40 -7 -2 -28 17 -46 42 -30 42 -35 45 -70 42 -38 -4 -38
-4 -31 28 3 18 6 43 6 56 0 13 5 24 10 24 6 0 10 -6 10 -13 0 -17 50 -90 57
-83 3 3 0 12 -6 20 -8 10 -9 16 -1 21 5 3 11 -2 12 -12 0 -10 2 -23 2 -29 2
-16 26 -43 50 -56 17 -9 16 -6 -6 20 -24 28 -48 105 -48 150 0 9 20 56 43 103
24 48 55 120 68 160 l24 74 3 -59 c3 -52 -6 -129 -23 -206 -10 -47 47 84 60
140 20 77 35 210 35 304 l0 79 50 -47 c47 -44 103 -76 132 -76 6 0 -9 13 -34
29 -53 34 -110 106 -162 206 l-36 71 17 35 c28 55 105 179 114 185 16 9 10 82
-11 134 -106 269 -518 562 -879 625 -101 18 -85 19 -151 -8z m274 -58 c165
-55 408 -193 535 -306 105 -92 231 -275 231 -334 0 -14 -18 8 -52 64 -70 115
-146 204 -244 287 -75 65 -246 180 -266 180 -10 0 -8 7 -55 -162 -20 -76 -41
-138 -46 -138 -4 0 -6 4 -3 9 3 5 8 24 11 42 2 19 18 85 34 147 l29 113 -22
14 c-65 43 -271 105 -348 105 -54 0 -125 -30 -211 -89 -115 -80 -112 -73 -93
-182 9 -51 15 -115 15 -143 -1 -43 -4 -35 -19 55 -20 121 -28 149 -40 149 -11
0 -48 -48 -96 -125 -20 -33 -33 -51 -30 -40 36 105 199 279 318 339 43 22 94
42 115 47 58 11 138 0 237 -32z m-239 -19 c3 -5 1 -10 -4 -10 -6 0 -11 5 -11
10 0 6 2 10 4 10 3 0 8 -4 11 -10z m29 -42 c13 -18 18 -19 31 -8 9 8 15 9 15
2 0 -6 -9 -16 -21 -22 -11 -7 -19 -14 -16 -16 3 -3 -4 -28 -15 -56 -11 -29
-15 -54 -10 -57 5 -3 1 -15 -9 -25 -19 -19 -19 -19 -19 0 1 17 11 47 35 109 8
20 8 20 -13 1 l-22 -19 6 31 c5 26 3 32 -10 32 -10 0 -14 -5 -10 -11 11 -18
-17 -88 -32 -82 -8 3 -22 -1 -31 -8 -10 -8 0 10 20 40 21 29 33 50 25 45 -10
-6 -10 -4 1 9 19 24 2 21 -28 -5 -14 -13 -8 -4 14 20 44 47 67 52 89 20z m111
-138 c-9 -36 -75 -101 -100 -98 -24 4 -34 47 -13 59 14 9 18 31 7 39 -4 3 2
27 13 53 l21 48 39 -38 c31 -31 38 -43 33 -63z m-229 48 c-20 -23 -36 -46 -36
-52 0 -6 -4 -4 -10 4 -7 12 -11 10 -18 -10 -5 -14 -12 -32 -15 -40 -3 -8 -6
-1 -6 16 -1 22 8 39 32 62 18 18 36 30 39 27 2 -3 13 4 23 15 34 38 27 20 -9
-22z m259 -49 c-10 -15 -25 -10 -19 6 4 8 10 12 15 9 5 -3 7 -10 4 -15z m-244
-16 c-10 -19 -47 -55 -68 -67 -8 -4 -13 -1 -13 9 0 9 4 14 9 10 15 -8 41 24
35 43 -5 14 -4 15 5 2 8 -12 11 -12 17 3 3 9 10 17 15 17 6 0 6 -7 0 -17z
m-111 -13 c0 -5 -5 -10 -11 -10 -5 0 -7 5 -4 10 3 6 8 10 11 10 2 0 4 -4 4
-10z m150 -15 c-7 -9 -15 -13 -18 -10 -3 2 1 11 8 20 7 9 15 13 18 10 3 -2 -1
-11 -8 -20z m0 -58 c0 -18 -8 -26 -35 -34 -49 -15 -53 1 -8 31 21 15 39 26 40
26 2 0 3 -10 3 -23z m55 -7 c3 -5 1 -10 -4 -10 -6 0 -11 5 -11 10 0 6 2 10 4
10 3 0 8 -4 11 -10z m-168 -36 c-3 -3 -12 -4 -19 -1 -8 3 -5 6 6 6 11 1 17 -2
13 -5z m103 -10 c-34 -14 -34 -14 -5 -10 17 3 38 8 49 12 16 6 17 5 7 -14 -7
-12 -18 -22 -26 -22 -9 0 -12 -6 -9 -15 4 -8 1 -15 -6 -15 -6 0 -9 4 -6 9 7
11 -36 41 -61 42 -10 1 0 7 22 14 54 18 79 17 35 -1z m330 -173 c59 -18 271
-103 289 -117 2 -2 -1 -10 -7 -17 -7 -8 -9 -17 -5 -21 4 -4 -40 14 -98 40
-145 65 -267 94 -416 101 -127 6 -255 -7 -305 -32 -16 -7 -28 -10 -28 -6 0 12
100 54 160 68 86 20 317 10 410 -16z m-603 -38 c15 -21 37 -45 47 -54 27 -22
14 -49 -22 -49 -31 0 -91 35 -102 60 -4 8 -12 25 -18 37 -16 31 -16 31 21 36
17 2 35 5 39 5 4 1 20 -15 35 -35z m718 -103 c-3 -5 -10 -10 -16 -10 -5 0 -9
5 -9 10 0 6 7 10 16 10 8 0 12 -4 9 -10z m-425 -10 c0 -5 -7 -10 -15 -10 -8 0
-15 5 -15 10 0 6 7 10 15 10 8 0 15 -4 15 -10z m160 0 c0 -5 -6 -10 -14 -10
-8 0 -18 5 -21 10 -3 6 3 10 14 10 12 0 21 -4 21 -10z m127 4 c-3 -3 -12 -4
-19 -1 -8 3 -5 6 6 6 11 1 17 -2 13 -5z m333 -4 c0 -5 -4 -10 -10 -10 -5 0
-10 5 -10 10 0 6 5 10 10 10 6 0 10 -4 10 -10z m26 -6 c-3 -9 -6 -18 -6 -20 0
-2 -5 -4 -11 -4 -8 0 -9 4 0 13 6 8 8 17 4 20 -3 4 -1 7 6 7 8 0 11 -6 7 -16z
m-1533 -46 c12 -6 48 -33 80 -60 32 -27 80 -59 105 -73 26 -13 57 -32 68 -42
29 -24 47 -60 34 -68 -5 -3 -10 0 -10 8 0 19 -60 71 -112 98 -23 12 -70 43
-105 70 -72 55 -97 64 -154 56 -44 -6 -50 -1 -16 13 32 13 85 12 110 -2z
m1613 -53 c114 -82 171 -142 215 -226 23 -44 62 -103 88 -132 39 -43 41 -48
15 -29 -37 26 -93 88 -96 105 -3 24 -16 -129 -18 -218 -3 -112 -17 -181 -19
-93 -1 66 -31 213 -41 201 -4 -4 -15 -44 -25 -88 l-18 -80 -12 50 c-14 59 -71
170 -78 152 -3 -7 -6 0 -6 15 -1 40 -36 182 -65 263 -32 91 -33 72 -1 -35 35
-124 55 -251 54 -349 l-1 -86 -9 57 c-4 32 -20 91 -35 130 -21 55 -29 99 -33
178 l-6 105 -8 -132 c-7 -125 -24 -246 -46 -330 -33 -129 -33 -129 -42 -108
-6 17 -8 15 -8 -10 -1 -16 -4 -41 -7 -55 -10 -47 44 64 57 115 6 28 17 57 24
65 6 8 18 30 25 48 11 28 36 52 54 52 13 0 5 -48 -9 -60 -20 -16 -19 -81 1
-106 15 -19 16 -19 8 1 -16 44 -17 78 -3 73 9 -3 15 -23 17 -56 3 -43 0 -52
-18 -62 -12 -6 -19 -14 -17 -17 3 -2 14 0 25 6 22 12 42 60 42 102 0 15 4 31
10 34 5 3 7 20 5 38 -4 28 -4 29 4 7 5 -14 9 -44 10 -67 1 -43 14 -57 25 -27
9 25 7 41 -4 24 -7 -12 -10 -8 -10 15 0 23 3 27 10 15 7 -11 10 -11 10 -2 0
21 -20 55 -44 74 -17 14 -19 19 -8 30 18 17 37 -9 57 -76 19 -64 19 -100 -1
-142 -16 -33 -102 -119 -152 -152 -23 -15 -26 -15 -42 6 -21 25 -30 28 -30 10
-1 -27 -87 -138 -140 -181 -89 -73 -311 -207 -341 -207 -15 0 -41 12 -58 26
-17 14 -29 19 -26 11 4 -9 -4 -18 -24 -27 -35 -14 -112 -126 -107 -156 2 -11
1 -13 -1 -6 -4 10 -9 8 -19 -7 -9 -12 -21 -21 -27 -21 -7 0 -6 4 3 10 12 7 7
12 -22 25 -21 8 -42 15 -48 15 -6 0 -18 4 -28 10 -25 15 -71 32 -122 46 -34 9
-47 9 -53 1 -5 -7 -6 -3 -2 9 8 32 -62 107 -103 110 -27 2 -39 -6 -77 -48 -25
-28 -45 -60 -45 -72 0 -15 -3 -17 -9 -8 -7 11 -9 11 -14 -2 -3 -8 -3 -17 1
-19 4 -2 0 -1 -8 1 -8 3 -32 7 -53 10 -33 4 -39 1 -44 -17 -3 -11 -7 -21 -10
-21 -12 0 -72 36 -95 57 -19 18 -32 23 -48 18 -15 -5 -28 -1 -45 15 -12 11
-56 33 -96 49 -41 15 -106 46 -145 69 -68 39 -72 44 -78 85 -9 59 8 130 44
182 17 24 29 52 29 62 -1 16 -2 15 -6 -2 -11 -44 -55 -85 -134 -124 -68 -34
-91 -41 -141 -41 -33 0 -72 7 -88 15 -45 23 -172 177 -218 264 -42 78 -51 114
-32 126 6 3 10 -2 10 -12 1 -44 142 -254 218 -325 l44 -41 70 7 c115 11 248
78 248 126 0 9 5 21 11 27 8 8 8 17 -1 33 -13 25 -17 20 165 208 127 132 248
212 320 212 32 0 115 33 115 45 0 3 -18 -4 -40 -15 -21 -11 -56 -20 -77 -20
-49 0 -157 -60 -238 -130 -101 -89 -253 -260 -311 -352 -53 -83 -58 -88 -107
-103 -77 -23 -156 -19 -187 8 -30 27 -85 95 -129 160 l-32 47 32 27 c18 15 51
43 74 63 274 229 405 340 472 402 44 40 106 95 137 122 90 76 141 74 246 -14
25 -20 68 -49 95 -63 60 -30 110 -80 102 -101 -7 -18 18 -11 46 12 9 8 20 12
24 9 3 -4 15 1 26 10 20 18 20 18 4 -7 -10 -14 -23 -25 -30 -25 -14 0 -74
-117 -82 -160 -5 -26 -4 -26 9 7 22 57 121 198 139 198 2 0 -7 -33 -20 -72
-37 -115 -56 -241 -48 -327 11 -113 21 -127 28 -40 7 70 39 214 51 227 3 3 6
-19 6 -49 0 -77 25 -182 59 -255 30 -64 90 -148 99 -139 3 2 0 11 -6 18 -13
15 -62 141 -62 159 0 6 10 -2 22 -18 12 -16 34 -42 49 -59 25 -28 26 -33 19
-92 -4 -36 -18 -78 -31 -100 l-23 -38 24 16 c39 25 89 101 83 124 -5 18 -5 18
20 2 40 -26 42 -21 8 18 -53 61 -90 156 -91 235 0 23 -3 30 -9 22 -6 -11 -10
-10 -15 4 -4 10 -4 15 0 11 4 -4 12 -3 18 2 6 4 32 11 58 14 l47 7 -6 -95 c-4
-69 -3 -95 5 -95 7 0 12 13 12 29 0 16 11 59 25 96 14 37 24 70 21 72 -2 3
-14 -23 -27 -56 -12 -34 -23 -60 -23 -59 -1 2 0 29 2 60 3 45 8 58 23 63 29 9
39 -2 41 -48 1 -40 1 -40 5 -7 2 19 11 58 19 85 27 87 24 81 35 65 6 -10 7 -5
3 16 -5 25 4 52 45 131 28 55 78 140 110 190 53 81 62 90 84 86 16 -3 36 -21
53 -47 35 -54 65 -87 75 -81 4 3 11 0 15 -6 4 -8 3 -9 -4 -5 -23 14 -12 -8 20
-41 l32 -33 -30 0 c-64 0 -246 -49 -281 -76 -19 -14 -32 -29 -29 -32 3 -3 14
2 23 10 15 12 37 24 63 33 3 1 12 5 20 8 30 13 186 47 215 47 26 0 34 -7 58
-49 l27 -49 -37 10 c-43 12 -171 14 -220 4 -18 -4 -39 -19 -49 -34 l-17 -27
27 25 c25 22 38 25 125 28 123 5 181 -9 181 -43 l0 -24 -42 19 c-56 26 -185
27 -235 4 -22 -11 -30 -20 -23 -24 9 -6 7 -11 -6 -18 -10 -6 -15 -14 -11 -18
4 -4 17 2 30 13 25 23 107 42 107 24 0 -6 8 -7 17 -4 13 5 15 2 10 -11 -6 -15
-1 -17 36 -15 28 2 41 -1 39 -9 -4 -21 16 -13 23 9 4 12 14 19 23 17 38 -7
-12 -135 -75 -195 -19 -18 -30 -33 -25 -33 18 0 123 122 118 137 -3 8 -2 11 4
8 5 -3 19 11 30 32 l21 38 -4 -140 c-4 -135 -26 -265 -49 -292 -7 -9 -7 -13 0
-13 5 0 31 41 57 90 25 50 50 88 55 85 4 -3 10 15 12 40 2 25 0 45 -4 45 -5 0
-8 -6 -8 -12 0 -14 -63 -154 -73 -165 -4 -3 -2 10 4 28 16 56 28 229 20 301
-4 37 -4 73 0 80 3 7 9 26 13 41 11 47 -10 22 -24 -28 -7 -25 -17 -45 -22 -45
-6 0 -7 8 -3 18 4 9 9 84 11 166 2 110 6 151 16 157 10 7 9 9 -3 9 -9 0 -19 9
-22 20 -6 25 18 33 89 28 l49 -3 18 -50 c16 -48 17 -39 2 33 -7 32 -6 32 21
22 15 -6 56 -31 90 -55z m-981 44 c17 -8 16 -8 -7 -4 -15 3 -30 0 -33 -5 -6
-10 -70 -40 -84 -40 -3 0 -14 14 -23 30 l-17 30 72 -1 c40 0 81 -5 92 -10z
m180 -26 c-10 -14 -26 -41 -37 -60 -11 -18 -22 -33 -25 -33 -2 0 10 25 28 57
42 73 21 60 -25 -16 -35 -58 -46 -88 -26 -76 16 10 12 -2 -13 -43 -13 -20 -32
-58 -42 -84 -16 -43 -21 -48 -48 -48 l-29 0 7 58 c4 31 20 91 36 131 15 41 26
77 23 80 -13 14 -55 -104 -76 -216 -6 -35 -14 -63 -17 -63 -3 0 -5 -44 -4 -97
2 -81 0 -92 -8 -64 -6 19 -9 61 -7 93 2 32 1 58 -2 58 -7 0 6 196 15 235 5 20
4 27 -3 20 -14 -14 -32 -152 -32 -245 0 -159 47 -360 101 -433 39 -54 11 -38
-45 25 -105 117 -141 228 -134 420 3 97 5 106 36 153 l34 50 -31 -35 c-29 -32
-41 -63 -56 -132 -4 -19 -12 -28 -25 -28 -15 0 -22 -14 -35 -75 -10 -42 -15
-85 -12 -98 3 -12 2 -38 -3 -57 -15 -65 -11 82 4 157 21 95 56 205 70 218 7 5
24 29 39 52 29 45 71 72 150 93 26 7 47 17 47 21 0 5 37 9 81 9 l81 0 -17 -27z
m177 -7 c-11 -17 -38 -62 -62 -100 -23 -38 -61 -107 -84 -152 l-42 -83 -31 19
-31 19 23 78 c21 71 62 192 80 236 6 15 19 17 86 16 l80 -1 -19 -32z m146 12
c6 -13 21 -39 34 -57 33 -50 4 -28 -32 24 -32 46 -35 55 -22 55 5 0 14 -10 20
-22z m180 -70 c12 -51 22 -122 22 -158 l0 -65 -30 45 c-34 52 -37 62 -12 53 9
-3 14 -3 10 1 -3 4 -14 9 -24 10 -12 2 -43 43 -81 104 l-62 102 78 0 77 0 22
-92z m26 -3 c4 -31 3 -44 -2 -35 -5 8 -12 42 -15 75 -6 68 6 38 17 -40z m-563
-61 c-11 -32 -27 -85 -36 -116 -14 -51 -19 -58 -40 -58 -14 0 -25 6 -25 13 0
25 107 233 116 224 2 -2 -5 -30 -15 -63z m-131 -186 c0 -2 -8 -25 -19 -52
l-19 -50 -7 42 c-8 47 -2 62 26 62 10 0 19 -1 19 -2z m72 -4 c3 -3 3 -17 -1
-32 -6 -19 -14 -26 -27 -24 -18 2 -18 2 -1 -12 25 -20 13 -54 -21 -62 -47 -10
-48 -12 -9 -13 60 -1 33 -21 -29 -21 l-54 0 1 58 c0 59 2 58 29 -13 5 -16 10
-9 25 35 10 30 22 63 27 73 8 16 48 24 60 11z m1781 -23 c-30 -49 -139 -184
-177 -220 l-36 -35 0 26 c0 14 23 61 52 104 29 44 53 87 54 97 2 24 5 27 61
42 67 18 67 18 46 -14z m-1713 -6 c18 -21 -18 -85 -48 -85 -23 0 -24 3 -18 38
12 64 15 70 36 65 11 -3 24 -11 30 -18z m-395 -55 c-10 -33 -20 -58 -22 -56
-2 2 4 31 14 64 10 33 20 59 22 56 2 -2 -4 -31 -14 -64z m42 -32 c-2 -18 -4
-4 -4 32 0 36 2 50 4 33 2 -18 2 -48 0 -65z m1111 52 c11 -32 10 -33 -3 -16
-8 11 -15 29 -15 40 0 25 4 19 18 -24z m-210 -25 c-6 -14 -13 -24 -14 -22 -6
6 9 47 17 47 5 0 3 -11 -3 -25z m209 -21 c-3 -3 -12 -4 -19 -1 -8 3 -5 6 6 6
11 1 17 -2 13 -5z m-797 -23 c0 -5 -9 -11 -20 -14 -11 -3 -20 -1 -20 3 0 5 8
11 18 13 9 3 18 5 20 6 1 0 2 -3 2 -8z m780 -5 c0 -3 -4 -8 -10 -11 -5 -3 -10
-1 -10 4 0 6 5 11 10 11 6 0 10 -2 10 -4z m-2250 -30 c0 -3 -130 -111 -167
-139 -8 -6 -18 4 -32 32 -26 49 -26 61 -3 61 13 0 14 -2 4 -9 -11 -6 -10 -15
4 -44 l17 -36 59 46 c32 25 64 53 70 61 11 13 10 14 -7 9 -11 -3 -42 -8 -70
-11 -33 -3 -22 1 35 13 47 10 86 19 88 20 1 0 2 -1 2 -3z m1167 -43 c-3 -10
-5 -2 -5 17 0 19 2 27 5 18 2 -10 2 -26 0 -35z m1138 7 c3 -5 1 -10 -4 -10 -6
0 -11 5 -11 10 0 6 2 10 4 10 3 0 8 -4 11 -10z m1266 -4 c5 3 9 0 9 -5 0 -6
-7 -11 -15 -11 -8 0 -15 8 -14 18 0 10 3 12 6 4 2 -6 9 -10 14 -6z m-2394 -48
c-3 -8 -6 -5 -6 6 -1 11 2 17 5 13 3 -3 4 -12 1 -19z m2368 -15 c-16 -38 -33
-62 -22 -30 4 11 10 30 13 43 3 13 10 24 15 24 5 0 2 -17 -6 -37z m-1078 -5
c-3 -7 -5 -2 -5 12 0 14 2 19 5 13 2 -7 2 -19 0 -25z m42 -128 c-4 -22 -7 0
-6 60 0 85 1 89 6 35 4 -33 4 -76 0 -95z m-2686 -83 c81 -108 142 -165 183
-173 60 -11 147 2 203 31 l54 27 -20 -29 c-10 -15 -24 -40 -31 -56 l-12 -27
30 22 c28 20 44 48 19 33 -6 -4 0 9 13 28 12 20 24 35 25 33 1 -1 -2 -19 -8
-39 -18 -66 -165 -157 -282 -175 -55 -9 -61 -7 -137 30 -46 22 -104 61 -137
92 l-57 53 58 88 c65 100 65 81 3 191 l-24 41 -42 -78 c-31 -58 -40 -85 -36
-106 l5 -28 -11 27 c-9 24 -5 38 38 117 l48 89 32 -59 c17 -33 56 -93 86 -132z
m1384 173 c-3 -11 -2 -20 2 -20 3 0 15 -24 26 -52 29 -79 29 -79 -10 -4 -20
37 -34 74 -31 82 8 22 19 17 13 -6z m2334 -32 c-8 -23 -41 -58 -41 -44 0 9 44
75 48 72 1 -2 -2 -14 -7 -28z m-1120 -1 c-10 -9 -11 -8 -5 6 3 10 9 15 12 12
3 -3 0 -11 -7 -18z m26 1 c-3 -8 -6 -5 -6 6 -1 11 2 17 5 13 3 -3 4 -12 1 -19z
m-47 -32 c0 -2 -8 -10 -17 -17 -16 -13 -17 -12 -4 4 13 16 21 21 21 13z m21
-33 c-12 -20 -14 -14 -5 12 4 9 9 14 11 11 3 -2 0 -13 -6 -23z m-2094 -22 c0
-11 -5 -17 -11 -14 -5 4 -7 -1 -3 -9 3 -9 -2 -23 -11 -31 -38 -32 -40 -26 -10
22 17 28 32 51 34 51 1 0 2 -9 1 -19z m2026 8 c-6 -6 -10 -17 -9 -23 2 -6 1
-7 -2 -3 -2 4 -11 2 -20 -5 -10 -7 -6 0 7 15 14 15 27 27 30 27 3 0 0 -5 -6
-11z m43 -46 l-15 -28 -1 28 c0 16 4 26 10 22 6 -3 10 -1 10 6 0 7 3 10 6 7 3
-4 -1 -19 -10 -35z m-1049 -15 c-3 -8 -6 -5 -6 6 -1 11 2 17 5 13 3 -3 4 -12
1 -19z m938 2 c-3 -5 -16 -15 -28 -21 -19 -9 -19 -8 3 10 28 23 34 26 25 11z
m72 -37 c-3 -10 -5 -4 -5 12 0 17 2 24 5 18 2 -7 2 -21 0 -30z m-142 17 c3 -5
1 -10 -4 -10 -6 0 -11 5 -11 10 0 6 2 10 4 10 3 0 8 -4 11 -10z m122 -22 c-3
-7 -5 -2 -5 12 0 14 2 19 5 13 2 -7 2 -19 0 -25z m-984 1 c-8 -8 -13 -7 -18 2
-5 8 -4 10 3 5 7 -4 12 -2 12 5 0 7 3 9 7 6 4 -4 2 -12 -4 -18z m816 -32 c-8
-48 -43 -144 -60 -167 -9 -13 -10 -13 -5 2 16 52 27 101 22 105 -2 3 -14 -28
-26 -69 -12 -40 -29 -79 -38 -85 -10 -9 -11 -13 -3 -13 7 0 9 -5 5 -12 -4 -7
20 15 53 50 l61 62 4 -36 c4 -35 3 -37 -46 -58 -105 -47 -143 -100 -165 -231
-17 -102 -67 -170 -143 -199 -53 -20 -136 -81 -125 -92 3 -3 22 10 43 28 35
31 202 103 213 92 3 -3 0 -14 -7 -25 -8 -12 -10 -33 -6 -53 6 -32 2 -37 -63
-91 -37 -31 -111 -85 -163 -120 -52 -35 -111 -75 -129 -89 -19 -14 -39 -22
-43 -18 -14 14 -28 163 -23 227 11 118 23 130 70 74 14 -17 28 -29 31 -26 11
10 -31 56 -59 66 -27 10 -27 11 -13 39 8 16 54 66 102 111 82 78 88 82 96 61
9 -24 0 -98 -13 -106 -5 -3 -9 -10 -9 -17 0 -6 7 -4 17 5 28 29 28 113 -1 197
-20 57 -23 76 -14 82 7 4 73 45 147 90 145 91 236 167 266 223 26 48 34 45 24
-7z m-2500 -52 c0 -5 -8 6 -19 25 -11 19 -19 40 -19 45 0 6 8 -6 19 -25 11
-19 19 -39 19 -45z m2528 53 c-3 -8 -6 -5 -6 6 -1 11 2 17 5 13 3 -3 4 -12 1
-19z m-871 -20 c-9 -12 -16 -19 -16 -15 0 11 24 47 28 42 2 -2 -3 -14 -12 -27z
m865 -26 c-9 -31 -39 -92 -46 -92 -2 0 4 19 14 43 10 23 21 50 24 60 10 28 16
19 8 -11z m106 -4 c-3 -8 -6 -5 -6 6 -1 11 2 17 5 13 3 -3 4 -12 1 -19z m38
-56 c-6 -15 -8 -15 -21 2 -8 11 -14 25 -14 30 1 6 7 0 15 -14 14 -25 14 -25
16 15 2 32 3 34 6 12 3 -16 2 -36 -2 -45z m-78 6 c-3 -8 -6 -5 -6 6 -1 11 2
17 5 13 3 -3 4 -12 1 -19z m-10 -70 c-3 -7 -5 -2 -5 12 0 14 2 19 5 13 2 -7 2
-19 0 -25z m-22 -10 c6 -4 2 -8 -7 -8 -10 0 -18 7 -18 17 0 9 3 12 8 7 4 -5
12 -12 17 -16z m-1166 -98 c10 0 28 -11 41 -25 18 -19 26 -22 33 -13 6 9 7 7
3 -6 -4 -10 -2 -24 4 -31 14 -17 10 -19 -80 -39 -41 -10 -80 -19 -86 -21 -6
-2 -17 1 -25 6 -10 6 -11 11 -2 20 6 6 9 19 6 28 -3 12 -2 13 4 3 7 -9 18 -1
44 30 18 24 33 50 32 58 -2 9 0 10 3 3 3 -7 14 -13 23 -13z m1316 12 c-6 -5
-36 -14 -67 -21 -76 -16 -172 -65 -194 -99 -10 -15 -26 -52 -36 -82 -16 -49
-18 -50 -13 -15 8 51 47 118 84 145 49 34 126 61 231 79 2 1 0 -3 -5 -7z
m-1275 -12 c0 -5 -2 -10 -4 -10 -3 0 -8 5 -11 10 -3 6 -1 10 4 10 6 0 11 -4
11 -10z m-94 -25 c-9 -9 -16 -13 -16 -8 0 12 22 34 28 28 2 -2 -3 -11 -12 -20z
m671 -27 c-3 -8 -6 -5 -6 6 -1 11 2 17 5 13 3 -3 4 -12 1 -19z m-532 -77 c-3
-5 2 -17 11 -26 19 -18 14 -28 -9 -19 -28 10 -33 54 -6 54 6 0 8 -4 4 -9z
m515 5 c0 -2 -8 -10 -17 -17 -16 -13 -17 -12 -4 4 13 16 21 21 21 13z m-345
-24 c-3 -3 -11 0 -18 7 -9 10 -8 11 6 5 10 -3 15 -9 12 -12z m40 -20 c-3 -3
-11 0 -18 7 -9 10 -8 11 6 5 10 -3 15 -9 12 -12z m-88 2 c-3 -3 -12 -4 -19 -1
-8 3 -5 6 6 6 11 1 17 -2 13 -5z m135 -9 c3 0 9 -3 13 -7 4 -3 0 -5 -9 -4 -9
1 -22 8 -29 16 -10 10 -9 11 3 4 8 -5 18 -9 22 -9z m-239 -36 c10 -10 30 -22
45 -25 15 -4 32 -9 37 -13 6 -3 16 -6 23 -7 27 -5 25 -14 -4 -15 -16 0 -36 -2
-44 -4 -8 -1 -34 -6 -58 -9 -23 -4 -61 -13 -83 -21 -40 -14 -40 -14 -33 8 13
44 45 98 54 92 6 -3 7 1 3 11 -5 13 -2 15 18 9 13 -4 32 -16 42 -26z m537 28
c0 -2 -11 -14 -24 -26 -18 -17 -26 -19 -31 -10 -5 7 -4 10 2 6 6 -4 18 2 28
13 17 19 25 24 25 17z m-840 -37 c-8 -5 -19 -10 -25 -10 -5 0 -3 5 5 10 8 5
20 10 25 10 6 0 3 -5 -5 -10z m400 1 c0 -5 17 -12 38 -17 20 -4 30 -9 21 -11
-9 -2 -38 5 -65 16 -41 17 -45 20 -21 20 15 1 27 -3 27 -8z m217 -78 c-2 -16
-4 -3 -4 27 0 30 2 43 4 28 2 -16 2 -40 0 -55z m-657 57 c0 -5 -5 -10 -11 -10
-5 0 -7 5 -4 10 3 6 8 10 11 10 2 0 4 -4 4 -10z m1237 -32 c-3 -8 -6 -5 -6 6
-1 11 2 17 5 13 3 -3 4 -12 1 -19z m-113 -55 c-31 -22 -35 -14 -12 22 21 31
23 32 26 13 2 -13 -4 -27 -14 -35z m-730 16 c11 -2 21 -10 22 -17 1 -7 0 -8
-3 -2 -7 16 -15 13 -115 -35 -79 -38 -94 -42 -97 -28 -2 9 5 23 15 30 21 15
103 40 141 42 7 1 10 8 7 19 -4 10 -3 13 3 6 4 -7 17 -13 27 -15z m20 -89
c-37 -38 -83 -91 -102 -117 -37 -52 -121 -217 -123 -242 -1 -9 -5 -2 -9 14 -9
37 -12 179 -4 188 3 3 7 26 8 51 1 25 4 47 6 49 17 14 267 126 284 127 4 0
-22 -31 -60 -70z m-314 -40 c0 -5 -2 -10 -4 -10 -3 0 -8 5 -11 10 -3 6 -1 10
4 10 6 0 11 -4 11 -10z m1492 -46 c34 -19 66 -38 70 -42 5 -6 -47 -210 -57
-220 -2 -2 -124 53 -144 65 -7 5 51 233 59 233 5 0 37 -16 72 -36z m-483 -19
c-13 -13 -14 -24 -5 -65 12 -58 2 -101 -77 -355 -28 -88 -51 -172 -51 -187 -1
-14 -4 -24 -8 -22 -4 3 -12 -15 -19 -38 -12 -45 -64 -178 -123 -315 -19 -46
-33 -83 -31 -83 7 0 57 103 110 225 62 144 254 539 259 534 2 -2 14 -65 26
-139 12 -74 26 -145 30 -157 11 -27 5 -37 -246 -369 -102 -136 -234 -319 -294
-408 -59 -89 -128 -187 -152 -219 l-45 -57 -11 27 c-71 187 -142 561 -142 748
0 79 5 106 39 205 67 198 155 410 170 410 3 0 24 -57 46 -127 l40 -126 12 42
c19 66 43 257 44 356 l2 90 8 -92 c5 -51 14 -104 21 -117 l13 -25 133 89 c73
49 160 112 195 140 61 49 86 65 56 35z m671 -176 c0 -5 -4 -9 -9 -9 -5 0 -24
-12 -41 -26 -43 -37 -51 -21 -11 20 30 31 61 38 61 15z m10 -39 c0 -11 -6 -20
-13 -20 -7 0 -24 -11 -39 -25 -19 -18 -28 -21 -31 -11 -7 19 40 62 81 75 1 1
2 -8 2 -19z m-104 -122 c-5 -37 -16 -63 -35 -86 l-28 -33 7 43 c4 24 12 62 19
86 7 23 9 46 7 51 -3 5 0 24 6 42 l12 34 9 -42 c5 -23 6 -65 3 -95z m-495 69
c-10 -9 -11 -8 -5 6 3 10 9 15 12 12 3 -3 0 -11 -7 -18z m393 -32 c13 -14 13
-21 -5 -72 -10 -31 -22 -81 -26 -110 -5 -42 -9 -53 -24 -53 -10 0 -17 6 -14
13 18 57 45 202 40 218 -8 23 8 25 29 4z m95 -137 c-7 -12 -34 -53 -61 -90
-45 -61 -52 -67 -76 -62 -37 9 -42 13 -36 28 3 7 16 11 33 8 24 -3 34 5 85 73
55 72 82 94 55 43z m-1649 -195 c0 -38 -16 -45 -35 -16 l-18 28 21 -19 c31
-27 27 -13 -8 36 -41 56 -37 72 5 26 19 -21 35 -46 35 -55z m1215 -41 c-20
-26 -110 -143 -201 -261 -90 -118 -210 -282 -267 -363 -287 -417 -396 -554
-489 -613 -25 -16 -28 -16 -28 -1 0 9 3 15 8 15 17 -3 32 1 30 9 -1 4 41 51
94 104 53 53 94 98 92 100 -1 2 20 33 48 68 27 36 95 133 150 215 141 210 529
726 541 718 6 -3 7 -1 3 5 -3 6 4 27 15 47 18 31 24 34 31 21 7 -12 0 -29 -27
-64z m418 -3 l63 -32 -47 -44 -48 -45 -66 30 c-36 17 -65 34 -65 37 0 3 18 -4
40 -15 21 -11 43 -20 47 -20 4 1 -9 10 -31 21 -37 20 -38 21 -18 35 14 9 19
21 15 31 -4 10 -2 14 4 10 6 -4 13 0 17 8 8 21 17 19 89 -16z m-1505 -347 l-2
-117 -6 115 c-3 63 -7 109 -8 101 -1 -8 -4 -12 -7 -9 -9 8 6 38 16 32 5 -3 8
-58 7 -122z m-57 1 c-12 -20 -14 -14 -5 12 4 9 9 14 11 11 3 -2 0 -13 -6 -23z
m-34 -105 c-3 -8 -6 -5 -6 6 -1 11 2 17 5 13 3 -3 4 -12 1 -19z m-10 -50 c-3
-7 -5 -2 -5 12 0 14 2 19 5 13 2 -7 2 -19 0 -25z m110 -15 c-3 -10 -5 -2 -5
17 0 19 2 27 5 18 2 -10 2 -26 0 -35z m-120 -50 c-3 -10 -5 -4 -5 12 0 17 2
24 5 18 2 -7 2 -21 0 -30z m130 -10 c-3 -10 -5 -4 -5 12 0 17 2 24 5 18 2 -7
2 -21 0 -30z m-140 -70 c-3 -10 -5 -4 -5 12 0 17 2 24 5 18 2 -7 2 -21 0 -30z
m150 -10 c-3 -10 -5 -2 -5 17 0 19 2 27 5 18 2 -10 2 -26 0 -35z m-160 -70
c-3 -10 -5 -2 -5 17 0 19 2 27 5 18 2 -10 2 -26 0 -35z m170 0 c-3 -10 -5 -2
-5 17 0 19 2 27 5 18 2 -10 2 -26 0 -35z m-180 -60 c-3 -10 -5 -4 -5 12 0 17
2 24 5 18 2 -7 2 -21 0 -30z m190 -10 c-3 -10 -5 -2 -5 17 0 19 2 27 5 18 2
-10 2 -26 0 -35z m-202 -93 c-4 -34 -9 -59 -12 -57 -2 3 -1 33 3 66 4 34 9 60
11 57 3 -3 2 -32 -2 -66z m212 33 c-3 -10 -5 -4 -5 12 0 17 2 24 5 18 2 -7 2
-21 0 -30z m10 -90 c-3 -10 -5 -2 -5 17 0 19 2 27 5 18 2 -10 2 -26 0 -35z
m-240 -70 c-3 -10 -5 -2 -5 17 0 19 2 27 5 18 2 -10 2 -26 0 -35z m238 -248
c-8 -22 -12 -29 -9 -15 4 14 10 88 13 165 l6 140 3 -125 c2 -95 -1 -135 -13
-165z m-248 163 c-2 -13 -4 -5 -4 17 -1 22 1 32 4 23 2 -10 2 -28 0 -40z m290
-50 c-3 -7 -5 -2 -5 12 0 14 2 19 5 13 2 -7 2 -19 0 -25z m-300 -35 c-3 -10
-5 -2 -5 17 0 19 2 27 5 18 2 -10 2 -26 0 -35z m308 8 c3 -5 1 -12 -5 -16 -5
-3 -10 1 -10 9 0 18 6 21 15 7z m-318 -53 c-3 -8 -6 -5 -6 6 -1 11 2 17 5 13
3 -3 4 -12 1 -19z m1836 -18 c3 -11 1 -20 -4 -20 -5 0 -9 9 -9 20 0 11 2 20 4
20 2 0 6 -9 9 -20z m-1853 -37 c0 -5 -10 -19 -21 -33 l-21 -25 18 33 c18 32
24 38 24 25z m1837 -15 c-3 -8 -6 -5 -6 6 -1 11 2 17 5 13 3 -3 4 -12 1 -19z
m92 -113 c0 -5 -15 19 -34 55 -19 36 -34 70 -34 75 0 6 15 -19 34 -55 19 -36
34 -69 34 -75z m-45 -30 c-8 -25 -8 -53 0 -85 3 -14 3 -18 0 -10 -3 8 -13 20
-20 26 -12 10 -12 17 1 49 16 36 15 38 -15 84 -16 26 -30 52 -30 57 0 5 16
-16 35 -46 24 -37 33 -62 29 -75z m-1950 58 c-15 -21 -48 -60 -73 -87 -41 -43
-43 -48 -21 -43 83 17 87 15 20 -7 -41 -14 -76 -26 -78 -26 -2 0 17 21 41 48
25 26 64 71 87 100 48 60 64 70 24 15z m2065 -178 c0 -5 -13 15 -29 45 -16 30
-29 60 -29 65 0 6 13 -15 29 -45 16 -30 29 -59 29 -65z m-102 -37 c-3 -7 -5
-2 -5 12 0 14 2 19 5 13 2 -7 2 -19 0 -25z m-83 -75 c-31 -89 -49 -129 -64
-138 -5 -3 -30 6 -55 21 -54 31 -62 27 -89 -44 -30 -77 -55 -77 -175 -5 l-96
58 99 7 c157 11 281 62 367 151 19 19 36 33 37 31 2 -1 -8 -38 -24 -81z
m-1323 -17 c30 -14 75 -28 102 -31 26 -4 47 -10 47 -14 0 -3 -45 -30 -100 -58
l-99 -53 -29 53 c-27 46 -72 166 -72 189 0 4 22 -8 49 -27 26 -19 72 -46 102
-59z m1443 -37 c-3 -5 -10 -7 -15 -3 -5 3 -7 10 -3 15 3 5 10 7 15 3 5 -3 7
-10 3 -15z m-1115 -116 c66 -64 118 -120 115 -124 -3 -5 -15 -14 -27 -19 l-22
-11 22 17 c22 16 21 17 -100 135 -67 65 -119 119 -115 119 3 0 60 -52 127
-117z m1161 97 c0 -5 -4 -10 -10 -10 -5 0 -10 5 -10 10 0 6 5 10 10 10 6 0 10
-4 10 -10z m-1320 -5 c0 -8 -131 -77 -137 -72 -3 3 26 22 63 41 76 39 74 38
74 31z m364 -17 c80 -2 145 -6 143 -9 -3 -8 -146 -130 -182 -156 l-29 -21
-101 95 c-55 53 -101 99 -103 102 -1 4 26 4 62 0 35 -5 130 -9 210 -11z m171
-19 c-22 -22 -78 -70 -125 -107 -47 -36 -87 -67 -90 -70 -10 -7 146 -109 243
-159 l49 -24 55 41 c65 49 193 169 193 180 0 5 -26 23 -57 41 -82 46 -220 139
-207 139 6 0 33 -16 60 -35 27 -20 88 -59 136 -87 72 -41 86 -53 79 -67 -23
-42 -235 -221 -263 -221 -33 0 -303 173 -296 190 2 4 24 25 50 46 26 22 78 65
117 96 38 32 73 62 76 68 3 5 9 10 13 10 3 0 -12 -18 -33 -41z m761 27 c19
-19 18 -32 -5 -55 -18 -18 -19 -17 -28 25 -8 36 -8 44 4 44 8 0 21 -6 29 -14z
m44 -25 c0 -6 -4 -13 -10 -16 -5 -3 -10 1 -10 9 0 9 5 16 10 16 6 0 10 -4 10
-9z m-340 -5 c0 -2 -7 -9 -15 -16 -13 -11 -14 -10 -9 4 5 14 24 23 24 12z
m-1252 -79 c-13 -10 -41 -27 -63 -37 -39 -20 -36 -17 29 26 21 14 31 28 30 44
-1 22 0 22 13 4 12 -16 11 -21 -9 -37z m1282 38 c30 -16 32 -38 3 -49 -8 -4
-13 -13 -9 -21 7 -19 2 -19 -35 0 -16 9 -27 20 -25 24 3 4 10 20 15 35 12 30
13 31 51 11z m68 -13 c7 7 25 7 61 -2 28 -7 51 -14 51 -16 0 -11 -78 -73 -92
-74 -19 0 -44 37 -39 58 1 8 -5 26 -14 40 l-16 27 19 -22 c14 -15 22 -19 30
-11z m67 18 c13 -6 15 -9 5 -9 -8 0 -22 4 -30 9 -18 12 -2 12 25 0z m145 0 c0
-5 -4 -10 -10 -10 -5 0 -10 5 -10 10 0 6 5 10 10 10 6 0 10 -4 10 -10z m-349
-27 c-12 -20 -14 -14 -5 12 4 9 9 14 11 11 3 -2 0 -13 -6 -23z m256 11 c-3 -3
-12 -4 -19 -1 -8 3 -5 6 6 6 11 1 17 -2 13 -5z m-1410 -11 c-4 -3 0 -18 9 -32
l15 -26 -20 24 c-19 21 -20 41 -4 41 4 0 3 -3 0 -7z m1473 -13 c0 -5 -7 -10
-15 -10 -8 0 -15 5 -15 10 0 6 7 10 15 10 8 0 15 -4 15 -10z m-1426 -102 c37
-49 62 -88 56 -88 -10 0 -77 29 -193 85 l-58 28 58 38 c32 21 61 35 64 31 3
-4 36 -46 73 -94z m1134 58 c32 -17 35 -17 55 1 14 12 18 13 12 3 -21 -39 -26
-40 -66 -20 -21 11 -42 20 -46 20 -4 -1 14 -12 41 -26 33 -18 52 -22 59 -15 7
7 16 7 29 0 19 -10 19 -12 2 -30 -29 -33 -103 -70 -208 -106 -85 -29 -186 -55
-186 -49 0 1 37 35 83 74 45 39 91 85 102 101 11 17 29 32 40 33 11 2 24 13
30 25 5 12 12 18 15 14 3 -5 20 -16 38 -25z m-1033 -144 l41 -44 102 45 c56
25 102 43 102 40 0 -2 -46 -26 -102 -53 l-103 -49 -21 20 c-12 11 -50 57 -84
102 -36 48 -43 61 -18 32 24 -27 61 -70 83 -93z m1313 93 c-1 -39 -6 -41 -33
-21 -18 13 -18 15 -2 40 22 34 37 25 35 -19z m-1638 25 c-8 -5 -19 -10 -25
-10 -5 0 -3 5 5 10 8 5 20 10 25 10 6 0 3 -5 -5 -10z m1580 -10 c0 -5 -4 -10
-10 -10 -5 0 -10 5 -10 10 0 6 5 10 10 10 6 0 10 -4 10 -10z m-52 -30 c-11
-18 -28 -27 -28 -16 0 16 14 36 26 36 12 0 12 -4 2 -20z m-753 -78 c61 -41
112 -76 114 -78 8 -7 -378 25 -415 35 -25 6 -21 10 57 48 46 22 93 48 104 57
11 8 22 14 25 13 3 -1 55 -35 115 -75z m785 68 c0 -5 -7 -10 -15 -10 -8 0 -15
5 -15 10 0 6 7 10 15 10 8 0 15 -4 15 -10z m30 -11 c0 -5 -4 -9 -10 -9 -5 0
-10 7 -10 16 0 8 5 12 10 9 6 -3 10 -10 10 -16z m-60 -31 c0 -13 -20 -9 -36 6
-21 21 -17 26 11 13 14 -7 25 -15 25 -19z m104 6 c4 -10 1 -14 -6 -12 -15 5
-23 28 -10 28 5 0 13 -7 16 -16z m-64 -4 c-19 -13 -30 -13 -30 0 0 6 10 10 23
10 18 0 19 -2 7 -10z m111 -16 c12 -14 11 -16 -5 -13 -11 2 -21 10 -24 17 -5
17 13 15 29 -4z m-130 -42 c8 -40 4 -40 -16 -2 -18 35 -19 43 -3 38 7 -3 15
-19 19 -36z m74 28 c-3 -5 -15 -10 -26 -10 -10 0 -19 5 -19 10 0 6 12 10 26
10 14 0 23 -4 19 -10z m-125 -10 c0 -5 -7 -10 -15 -10 -8 0 -15 5 -15 10 0 6
7 10 15 10 8 0 15 -4 15 -10z m235 -1 c12 -19 -5 -23 -22 -6 -16 16 -16 17 -1
17 9 0 20 -5 23 -11z m-113 -38 c10 -13 10 -14 -2 -3 -17 15 -40 16 -40 2 0
-12 7 -21 73 -90 26 -28 47 -60 47 -72 0 -12 3 -19 6 -15 4 3 -1 38 -11 77
-10 39 -15 73 -13 75 12 13 112 -57 166 -117 14 -16 33 -28 42 -28 9 0 25 -9
35 -20 18 -20 18 -21 -1 -14 -10 4 -25 11 -31 17 -18 13 -16 6 8 -45 12 -23
26 -52 30 -63 12 -27 17 -125 7 -131 -4 -3 -8 -16 -8 -30 0 -35 -12 -30 -38
19 -12 23 -56 82 -97 132 -41 49 -75 95 -75 102 0 7 -6 13 -12 14 -7 0 -41 34
-75 75 -50 59 -63 82 -63 109 0 28 3 32 20 28 10 -3 25 -13 32 -22z m50 17
c-17 -8 -26 -8 -34 0 -9 9 -4 12 23 11 32 0 33 -1 11 -11z m-216 -25 c-10 -10
-19 5 -10 18 6 11 8 11 12 0 2 -7 1 -15 -2 -18z m272 8 c11 -6 10 -9 -5 -13
-23 -6 -45 1 -37 13 7 11 25 11 42 0z m-44 -190 c120 -137 188 -226 217 -283
32 -62 7 -42 -38 30 -23 37 -103 139 -178 226 -75 88 -143 173 -151 190 l-15
31 28 -35 c15 -19 77 -90 137 -159z m-20 153 c10 -37 2 -39 -11 -4 -6 17 -8
30 -3 30 4 0 11 -12 14 -26z m174 2 c3 -12 -1 -17 -10 -14 -7 3 -15 13 -16 22
-3 12 1 17 10 14 7 -3 15 -13 16 -22z m-408 5 c0 -6 -4 -13 -10 -16 -5 -3 -10
1 -10 9 0 9 5 16 10 16 6 0 10 -4 10 -9z m354 0 c7 -10 -23 -20 -41 -14 -7 3
-13 9 -13 14 0 12 47 12 54 0z m34 -30 c11 -6 10 -10 -4 -15 -10 -4 -24 0 -33
9 -14 13 -13 15 4 15 11 0 26 -4 33 -9z m61 -17 c3 -16 1 -17 -13 -5 -19 16
-21 34 -3 29 6 -3 14 -13 16 -24z m-484 6 c-3 -5 -11 -10 -16 -10 -6 0 -7 5
-4 10 3 6 11 10 16 10 6 0 7 -4 4 -10z m470 -30 c4 -6 -5 -10 -19 -10 -14 0
-26 5 -26 10 0 6 9 10 19 10 11 0 23 -4 26 -10z m55 -21 c0 -11 -4 -17 -10
-14 -5 3 -10 15 -10 26 0 11 5 17 10 14 6 -3 10 -15 10 -26z m-560 11 c0 -5
-4 -10 -10 -10 -5 0 -10 5 -10 10 0 6 5 10 10 10 6 0 10 -4 10 -10z m311 -111
c42 -49 70 -105 49 -97 -14 5 -122 141 -131 166 -14 36 -10 39 14 11 12 -15
43 -51 68 -80z m-346 81 c-3 -5 -11 -10 -16 -10 -6 0 -7 5 -4 10 3 6 11 10 16
10 6 0 7 -4 4 -10z m574 -4 c9 -11 6 -12 -14 -8 -14 2 -28 8 -31 13 -9 15 33
10 45 -5z m55 -12 c8 -22 -4 -40 -15 -23 -11 18 -11 39 0 39 5 0 12 -7 15 -16z
m-664 -13 c0 -6 -4 -13 -10 -16 -5 -3 -10 1 -10 9 0 9 5 16 10 16 6 0 10 -4
10 -9z m690 -52 c0 -11 -4 -17 -10 -14 -5 3 -10 15 -10 26 0 11 5 17 10 14 6
-3 10 -15 10 -26z m-730 11 c0 -5 -4 -10 -10 -10 -5 0 -10 5 -10 10 0 6 5 10
10 10 6 0 10 -4 10 -10z m691 -20 c10 -6 19 -15 19 -19 0 -14 -38 -1 -44 15
-6 17 -1 17 25 4z m61 -32 c7 -18 -2 -39 -13 -32 -12 7 -12 44 0 44 5 0 11 -6
13 -12z m-832 -8 c0 -5 -4 -10 -10 -10 -5 0 -10 5 -10 10 0 6 5 10 10 10 6 0
10 -4 10 -10z m794 -16 c9 -8 16 -20 16 -25 0 -12 -38 12 -44 28 -7 18 9 16
28 -3z m-839 -14 c-3 -5 -10 -10 -16 -10 -5 0 -9 5 -9 10 0 6 7 10 16 10 8 0
12 -4 9 -10z m725 -138 c28 -41 50 -84 50 -96 0 -25 -66 -100 -97 -110 -19 -6
-22 -1 -32 61 -6 37 -16 109 -21 158 -6 50 -13 101 -16 115 -4 22 -1 21 31
-15 20 -22 58 -73 85 -113z m-766 107 c-3 -5 -10 -7 -15 -3 -5 3 -7 10 -3 15
3 5 10 7 15 3 5 -3 7 -10 3 -15z m932 -16 c-7 -17 -8 -17 -17 0 -12 21 -2 44
13 29 6 -6 8 -19 4 -29z m-31 -21 c-8 -8 -35 20 -35 37 1 12 5 11 21 -8 11
-13 17 -26 14 -29z m-940 18 c-3 -5 -10 -10 -16 -10 -5 0 -9 5 -9 10 0 6 7 10
16 10 8 0 12 -4 9 -10z m-45 -30 c0 -5 -4 -10 -10 -10 -5 0 -10 5 -10 10 0 6
5 10 10 10 6 0 10 -4 10 -10z m980 -32 c0 -17 -3 -18 -15 -8 -8 7 -15 21 -15
32 0 17 3 18 15 8 8 -7 15 -21 15 -32z m35 4 c-5 -14 -7 -14 -15 -2 -5 9 -4
20 3 28 14 17 22 0 12 -26z m-1055 8 c0 -5 -7 -10 -16 -10 -8 0 -12 5 -9 10 3
6 10 10 16 10 5 0 9 -4 9 -10z m-50 -20 c0 -5 -4 -10 -10 -10 -5 0 -10 5 -10
10 0 6 5 10 10 10 6 0 10 -4 10 -10z m-46 -31 c-3 -5 -10 -7 -15 -3 -5 3 -7
10 -3 15 3 5 10 7 15 3 5 -3 7 -10 3 -15z m1106 -12 c-1 -21 -1 -21 -15 -3 -8
10 -12 23 -9 28 9 14 24 -2 24 -25z m-1150 3 c0 -5 -7 -10 -16 -10 -8 0 -12 5
-9 10 3 6 10 10 16 10 5 0 9 -4 9 -10z m-50 -20 c0 -5 -4 -10 -10 -10 -5 0
-10 5 -10 10 0 6 5 10 10 10 6 0 10 -4 10 -10z m-45 -10 c-3 -5 -10 -10 -16
-10 -5 0 -9 5 -9 10 0 6 7 10 16 10 8 0 12 -4 9 -10z m1225 -22 c0 -25 -3 -29
-10 -18 -13 20 -13 50 0 50 6 0 10 -15 10 -32z m-1275 12 c-3 -5 -10 -10 -16
-10 -5 0 -9 5 -9 10 0 6 7 10 16 10 8 0 12 -4 9 -10z m1316 -23 c-16 -16 -26
0 -10 19 9 11 15 12 17 4 2 -6 -1 -17 -7 -23z m-1366 13 c-3 -5 -10 -10 -16
-10 -5 0 -9 5 -9 10 0 6 7 10 16 10 8 0 12 -4 9 -10z m-101 -21 c-3 -5 -10 -7
-15 -3 -5 3 -7 10 -3 15 3 5 10 7 15 3 5 -3 7 -10 3 -15z m44 7 c-16 -12 -16
-15 6 -47 72 -107 74 -120 4 -31 -37 47 -43 60 -34 75 6 9 18 17 26 17 12 -1
12 -3 -2 -14z m-94 -17 c-3 -5 -10 -7 -15 -3 -5 3 -7 10 -3 15 3 5 10 7 15 3
5 -3 7 -10 3 -15z m-50 -10 c-3 -5 -10 -7 -15 -3 -5 3 -7 10 -3 15 3 5 10 7
15 3 5 -3 7 -10 3 -15z m1506 -5 c0 -14 -4 -23 -10 -19 -5 3 -10 15 -10 26 0
10 5 19 10 19 6 0 10 -12 10 -26z m-1556 -5 c-3 -5 -10 -7 -15 -3 -5 3 -7 10
-3 15 3 5 10 7 15 3 5 -3 7 -10 3 -15z m213 -64 c70 -82 106 -134 83 -120 -8
5 -60 39 -115 76 -55 36 -115 74 -132 83 -36 18 -44 31 -14 21 11 -3 22 -2 25
4 3 5 15 7 25 4 10 -3 22 0 25 6 12 19 42 -3 103 -74z m-257 67 c0 -13 -12
-22 -22 -16 -10 6 -1 24 13 24 5 0 9 -4 9 -8z m1640 -12 c-6 -11 -15 -20 -21
-20 -6 0 -6 7 1 20 6 11 15 20 21 20 6 0 6 -7 -1 -20z m-1695 0 c3 -5 1 -10
-4 -10 -6 0 -11 5 -11 10 0 6 2 10 4 10 3 0 8 -4 11 -10z m-45 -10 c0 -5 -4
-10 -10 -10 -5 0 -10 5 -10 10 0 6 5 10 10 10 6 0 10 -4 10 -10z m1666 -27
c-11 -11 -19 6 -11 24 8 17 8 17 12 0 3 -10 2 -21 -1 -24z m-1721 17 c3 -5 1
-10 -4 -10 -6 0 -11 5 -11 10 0 6 2 10 4 10 3 0 8 -4 11 -10z m1820 -91 c14
-41 28 -101 30 -134 l4 -60 -10 45 c-6 25 -21 82 -35 126 -38 131 -31 146 11
23z m-1915 61 c0 -5 -2 -10 -4 -10 -3 0 -8 5 -11 10 -3 6 -1 10 4 10 6 0 11
-4 11 -10z m-50 -10 c0 -5 -5 -10 -11 -10 -5 0 -7 5 -4 10 3 6 8 10 11 10 2 0
4 -4 4 -10z m1827 -5 c0 -8 -4 -12 -9 -9 -5 3 -6 10 -3 15 9 13 12 11 12 -6z
m-46 -48 c-8 -8 -11 -7 -11 4 0 20 13 34 18 19 3 -7 -1 -17 -7 -23z m84 13
c-3 -5 -13 -10 -21 -10 -8 0 -12 5 -9 10 3 6 13 10 21 10 8 0 12 -4 9 -10z
m-2005 -10 c0 -5 -5 -10 -11 -10 -5 0 -7 5 -4 10 3 6 8 10 11 10 2 0 4 -4 4
-10z m-40 -20 c0 -5 -4 -10 -10 -10 -5 0 -10 5 -10 10 0 6 5 10 10 10 6 0 10
-4 10 -10z m-50 -26 c0 -8 -4 -12 -10 -9 -5 3 -10 10 -10 16 0 5 5 9 10 9 6 0
10 -7 10 -16z m-45 -14 c3 -5 -1 -10 -10 -10 -9 0 -13 5 -10 10 3 6 8 10 10
10 2 0 7 -4 10 -10z m-45 -30 c0 -5 -4 -10 -10 -10 -5 0 -10 5 -10 10 0 6 5
10 10 10 6 0 10 -4 10 -10z m-16 -51 c-3 -5 -10 -7 -15 -3 -5 3 -7 10 -3 15 3
5 10 7 15 3 5 -3 7 -10 3 -15z m36 -23 c0 -11 -19 -15 -25 -6 -3 5 1 10 9 10
9 0 16 -2 16 -4z m44 -17 c-3 -5 -10 -7 -15 -3 -5 3 -7 10 -3 15 3 5 10 7 15
3 5 -3 7 -10 3 -15z"/>
<path d="M2224 6074 c-19 -15 -18 -15 3 -9 16 4 22 1 25 -14 2 -14 7 -18 17
-12 10 7 11 13 2 30 -14 25 -21 26 -47 5z"/>
<path d="M2300 5950 c-11 -7 -6 -8 18 -4 21 4 32 3 32 -5 0 -7 -4 -10 -9 -7
-5 4 -20 2 -33 -3 -12 -6 -18 -10 -11 -10 6 -1 9 -10 6 -21 -3 -12 0 -20 6
-20 18 0 63 49 58 63 -5 16 -48 20 -67 7z"/>
<path d="M2120 5975 c-7 -9 -10 -18 -7 -21 3 -3 10 4 17 15 13 25 8 27 -10 6z"/>
<path d="M2770 5385 c-14 -8 -20 -14 -15 -14 6 0 21 6 35 14 14 8 21 14 15 14
-5 0 -21 -6 -35 -14z"/>
<path d="M1411 5274 c0 -11 3 -14 6 -6 3 7 2 16 -1 19 -3 4 -6 -2 -5 -13z"/>
<path d="M1174 5261 c7 -11 46 -35 46 -28 0 3 -12 12 -26 22 -15 9 -23 12 -20
6z"/>
<path d="M1374 5224 c-18 -14 -18 -15 4 -4 12 6 22 13 22 15 0 8 -5 6 -26 -11z"/>
<path d="M3116 5125 c3 -16 12 -57 20 -90 12 -52 13 -54 9 -15 -2 25 -11 65
-20 90 -8 25 -12 32 -9 15z"/>
<path d="M1225 5109 c-27 -16 -47 -29 -43 -29 14 0 98 44 98 52 0 4 -1 8 -2 7
-2 -1 -25 -14 -53 -30z"/>
<path d="M1320 5133 c8 -3 30 -12 48 -19 17 -7 32 -11 32 -9 0 9 -60 35 -77
34 -14 0 -15 -2 -3 -6z"/>
<path d="M2467 4978 c-4 -11 7 -14 49 -14 30 1 54 4 54 8 0 5 -12 8 -27 8 -16
0 -38 3 -49 6 -13 3 -23 0 -27 -8z"/>
<path d="M2152 4918 c-6 -18 -13 -42 -17 -53 -4 -12 -1 -10 8 5 15 27 30 80
23 80 -3 0 -9 -15 -14 -32z"/>
<path d="M2475 4900 c-3 -5 -1 -10 4 -10 6 0 11 5 11 10 0 6 -2 10 -4 10 -3 0
-8 -4 -11 -10z"/>
<path d="M360 4807 c0 -14 61 -129 66 -124 3 3 -11 33 -30 68 -20 35 -36 60
-36 56z"/>
<path d="M2863 4759 c4 -16 -1 -35 -13 -54 -11 -17 -20 -34 -20 -38 0 -13 101
3 128 19 12 8 22 20 22 26 0 6 -8 4 -19 -6 -10 -9 -35 -20 -56 -23 l-37 -6 7
45 c5 32 3 48 -6 53 -9 6 -10 2 -6 -16z"/>
<path d="M2109 4722 c6 -12 16 -24 22 -28 8 -4 8 -1 0 14 -6 12 -16 24 -22 28
-8 4 -8 1 0 -14z"/>
<path d="M2360 4548 c0 -5 12 -8 28 -9 19 0 10 -6 -33 -19 -33 -10 -50 -19
-38 -19 18 -1 150 42 160 52 1 2 -24 3 -57 3 -33 -1 -60 -4 -60 -8z"/>
<path d="M2187 4531 c-34 -22 -25 -31 27 -30 23 1 31 4 19 6 -25 5 -31 19 -11
25 8 3 8 7 2 11 -6 3 -22 -2 -37 -12z"/>
<path d="M2278 4543 c7 -3 16 -2 19 1 4 3 -2 6 -13 5 -11 0 -14 -3 -6 -6z"/>
<path d="M1990 4516 c0 -19 67 -99 147 -176 l88 -85 -86 90 c-48 50 -101 110
-118 134 -17 24 -31 41 -31 37z"/>
<path d="M1918 5263 c7 -3 16 -2 19 1 4 3 -2 6 -13 5 -11 0 -14 -3 -6 -6z"/>
<path d="M1993 5253 c9 -2 25 -2 35 0 9 3 1 5 -18 5 -19 0 -27 -2 -17 -5z"/>
<path d="M2255 5336 c-19 -31 -38 -63 -41 -70 -3 -8 -13 -12 -22 -9 -11 3 -13
2 -6 -4 6 -4 13 -14 15 -21 2 -7 26 24 52 69 54 94 56 119 2 35z"/>
<path d="M2185 5199 c-4 -6 -5 -12 -2 -15 2 -3 7 2 10 11 7 17 1 20 -8 4z"/>
<path d="M2166 5162 c-12 -19 -47 -116 -38 -107 10 12 53 115 47 115 -2 0 -6
-4 -9 -8z"/>
<path d="M2530 5385 c0 -12 43 -85 48 -81 7 8 -29 86 -40 86 -4 0 -8 -2 -8 -5z"/>
<path d="M2598 5323 c7 -3 16 -2 19 1 4 3 -2 6 -13 5 -11 0 -14 -3 -6 -6z"/>
<path d="M3775 5033 c-26 -7 -46 -23 -40 -33 3 -4 -20 -44 -50 -89 -54 -81
-73 -128 -40 -101 13 10 127 150 178 218 10 13 -8 15 -48 5z"/>
<path d="M1846 3855 c-11 -8 -17 -17 -14 -20 2 -3 13 4 23 15 21 23 18 25 -9
5z"/>
<path d="M1796 3815 c-11 -8 -17 -17 -14 -20 2 -3 13 4 23 15 21 23 18 25 -9
5z"/>
<path d="M1721 3754 c-7 -8 -11 -17 -9 -20 3 -2 13 5 23 16 10 11 14 20 9 20
-5 -1 -15 -8 -23 -16z"/>
<path d="M1660 3699 c0 -5 5 -7 10 -4 6 3 10 8 10 11 0 2 -4 4 -10 4 -5 0 -10
-5 -10 -11z"/>
<path d="M2957 3673 c-12 -11 -7 -50 7 -62 8 -7 17 -27 20 -46 7 -37 15 -42
34 -23 8 8 8 19 -3 45 -8 18 -12 40 -8 48 10 27 -31 58 -50 38z"/>
<path d="M2680 3080 c-6 -11 -8 -20 -6 -20 3 0 10 9 16 20 6 11 8 20 6 20 -3
0 -10 -9 -16 -20z"/>
<path d="M1749 1849 c-23 -19 -23 -20 -2 -10 12 6 25 16 28 21 10 16 -1 12
-26 -11z"/>
<path d="M3105 2980 c-16 -16 -32 -30 -35 -30 -3 0 -11 12 -18 28 -11 26 -11
26 -5 -8 3 -19 7 -37 10 -40 2 -2 23 15 46 38 23 23 39 42 36 42 -3 0 -18 -13
-34 -30z"/>
<path d="M3270 1069 c0 -5 5 -7 10 -4 6 3 10 8 10 11 0 2 -4 4 -10 4 -5 0 -10
-5 -10 -11z"/>
<path d="M4845 5830 c-18 -7 -18 -8 5 -11 13 -2 30 -15 36 -27 8 -16 13 -19
17 -10 5 16 -8 44 -25 50 -7 3 -22 2 -33 -2z"/>
<path d="M4402 5808 c-7 -7 -12 -26 -12 -42 1 -27 2 -28 11 -13 6 10 8 25 5
32 -3 8 3 19 12 24 9 6 12 11 7 11 -6 0 -16 -5 -23 -12z"/>
<path d="M4780 5805 c-14 -8 -20 -14 -15 -14 6 0 21 6 35 14 14 8 21 14 15 14
-5 0 -21 -6 -35 -14z"/>
<path d="M4835 5713 c-43 -39 -44 -41 -9 -15 37 28 72 63 63 62 -2 -1 -26 -21
-54 -47z"/>
<path d="M4340 5725 c-15 -18 -29 -145 -19 -172 3 -10 8 22 10 70 3 73 7 91
23 103 11 8 15 14 9 14 -6 0 -16 -7 -23 -15z"/>
<path d="M1536 5720 c12 -4 31 -21 43 -36 11 -14 21 -22 21 -17 0 15 -55 63
-71 62 -8 0 -5 -4 7 -9z"/>
<path d="M4760 5660 c-9 -6 -10 -10 -3 -10 6 0 15 5 18 10 8 12 4 12 -15 0z"/>
<path d="M4840 5553 l-65 -68 70 65 c38 36 71 66 74 68 2 1 0 2 -5 2 -5 0 -39
-30 -74 -67z"/>
<path d="M4230 5504 c-36 -36 -58 -62 -50 -58 15 7 127 124 119 124 -3 0 -34
-29 -69 -66z"/>
<path d="M5266 5531 c17 -4 37 -11 45 -15 8 -4 5 0 -5 8 -11 9 -31 16 -45 15
-24 -1 -24 -2 5 -8z"/>
<path d="M5170 5515 c-32 -18 -25 -18 25 0 22 8 31 14 20 14 -11 0 -31 -6 -45
-14z"/>
<path d="M1493 5493 c-3 -10 -8 -22 -11 -27 -3 -5 0 -6 5 -3 11 7 25 47 17 47
-3 0 -7 -8 -11 -17z"/>
<path d="M5058 5473 c7 -3 16 -2 19 1 4 3 -2 6 -13 5 -11 0 -14 -3 -6 -6z"/>
<path d="M5018 5463 c7 -3 16 -2 19 1 4 3 -2 6 -13 5 -11 0 -14 -3 -6 -6z"/>
<path d="M4097 5414 c-45 -23 -107 -98 -107 -128 0 -6 14 13 30 41 24 42 42
59 88 82 31 17 53 30 47 30 -5 0 -32 -11 -58 -25z"/>
<path d="M3967 5235 c-9 -19 -15 -35 -12 -35 7 0 37 61 33 66 -3 2 -12 -12
-21 -31z"/>
<path d="M3991 5230 c1 -8 5 -26 9 -40 l8 -25 1 25 c0 14 -4 32 -9 40 -9 13
-10 13 -9 0z"/>
<path d="M3925 5160 c-9 -16 -13 -30 -11 -30 3 0 12 14 21 30 9 17 13 30 11
30 -3 0 -12 -13 -21 -30z"/>
<path d="M4066 4585 c-22 -19 -35 -35 -29 -35 5 0 27 16 49 35 21 19 35 34 29
34 -5 0 -28 -15 -49 -34z"/>
<path d="M1920 3777 c-19 -10 -25 -20 -25 -47 0 -31 3 -35 24 -32 49 5 76 26
76 57 0 25 -4 30 -25 33 -14 1 -36 -4 -50 -11z"/>
<path d="M2726 3400 c-21 -54 -21 -57 14 -75 44 -23 55 -19 76 26 l18 41 -27
24 c-41 35 -62 31 -81 -16z"/>
<path d="M1691 3385 c-31 -14 -33 -18 -28 -51 8 -45 10 -48 39 -41 47 12 61
31 54 70 -8 41 -15 43 -65 22z"/>
<path d="M1489 2905 c-29 -16 -41 -37 -34 -60 3 -8 7 -22 10 -30 4 -13 9 -13
40 2 35 17 45 45 29 87 -7 19 -11 19 -45 1z"/>
<path d="M2877 2903 c-3 -4 -8 -27 -12 -50 -6 -40 -5 -43 27 -63 18 -11 38
-20 45 -20 12 0 33 51 33 81 0 27 -81 72 -93 52z"/>
<path d="M3151 2293 c-11 -42 -10 -49 6 -61 26 -19 63 -26 75 -14 5 5 12 28
15 50 5 37 3 41 -25 56 -48 25 -58 21 -71 -31z"/>
<path d="M1274 1923 c-18 -13 -34 -50 -34 -77 0 -23 4 -26 35 -26 29 0 37 5
46 27 15 40 8 78 -16 81 -11 1 -25 -1 -31 -5z"/>
<path d="M3425 1738 c-4 -18 -9 -41 -11 -50 -4 -13 5 -23 30 -35 43 -20 53
-13 62 44 6 39 4 42 -24 57 -43 22 -50 20 -57 -16z"/>
<path d="M822 1222 c-23 -59 -42 -154 -41 -207 0 -27 3 -25 26 25 14 30 25 67
24 83 -1 15 3 55 9 89 5 34 8 63 7 64 -2 2 -13 -23 -25 -54z m-5 -74 c-3 -7
-5 -2 -5 12 0 14 2 19 5 13 2 -7 2 -19 0 -25z m-17 -95 c-11 -17 -11 -17 -6 0
3 10 7 31 7 45 l2 27 4 -27 c2 -15 -1 -35 -7 -45z"/>
<path d="M3872 1154 c-1 -22 -9 -65 -18 -95 -20 -67 -117 -270 -141 -294 -12
-12 -13 -17 -3 -13 21 7 115 191 145 283 17 51 25 95 22 120 l-4 40 -1 -41z"/>
<path d="M850 1140 c-6 -11 -8 -20 -6 -20 3 0 10 9 16 20 6 11 8 20 6 20 -3 0
-10 -9 -16 -20z"/>
<path d="M3531 1145 c0 -5 6 -21 14 -35 8 -14 14 -20 14 -15 0 6 -6 21 -14 35
-8 14 -14 21 -14 15z"/>
<path d="M3561 1075 c0 -5 6 -21 14 -35 8 -14 14 -20 14 -15 0 6 -6 21 -14 35
-8 14 -14 21 -14 15z"/>
<path d="M3591 1005 c0 -5 6 -21 14 -35 8 -14 14 -20 14 -15 0 6 -6 21 -14 35
-8 14 -14 21 -14 15z"/>
<path d="M1832 910 c0 -19 2 -27 5 -17 2 9 2 25 0 35 -3 9 -5 1 -5 -18z"/>
<path d="M1841 853 c-1 -26 19 -126 25 -121 2 2 -3 35 -10 74 -8 38 -15 59
-15 47z"/>
<path d="M1597 801 c-4 -35 -5 -66 -3 -68 6 -7 19 103 14 119 -3 7 -8 -16 -11
-51z"/>
<path d="M2232 835 c0 -16 2 -22 5 -12 2 9 2 23 0 30 -3 6 -5 -1 -5 -18z"/>
<path d="M2813 785 c0 -27 2 -38 4 -22 2 15 2 37 0 50 -2 12 -4 0 -4 -28z"/>
<path d="M3680 805 c0 -5 5 -17 10 -25 5 -8 10 -10 10 -5 0 6 -5 17 -10 25 -5
8 -10 11 -10 5z"/>
<path d="M1576 684 c-4 -20 -5 -38 -3 -40 3 -3 8 11 11 32 4 20 5 38 3 40 -3
3 -8 -11 -11 -32z"/>
<path d="M2233 655 c0 -38 2 -53 4 -32 2 20 2 52 0 70 -2 17 -4 1 -4 -38z"/>
<path d="M1835 697 c-17 -13 -17 -16 -1 -59 l18 -45 -32 -63 c-42 -82 -33 -87
11 -5 l34 64 -17 44 c-15 41 -15 46 0 61 20 19 13 21 -13 3z"/>
<path d="M1719 663 l34 -29 -44 -38 c-24 -20 -70 -53 -103 -73 -47 -29 -60
-33 -67 -22 -7 12 -9 12 -9 0 0 -8 -8 -20 -17 -28 -14 -10 -8 -10 22 2 97 38
230 140 220 167 -3 8 -20 22 -38 32 l-32 19 34 -30z"/>
<path d="M1561 614 c0 -11 3 -14 6 -6 3 7 2 16 -1 19 -3 4 -6 -2 -5 -13z"/>
<path d="M1551 574 c0 -11 3 -14 6 -6 3 7 2 16 -1 19 -3 4 -6 -2 -5 -13z"/>
<path d="M2223 545 c0 -22 2 -30 4 -17 2 12 2 30 0 40 -3 9 -5 -1 -4 -23z"/>
<path d="M1541 534 c0 -11 3 -14 6 -6 3 7 2 16 -1 19 -3 4 -6 -2 -5 -13z"/>
<path d="M2212 475 c0 -16 2 -22 5 -12 2 9 2 23 0 30 -3 6 -5 -1 -5 -18z"/>
<path d="M1502 425 c0 -16 2 -22 5 -12 2 9 2 23 0 30 -3 6 -5 -1 -5 -18z"/>
<path d="M1780 443 c0 -7 -17 -15 -37 -18 -51 -9 -75 -16 -71 -21 2 -2 31 1
64 6 32 5 87 10 122 12 34 1 62 7 62 12 0 5 -27 6 -61 2 -47 -6 -64 -4 -70 6
-6 9 -9 9 -9 1z"/>
<path d="M1512 370 c0 -14 2 -19 5 -12 2 6 2 18 0 25 -3 6 -5 1 -5 -13z"/>
<path d="M1521 324 c0 -11 3 -14 6 -6 3 7 2 16 -1 19 -3 4 -6 -2 -5 -13z"/>
<path d="M2488 199 c95 -44 252 -104 297 -114 17 -3 -17 12 -75 33 -58 22
-147 58 -198 81 -117 52 -135 52 -24 0z"/>
<path d="M2846 183 c17 -16 38 -40 47 -53 12 -17 17 -19 17 -9 0 15 -35 52
-75 78 -11 8 -6 0 11 -16z"/>
<path d="M2843 69 c19 -8 26 -16 22 -26 -5 -13 -3 -14 10 -3 19 16 10 27 -30
34 l-30 6 28 -11z"/>
<path d="M2920 49 c14 -6 54 -12 90 -14 l65 -4 -53 8 c-133 22 -129 22 -102
10z"/>
<path d="M1532 20 c0 -14 2 -19 5 -12 2 6 2 18 0 25 -3 6 -5 1 -5 -13z"/>
<path d="M3108 23 c7 -3 16 -2 19 1 4 3 -2 6 -13 5 -11 0 -14 -3 -6 -6z"/>
</g>
</svg>
