<?xml version="1.0" standalone="no"?>
<!DOCTYPE svg PUBLIC "-//W3C//DTD SVG 20010904//EN"
 "http://www.w3.org/TR/2001/REC-SVG-20010904/DTD/svg10.dtd">
<svg version="1.0" xmlns="http://www.w3.org/2000/svg"
 width="538.000000pt" height="640.000000pt" viewBox="0 0 538.000000 640.000000"
 preserveAspectRatio="xMidYMid meet">

<g transform="translate(0.000000,640.000000) scale(0.100000,-0.100000)"
fill="#000000" stroke="none">
<path d="M2230 6197 c-114 -47 -247 -154 -328 -265 -88 -120 -97 -154 -63
-233 34 -80 35 -89 9 -89 -13 0 -30 6 -38 13 -7 6 -4 -2 8 -20 26 -37 27 -46
6 -78 -9 -14 -12 -25 -6 -25 6 0 14 9 17 20 4 11 11 18 16 15 15 -10 10 -20
-22 -44 -18 -13 -29 -19 -25 -12 4 6 4 11 1 11 -3 0 -17 -24 -31 -53 -27 -61
-65 -87 -93 -65 -14 11 -14 11 -3 -3 10 -14 8 -19 -14 -33 -63 -42 -75 23 -15
81 26 25 49 63 69 113 19 49 38 79 53 88 19 10 20 12 5 10 -11 -2 -32 9 -47
25 -15 15 -36 27 -46 27 -11 -1 -7 -6 13 -14 18 -8 35 -19 39 -26 4 -6 -8 -50
-26 -97 -30 -78 -39 -90 -101 -144 -38 -33 -73 -59 -79 -59 -14 0 -25 33 -12
37 5 2 19 11 29 19 18 14 18 14 -4 4 -49 -24 -40 -2 30 75 15 17 37 57 48 89
23 68 23 69 10 61 -20 -13 -9 13 13 29 22 16 22 16 -5 4 -24 -10 -32 -24 -30
-58 1 -20 -76 -155 -90 -158 -27 -5 -32 37 -13 104 19 64 21 122 4 139 -7 7
-8 -4 -3 -35 7 -41 6 -44 -9 -31 -27 22 -22 68 11 85 46 26 16 18 -60 -16 -40
-17 -85 -42 -99 -56 -15 -13 -55 -80 -89 -149 -48 -96 -71 -131 -99 -151 -21
-15 -84 -71 -142 -124 -137 -126 -370 -318 -381 -312 -4 3 -44 -2 -89 -11 -45
-8 -101 -15 -125 -15 -37 0 -46 -4 -61 -27 -10 -16 -30 -40 -45 -55 -21 -19
-28 -36 -28 -63 0 -41 12 -39 30 5 l13 31 33 -61 c75 -140 212 -295 270 -306
60 -11 147 2 203 31 l54 27 -20 -29 c-10 -15 -24 -40 -31 -56 l-12 -27 30 22
c28 20 44 48 19 33 -6 -4 0 9 13 28 12 20 24 35 25 33 1 -1 -3 -20 -8 -41 -9
-33 -21 -47 -73 -82 -80 -55 -138 -80 -209 -91 -55 -9 -61 -7 -137 30 -46 22
-104 61 -137 92 l-57 53 57 87 c31 48 57 90 57 95 0 18 -74 131 -81 124 -4 -4
-24 -39 -44 -76 l-37 -68 19 -52 c33 -86 35 -93 14 -57 -11 19 -25 52 -31 72
-9 33 -7 44 15 89 15 28 24 53 21 56 -13 13 -86 -67 -111 -122 -16 -33 -45
-91 -67 -129 -21 -37 -41 -78 -44 -91 -9 -38 23 -84 150 -215 67 -69 147 -157
178 -196 56 -70 57 -71 113 -78 67 -8 88 -18 220 -106 55 -37 188 -122 295
-190 158 -100 392 -252 409 -266 1 -1 -5 -26 -14 -54 -16 -48 -16 -81 2 -160
1 -8 3 -123 3 -254 l0 -239 -154 -311 c-85 -171 -174 -356 -199 -412 -51 -113
-193 -532 -183 -541 3 -4 6 1 6 10 0 50 162 305 324 512 39 50 100 131 136
180 61 86 65 93 71 165 4 41 8 185 8 320 1 270 9 319 80 486 16 38 59 152 96
253 134 370 174 442 334 591 l105 99 23 -35 c13 -19 28 -34 33 -34 5 0 12 -11
16 -25 5 -20 -18 -65 -114 -228 -158 -266 -352 -630 -418 -783 -78 -181 -101
-266 -128 -484 -14 -107 -30 -224 -36 -260 -6 -36 -17 -117 -24 -182 -9 -72
-22 -131 -35 -155 -25 -51 -86 -125 -241 -298 -114 -127 -203 -236 -225 -275
-13 -24 6 -2 78 90 36 47 90 111 119 143 52 58 54 59 173 93 175 51 229 53
337 15 100 -36 99 -36 92 -16 -4 8 -10 13 -14 10 -4 -3 -34 5 -66 16 -33 12
-93 25 -134 29 l-75 7 65 1 c46 1 85 -6 134 -23 39 -13 72 -22 75 -20 2 3 -6
38 -19 79 -12 40 -20 79 -17 87 4 9 6 7 6 -6 1 -11 13 -58 29 -105 l27 -85
-17 -70 c-16 -66 -48 -287 -48 -332 0 -17 5 -20 21 -16 19 5 21 3 17 -18 -3
-13 -9 -33 -12 -44 l-8 -20 13 20 c6 11 13 21 14 23 2 2 56 -24 121 -57 66
-33 148 -67 184 -75 36 -9 169 -25 295 -37 410 -37 610 -14 782 91 45 27 84
50 87 50 13 0 4 -19 -19 -41 -13 -13 -25 -27 -25 -31 0 -12 -158 -165 -205
-199 -44 -32 -60 -54 -30 -43 8 4 15 1 15 -6 0 -8 -9 -10 -26 -6 -19 5 -34 -1
-64 -24 -21 -16 -43 -30 -48 -30 -6 0 -15 -6 -19 -12 -17 -28 -260 -145 -287
-139 -4 1 -14 -3 -22 -10 -7 -6 -18 -8 -24 -4 -6 4 -16 2 -23 -3 -7 -5 -19
-10 -27 -11 -8 -1 -26 -2 -40 -4 -14 -1 -31 -6 -38 -10 -6 -5 -17 -5 -22 -2
-6 4 -16 2 -23 -4 -7 -5 -19 -9 -28 -8 -8 2 -71 60 -140 130 -68 70 -130 127
-137 127 -14 0 -16 -26 -2 -35 6 -4 7 1 3 12 -10 27 96 -68 170 -150 74 -84
85 -99 62 -91 -8 4 -21 1 -29 -5 -7 -6 -16 -8 -19 -5 -3 4 -14 3 -24 -1 -33
-14 -58 -13 -98 7 -27 13 -34 14 -21 3 11 -8 24 -15 30 -15 5 0 1 -6 -9 -14
-10 -7 -26 -11 -36 -9 -9 3 -20 0 -23 -6 -4 -5 -14 -7 -22 -4 -9 3 -20 0 -24
-7 -12 -19 -30 -2 -31 28 -1 29 -3 24 -13 -21 -5 -22 -11 -27 -25 -22 -11 3
-22 1 -26 -5 -4 -6 -13 -9 -21 -6 -8 3 -22 2 -32 -3 -30 -16 -56 -24 -74 -22
-9 1 -19 -3 -23 -9 -3 -5 -15 -10 -26 -10 -10 0 -19 -4 -19 -10 0 -15 -40 -12
-40 3 0 6 -6 3 -12 -8 -16 -28 -50 -54 -64 -48 -7 2 -15 0 -19 -6 -3 -6 -15
-11 -26 -11 -11 0 -22 -7 -25 -15 -4 -8 -12 -15 -20 -15 -7 0 -21 -16 -30 -35
-16 -35 -16 -36 11 -61 17 -16 34 -23 45 -19 10 3 21 1 25 -5 5 -8 14 -6 31 4
26 18 48 21 39 6 -4 -6 -12 -7 -18 -4 -9 5 -9 3 0 -6 9 -10 16 -10 26 -2 10 9
16 9 25 0 9 -9 12 3 10 52 -1 47 -3 53 -5 24 l-4 -41 -58 1 c-34 1 -68 8 -81
17 l-24 15 22 22 c12 12 22 19 22 15 0 -3 8 1 18 10 10 10 22 14 25 10 4 -3
15 1 26 11 17 16 20 16 35 1 15 -15 16 -15 16 4 0 14 6 21 20 21 11 0 20 5 20
10 0 6 7 10 15 10 8 0 24 4 35 10 11 5 29 15 40 20 12 6 25 8 30 5 5 -3 11 -1
15 5 3 5 17 10 30 10 13 0 26 4 29 9 3 5 15 7 26 4 11 -3 20 0 20 6 0 6 5 11
11 11 8 0 10 -44 4 -160 -4 -92 -3 -160 2 -160 5 0 10 69 12 152 3 156 9 183
42 173 9 -3 20 -1 24 5 4 6 15 8 25 5 10 -3 21 -1 25 5 3 6 11 8 16 4 6 -3 18
-3 27 1 38 17 67 5 194 -77 162 -105 207 -144 214 -181 3 -16 11 -43 19 -60
14 -29 15 -30 10 -5 -3 14 -8 34 -11 45 -6 18 4 8 50 -52 8 -11 15 -16 16 -10
0 6 -29 47 -64 91 -36 45 -76 103 -89 130 -14 27 -41 73 -61 103 -27 40 -34
57 -25 67 6 7 17 10 24 8 8 -3 19 -2 26 2 7 4 30 9 52 11 22 2 46 8 52 13 7 5
15 7 18 3 4 -3 13 0 21 6 8 7 20 10 25 7 6 -4 18 -2 28 3 10 5 35 17 55 25 20
9 40 21 43 26 4 6 10 8 15 5 4 -3 13 2 20 10 7 8 18 15 25 15 7 0 18 7 25 15
7 8 16 13 20 10 4 -3 13 2 20 10 7 8 19 15 27 15 7 0 16 7 19 15 4 8 13 15 20
15 8 0 17 7 20 15 16 40 24 4 26 -107 l2 -123 3 115 c3 134 8 160 29 160 8 0
17 7 20 15 4 8 13 15 20 15 8 0 17 7 20 15 4 8 11 15 18 15 6 0 26 16 43 35
18 19 37 35 43 35 5 0 10 5 10 10 0 6 16 25 35 43 19 17 35 38 35 44 0 7 7 13
15 13 8 0 15 6 15 14 0 34 19 21 57 -37 38 -60 40 -68 62 -227 27 -195 46
-295 72 -370 l19 -56 -25 -64 c-14 -35 -25 -68 -25 -73 0 -4 13 -19 29 -33 21
-17 28 -31 24 -47 -4 -19 -3 -20 7 -5 13 21 0 52 -30 68 -19 10 -19 12 6 82
l26 71 -26 86 c-24 79 -66 313 -66 370 0 23 0 23 22 -5 41 -56 81 -93 92 -87
6 3 8 3 4 -2 -4 -4 -3 -14 3 -21 6 -7 17 -62 25 -121 7 -59 21 -138 29 -174
15 -60 15 -71 1 -126 -9 -34 -16 -81 -16 -106 0 -39 3 -46 19 -44 18 1 18 3 4
30 -20 40 -10 107 22 141 13 14 28 26 32 26 10 1 74 59 94 84 13 18 12 19 -3
13 -19 -7 -25 8 -7 18 16 10 35 -23 58 -100 24 -79 29 -134 18 -185 -7 -30 -6
-32 5 -15 19 31 12 122 -17 213 -14 46 -24 89 -22 95 2 7 16 -26 32 -73 29
-87 37 -169 22 -225 -7 -25 -6 -28 5 -17 24 24 15 156 -19 248 -29 81 -29 81
-12 122 10 23 20 59 23 79 3 21 3 30 0 20 -3 -9 -10 -17 -15 -17 -16 0 -10 25
11 43 20 16 21 52 6 137 -14 85 -97 211 -184 281 -51 40 -74 51 -52 24 7 -9
10 -18 7 -21 -10 -10 -27 6 -27 25 0 11 -15 26 -36 37 -20 11 -44 23 -55 29
-14 7 -19 21 -19 51 0 46 -18 68 -45 58 -13 -5 -16 -3 -13 7 3 8 14 15 26 15
22 1 72 41 72 58 0 5 8 14 17 21 15 12 15 15 -1 49 -9 20 -23 36 -30 36 -8 0
-19 7 -26 15 -7 8 -16 13 -20 10 -4 -3 -10 2 -14 10 -3 8 -1 15 3 15 19 0 107
-43 139 -67 18 -14 36 -23 38 -20 9 9 -79 64 -133 83 -46 16 -53 22 -52 44 2
22 2 22 6 4 3 -16 20 -28 63 -43 33 -12 62 -26 65 -31 10 -16 28 -11 21 5 -15
38 -16 48 -1 22 9 -15 13 -33 9 -39 -4 -6 -3 -8 4 -4 9 5 23 -18 27 -44 0 -3
8 -16 17 -30 9 -14 23 -38 32 -55 27 -53 17 -20 -18 56 -18 41 -86 187 -151
324 -64 138 -124 266 -133 285 -9 19 -94 197 -190 395 -215 446 -229 481 -259
635 -60 311 -97 492 -147 715 l-53 239 30 29 c26 25 31 35 28 71 -3 55 24 159
55 213 35 60 128 111 242 132 64 13 60 -4 -6 -19 -74 -16 -159 -60 -200 -101
-39 -40 -68 -115 -78 -199 -8 -73 -10 -73 81 5 65 56 164 119 150 95 -61 -105
-130 -180 -164 -180 -22 0 -31 -8 -50 -46 -25 -52 -21 -62 29 -66 30 -3 36 1
56 37 16 28 20 43 12 52 -7 9 -3 22 14 45 23 33 23 33 26 8 2 -14 19 -90 38
-169 26 -105 33 -155 29 -183 -5 -29 -3 -44 9 -57 10 -11 19 -53 26 -122 17
-163 31 -241 51 -286 24 -54 24 -55 -6 -83 -14 -13 -25 -27 -25 -31 0 -5 22
-18 49 -30 46 -20 53 -27 93 -107 24 -48 119 -233 210 -412 225 -440 345 -741
472 -1187 l55 -192 -38 -68 c-47 -86 -71 -123 -81 -123 -4 0 -15 18 -25 40
-10 22 -20 38 -22 36 -2 -2 10 -30 27 -62 17 -33 29 -52 27 -44 -2 8 9 30 25
48 32 37 106 180 132 257 10 28 21 57 26 66 12 23 -61 394 -136 694 -61 245
-65 270 -74 429 -5 93 -7 179 -4 191 3 12 -5 50 -17 85 -20 59 -21 76 -16 214
3 83 15 219 26 303 11 83 27 218 36 300 16 145 17 149 57 210 38 59 41 69 53
184 13 111 17 125 49 172 29 45 35 63 41 132 l7 80 88 85 c86 82 89 87 95 140
5 39 25 89 69 175 70 134 80 178 64 277 -10 65 -10 68 18 114 16 26 36 58 45
73 13 22 25 27 85 33 46 5 84 4 114 -4 52 -14 65 -13 101 13 15 10 40 19 56
20 41 1 60 11 85 45 98 132 85 122 152 129 33 4 118 25 188 45 99 30 144 50
207 91 45 29 81 57 81 62 0 5 -17 -5 -37 -22 -42 -34 -64 -41 -42 -13 8 10 1
4 -16 -12 -16 -17 -37 -37 -46 -43 -19 -15 -239 -83 -268 -83 -45 0 -52 92 -8
110 18 7 18 9 5 9 -23 1 -23 2 7 53 54 91 60 107 45 121 -9 9 -11 9 -6 0 4 -7
-5 -19 -21 -28 -24 -14 -25 -15 -5 -12 27 6 27 3 1 -39 -27 -45 -43 -44 -35 1
8 43 2 46 -12 5 -9 -23 -8 -33 4 -45 14 -14 13 -18 -11 -46 -14 -18 -35 -50
-47 -73 -25 -49 -84 -128 -104 -139 -23 -13 -64 19 -64 49 0 14 20 53 44 87
24 34 49 72 55 85 11 21 11 22 -7 11 -16 -10 -27 -8 -65 11 -26 13 -57 34 -69
48 l-23 24 22 15 c71 48 115 84 95 78 -16 -5 -22 -2 -22 9 0 8 -11 28 -25 45
l-26 30 53 30 c77 44 55 38 -50 -15 -50 -25 -105 -49 -121 -54 -33 -9 -31 -12
-57 93 -3 15 -10 29 -14 32 -10 6 2 -44 28 -120 33 -94 73 -300 70 -358 -3
-51 -4 -52 -36 -55 -19 -2 -44 4 -58 12 -22 15 -23 21 -18 74 4 37 -1 99 -15
178 -12 67 -21 133 -21 148 0 15 -4 25 -9 22 -5 -4 -12 0 -15 6 -3 7 -4 2 -2
-12 29 -157 33 -357 8 -382 -8 -8 -23 -9 -49 -2 -32 8 -38 13 -36 34 8 84 11
172 7 155 -4 -11 -11 -25 -16 -32 -5 -7 -7 -17 -4 -22 6 -9 -10 -25 -24 -26
-13 0 -99 -78 -95 -85 3 -4 -2 -14 -11 -21 -51 -42 -63 -150 -21 -190 l22 -21
-22 11 c-32 16 -43 42 -43 101 0 47 3 55 37 86 20 19 32 34 27 34 -6 0 -24
-14 -42 -31 -22 -21 -33 -44 -38 -76 -9 -59 3 -92 43 -118 27 -19 29 -23 14
-33 -13 -11 -12 -11 9 -6 30 8 99 9 106 1 6 -6 -3 -24 -53 -108 -35 -58 -64
-137 -98 -267 -20 -79 -24 -84 -81 -133 -88 -76 -108 -84 -167 -70 -92 21
-196 115 -221 201 l-13 45 61 65 c66 70 180 218 209 272 l18 33 -21 -27 c-12
-16 -29 -28 -39 -28 -10 0 -40 -7 -67 -15 -43 -13 -56 -23 -94 -77 -69 -96
-92 -137 -84 -150 5 -7 3 -8 -6 -3 -9 5 -11 2 -6 -11 3 -11 10 -41 16 -67 21
-96 72 -162 174 -226 39 -24 46 -32 32 -37 -39 -15 -151 67 -186 135 -22 44
-41 113 -42 155 -1 30 -2 30 -20 -14 -12 -28 -15 -46 -9 -48 6 -2 11 -19 11
-38 0 -79 55 -152 168 -226 60 -39 65 -41 127 -36 67 6 137 40 199 97 l28 26
-15 -30 c-8 -17 -51 -65 -95 -107 -91 -87 -117 -98 -233 -98 -90 0 -123 18
-176 94 -28 41 -33 58 -35 115 -3 105 -3 124 4 157 l7 31 -31 -29 c-17 -15
-56 -44 -88 -64 -52 -32 -60 -41 -80 -97 -13 -34 -36 -88 -51 -119 l-29 -58
-64 0 c-57 0 -68 -3 -106 -34 -23 -18 -42 -37 -43 -42 0 -5 -12 -29 -27 -54
-26 -44 -36 -69 -121 -303 -23 -64 -43 -116 -45 -114 -13 13 -23 147 -15 192
12 66 73 163 144 229 29 26 45 43 36 37 -18 -12 -20 -10 -71 63 -15 21 -23 24
-55 19 l-36 -6 6 33 c4 18 7 43 7 56 0 13 5 24 10 24 6 0 10 -6 10 -13 0 -17
50 -90 57 -83 3 3 0 12 -7 21 -8 10 -9 15 -1 15 10 0 12 -4 15 -36 2 -16 26
-43 50 -56 17 -9 16 -6 -6 20 -24 28 -48 105 -48 150 0 9 20 56 43 103 24 48
55 120 68 160 l24 74 3 -59 c3 -52 -6 -129 -23 -206 -10 -47 47 84 60 140 20
77 35 210 35 304 l0 79 50 -47 c47 -44 103 -76 132 -76 6 0 -9 13 -34 29 -53
34 -110 106 -162 206 l-36 71 17 35 c28 55 105 179 114 185 16 9 10 82 -11
134 -106 269 -518 562 -879 625 -101 18 -85 19 -151 -8z m274 -58 c165 -55
408 -193 535 -306 105 -92 231 -275 231 -334 0 -14 -18 8 -52 64 -29 48 -78
116 -108 153 -70 84 -214 205 -319 267 -76 45 -101 51 -101 24 0 -25 -75 -277
-83 -277 -4 0 -6 4 -3 9 3 5 8 24 11 42 2 19 18 85 34 147 l29 112 -22 15
c-59 42 -271 105 -352 105 -51 0 -123 -31 -207 -89 -115 -80 -112 -73 -93
-182 9 -51 15 -115 15 -143 l-1 -51 -9 50 c-5 28 -13 79 -19 115 -16 94 -24
103 -58 63 -16 -18 -45 -61 -66 -95 -21 -35 -35 -54 -32 -43 35 104 199 279
318 339 43 22 94 42 115 47 58 11 138 0 237 -32z m-239 -19 c3 -5 1 -10 -4
-10 -6 0 -11 5 -11 10 0 6 2 10 4 10 3 0 8 -4 11 -10z m29 -42 c13 -18 18 -19
31 -8 9 8 15 9 15 2 0 -6 -9 -16 -21 -22 -11 -7 -19 -14 -16 -16 3 -3 -4 -28
-15 -56 -11 -29 -15 -54 -10 -57 5 -3 0 -15 -11 -26 -20 -20 -20 -20 -12 20 4
21 13 52 21 67 8 16 12 33 8 39 -4 6 -1 15 6 19 9 6 9 12 1 29 -14 25 -21 26
-47 5 -18 -15 -18 -15 4 -9 18 5 22 2 21 -17 0 -13 -3 -17 -6 -10 -2 6 -11 12
-19 12 -9 0 -12 -5 -8 -11 11 -18 -17 -88 -32 -82 -8 3 -22 -1 -31 -8 -10 -8
0 10 20 40 21 29 33 50 25 45 -10 -6 -10 -4 1 9 21 27 0 20 -33 -10 -17 -15
-11 -6 14 20 49 52 71 58 94 25z m110 -137 c-7 -36 -73 -103 -99 -99 -31 5
-32 51 -2 65 22 10 24 9 20 -8 -3 -11 0 -19 6 -19 18 0 63 49 58 63 -5 16 -42
21 -64 8 -14 -8 -11 -9 15 -5 21 4 32 3 32 -5 0 -7 -4 -10 -9 -7 -5 4 -21 2
-36 -4 -14 -5 -24 -6 -21 -1 4 5 2 11 -3 13 -5 1 0 25 11 51 l21 48 38 -37
c29 -28 36 -42 33 -63z m-228 47 c-20 -23 -36 -46 -36 -52 0 -6 -4 -4 -10 4
-7 12 -11 10 -18 -10 -5 -14 -12 -32 -15 -40 -3 -8 -6 -1 -6 16 -1 22 8 39 32
62 18 18 36 30 39 27 2 -3 13 4 23 15 34 38 27 20 -9 -22z m94 17 c-7 -9 -15
-13 -17 -11 -7 7 7 26 19 26 6 0 6 -6 -2 -15z m165 -66 c-10 -15 -25 -10 -19
6 4 8 10 12 15 9 5 -3 7 -10 4 -15z m-244 -16 c-10 -19 -47 -55 -68 -67 -8 -4
-13 -1 -13 9 0 9 4 14 9 10 10 -5 61 43 61 57 0 5 5 8 10 8 7 0 7 -6 1 -17z
m-114 -18 c0 -8 -4 -12 -9 -9 -5 3 -6 10 -3 15 9 13 12 11 12 -6z m153 -10
c-7 -9 -15 -13 -18 -10 -3 2 1 11 8 20 7 9 15 13 18 10 3 -2 -1 -11 -8 -20z
m0 -58 c0 -18 -8 -26 -35 -34 -49 -15 -53 1 -8 31 21 15 39 26 40 26 2 0 3
-10 3 -23z m55 -7 c3 -5 1 -10 -4 -10 -6 0 -11 5 -11 10 0 6 2 10 4 10 3 0 8
-4 11 -10z m-168 -36 c-3 -3 -12 -4 -19 -1 -8 3 -5 6 6 6 11 1 17 -2 13 -5z
m103 -10 c-34 -14 -34 -14 -5 -10 17 3 38 8 49 12 16 6 17 5 7 -14 -7 -12 -18
-22 -26 -22 -9 0 -12 -6 -9 -15 4 -8 1 -15 -6 -15 -6 0 -9 4 -6 9 7 11 -36 41
-61 42 -10 1 0 7 22 14 54 18 79 17 35 -1z m330 -173 c59 -18 271 -103 289
-117 2 -2 -1 -10 -7 -17 -7 -8 -9 -17 -5 -21 4 -4 -40 14 -98 40 -145 65 -267
94 -416 101 -127 6 -255 -7 -305 -32 -16 -7 -28 -10 -28 -6 0 12 100 54 160
68 86 20 317 10 410 -16z m-603 -38 c15 -21 37 -45 47 -54 27 -22 14 -49 -22
-49 -31 0 -91 35 -102 60 -4 8 -12 25 -18 37 -16 31 -16 31 21 36 17 2 35 5
39 5 4 1 20 -15 35 -35z m718 -103 c-3 -5 -10 -10 -16 -10 -5 0 -9 5 -9 10 0
6 7 10 16 10 8 0 12 -4 9 -10z m-425 -10 c0 -5 -7 -10 -15 -10 -8 0 -15 5 -15
10 0 6 7 10 15 10 8 0 15 -4 15 -10z m160 0 c0 -5 -6 -10 -14 -10 -8 0 -18 5
-21 10 -3 6 3 10 14 10 12 0 21 -4 21 -10z m127 4 c-3 -3 -12 -4 -19 -1 -8 3
-5 6 6 6 11 1 17 -2 13 -5z m333 -4 c0 -5 -4 -10 -10 -10 -5 0 -10 5 -10 10 0
6 5 10 10 10 6 0 10 -4 10 -10z m26 -6 c-3 -9 -6 -18 -6 -20 0 -2 -5 -4 -11
-4 -8 0 -9 4 0 13 6 8 8 17 4 20 -3 4 -1 7 6 7 8 0 11 -6 7 -16z m-1484 -84
c35 -27 83 -62 108 -76 25 -15 61 -38 81 -51 39 -25 65 -68 49 -78 -6 -4 -10
0 -10 8 0 19 -60 71 -112 98 -23 12 -70 43 -105 70 -72 55 -97 64 -154 56 -44
-6 -50 -1 -16 13 54 22 93 12 159 -40z m1564 -15 c114 -82 171 -142 215 -226
23 -44 62 -103 88 -132 39 -43 41 -48 15 -29 -37 26 -93 88 -96 105 -3 24 -16
-129 -18 -218 -3 -112 -17 -181 -19 -92 -2 96 -51 282 -51 194 0 -16 -8 -58
-17 -95 l-17 -67 -11 50 c-14 59 -71 170 -78 152 -3 -7 -6 0 -6 15 -1 40 -36
182 -65 263 -32 91 -33 72 -1 -35 35 -124 55 -251 54 -349 l-1 -86 -9 57 c-4
32 -20 91 -35 130 -21 55 -29 99 -33 178 l-6 105 -8 -132 c-7 -125 -24 -246
-46 -330 -5 -21 -15 -58 -21 -82 -15 -57 -19 -49 -11 22 4 31 3 57 -1 57 -4 0
-8 -6 -8 -12 0 -7 -15 -46 -34 -86 -34 -74 -56 -109 -37 -59 17 43 30 234 22
309 -4 37 -4 73 0 80 3 7 9 26 13 41 11 47 -10 22 -24 -28 -7 -25 -17 -45 -22
-45 -6 0 -7 8 -3 18 4 9 9 84 11 166 2 110 6 151 16 157 10 7 9 9 -3 9 -20 0
-33 39 -15 46 7 3 40 4 72 2 l59 -3 18 -50 c16 -48 17 -39 2 33 -7 32 -6 32
21 22 15 -6 56 -31 90 -55z m-981 44 c17 -8 16 -8 -7 -4 -15 3 -30 0 -33 -5
-6 -10 -70 -40 -84 -40 -3 0 -14 14 -23 30 l-17 30 72 -1 c40 0 81 -5 92 -10z
m179 -26 c-9 -15 -25 -41 -36 -60 -11 -18 -22 -33 -24 -33 -6 0 14 38 39 73
10 16 17 31 14 34 -7 7 -87 -117 -87 -135 0 -7 5 -10 10 -7 16 10 12 -2 -13
-43 -13 -20 -32 -58 -42 -84 -16 -43 -21 -48 -48 -48 l-29 0 7 58 c4 31 20 91
36 131 15 41 26 77 23 80 -25 26 -94 -249 -95 -382 0 -65 -2 -77 -10 -57 -6
14 -9 53 -7 88 2 34 1 62 -2 62 -7 0 6 200 15 228 4 12 3 22 -2 22 -13 0 -33
-146 -33 -242 0 -157 47 -358 101 -431 36 -50 13 -40 -36 15 -116 129 -135
181 -143 378 -5 119 -7 135 -13 91 -4 -30 -12 -63 -18 -75 -6 -12 -20 -46 -31
-76 -11 -30 -17 -41 -14 -25 4 17 8 40 9 53 1 12 7 28 13 34 15 15 15 51 0 66
-9 9 -7 26 7 72 10 33 22 60 26 60 4 0 19 21 34 46 31 53 68 78 148 100 31 9
57 22 57 28 0 7 26 10 81 8 l80 -4 -17 -25z m302 -17 c35 -54 65 -87 75 -81 4
3 11 0 15 -6 4 -8 3 -9 -4 -5 -22 14 -12 -8 19 -40 l30 -31 -53 -6 c-94 -11
-222 -48 -256 -74 -18 -14 -31 -28 -28 -31 3 -3 14 1 23 9 31 25 65 38 167 64
139 35 149 34 186 -19 16 -25 30 -47 30 -50 0 -2 -15 0 -32 5 -38 12 -180 14
-226 4 -17 -3 -38 -18 -48 -33 l-17 -27 25 22 c40 38 169 48 271 22 30 -8 37
-14 37 -34 l0 -24 -42 19 c-56 26 -185 27 -235 4 -22 -11 -30 -20 -23 -24 9
-6 7 -11 -6 -18 -10 -6 -15 -14 -11 -18 4 -4 17 2 30 13 25 23 107 42 107 24
0 -6 8 -7 17 -4 13 5 15 2 10 -11 -6 -15 -1 -17 36 -15 28 2 41 -1 39 -9 -4
-21 16 -13 23 9 4 12 14 19 23 17 38 -7 -12 -135 -75 -195 -19 -18 -31 -33
-26 -33 17 0 102 96 138 155 l37 60 -5 -140 c-5 -137 -26 -264 -50 -295 -7 -9
-3 -8 9 3 12 10 36 51 55 92 19 41 38 74 42 75 5 0 6 -8 4 -17 -3 -10 -8 -36
-11 -58 l-6 -40 24 45 c14 25 30 68 37 95 6 28 17 57 24 65 6 8 18 30 25 48
11 28 36 52 54 52 13 0 5 -48 -9 -60 -20 -16 -19 -81 1 -106 15 -19 16 -19 8
1 -16 44 -17 78 -3 73 9 -3 15 -23 17 -56 3 -43 0 -52 -18 -62 -12 -6 -19 -14
-17 -17 3 -2 14 0 25 6 22 12 42 60 42 102 0 15 4 31 10 34 5 3 7 20 5 38 -4
28 -4 29 4 7 5 -14 9 -44 10 -67 1 -43 14 -57 25 -27 9 25 7 41 -4 24 -7 -12
-10 -8 -10 15 0 23 3 27 10 15 7 -11 10 -11 10 -2 0 21 -20 55 -44 74 -17 14
-19 19 -8 30 18 17 37 -9 57 -76 19 -64 19 -100 -1 -142 -16 -33 -102 -119
-152 -152 -23 -15 -26 -15 -42 6 -21 25 -30 28 -30 10 -1 -27 -87 -138 -140
-181 -89 -73 -311 -207 -341 -207 -15 0 -41 12 -58 26 -17 14 -29 19 -26 11 4
-9 -4 -18 -24 -27 -35 -14 -112 -126 -107 -156 2 -11 1 -13 -1 -6 -4 10 -9 8
-19 -7 -9 -12 -21 -21 -27 -21 -7 0 -6 4 3 10 12 7 7 12 -22 25 -21 8 -42 15
-48 15 -6 0 -18 4 -28 10 -25 15 -71 32 -122 46 -34 9 -47 9 -53 1 -5 -7 -6
-3 -2 9 8 32 -62 107 -103 110 -27 2 -39 -6 -77 -48 -25 -28 -45 -60 -45 -72
0 -15 -3 -17 -9 -8 -7 11 -9 11 -14 -2 -3 -8 -3 -17 1 -19 4 -2 0 -1 -8 1 -8
3 -32 7 -53 10 -33 4 -39 1 -44 -17 -3 -11 -7 -21 -10 -21 -12 0 -72 36 -95
57 -19 18 -32 23 -48 18 -15 -5 -28 -1 -45 15 -12 11 -56 33 -96 49 -41 15
-106 46 -145 69 -68 39 -72 44 -78 85 -9 59 8 130 44 182 17 24 29 52 29 62
-1 16 -2 15 -6 -2 -11 -44 -55 -85 -134 -124 -68 -34 -91 -41 -141 -41 -33 0
-72 7 -88 15 -45 23 -172 177 -218 264 -42 78 -51 114 -32 126 6 3 10 -2 10
-12 1 -44 142 -254 218 -325 l44 -41 68 6 c113 9 250 79 250 127 0 9 5 21 11
27 8 8 8 17 -1 33 -13 25 -17 20 165 208 127 132 248 212 320 212 32 0 115 33
115 45 0 3 -18 -4 -40 -15 -21 -11 -56 -20 -76 -20 -47 0 -151 -55 -231 -123
-98 -84 -259 -264 -319 -359 -53 -83 -58 -88 -107 -103 -77 -23 -156 -19 -187
8 -30 27 -85 95 -129 160 l-32 47 32 27 c18 15 51 43 74 63 274 229 405 340
472 402 44 40 106 95 137 122 90 76 141 74 246 -14 25 -20 68 -49 95 -63 60
-30 110 -80 102 -101 -7 -18 18 -11 46 12 30 26 29 6 -2 -45 -31 -50 -62 -125
-60 -147 0 -6 6 6 14 26 20 55 120 198 138 198 2 0 -7 -33 -20 -72 -37 -115
-56 -241 -48 -327 11 -113 21 -127 28 -40 7 70 39 214 51 227 3 3 6 -19 6 -49
0 -77 25 -182 59 -255 30 -64 90 -148 99 -139 3 2 0 11 -6 18 -13 15 -62 141
-62 159 0 6 10 -2 22 -18 12 -16 34 -42 49 -59 25 -28 26 -33 19 -92 -4 -36
-18 -78 -31 -100 l-23 -38 24 16 c39 25 89 101 83 124 -5 18 -5 18 20 2 40
-26 42 -21 8 18 -34 40 -64 95 -76 140 -13 52 -22 145 -13 145 4 0 5 6 2 13
-6 18 30 49 61 52 27 3 33 -9 13 -22 -7 -4 -14 -16 -14 -26 -2 -13 3 -16 17
-12 18 6 18 1 12 -89 -4 -69 -3 -96 5 -96 7 0 12 12 12 28 0 15 12 61 27 102
l28 75 6 -45 c6 -42 6 -43 7 -9 1 19 9 58 18 85 9 27 18 56 20 64 5 13 6 13
15 0 6 -10 7 -5 3 16 -5 25 4 52 45 131 28 55 78 140 110 190 53 81 62 90 84
86 16 -3 36 -21 53 -47z m-124 10 c-11 -17 -38 -62 -62 -100 -23 -38 -61 -107
-84 -152 l-42 -83 -31 19 -31 19 23 78 c21 71 62 192 80 236 6 15 19 17 86 16
l80 -1 -19 -32z m146 12 c6 -13 21 -39 34 -57 33 -50 4 -28 -32 24 -32 46 -35
55 -22 55 5 0 14 -10 20 -22z m180 -70 c12 -51 22 -122 22 -158 l0 -65 -45 68
c-24 38 -69 108 -99 158 l-55 89 78 0 77 0 22 -92z m26 -3 c4 -31 3 -44 -2
-35 -5 8 -12 42 -15 75 -6 68 6 38 17 -40z m-563 -61 c-11 -32 -27 -85 -36
-116 -14 -51 -19 -58 -40 -58 -14 0 -25 6 -25 13 0 25 107 233 116 224 2 -2
-5 -30 -15 -63z m-421 -74 c-12 -16 -24 -30 -26 -30 -3 0 4 14 16 30 12 17 24
30 26 30 3 0 -4 -13 -16 -30z m32 -112 c-5 -7 -11 -17 -12 -23 -3 -16 -10 -19
-10 -4 0 33 13 60 23 50 7 -7 7 -14 -1 -23z m253 -15 c-4 -10 -9 -25 -12 -33
-5 -17 -53 -43 -53 -29 0 5 5 9 10 9 6 0 10 13 10 28 0 34 6 42 33 42 14 0 17
-4 12 -17z m77 11 c11 -10 -5 -44 -21 -44 -14 0 -14 -2 -1 -10 18 -11 15 -14
-34 -34 -36 -15 -38 -15 -31 2 4 9 11 29 15 44 5 15 11 32 15 38 7 11 48 14
57 4z m1781 -23 c-30 -49 -139 -184 -177 -220 l-36 -35 0 26 c0 14 23 61 52
104 29 44 53 87 54 97 2 24 5 27 61 42 67 18 67 18 46 -14z m-1713 -6 c6 -7 8
-19 4 -28 -4 -12 -11 -13 -35 -5 -30 10 -33 16 -23 41 6 17 37 12 54 -8z
m-353 -92 c-2 -21 -4 -6 -4 32 0 39 2 55 4 38 2 -18 2 -50 0 -70z m1112 54 c1
-5 -3 -5 -9 -2 -5 3 -10 16 -9 28 0 21 1 21 9 2 5 -11 9 -24 9 -28z m-1184
-68 c-4 -105 -15 -133 -15 -37 0 59 8 128 15 128 2 0 2 -41 0 -91z m394 57
c13 -7 20 -16 15 -19 -5 -3 -21 3 -34 14 -29 21 -17 25 19 5z m579 -11 c-6
-14 -13 -24 -14 -22 -6 6 9 47 17 47 5 0 3 -11 -3 -25z m-735 -30 c-3 -8 -9
-15 -14 -15 -10 0 -12 24 -3 33 11 11 24 -3 17 -18z m135 -21 c-5 -28 -28 -29
-28 -1 0 13 3 27 7 31 10 10 25 -10 21 -30z m809 30 c-3 -3 -12 -4 -19 -1 -8
3 -5 6 6 6 11 1 17 -2 13 -5z m-17 -28 c0 -3 -4 -8 -10 -11 -5 -3 -10 -1 -10
4 0 6 5 11 10 11 6 0 10 -2 10 -4z m-840 -26 c0 -5 -5 -10 -11 -10 -5 0 -7 5
-4 10 3 6 8 10 11 10 2 0 4 -4 4 -10z m-1410 -4 c0 -2 -21 -21 -47 -42 -44
-35 -46 -35 -19 -6 20 22 25 32 15 33 -8 1 0 5 16 9 17 4 31 8 33 9 1 0 2 -1
2 -3z m1167 -43 c-3 -10 -5 -4 -5 12 0 17 2 24 5 18 2 -7 2 -21 0 -30z m288
20 c-4 -10 -14 -37 -22 -60 -8 -24 -16 -43 -17 -43 -9 0 9 106 18 112 19 13
28 9 21 -9z m-1550 -3 c-16 -4 -41 -8 -55 -8 -22 0 -22 1 5 8 17 4 41 8 55 8
22 0 22 -1 -5 -8z m2400 -10 c3 -5 1 -10 -4 -10 -6 0 -11 5 -11 10 0 6 2 10 4
10 3 0 8 -4 11 -10z m1252 -17 c-3 -16 -12 -44 -21 -63 -9 -19 -14 -27 -11
-16 3 10 10 38 16 62 13 49 23 59 16 17z m-3755 -2 c-11 -6 -10 -15 4 -44 l17
-36 41 32 c23 17 35 24 27 14 -8 -10 -27 -27 -42 -38 l-28 -20 -21 40 c-25 49
-25 61 -2 61 13 0 14 -2 4 -9z m1375 -33 c-3 -8 -6 -5 -6 6 -1 11 2 17 5 13 3
-3 4 -12 1 -19z m1290 -20 c-3 -7 -5 -2 -5 12 0 14 2 19 5 13 2 -7 2 -19 0
-25z m42 -128 c-4 -22 -7 0 -6 60 0 85 1 89 6 35 4 -33 4 -76 0 -95z m-1307
106 c7 5 9 0 6 -14 -3 -12 -3 -22 1 -24 8 -4 52 -110 47 -115 -5 -5 -76 152
-75 167 1 10 3 9 6 -3 2 -9 9 -14 15 -11z m1230 -28 c-8 -8 -9 -4 -5 13 4 13
8 18 11 10 2 -7 -1 -18 -6 -23z m1109 -20 c-8 -23 -41 -58 -41 -44 0 9 44 75
48 72 1 -2 -2 -14 -7 -28z m-1130 -16 c-5 -10 -18 -25 -27 -33 -11 -9 -9 -2 6
19 26 35 36 42 21 14z m1125 -50 c-20 -39 -91 -100 -155 -135 -53 -29 -71 -23
-23 9 45 29 182 148 182 158 0 5 3 7 6 4 3 -4 -1 -20 -10 -36z m-3215 -26 c-7
-8 -10 -19 -7 -24 3 -5 -2 -16 -12 -24 -38 -33 -40 -27 -10 22 17 27 33 48 36
45 3 -2 -1 -11 -7 -19z m2032 12 c-4 -7 -7 -22 -6 -33 1 -17 1 -17 -3 -2 -5
15 -8 16 -22 5 -10 -7 -6 0 7 15 26 28 38 36 24 15z m47 -19 c0 8 3 12 6 9 3
-4 -1 -18 -9 -33 l-14 -28 -1 34 c-1 24 2 29 8 19 8 -13 10 -13 10 -1z m-1048
-44 c3 -13 1 -22 -3 -19 -9 5 -13 44 -5 44 2 0 6 -11 8 -25z m1010 -20 c-2
-14 -6 -25 -8 -25 -2 0 -4 11 -4 25 0 14 4 25 9 25 4 0 6 -11 3 -25z m-147 5
c3 -5 1 -10 -4 -10 -6 0 -11 5 -11 10 0 6 2 10 4 10 3 0 8 -4 11 -10z m122
-42 c-2 -13 -4 -5 -4 17 -1 22 1 32 4 23 2 -10 2 -28 0 -40z m-168 -11 c-8
-48 -43 -144 -60 -167 -9 -13 -10 -13 -5 2 16 52 27 101 22 105 -2 3 -14 -28
-26 -69 -12 -40 -29 -79 -38 -85 -10 -9 -11 -13 -3 -13 7 0 9 -5 5 -12 -4 -7
20 15 53 50 l61 62 4 -36 c4 -35 3 -37 -46 -58 -105 -47 -143 -100 -165 -231
-17 -102 -67 -170 -143 -199 -53 -20 -136 -81 -125 -92 3 -3 22 10 43 28 35
31 202 103 213 92 3 -3 0 -14 -7 -25 -8 -12 -10 -33 -6 -53 6 -32 2 -37 -63
-91 -37 -31 -111 -85 -163 -120 -52 -35 -111 -75 -129 -89 -19 -14 -39 -22
-43 -18 -13 13 -28 168 -22 231 10 115 17 121 71 69 18 -18 33 -28 33 -22 -1
17 -38 54 -64 64 -26 9 -26 11 -12 38 8 16 54 66 102 111 82 78 88 82 96 61 9
-24 0 -98 -13 -106 -5 -3 -9 -10 -9 -17 0 -6 7 -4 17 5 28 29 28 113 -1 197
-14 41 -25 75 -23 76 1 1 38 24 82 50 207 124 316 213 347 280 17 39 26 30 17
-18z m-843 -19 c-18 -26 -22 -17 -5 14 6 11 13 17 16 15 3 -3 -2 -16 -11 -29z
m1994 0 c0 -5 -23 -8 -51 -8 -27 0 -48 4 -45 9 7 10 96 9 96 -1z m-1135 -38
c-15 -41 -34 -80 -35 -69 0 4 6 22 14 40 7 19 16 42 19 52 4 9 9 17 11 17 3 0
-1 -18 -9 -40z m150 -49 c-6 -14 -8 -14 -21 3 -8 11 -14 25 -14 30 1 6 7 0 15
-14 14 -24 14 -24 16 25 2 46 3 47 6 11 3 -21 1 -46 -2 -55z m-68 57 c-3 -8
-6 -5 -6 6 -1 11 2 17 5 13 3 -3 4 -12 1 -19z m30 0 c-3 -8 -6 -5 -6 6 -1 11
2 17 5 13 3 -3 4 -12 1 -19z m-40 -50 c-3 -8 -6 -5 -6 6 -1 11 2 17 5 13 3 -3
4 -12 1 -19z m-10 -70 c-3 -7 -5 -2 -5 12 0 14 2 19 5 13 2 -7 2 -19 0 -25z
m-22 -10 c6 -4 2 -8 -7 -8 -10 0 -18 7 -18 17 0 9 3 12 8 7 4 -5 12 -12 17
-16z m-1166 -98 c10 0 28 -11 41 -25 18 -19 26 -22 33 -13 6 9 7 7 3 -6 -4
-10 -1 -25 5 -32 14 -17 13 -17 -96 -42 -75 -18 -105 -19 -105 -3 0 3 22 31
49 61 27 30 48 59 46 65 -1 5 0 7 2 3 3 -5 13 -8 22 -8z m1316 12 c-6 -5 -36
-14 -67 -21 -76 -16 -172 -65 -194 -99 -10 -15 -26 -52 -36 -82 -16 -49 -18
-50 -13 -15 8 50 47 118 83 143 47 34 132 64 232 81 2 1 0 -3 -5 -7z m-1275
-12 c0 -5 -2 -10 -4 -10 -3 0 -8 5 -11 10 -3 6 -1 10 4 10 6 0 11 -4 11 -10z
m-94 -25 c-9 -9 -16 -13 -16 -8 0 12 22 34 28 28 2 -2 -3 -11 -12 -20z m671
-27 c-3 -8 -6 -5 -6 6 -1 11 2 17 5 13 3 -3 4 -12 1 -19z m-532 -77 c-3 -5 2
-17 11 -26 19 -18 14 -28 -9 -19 -28 10 -33 54 -6 54 6 0 8 -4 4 -9z m170 -19
c-3 -3 -11 0 -18 7 -9 10 -8 11 6 5 10 -3 15 -9 12 -12z m40 -20 c-3 -3 -11 0
-18 7 -9 10 -8 11 6 5 10 -3 15 -9 12 -12z m-88 2 c-3 -3 -12 -4 -19 -1 -8 3
-5 6 6 6 11 1 17 -2 13 -5z m135 -9 c3 0 9 -3 13 -7 4 -3 0 -5 -9 -4 -9 1 -22
8 -29 16 -10 10 -9 11 3 4 8 -5 18 -9 22 -9z m-239 -36 c10 -10 30 -22 45 -25
15 -4 32 -9 37 -13 6 -3 16 -6 23 -7 27 -5 25 -14 -4 -15 -16 0 -36 -2 -44 -4
-8 -1 -34 -6 -58 -9 -23 -4 -61 -13 -83 -21 -40 -14 -40 -14 -33 8 13 44 45
98 54 92 6 -3 7 1 3 11 -5 13 -2 15 18 9 13 -4 32 -16 42 -26z m537 28 c0 -2
-13 -15 -28 -30 -20 -19 -29 -23 -29 -13 0 8 3 13 7 11 4 -3 15 4 25 15 17 19
25 24 25 17z m-446 -38 c-7 -11 -41 1 -41 15 0 9 6 10 23 2 12 -6 20 -14 18
-17z m-394 1 c-8 -5 -19 -10 -25 -10 -5 0 -3 5 5 10 8 5 20 10 25 10 6 0 3 -5
-5 -10z m465 -28 c-7 -8 -65 10 -60 18 3 4 18 3 35 -3 16 -6 27 -13 25 -15z
m152 -49 c-2 -16 -4 -3 -4 27 0 30 2 43 4 28 2 -16 2 -40 0 -55z m-657 57 c0
-5 -5 -10 -11 -10 -5 0 -7 5 -4 10 3 6 8 10 11 10 2 0 4 -4 4 -10z m1237 -32
c-3 -8 -6 -5 -6 6 -1 11 2 17 5 13 3 -3 4 -12 1 -19z m-113 -55 c-31 -22 -35
-14 -12 22 21 31 23 32 26 13 2 -13 -4 -27 -14 -35z m-730 16 c11 -2 21 -10
22 -17 1 -7 0 -8 -3 -2 -7 16 -15 13 -115 -35 -79 -38 -94 -42 -97 -28 -2 9 5
23 15 30 21 15 103 40 141 42 7 1 10 8 7 19 -4 10 -3 13 3 6 4 -7 17 -13 27
-15z m20 -89 c-37 -38 -83 -91 -102 -117 -37 -52 -121 -217 -123 -242 -1 -9
-5 -2 -9 14 -9 37 -12 179 -4 188 3 3 7 26 8 51 1 25 4 47 6 49 17 14 267 126
284 127 4 0 -22 -31 -60 -70z m-94 26 c0 -3 -4 -8 -10 -11 -5 -3 -10 -1 -10 4
0 6 5 11 10 11 6 0 10 -2 10 -4z m-220 -66 c0 -5 -2 -10 -4 -10 -3 0 -8 5 -11
10 -3 6 -1 10 4 10 6 0 11 -4 11 -10z m1493 -46 c36 -19 68 -38 71 -42 4 -6
-51 -212 -59 -220 -2 -2 -124 53 -144 65 -6 4 51 233 58 233 4 0 37 -16 74
-36z m-484 -20 c-13 -12 -14 -23 -6 -60 13 -56 -2 -123 -91 -404 -35 -113 -67
-216 -70 -230 -3 -14 -38 -103 -78 -199 -41 -95 -74 -176 -74 -180 0 -17 34
51 95 189 84 190 274 585 279 579 2 -2 14 -65 26 -139 12 -74 26 -145 30 -157
11 -27 5 -37 -247 -371 -102 -136 -234 -319 -293 -407 -59 -88 -128 -186 -152
-217 l-45 -58 -16 43 c-71 192 -137 545 -137 735 0 74 6 104 34 188 71 208
160 424 175 424 3 0 24 -57 46 -127 l40 -126 12 42 c19 66 43 257 44 356 l2
90 8 -92 c5 -51 14 -104 21 -117 l13 -25 135 91 c74 50 162 113 195 139 60 49
83 62 54 33z m671 -175 c0 -5 -4 -9 -9 -9 -5 0 -24 -12 -41 -26 -43 -37 -51
-21 -11 20 30 31 61 38 61 15z m10 -39 c0 -11 -6 -20 -13 -20 -7 0 -24 -11
-39 -25 -19 -18 -28 -21 -31 -11 -7 19 40 62 81 75 1 1 2 -8 2 -19z m-104
-122 c-5 -37 -16 -63 -35 -86 l-28 -33 7 43 c4 24 12 62 19 86 7 23 9 46 7 51
-3 5 0 24 6 42 l12 34 9 -42 c5 -23 6 -65 3 -95z m-495 69 c-10 -9 -11 -8 -5
6 3 10 9 15 12 12 3 -3 0 -11 -7 -18z m393 -32 c13 -14 13 -21 -5 -72 -10 -31
-22 -81 -26 -110 -5 -42 -9 -53 -24 -53 -10 0 -17 6 -14 13 18 57 45 202 40
218 -8 23 8 25 29 4z m-57 -97 c-3 -8 -6 -5 -6 6 -1 11 2 17 5 13 3 -3 4 -12
1 -19z m152 -40 c-7 -12 -34 -53 -61 -90 -45 -61 -52 -67 -76 -62 -37 9 -42
13 -36 28 3 7 16 11 33 8 24 -3 34 5 85 73 55 72 82 94 55 43z m-1649 -197 c0
-9 -4 -22 -9 -29 -6 -10 -13 -6 -26 15 l-18 28 21 -19 c31 -27 27 -13 -8 36
-41 56 -38 72 5 24 19 -22 35 -47 35 -55z m1215 -39 c-20 -26 -108 -141 -196
-255 -88 -115 -209 -279 -269 -365 -60 -86 -142 -204 -182 -262 -125 -180
-315 -387 -336 -366 -7 8 9 27 18 21 5 -3 11 -1 15 5 3 5 1 10 -6 10 -7 0 3
11 22 25 36 27 179 175 179 186 0 4 24 38 53 75 30 38 100 138 156 223 57 84
197 278 312 431 115 153 219 295 230 315 18 31 24 34 31 21 7 -12 0 -29 -27
-64z m418 -3 l63 -32 -48 -45 -49 -45 -60 29 c-33 15 -63 32 -66 37 -3 5 9 2
25 -7 40 -21 56 -20 18 0 -28 16 -28 16 -7 30 13 9 18 21 14 31 -4 10 -2 14 4
10 6 -4 13 0 17 8 8 21 17 19 89 -16z m-1505 -342 l-2 -112 -6 110 c-3 61 -7
104 -8 96 -1 -8 -4 -12 -7 -9 -9 8 6 38 16 32 5 -3 8 -56 7 -117z m-57 -4
c-12 -20 -14 -14 -5 12 4 9 9 14 11 11 3 -2 0 -13 -6 -23z m-34 -105 c-3 -8
-6 -5 -6 6 -1 11 2 17 5 13 3 -3 4 -12 1 -19z m-10 -40 c-3 -8 -6 -5 -6 6 -1
11 2 17 5 13 3 -3 4 -12 1 -19z m110 -25 c-3 -10 -5 -2 -5 17 0 19 2 27 5 18
2 -10 2 -26 0 -35z m-120 -45 c-3 -7 -5 -2 -5 12 0 14 2 19 5 13 2 -7 2 -19 0
-25z m130 -15 c-3 -10 -5 -4 -5 12 0 17 2 24 5 18 2 -7 2 -21 0 -30z m-140
-70 c-3 -10 -5 -4 -5 12 0 17 2 24 5 18 2 -7 2 -21 0 -30z m150 -10 c-3 -10
-5 -2 -5 17 0 19 2 27 5 18 2 -10 2 -26 0 -35z m-160 -70 c-3 -10 -5 -2 -5 17
0 19 2 27 5 18 2 -10 2 -26 0 -35z m170 0 c-3 -10 -5 -2 -5 17 0 19 2 27 5 18
2 -10 2 -26 0 -35z m-180 -70 c-3 -10 -5 -2 -5 17 0 19 2 27 5 18 2 -10 2 -26
0 -35z m190 0 c-3 -10 -5 -2 -5 17 0 19 2 27 5 18 2 -10 2 -26 0 -35z m-200
-70 c-3 -10 -5 -2 -5 17 0 19 2 27 5 18 2 -10 2 -26 0 -35z m210 10 c-3 -10
-5 -4 -5 12 0 17 2 24 5 18 2 -7 2 -21 0 -30z m11 -74 c-3 -33 -4 -33 -8 8 -3
23 -2 39 3 34 5 -5 7 -24 5 -42z m-231 -16 c-3 -10 -5 -2 -5 17 0 19 2 27 5
18 2 -10 2 -26 0 -35z m-10 -70 c-3 -10 -5 -2 -5 17 0 19 2 27 5 18 2 -10 2
-26 0 -35z m238 -248 c-8 -22 -12 -29 -9 -15 4 14 10 88 13 165 l6 140 3 -125
c2 -95 -1 -135 -13 -165z m245 271 c0 -2 -8 -10 -17 -17 -16 -13 -17 -12 -4 4
13 16 21 21 21 13z m-493 -108 c-2 -13 -4 -5 -4 17 -1 22 1 32 4 23 2 -10 2
-28 0 -40z m-10 -85 c-3 -10 -5 -2 -5 17 0 19 2 27 5 18 2 -10 2 -26 0 -35z
m-10 -45 c-3 -8 -6 -5 -6 6 -1 11 2 17 5 13 3 -3 4 -12 1 -19z m1836 -18 c3
-11 1 -20 -4 -20 -5 0 -9 9 -9 20 0 11 2 20 4 20 2 0 6 -9 9 -20z m-16 -52
c-3 -8 -6 -5 -6 6 -1 11 2 17 5 13 3 -3 4 -12 1 -19z m-1857 -18 c-6 -11 -13
-20 -16 -20 -2 0 0 9 6 20 6 11 13 20 16 20 2 0 0 -9 -6 -20z m1947 -87 c7
-18 11 -33 9 -33 -5 0 -66 129 -66 139 1 8 39 -63 57 -106z m-47 -54 c-10 -24
-10 -35 0 -54 7 -14 10 -28 7 -32 -4 -3 -7 1 -7 10 0 9 -7 20 -15 25 -14 7
-14 12 0 46 16 37 15 39 -15 85 -16 26 -30 52 -30 57 0 4 16 -18 36 -49 33
-53 35 -60 24 -88z m-1955 64 c-21 -27 -56 -67 -79 -90 -22 -24 -38 -43 -36
-43 3 0 27 7 54 15 27 8 54 15 60 14 9 0 -130 -48 -142 -49 -2 0 17 21 41 48
25 26 64 71 87 100 23 28 44 52 47 52 3 0 -12 -21 -32 -47z m2084 -188 c0 -5
-15 19 -34 55 -19 36 -34 70 -34 75 0 6 15 -19 34 -55 19 -36 34 -69 34 -75z
m-2019 95 c-34 -11 -60 -11 -35 0 11 5 29 8 40 8 16 0 15 -2 -5 -8z m1907
-107 c-3 -10 -5 -4 -5 12 0 17 2 24 5 18 2 -7 2 -21 0 -30z m-88 -91 c-17 -51
-39 -102 -48 -113 l-18 -22 -46 28 c-56 32 -64 28 -91 -43 -30 -77 -55 -77
-175 -5 l-96 58 99 7 c157 11 281 62 367 151 19 19 35 33 36 32 2 -1 -11 -43
-28 -93z m-1318 -6 c30 -14 75 -28 102 -31 26 -4 47 -10 47 -14 0 -3 -45 -30
-100 -58 l-99 -53 -29 53 c-27 46 -72 166 -72 189 0 4 22 -8 49 -27 26 -19 72
-46 102 -59z m1543 58 c3 -8 2 -12 -4 -9 -6 3 -10 10 -10 16 0 14 7 11 14 -7z
m-100 -95 c-3 -5 -10 -7 -15 -3 -5 3 -7 10 -3 15 3 5 10 7 15 3 5 -3 7 -10 3
-15z m-1115 -116 c66 -64 118 -120 115 -124 -3 -5 -15 -14 -27 -19 l-22 -11
22 17 c22 16 21 17 -100 135 -67 65 -119 119 -115 119 3 0 60 -52 127 -117z
m1161 97 c0 -5 -4 -10 -10 -10 -5 0 -10 5 -10 10 0 6 5 10 10 10 6 0 10 -4 10
-10z m-1320 -5 c0 -8 -131 -77 -137 -72 -3 3 26 22 63 41 76 39 74 38 74 31z
m364 -17 c80 -2 145 -6 143 -9 -3 -8 -146 -130 -182 -156 l-29 -21 -101 95
c-55 53 -101 99 -103 102 -1 4 26 4 62 0 35 -5 130 -9 210 -11z m171 -19 c-22
-23 -78 -71 -125 -107 -47 -36 -87 -68 -90 -70 -10 -7 147 -110 243 -159 l49
-24 56 42 c31 24 88 73 126 111 76 73 75 67 19 106 -10 7 1 3 25 -8 35 -17 41
-24 33 -38 -23 -43 -235 -222 -263 -222 -33 0 -303 173 -296 190 2 4 24 25 50
46 26 22 78 65 117 96 38 32 73 62 76 68 3 5 9 10 13 10 3 0 -12 -18 -33 -41z
m154 -16 c95 -63 122 -83 76 -60 -45 24 -181 117 -171 117 5 0 48 -26 95 -57z
m607 43 c19 -19 18 -32 -5 -55 -18 -18 -19 -17 -28 25 -8 36 -8 44 4 44 8 0
21 -6 29 -14z m44 -25 c0 -6 -4 -13 -10 -16 -5 -3 -10 1 -10 9 0 9 5 16 10 16
6 0 10 -4 10 -9z m-340 -5 c0 -2 -7 -9 -15 -16 -13 -11 -14 -10 -9 4 5 14 24
23 24 12z m-1252 -79 c-13 -10 -41 -27 -63 -37 -39 -20 -36 -17 29 26 21 14
31 28 30 44 -1 22 0 22 13 4 12 -16 11 -21 -9 -37z m1291 34 l23 -18 -22 -21
c-12 -11 -19 -25 -15 -31 9 -15 -1 -14 -36 4 -16 9 -27 20 -25 24 3 4 10 20
15 35 12 31 27 32 60 7z m59 -9 c7 7 25 7 61 -2 28 -7 51 -14 51 -16 0 -13
-78 -73 -93 -71 -10 1 -28 18 -40 36 -12 19 -16 32 -9 27 17 -10 15 5 -4 34
l-16 25 20 -22 c13 -15 22 -19 30 -11z m67 18 c13 -6 15 -9 5 -9 -8 0 -22 4
-30 9 -18 12 -2 12 25 0z m145 0 c0 -5 -4 -10 -10 -10 -5 0 -10 5 -10 10 0 6
5 10 10 10 6 0 10 -4 10 -10z m-349 -27 c-12 -20 -14 -14 -5 12 4 9 9 14 11
11 3 -2 0 -13 -6 -23z m256 11 c-3 -3 -12 -4 -19 -1 -8 3 -5 6 6 6 11 1 17 -2
13 -5z m-1410 -11 c-4 -3 0 -18 9 -32 l15 -26 -20 24 c-19 21 -20 41 -4 41 4
0 3 -3 0 -7z m1473 -13 c0 -5 -7 -10 -15 -10 -8 0 -15 5 -15 10 0 6 7 10 15
10 8 0 15 -4 15 -10z m-1461 -58 c19 -24 36 -40 39 -38 3 3 -1 14 -9 24 -8 10
4 -2 26 -28 22 -25 58 -65 80 -88 l41 -44 102 46 c56 24 102 43 102 40 0 -3
-46 -27 -102 -54 -118 -56 -106 -59 -185 43 -25 32 -47 56 -50 53 -3 -3 9 -23
27 -46 17 -22 27 -40 21 -40 -11 0 -77 29 -194 85 l-58 28 58 38 c32 21 61 35
64 31 3 -4 20 -26 38 -50z m1169 14 c32 -17 35 -17 55 1 20 18 17 6 -5 -24
-13 -16 -98 25 -98 46 0 11 3 12 8 5 4 -6 22 -19 40 -28z m4 -27 c28 -14 44
-17 51 -10 7 7 16 7 29 0 19 -10 19 -12 2 -30 -41 -46 -232 -126 -354 -149
l-45 -8 35 30 c81 71 137 125 156 149 18 25 38 35 72 38 7 0 31 -8 54 -20z
m276 -24 c-1 -39 -6 -41 -33 -21 -18 13 -18 15 -2 40 22 34 37 25 35 -19z
m-1638 25 c-8 -5 -19 -10 -25 -10 -5 0 -3 5 5 10 8 5 20 10 25 10 6 0 3 -5 -5
-10z m1580 -10 c0 -5 -4 -10 -10 -10 -5 0 -10 5 -10 10 0 6 5 10 10 10 6 0 10
-4 10 -10z m-52 -30 c-11 -18 -28 -27 -28 -16 0 16 14 36 26 36 12 0 12 -4 2
-20z m-753 -78 c61 -41 112 -75 114 -77 7 -7 -347 21 -408 32 -33 6 -33 6 59
53 51 27 97 53 103 59 14 14 0 21 132 -67z m785 68 c0 -5 -7 -10 -15 -10 -8 0
-15 5 -15 10 0 6 7 10 15 10 8 0 15 -4 15 -10z m30 -11 c0 -5 -4 -9 -10 -9 -5
0 -10 7 -10 16 0 8 5 12 10 9 6 -3 10 -10 10 -16z m-60 -31 c0 -13 -20 -9 -36
6 -21 21 -17 26 11 13 14 -7 25 -15 25 -19z m104 6 c4 -10 1 -14 -6 -12 -15 5
-23 28 -10 28 5 0 13 -7 16 -16z m-64 -4 c-19 -13 -30 -13 -30 0 0 6 10 10 23
10 18 0 19 -2 7 -10z m111 -16 c12 -14 11 -16 -5 -13 -11 2 -21 10 -24 17 -5
17 13 15 29 -4z m-130 -42 c8 -40 4 -40 -16 -2 -18 35 -19 43 -3 38 7 -3 15
-19 19 -36z m79 28 c0 -5 -11 -10 -25 -10 -14 0 -25 5 -25 10 0 6 11 10 25 10
14 0 25 -4 25 -10z m-135 -10 c-3 -5 -10 -10 -16 -10 -5 0 -9 5 -9 10 0 6 7
10 16 10 8 0 12 -4 9 -10z m240 -1 c12 -19 -5 -23 -22 -6 -16 16 -16 17 -1 17
9 0 20 -5 23 -11z m-113 -38 c10 -13 10 -14 -2 -3 -17 15 -40 16 -40 2 0 -12
7 -21 73 -90 26 -28 47 -60 47 -72 0 -12 3 -19 6 -15 4 3 -1 38 -11 77 -10 39
-16 73 -13 75 2 2 17 -2 32 -11 16 -8 31 -12 34 -9 3 3 0 5 -6 5 -7 0 -12 5
-12 10 0 6 11 10 24 10 14 0 28 -4 31 -10 3 -5 -1 -10 -9 -10 -25 0 -19 -17
15 -47 71 -62 82 -78 140 -208 12 -26 17 -125 7 -131 -4 -3 -8 -16 -8 -30 0
-35 -12 -30 -38 19 -12 23 -56 82 -97 132 -41 49 -75 95 -75 102 0 7 -6 13
-12 14 -7 0 -41 34 -75 75 -50 59 -63 82 -63 109 0 28 3 32 20 28 10 -3 25
-13 32 -22z m50 17 c-17 -8 -26 -8 -34 0 -9 9 -4 12 23 11 32 0 33 -1 11 -11z
m-216 -25 c-10 -10 -19 5 -10 18 6 11 8 11 12 0 2 -7 1 -15 -2 -18z m272 8
c11 -6 10 -9 -5 -13 -23 -6 -45 1 -37 13 7 11 25 11 42 0z m-44 -190 c120
-137 188 -226 217 -283 32 -62 7 -42 -38 30 -23 37 -103 139 -178 226 -75 88
-143 173 -151 190 l-15 31 28 -35 c15 -19 77 -90 137 -159z m-20 153 c10 -37
2 -39 -11 -4 -6 17 -8 30 -3 30 4 0 11 -12 14 -26z m174 2 c3 -12 -1 -17 -10
-14 -7 3 -15 13 -16 22 -3 12 1 17 10 14 7 -3 15 -13 16 -22z m-408 5 c0 -6
-4 -13 -10 -16 -5 -3 -10 1 -10 9 0 9 5 16 10 16 6 0 10 -4 10 -9z m388 -30
c11 -6 10 -10 -4 -15 -10 -4 -24 0 -33 9 -14 13 -13 15 4 15 11 0 26 -4 33 -9z
m61 -17 c3 -16 1 -17 -13 -5 -19 16 -21 34 -3 29 6 -3 14 -13 16 -24z m-484 6
c-3 -5 -11 -10 -16 -10 -6 0 -7 5 -4 10 3 6 11 10 16 10 6 0 7 -4 4 -10z m470
-30 c4 -6 -5 -10 -19 -10 -14 0 -26 5 -26 10 0 6 9 10 19 10 11 0 23 -4 26
-10z m55 -21 c0 -11 -4 -17 -10 -14 -5 3 -10 15 -10 26 0 11 5 17 10 14 6 -3
10 -15 10 -26z m-560 11 c0 -5 -4 -10 -10 -10 -5 0 -10 5 -10 10 0 6 5 10 10
10 6 0 10 -4 10 -10z m311 -111 c43 -50 67 -99 49 -99 -4 0 -14 9 -21 19 -8
10 -35 45 -60 77 -25 33 -49 70 -53 84 l-7 25 23 -26 c13 -15 44 -51 69 -80z
m-346 81 c-3 -5 -11 -10 -16 -10 -6 0 -7 5 -4 10 3 6 11 10 16 10 6 0 7 -4 4
-10z m574 -4 c9 -11 6 -12 -14 -8 -14 2 -28 8 -31 13 -9 15 33 10 45 -5z m55
-12 c8 -22 -4 -40 -15 -23 -11 18 -11 39 0 39 5 0 12 -7 15 -16z m-664 -13 c0
-6 -4 -13 -10 -16 -5 -3 -10 1 -10 9 0 9 5 16 10 16 6 0 10 -4 10 -9z m635
-21 c18 -20 18 -21 -5 -12 -13 5 -26 14 -28 20 -6 19 13 14 33 -8z m55 -31 c0
-11 -4 -17 -10 -14 -5 3 -10 15 -10 26 0 11 5 17 10 14 6 -3 10 -15 10 -26z
m-730 11 c0 -5 -4 -10 -10 -10 -5 0 -10 5 -10 10 0 6 5 10 10 10 6 0 10 -4 10
-10z m691 -20 c10 -6 19 -15 19 -19 0 -14 -38 -1 -44 15 -6 17 -1 17 25 4z
m61 -32 c7 -18 -2 -39 -13 -32 -12 7 -12 44 0 44 5 0 11 -6 13 -12z m-832 -8
c0 -5 -7 -10 -16 -10 -8 0 -12 5 -9 10 3 6 10 10 16 10 5 0 9 -4 9 -10z m794
-16 c9 -8 16 -20 16 -25 0 -12 -38 12 -44 28 -7 18 9 16 28 -3z m-839 -14 c-3
-5 -10 -10 -16 -10 -5 0 -9 5 -9 10 0 6 7 10 16 10 8 0 12 -4 9 -10z m725
-138 c28 -41 50 -84 50 -96 0 -25 -66 -100 -97 -110 -19 -6 -22 -1 -32 61 -6
37 -16 109 -21 158 -6 50 -13 101 -16 115 -4 22 -1 21 31 -15 20 -22 58 -73
85 -113z m-766 107 c-3 -5 -10 -7 -15 -3 -5 3 -7 10 -3 15 3 5 10 7 15 3 5 -3
7 -10 3 -15z m932 -16 c-7 -17 -8 -17 -17 0 -12 21 -2 44 13 29 6 -6 8 -19 4
-29z m-31 -21 c-8 -8 -35 20 -35 37 1 12 5 11 21 -8 11 -13 17 -26 14 -29z
m-940 18 c-3 -5 -10 -10 -16 -10 -5 0 -9 5 -9 10 0 6 7 10 16 10 8 0 12 -4 9
-10z m-45 -30 c0 -5 -4 -10 -10 -10 -5 0 -10 5 -10 10 0 6 5 10 10 10 6 0 10
-4 10 -10z m980 -32 c0 -17 -3 -18 -15 -8 -8 7 -15 21 -15 32 0 17 3 18 15 8
8 -7 15 -21 15 -32z m35 4 c-5 -14 -7 -14 -15 -2 -5 9 -4 20 3 28 14 17 22 0
12 -26z m-1055 8 c0 -5 -7 -10 -16 -10 -8 0 -12 5 -9 10 3 6 10 10 16 10 5 0
9 -4 9 -10z m-50 -20 c0 -5 -4 -10 -10 -10 -5 0 -10 5 -10 10 0 6 5 10 10 10
6 0 10 -4 10 -10z m-46 -31 c-3 -5 -10 -7 -15 -3 -5 3 -7 10 -3 15 3 5 10 7
15 3 5 -3 7 -10 3 -15z m1106 -12 c-1 -21 -1 -21 -15 -3 -8 10 -12 23 -9 28 9
14 24 -2 24 -25z m-1150 3 c0 -5 -7 -10 -16 -10 -8 0 -12 5 -9 10 3 6 10 10
16 10 5 0 9 -4 9 -10z m-50 -20 c0 -5 -4 -10 -10 -10 -5 0 -10 5 -10 10 0 6 5
10 10 10 6 0 10 -4 10 -10z m-45 -10 c-3 -5 -10 -10 -16 -10 -5 0 -9 5 -9 10
0 6 7 10 16 10 8 0 12 -4 9 -10z m1225 -22 c0 -25 -3 -29 -10 -18 -13 20 -13
50 0 50 6 0 10 -15 10 -32z m-1275 12 c-3 -5 -10 -10 -16 -10 -5 0 -9 5 -9 10
0 6 7 10 16 10 8 0 12 -4 9 -10z m1316 -23 c-16 -16 -26 0 -10 19 9 11 15 12
17 4 2 -6 -1 -17 -7 -23z m-1366 13 c-3 -5 -10 -10 -16 -10 -5 0 -9 5 -9 10 0
6 7 10 16 10 8 0 12 -4 9 -10z m-101 -21 c-3 -5 -10 -7 -15 -3 -5 3 -7 10 -3
15 3 5 10 7 15 3 5 -3 7 -10 3 -15z m44 7 c-16 -12 -16 -15 6 -47 72 -107 74
-120 4 -31 -37 47 -43 60 -34 75 6 9 18 17 26 17 12 -1 12 -3 -2 -14z m-94
-17 c-3 -5 -10 -7 -15 -3 -5 3 -7 10 -3 15 3 5 10 7 15 3 5 -3 7 -10 3 -15z
m-50 -10 c-3 -5 -10 -7 -15 -3 -5 3 -7 10 -3 15 3 5 10 7 15 3 5 -3 7 -10 3
-15z m1506 -5 c0 -14 -4 -23 -10 -19 -5 3 -10 15 -10 26 0 10 5 19 10 19 6 0
10 -12 10 -26z m-1556 -5 c-3 -5 -10 -7 -15 -3 -5 3 -7 10 -3 15 3 5 10 7 15
3 5 -3 7 -10 3 -15z m213 -64 c70 -82 106 -134 83 -120 -8 5 -60 39 -115 76
-55 36 -115 74 -132 83 -36 18 -44 31 -14 21 11 -3 22 -2 25 4 3 5 15 7 25 4
10 -3 22 0 25 6 12 19 42 -3 103 -74z m-257 67 c0 -13 -12 -22 -22 -16 -10 6
-1 24 13 24 5 0 9 -4 9 -8z m1640 -12 c-6 -11 -15 -20 -21 -20 -6 0 -6 7 1 20
6 11 15 20 21 20 6 0 6 -7 -1 -20z m-1695 0 c3 -5 1 -10 -4 -10 -6 0 -11 5
-11 10 0 6 2 10 4 10 3 0 8 -4 11 -10z m-45 -10 c0 -5 -4 -10 -10 -10 -5 0
-10 5 -10 10 0 6 5 10 10 10 6 0 10 -4 10 -10z m1666 -27 c-11 -11 -19 6 -11
24 8 17 8 17 12 0 3 -10 2 -21 -1 -24z m-1721 17 c3 -5 1 -10 -4 -10 -6 0 -11
5 -11 10 0 6 2 10 4 10 3 0 8 -4 11 -10z m-95 -30 c0 -5 -2 -10 -4 -10 -3 0
-8 5 -11 10 -3 6 -1 10 4 10 6 0 11 -4 11 -10z m-50 -10 c0 -5 -5 -10 -11 -10
-5 0 -7 5 -4 10 3 6 8 10 11 10 2 0 4 -4 4 -10z m1827 -5 c0 -8 -4 -12 -9 -9
-5 3 -6 10 -3 15 9 13 12 11 12 -6z m-46 -48 c-8 -8 -11 -7 -11 4 0 20 13 34
18 19 3 -7 -1 -17 -7 -23z m83 11 c-3 -4 -12 -8 -20 -8 -8 0 -13 4 -10 8 3 5
12 9 20 9 8 0 13 -4 10 -9z m-2004 -8 c0 -5 -5 -10 -11 -10 -5 0 -7 5 -4 10 3
6 8 10 11 10 2 0 4 -4 4 -10z m-40 -20 c0 -5 -4 -10 -10 -10 -5 0 -10 5 -10
10 0 6 5 10 10 10 6 0 10 -4 10 -10z m-50 -26 c0 -8 -5 -12 -10 -9 -6 4 -8 11
-5 16 9 14 15 11 15 -7z m-45 -14 c3 -5 -1 -10 -10 -10 -9 0 -13 5 -10 10 3 6
8 10 10 10 2 0 7 -4 10 -10z m-45 -30 c0 -5 -4 -10 -10 -10 -5 0 -10 5 -10 10
0 6 5 10 10 10 6 0 10 -4 10 -10z m-16 -51 c-3 -5 -10 -7 -15 -3 -5 3 -7 10
-3 15 3 5 10 7 15 3 5 -3 7 -10 3 -15z m36 -23 c0 -11 -19 -15 -25 -6 -3 5 1
10 9 10 9 0 16 -2 16 -4z m44 -17 c-3 -5 -10 -7 -15 -3 -5 3 -7 10 -3 15 3 5
10 7 15 3 5 -3 7 -10 3 -15z"/>
<path d="M2140 5975 c-7 -9 -10 -18 -7 -21 3 -3 10 4 17 15 13 25 8 27 -10 6z"/>
<path d="M2790 5385 c-14 -8 -20 -14 -15 -14 6 0 21 6 35 14 14 8 21 14 15 14
-5 0 -21 -6 -35 -14z"/>
<path d="M3131 5145 c0 -5 6 -32 13 -60 8 -27 14 -41 14 -30 0 21 -25 107 -27
90z"/>
<path d="M3162 5010 c0 -14 2 -19 5 -12 2 6 2 18 0 25 -3 6 -5 1 -5 -13z"/>
<path d="M1848 5253 c-19 -23 -31 -43 -24 -43 2 0 14 14 26 30 23 33 22 40 -2
13z"/>
<path d="M1938 5263 c7 -3 16 -2 19 1 4 3 -2 6 -13 5 -11 0 -14 -3 -6 -6z"/>
<path d="M2013 5253 c9 -2 25 -2 35 0 9 3 1 5 -18 5 -19 0 -27 -2 -17 -5z"/>
<path d="M1805 5189 c-4 -6 -5 -12 -2 -15 2 -3 7 2 10 11 7 17 1 20 -8 4z"/>
<path d="M1431 5274 c0 -11 3 -14 6 -6 3 7 2 16 -1 19 -3 4 -6 -2 -5 -13z"/>
<path d="M1194 5261 c7 -11 46 -35 46 -28 0 3 -12 12 -26 22 -15 9 -23 12 -20
6z"/>
<path d="M1394 5224 c-18 -14 -18 -15 4 -4 12 6 22 13 22 15 0 8 -5 6 -26 -11z"/>
<path d="M1245 5109 c-27 -16 -46 -29 -42 -29 11 0 107 49 107 55 0 9 -14 3
-65 -26z"/>
<path d="M1341 5135 c9 -8 79 -35 79 -30 0 7 -57 35 -71 35 -7 0 -10 -2 -8 -5z"/>
<path d="M2487 4978 c-4 -11 7 -14 49 -14 30 1 54 4 54 8 0 5 -12 8 -27 8 -16
0 -38 3 -49 6 -13 3 -23 0 -27 -8z"/>
<path d="M2172 4918 c-6 -18 -13 -42 -17 -53 -4 -12 -1 -10 8 5 15 27 30 80
23 80 -3 0 -9 -15 -14 -32z"/>
<path d="M2495 4900 c-3 -5 -1 -10 4 -10 6 0 11 5 11 10 0 6 -2 10 -4 10 -3 0
-8 -4 -11 -10z"/>
<path d="M380 4807 c0 -14 61 -129 66 -124 3 3 -11 33 -30 68 -20 35 -36 60
-36 56z"/>
<path d="M2883 4759 c4 -16 -1 -35 -13 -54 -11 -17 -20 -34 -20 -38 0 -13 101
3 128 19 12 8 22 20 22 26 0 6 -8 4 -19 -6 -10 -9 -35 -20 -56 -23 l-37 -6 7
45 c5 32 3 48 -6 53 -9 6 -10 2 -6 -16z"/>
<path d="M2130 4721 c0 -5 7 -15 17 -22 15 -13 15 -12 4 9 -12 23 -21 28 -21
13z"/>
<path d="M2370 4600 l35 -6 -40 -8 c-22 -4 -62 -12 -88 -17 -61 -12 -90 -12
-82 1 3 5 -7 5 -25 -1 -16 -6 -30 -13 -30 -15 0 -8 81 -117 108 -146 14 -16
30 -28 36 -28 5 0 -4 15 -22 33 l-32 32 21 34 c30 50 56 68 128 91 58 18 161
28 161 14 0 -3 -11 -29 -25 -59 -24 -50 -66 -97 -125 -137 -19 -14 -20 -16 -5
-11 62 19 150 127 162 196 l6 37 -109 -2 c-66 -1 -95 -4 -74 -8z"/>
<path d="M2283 4593 c9 -2 25 -2 35 0 9 3 1 5 -18 5 -19 0 -27 -2 -17 -5z"/>
<path d="M2010 4516 c0 -19 67 -99 147 -176 l88 -85 -86 90 c-48 50 -101 110
-118 134 -17 24 -31 41 -31 37z"/>
<path d="M2275 5336 c-19 -31 -38 -63 -41 -70 -3 -8 -13 -12 -22 -9 -11 3 -13
2 -6 -4 6 -4 13 -14 15 -21 2 -7 26 24 52 69 54 94 56 119 2 35z"/>
<path d="M2186 5162 c-12 -19 -47 -116 -38 -107 10 12 53 115 47 115 -2 0 -6
-4 -9 -8z"/>
<path d="M2550 5385 c0 -12 43 -85 48 -81 7 8 -29 86 -40 86 -4 0 -8 -2 -8 -5z"/>
<path d="M2618 5323 c7 -3 16 -2 19 1 4 3 -2 6 -13 5 -11 0 -14 -3 -6 -6z"/>
<path d="M3795 5033 c-26 -7 -46 -23 -40 -33 3 -5 -19 -45 -50 -90 -48 -71
-66 -110 -50 -110 6 0 141 162 173 208 25 34 20 38 -33 25z"/>
<path d="M4080 4579 l-55 -51 45 30 c47 31 90 72 74 72 -5 -1 -34 -24 -64 -51z"/>
<path d="M1816 3815 c-11 -8 -17 -17 -14 -20 2 -3 13 4 23 15 21 23 18 25 -9
5z"/>
<path d="M1730 3739 c0 -5 5 -7 10 -4 6 3 10 8 10 11 0 2 -4 4 -10 4 -5 0 -10
-5 -10 -11z"/>
<path d="M1680 3699 c0 -5 5 -7 10 -4 6 3 10 8 10 11 0 2 -4 4 -10 4 -5 0 -10
-5 -10 -11z"/>
<path d="M2977 3673 c-12 -11 -7 -50 7 -62 8 -7 17 -27 20 -46 7 -37 15 -42
34 -23 8 8 8 19 -3 45 -8 18 -12 40 -8 48 10 27 -31 58 -50 38z"/>
<path d="M2700 3080 c-6 -11 -8 -20 -6 -20 3 0 10 9 16 20 6 11 8 20 6 20 -3
0 -10 -9 -16 -20z"/>
<path d="M1769 1849 c-23 -19 -23 -20 -2 -10 12 6 25 16 28 21 10 16 -1 12
-26 -11z"/>
<path d="M3066 2970 c9 -47 11 -48 42 -15 18 19 19 23 4 10 -12 -10 -23 -16
-25 -14 -2 2 -8 15 -15 29 -11 23 -12 23 -6 -10z"/>
<path d="M3290 1069 c0 -5 5 -7 10 -4 6 3 10 8 10 11 0 2 -4 4 -10 4 -5 0 -10
-5 -10 -11z"/>
<path d="M4832 5818 c-30 -11 -52 -22 -50 -23 2 -2 24 3 50 13 38 13 49 14 62
3 9 -7 16 -21 16 -30 0 -13 2 -14 9 -2 11 17 -1 46 -21 54 -8 2 -37 -4 -66
-15z"/>
<path d="M4422 5808 c-7 -7 -12 -26 -12 -42 1 -27 2 -28 11 -13 6 10 8 25 5
32 -3 8 3 19 12 24 9 6 12 11 7 11 -6 0 -16 -5 -23 -12z"/>
<path d="M4894 5749 c-3 -6 -33 -31 -66 -55 -33 -24 -57 -44 -53 -44 11 0 97
65 119 89 11 12 16 21 13 21 -3 0 -9 -5 -13 -11z"/>
<path d="M4360 5725 c-15 -18 -29 -145 -19 -172 3 -10 8 22 10 70 3 73 7 91
23 103 11 8 15 14 9 14 -6 0 -16 -7 -23 -15z"/>
<path d="M1556 5720 c12 -4 31 -21 43 -36 11 -14 21 -22 21 -17 0 15 -55 63
-71 62 -8 0 -5 -4 7 -9z"/>
<path d="M4860 5553 l-65 -68 70 65 c38 36 71 66 74 68 2 1 0 2 -5 2 -5 0 -39
-30 -74 -67z"/>
<path d="M4250 5504 c-36 -36 -58 -62 -50 -58 15 7 127 124 119 124 -3 0 -34
-29 -69 -66z"/>
<path d="M5286 5531 c17 -4 37 -11 45 -15 8 -4 5 0 -5 8 -11 9 -31 16 -45 15
-24 -1 -24 -2 5 -8z"/>
<path d="M5228 5523 c7 -3 16 -2 19 1 4 3 -2 6 -13 5 -11 0 -14 -3 -6 -6z"/>
<path d="M5180 5510 c-8 -5 -10 -10 -5 -10 6 0 17 5 25 10 8 5 11 10 5 10 -5
0 -17 -5 -25 -10z"/>
<path d="M1510 5490 c-6 -12 -9 -24 -7 -27 3 -2 11 5 17 17 6 12 9 24 7 27 -3
2 -11 -5 -17 -17z"/>
<path d="M5078 5473 c7 -3 16 -2 19 1 4 3 -2 6 -13 5 -11 0 -14 -3 -6 -6z"/>
<path d="M5038 5463 c7 -3 16 -2 19 1 4 3 -2 6 -13 5 -11 0 -14 -3 -6 -6z"/>
<path d="M4117 5414 c-45 -23 -107 -98 -107 -128 0 -6 14 13 30 41 24 42 42
59 88 82 31 17 53 30 47 30 -5 0 -32 -11 -58 -25z"/>
<path d="M3987 5235 c-9 -19 -15 -35 -12 -35 7 0 37 61 33 66 -3 2 -12 -12
-21 -31z"/>
<path d="M4011 5230 c1 -8 5 -26 9 -40 l8 -25 1 25 c0 14 -4 32 -9 40 -9 13
-10 13 -9 0z"/>
<path d="M3945 5160 c-9 -16 -13 -30 -11 -30 3 0 12 14 21 30 9 17 13 30 11
30 -3 0 -12 -13 -21 -30z"/>
<path d="M3997 4438 c-54 -34 -157 -50 -195 -29 -19 10 -24 7 -47 -30 -47 -74
-49 -72 47 -67 92 5 114 15 191 87 32 30 65 73 55 70 -2 0 -25 -14 -51 -31z"/>
<path d="M1965 3787 c-46 -15 -56 -27 -53 -61 3 -26 7 -31 27 -28 44 4 76 26
79 53 4 35 -15 49 -53 36z"/>
<path d="M2746 3400 c-21 -54 -21 -57 14 -75 44 -23 55 -19 76 26 l18 41 -27
24 c-41 35 -62 31 -81 -16z"/>
<path d="M1711 3385 c-31 -14 -33 -18 -28 -51 8 -45 10 -48 39 -41 47 12 61
31 54 70 -8 41 -15 43 -65 22z"/>
<path d="M1509 2905 c-29 -16 -41 -37 -34 -60 3 -8 7 -22 10 -30 4 -13 9 -13
40 2 35 17 45 45 29 87 -7 19 -11 19 -45 1z"/>
<path d="M2897 2903 c-3 -4 -8 -27 -12 -50 -6 -40 -5 -43 27 -63 18 -11 38
-20 45 -20 12 0 33 51 33 81 0 27 -81 72 -93 52z"/>
<path d="M3171 2293 c-11 -42 -10 -49 6 -61 26 -19 63 -26 75 -14 5 5 12 28
15 50 5 37 3 41 -25 56 -48 25 -58 21 -71 -31z"/>
<path d="M1287 1918 c-10 -8 -21 -32 -24 -56 l-6 -42 37 0 c30 0 38 4 47 27
23 62 -9 104 -54 71z"/>
<path d="M3445 1738 c-4 -18 -9 -41 -11 -50 -4 -13 5 -23 30 -35 43 -20 53
-13 62 44 6 39 4 42 -24 57 -43 22 -50 20 -57 -16z"/>
<path d="M842 1222 c-23 -59 -42 -154 -41 -207 0 -27 3 -25 26 25 14 30 25 67
24 83 -1 15 3 55 9 89 5 34 8 63 7 64 -2 2 -13 -23 -25 -54z m-5 -74 c-3 -7
-5 -2 -5 12 0 14 2 19 5 13 2 -7 2 -19 0 -25z m-17 -95 c-11 -17 -11 -17 -6 0
3 10 7 31 7 45 l2 27 4 -27 c2 -15 -1 -35 -7 -45z"/>
<path d="M3893 1145 c0 -27 2 -38 4 -22 2 15 2 37 0 50 -2 12 -4 0 -4 -28z"/>
<path d="M870 1140 c-6 -11 -8 -20 -6 -20 3 0 10 9 16 20 6 11 8 20 6 20 -3 0
-10 -9 -16 -20z"/>
<path d="M3551 1145 c0 -5 6 -21 14 -35 8 -14 14 -20 14 -15 0 6 -6 21 -14 35
-8 14 -14 21 -14 15z"/>
<path d="M3871 1049 c-17 -60 -115 -262 -138 -284 -11 -12 -13 -17 -4 -14 29
10 169 301 159 331 -2 6 -10 -9 -17 -33z"/>
<path d="M3581 1075 c0 -5 6 -21 14 -35 8 -14 14 -20 14 -15 0 6 -6 21 -14 35
-8 14 -14 21 -14 15z"/>
<path d="M3611 1005 c0 -5 6 -21 14 -35 8 -14 14 -20 14 -15 0 6 -6 21 -14 35
-8 14 -14 21 -14 15z"/>
<path d="M1852 910 c0 -19 2 -27 5 -17 2 9 2 25 0 35 -3 9 -5 1 -5 -18z"/>
<path d="M1617 801 c-4 -35 -5 -66 -3 -68 6 -7 19 103 14 119 -3 7 -8 -16 -11
-51z"/>
<path d="M1866 816 c3 -27 9 -58 14 -70 14 -34 11 3 -5 64 l-15 55 6 -49z"/>
<path d="M2252 835 c0 -16 2 -22 5 -12 2 9 2 23 0 30 -3 6 -5 -1 -5 -18z"/>
<path d="M2833 785 c0 -27 2 -38 4 -22 2 15 2 37 0 50 -2 12 -4 0 -4 -28z"/>
<path d="M3700 805 c0 -5 5 -17 10 -25 5 -8 10 -10 10 -5 0 6 -5 17 -10 25 -5
8 -10 11 -10 5z"/>
<path d="M1596 684 c-4 -20 -5 -38 -3 -40 3 -3 8 11 11 32 4 20 5 38 3 40 -3
3 -8 -11 -11 -32z"/>
<path d="M1855 697 c-17 -13 -17 -16 -1 -59 l18 -45 -32 -63 c-42 -83 -33 -87
11 -5 l34 64 -16 45 c-15 41 -15 46 0 60 19 20 11 21 -14 3z"/>
<path d="M2253 650 c0 -36 2 -50 4 -32 2 17 2 47 0 65 -2 17 -4 3 -4 -33z"/>
<path d="M1739 663 l34 -29 -44 -38 c-24 -20 -70 -53 -103 -73 -47 -29 -60
-33 -67 -22 -7 12 -9 12 -9 0 0 -8 -8 -20 -17 -28 -14 -10 -8 -10 22 2 97 38
230 140 220 167 -3 8 -20 22 -38 32 l-32 19 34 -30z"/>
<path d="M1581 614 c0 -11 3 -14 6 -6 3 7 2 16 -1 19 -3 4 -6 -2 -5 -13z"/>
<path d="M1571 574 c0 -11 3 -14 6 -6 3 7 2 16 -1 19 -3 4 -6 -2 -5 -13z"/>
<path d="M2243 545 c0 -22 2 -30 4 -17 2 12 2 30 0 40 -3 9 -5 -1 -4 -23z"/>
<path d="M1561 534 c0 -11 3 -14 6 -6 3 7 2 16 -1 19 -3 4 -6 -2 -5 -13z"/>
<path d="M2232 475 c0 -16 2 -22 5 -12 2 9 2 23 0 30 -3 6 -5 -1 -5 -18z"/>
<path d="M1522 425 c0 -16 2 -22 5 -12 2 9 2 23 0 30 -3 6 -5 -1 -5 -18z"/>
<path d="M1800 443 c0 -7 -17 -15 -37 -18 -51 -9 -75 -16 -71 -21 2 -2 31 1
64 6 32 5 87 10 122 12 34 1 62 7 62 12 0 5 -27 6 -61 2 -47 -6 -64 -4 -70 6
-6 9 -9 9 -9 1z"/>
<path d="M1532 370 c0 -14 2 -19 5 -12 2 6 2 18 0 25 -3 6 -5 1 -5 -13z"/>
<path d="M1541 324 c0 -11 3 -14 6 -6 3 7 2 16 -1 19 -3 4 -6 -2 -5 -13z"/>
<path d="M2508 199 c95 -44 252 -104 297 -114 17 -3 -17 12 -75 33 -58 22
-147 58 -198 81 -117 52 -135 52 -24 0z"/>
<path d="M2870 177 c14 -12 33 -33 43 -47 12 -18 17 -20 17 -8 0 15 -63 78
-78 78 -4 0 4 -11 18 -23z"/>
<path d="M2863 68 c19 -7 26 -15 22 -25 -4 -13 -3 -14 10 -3 12 10 27 10 72 1
31 -6 72 -11 92 -10 20 1 -4 7 -54 15 -49 8 -103 18 -119 24 -16 5 -34 10 -40
9 -6 0 2 -5 17 -11z"/>
<path d="M1552 20 c0 -14 2 -19 5 -12 2 6 2 18 0 25 -3 6 -5 1 -5 -13z"/>
</g>
</svg>
