<?xml version="1.0" standalone="no"?>
<!DOCTYPE svg PUBLIC "-//W3C//DTD SVG 20010904//EN"
 "http://www.w3.org/TR/2001/REC-SVG-20010904/DTD/svg10.dtd">
<svg version="1.0" xmlns="http://www.w3.org/2000/svg"
 width="344.000000pt" height="822.000000pt" viewBox="0 0 344.000000 822.000000"
 preserveAspectRatio="xMidYMid meet">

<g transform="translate(0.000000,822.000000) scale(0.100000,-0.100000)"
fill="#000000" stroke="none">
<path d="M1430 8133 c-51 -25 -190 -146 -190 -164 0 -5 26 17 58 49 69 69 149
112 207 112 65 0 150 -27 249 -77 165 -86 284 -191 343 -305 12 -24 23 -37 23
-29 0 35 -68 136 -140 205 -128 122 -296 207 -456 230 -32 4 -52 0 -94 -21z"/>
<path d="M1420 8095 c-25 -13 -62 -38 -83 -57 l-38 -33 11 -54 c5 -29 10 -68
9 -85 -1 -32 -4 -22 -24 93 l-6 33 -22 -20 c-12 -12 -26 -21 -31 -20 -6 0 -19
-16 -30 -35 -20 -34 -20 -35 -1 -91 12 -36 25 -56 35 -56 16 0 70 -61 70 -79
0 -15 -26 -14 -59 3 -31 16 -67 14 -63 -3 1 -6 -2 -11 -6 -11 -5 0 -14 -11
-20 -25 -9 -20 -80 -75 -97 -75 -16 0 -1 48 23 74 24 28 25 29 2 10 -14 -11
-36 -30 -49 -42 -30 -27 -37 -27 -44 -3 -3 13 5 30 24 49 33 33 49 72 48 110
-1 27 -1 27 -8 -3 -8 -33 -52 -115 -62 -115 -15 0 -19 35 -8 68 7 21 8 37 2
41 -17 11 -24 44 -11 53 31 19 -19 6 -57 -15 -31 -17 -48 -38 -77 -95 -20 -39
-32 -72 -27 -72 6 0 7 -5 3 -12 -4 -7 -3 -8 5 -4 6 4 9 12 6 17 -12 19 43 8
76 -16 19 -13 54 -36 79 -51 53 -32 90 -64 90 -77 0 -5 -12 3 -27 18 -15 15
-41 34 -58 42 -16 9 -46 29 -65 44 -19 16 -38 29 -43 29 -5 0 14 -18 42 -40
28 -22 54 -40 58 -40 19 0 83 -62 76 -73 -4 -7 5 -4 20 6 15 9 27 15 27 12 0
-3 9 -1 19 5 14 7 21 6 24 -3 4 -9 6 -9 6 1 2 33 73 99 119 112 23 6 42 15 42
20 0 4 22 8 49 7 43 -2 48 -4 40 -19 -6 -10 -12 -18 -15 -18 -3 0 -2 5 1 10 3
6 4 10 1 10 -8 0 -40 -62 -42 -80 -3 -24 -44 -110 -53 -110 -5 0 -6 -11 -4
-24 4 -21 -12 -45 -23 -34 -2 3 0 33 4 66 5 34 5 62 1 62 -7 0 -13 -29 -24
-124 -5 -44 -5 -47 10 -32 9 9 20 16 25 16 4 0 13 14 19 30 10 29 41 43 41 18
0 -24 18 7 24 42 5 33 5 34 -5 8 -13 -35 -44 -39 -33 -5 11 36 53 115 65 122
6 4 4 -7 -5 -23 -9 -17 -16 -39 -15 -49 0 -12 4 -9 11 10 6 17 17 27 31 28 17
1 18 2 5 6 -21 5 -21 6 -4 52 10 29 17 34 44 35 18 1 32 0 32 0 0 -1 -12 -23
-26 -48 -15 -26 -24 -49 -21 -52 3 -3 19 20 37 51 18 31 34 54 37 51 3 -3 -7
-27 -23 -53 -33 -54 -38 -62 -83 -150 -28 -54 -35 -61 -51 -53 -24 13 -31 13
-28 -1 2 -6 -12 -17 -31 -23 -18 -7 -39 -20 -47 -30 -18 -25 -23 -11 -27 79
-2 39 -3 30 -2 -20 1 -49 5 -101 8 -114 14 -53 30 -97 40 -106 7 -7 8 -5 4 7
-24 67 -27 99 -15 126 9 17 22 28 38 29 14 1 19 0 13 -3 -25 -11 -14 -33 13
-28 14 3 32 0 40 -7 11 -9 14 -7 14 9 0 60 145 342 175 342 8 0 24 -15 36 -32
12 -18 35 -47 52 -65 16 -17 27 -36 23 -41 -3 -5 2 -12 12 -14 10 -3 27 -23
37 -44 16 -34 19 -36 26 -19 11 29 11 114 0 96 -5 -8 -7 -29 -4 -48 3 -18 3
-33 0 -33 -5 0 -71 102 -100 157 -11 21 -14 34 -7 38 6 4 15 -7 21 -24 6 -17
15 -31 21 -31 6 0 7 7 4 15 -3 8 -9 22 -12 30 -5 11 1 15 20 15 20 0 26 -5 26
-23 0 -13 4 -27 9 -33 5 -5 12 -18 15 -29 3 -12 4 -9 2 7 -2 15 2 29 8 31 8 3
7 11 -2 26 -12 20 -10 21 36 21 41 0 51 -4 61 -22 l11 -23 -6 23 c-4 15 -1 22
9 22 15 0 91 -54 146 -104 19 -17 31 -26 28 -20 -4 6 13 42 36 80 46 74 62
109 48 100 -5 -4 -23 18 -40 48 -45 80 -142 179 -238 243 -68 45 -87 53 -94
42 -5 -8 -9 -21 -9 -29 0 -22 -38 -138 -39 -120 0 8 8 49 19 90 10 41 18 75
17 76 -17 14 -99 47 -144 59 -78 21 -120 18 -173 -10z m50 -20 c-8 -10 -9 -15
-1 -15 6 0 11 -5 11 -11 0 -8 -4 -9 -13 0 -8 6 -18 7 -22 3 -11 -9 6 19 20 34
15 17 20 7 5 -11z m50 -15 c0 -5 -5 -10 -11 -10 -5 0 -7 5 -4 10 3 6 8 10 11
10 2 0 4 -4 4 -10z m-67 -48 c-3 -12 -12 -22 -19 -22 -12 0 -11 5 2 25 19 30
26 28 17 -3z m89 11 c24 -22 23 -32 -4 -27 -13 2 -17 2 -10 -2 20 -9 14 -23
-8 -17 -22 6 -23 8 -14 41 8 26 12 27 36 5z m-149 -37 c-15 -20 -32 -36 -36
-36 -9 0 8 26 38 56 31 32 30 19 -2 -20z m90 -12 c-9 -25 -18 -42 -22 -38 -3
5 -11 13 -16 18 -6 6 -3 7 8 3 11 -4 17 -1 17 9 0 16 18 54 25 54 2 0 -3 -21
-12 -46z m-75 -30 c-16 -17 -28 -22 -32 -15 -4 6 0 11 8 11 9 0 21 9 28 20 7
10 14 17 17 14 3 -2 -7 -16 -21 -30z m132 1 c-28 -30 -50 -32 -50 -5 0 22 16
27 23 8 3 -10 10 -8 23 5 28 26 31 20 4 -8z m-310 -25 c-6 -11 -13 -20 -16
-20 -2 0 0 9 6 20 6 11 13 20 16 20 2 0 0 -9 -6 -20z m214 -19 c-13 -9 -16
-31 -3 -31 6 0 20 5 32 11 22 12 22 12 3 -9 -14 -17 -23 -19 -38 -11 -10 5
-16 14 -13 20 4 5 1 9 -6 9 -7 0 -5 8 7 21 12 13 20 16 22 9 3 -7 1 -15 -4
-19z m197 -130 c89 -23 198 -71 219 -96 14 -17 14 -17 -7 -6 -13 6 -23 10 -23
7 0 -3 -29 9 -65 25 -36 16 -96 36 -133 45 -70 17 -215 21 -273 9 -50 -11 -28
6 28 21 70 19 170 17 254 -5z m89 -91 c0 -5 -2 -10 -4 -10 -3 0 -8 5 -11 10
-3 6 -1 10 4 10 6 0 11 -4 11 -10z m-440 -47 c-8 -3 -27 -12 -41 -19 -24 -12
-29 -11 -44 6 -18 20 -17 20 41 19 32 0 52 -3 44 -6z m330 -13 c6 -11 8 -20 6
-20 -3 0 -10 9 -16 20 -6 11 -8 20 -6 20 3 0 10 -9 16 -20z m-235 -260 c3 -5
2 -10 -4 -10 -5 0 -13 5 -16 10 -3 6 -2 10 4 10 5 0 13 -4 16 -10z m-15 -29
c0 -6 -4 -13 -10 -16 -5 -3 -10 1 -10 9 0 9 5 16 10 16 6 0 10 -4 10 -9z"/>
<path d="M2849 7893 c-13 -16 -12 -17 4 -4 9 7 17 15 17 17 0 8 -8 3 -21 -13z"/>
<path d="M3152 7890 c14 -22 24 -19 15 5 -4 8 -11 15 -17 15 -6 0 -6 -7 2 -20z"/>
<path d="M2803 7835 c-3 -9 -3 -19 1 -22 3 -4 6 1 6 10 0 8 6 18 13 20 9 4 9
6 -1 6 -7 1 -15 -6 -19 -14z"/>
<path d="M2970 7835 c-28 -16 -56 -19 -63 -7 -2 4 -2 0 1 -8 16 -53 42 -200
40 -225 -3 -26 -7 -30 -33 -30 -19 0 -30 5 -32 15 -1 8 -7 68 -14 133 -7 65
-16 120 -22 124 -5 3 -6 -18 -1 -53 10 -83 10 -182 -2 -194 -5 -5 -20 -7 -33
-3 -22 6 -23 9 -17 62 l6 56 -21 -28 c-12 -16 -46 -46 -75 -68 -51 -38 -54
-42 -54 -84 0 -32 6 -50 19 -62 11 -9 18 -19 16 -22 -1 -3 55 -6 126 -6 89 0
132 4 141 13 6 6 24 12 39 12 20 0 36 11 59 40 19 24 25 38 16 34 -36 -14 -62
41 -32 66 21 17 57 80 43 75 -14 -5 -89 35 -94 50 -1 6 13 20 33 33 l35 23
-18 31 c-22 38 -31 41 -63 23z m-288 -267 c-7 -7 -13 -28 -14 -47 l-1 -36 -4
32 c-4 32 13 80 25 69 3 -4 0 -12 -6 -18z"/>
<path d="M3109 7823 c-13 -16 -12 -17 4 -4 9 7 17 15 17 17 0 8 -8 3 -21 -13z"/>
<path d="M1187 7769 c7 -7 15 -10 18 -7 3 3 -2 9 -12 12 -14 6 -15 5 -6 -5z"/>
<path d="M3192 7774 c14 -4 15 -10 7 -32 -9 -25 -8 -26 6 -7 19 24 15 39 -11
42 -15 1 -15 1 -2 -3z"/>
<path d="M3139 7743 l-24 -28 28 24 c25 23 32 31 24 31 -2 0 -14 -12 -28 -27z"/>
<path d="M1203 7735 c0 -8 4 -15 9 -15 4 0 8 7 8 15 0 8 -4 15 -8 15 -5 0 -9
-7 -9 -15z"/>
<path d="M2744 7708 l-29 -33 33 29 c30 28 37 36 29 36 -2 0 -16 -15 -33 -32z"/>
<path d="M1116 7715 c-9 -26 -7 -32 5 -12 6 10 9 21 6 23 -2 3 -7 -2 -11 -11z"/>
<path d="M3170 7690 c-6 -11 -8 -20 -6 -20 3 0 10 9 16 20 6 11 8 20 6 20 -3
0 -10 -9 -16 -20z"/>
<path d="M3414 7678 l-19 -23 23 19 c21 18 27 26 19 26 -2 0 -12 -10 -23 -22z"/>
<path d="M3134 7633 c-9 -16 -26 -41 -36 -56 -20 -29 -20 -29 0 -18 12 6 35
11 53 11 27 0 30 2 19 15 -7 8 -10 28 -8 45 6 37 -6 39 -28 3z"/>
<path d="M3359 7643 c-13 -17 -13 -17 6 -3 11 8 22 16 24 17 2 2 0 3 -6 3 -6
0 -17 -8 -24 -17z"/>
<path d="M779 7593 c-13 -16 -12 -17 4 -4 16 13 21 21 13 21 -2 0 -10 -8 -17
-17z"/>
<path d="M1300 7581 c-16 -31 -12 -41 18 -40 18 1 21 3 9 6 -14 4 -17 11 -13
29 8 29 1 31 -14 5z"/>
<path d="M3228 7593 c7 -3 16 -2 19 1 4 3 -2 6 -13 5 -11 0 -14 -3 -6 -6z"/>
<path d="M1236 7556 c3 -8 13 -12 25 -9 16 5 18 8 7 14 -20 13 -38 11 -32 -5z"/>
<path d="M1191 7527 c-11 -19 -21 -44 -21 -55 0 -11 -5 -24 -10 -27 -6 -4 -8
-16 -6 -28 4 -13 0 -10 -8 7 l-13 29 -11 -49 c-6 -27 -10 -87 -10 -134 l1 -85
16 82 c19 91 31 115 31 61 0 -50 34 -156 66 -201 14 -21 28 -37 30 -34 8 8
-32 77 -41 70 -4 -4 -5 0 -2 10 4 10 7 21 7 23 0 3 5 2 12 -2 7 -4 2 6 -10 23
-12 17 -22 34 -22 38 0 4 -7 23 -16 42 -24 49 -13 182 17 224 12 17 19 32 16
35 -2 3 -14 -10 -26 -29z m-55 -184 c-13 -43 -15 -45 -15 -17 -1 17 2 46 5 64
6 25 9 29 16 16 5 -10 3 -33 -6 -63z m76 -152 c-4 -11 -7 -10 -13 5 -12 29
-10 36 5 22 7 -7 11 -19 8 -27z"/>
<path d="M1861 7480 c-1 -57 -18 -166 -36 -240 -4 -14 4 -5 17 20 35 68 39 73
50 62 6 -6 6 -16 0 -28 -6 -11 -15 -37 -20 -59 -5 -22 -13 -48 -17 -59 -6 -14
-4 -17 6 -14 14 5 15 9 18 49 0 11 5 18 10 15 4 -3 6 6 3 21 -3 18 -1 24 7 19
14 -9 14 -41 -1 -66 -7 -10 -9 -22 -6 -25 10 -10 48 5 48 18 0 8 -3 8 -12 -1
-7 -7 -16 -12 -22 -12 -6 0 -5 5 2 12 7 7 12 25 12 42 0 16 7 37 16 47 9 10
14 25 11 34 -9 21 -27 19 -27 -4 0 -11 -4 -22 -9 -25 -5 -4 -7 2 -4 12 2 10
-3 38 -13 62 -9 25 -20 77 -24 115 l-7 70 -2 -65z"/>
<path d="M1896 7473 c7 -32 16 -75 19 -95 3 -21 11 -37 18 -35 6 1 19 -14 29
-33 10 -19 18 -28 18 -20 0 14 -25 57 -40 70 -5 5 -22 68 -35 138 -4 17 -10
32 -14 32 -4 0 -2 -26 5 -57z"/>
<path d="M2560 7510 c-6 -11 -8 -20 -6 -20 3 0 10 9 16 20 6 11 8 20 6 20 -3
0 -10 -9 -16 -20z"/>
<path d="M639 7473 l-24 -28 28 24 c25 23 32 31 24 31 -2 0 -14 -12 -28 -27z"/>
<path d="M1112 7483 c-7 -3 -22 -24 -33 -46 -12 -23 -17 -37 -12 -32 14 15 64
85 61 84 -2 0 -9 -3 -16 -6z"/>
<path d="M1560 7483 c-55 -20 -82 -34 -77 -39 3 -3 16 0 29 7 12 7 43 18 68
25 29 8 36 12 20 12 -14 0 -32 -2 -40 -5z"/>
<path d="M907 7459 c7 -7 15 -10 18 -7 3 3 -2 9 -12 12 -14 6 -15 5 -6 -5z"/>
<path d="M978 7433 c7 -3 16 -2 19 1 4 3 -2 6 -13 5 -11 0 -14 -3 -6 -6z"/>
<path d="M1540 7425 c-16 -19 -1 -19 24 0 16 12 17 15 4 15 -8 0 -21 -7 -28
-15z"/>
<path d="M569 7413 c-13 -16 -12 -17 4 -4 9 7 17 15 17 17 0 8 -8 3 -21 -13z"/>
<path d="M2500 7421 c0 -4 -11 -6 -25 -3 -29 5 -78 -40 -120 -112 l-25 -43 19
-57 c20 -62 46 -95 101 -129 27 -17 31 -22 17 -25 -42 -8 -106 66 -132 152
l-12 40 -11 -33 c-6 -18 -7 -29 -2 -26 6 4 10 -6 10 -20 0 -41 30 -83 89 -126
30 -21 47 -39 39 -39 -9 0 -21 -13 -28 -30 -19 -45 -46 -40 -95 19 -15 17 -21
43 -25 102 l-5 79 -49 -33 c-42 -28 -54 -44 -81 -108 -32 -74 -32 -74 -71 -75
-79 -2 -117 -52 -184 -246 -19 -53 -38 -94 -42 -92 -4 3 -8 30 -8 61 0 67 25
126 74 174 l34 33 -25 33 c-16 21 -33 33 -44 31 -10 -2 -18 0 -19 5 -2 36 2
57 10 57 6 0 10 -6 10 -13 0 -7 16 -29 36 -48 29 -27 33 -29 21 -9 -32 52 -31
90 6 165 19 39 38 84 43 100 8 29 9 28 12 -17 2 -26 -1 -63 -7 -83 -5 -19 -6
-33 -1 -30 10 6 41 106 39 127 -1 7 -5 2 -9 -12 -5 -18 -8 -4 -8 45 0 39 -5
84 -10 100 -9 30 -9 30 -17 -17 -4 -27 -11 -48 -15 -48 -5 0 -12 -15 -15 -32
-4 -18 -17 -46 -29 -63 -11 -16 -20 -39 -19 -50 1 -16 1 -16 -3 -2 -7 22 -17
22 -39 -3 -19 -21 -45 -27 -45 -10 0 19 -17 10 -28 -14 -21 -46 -75 -96 -168
-157 -92 -60 -130 -93 -56 -48 94 57 153 102 191 145 22 26 41 45 41 43 -1
-33 -35 -118 -56 -140 -15 -16 -23 -29 -18 -29 6 0 23 14 39 30 26 27 30 29
36 13 5 -14 -4 -24 -39 -43 -74 -41 -90 -77 -105 -234 -5 -48 -5 -48 15 -28
13 13 21 36 23 71 5 68 38 135 78 160 37 22 137 53 137 43 0 -5 -21 -14 -47
-20 -99 -27 -141 -75 -158 -179 -8 -48 2 -54 31 -22 20 22 98 79 109 79 3 0
-7 -19 -23 -42 -30 -43 -71 -85 -78 -80 -13 7 -23 -1 -32 -27 -11 -30 -2 -41
32 -41 15 0 39 48 30 61 -3 6 0 16 6 24 13 16 35 21 26 6 -4 -5 5 -52 20 -105
14 -53 23 -105 19 -114 -3 -10 1 -32 9 -48 8 -16 16 -65 19 -109 3 -44 13
-102 22 -128 15 -46 15 -50 -1 -68 -19 -22 -20 -21 21 -42 25 -13 53 -61 162
-274 170 -333 262 -564 338 -848 26 -98 24 -108 -31 -182 -13 -17 -24 -38 -24
-45 0 -24 54 67 92 155 l39 89 -26 136 c-15 76 -46 215 -71 311 -39 156 -44
187 -44 290 0 80 -5 130 -16 161 -18 51 -17 78 20 405 20 178 25 204 49 240
19 30 27 59 33 115 5 56 12 83 30 107 18 24 24 45 24 83 0 49 2 53 59 106 45
41 60 63 66 92 3 20 24 72 46 115 37 72 40 84 38 151 -1 40 1 78 5 85 4 6 5
11 1 11 -9 0 -40 -78 -60 -153 -16 -59 -25 -74 -69 -113 -45 -41 -53 -45 -85
-39 -41 8 -79 33 -115 76 -47 55 -44 70 21 151 79 98 106 138 94 138 -6 0 -11
-4 -11 -9z m-30 -41 c-11 -16 -26 -33 -33 -37 -6 -4 -2 6 11 22 26 33 23 41
-10 25 -22 -11 -22 -10 -4 4 11 9 28 16 39 16 17 0 17 -1 -3 -30z m-59 -39
c-27 -38 -27 -49 1 -25 12 10 6 0 -13 -23 -44 -55 -52 -30 -9 32 17 25 33 45
36 45 3 0 -4 -13 -15 -29z m290 -78 c-12 -20 -14 -14 -5 12 4 9 9 14 11 11 3
-2 0 -13 -6 -23z m-706 -52 c-4 -17 -10 -31 -14 -31 -5 0 -3 15 3 34 13 42 21
39 11 -3z m-34 -88 c-9 -16 -10 -15 -9 9 2 16 6 24 11 19 5 -5 5 -17 -2 -28z
m719 18 c-17 -33 -129 -101 -164 -100 l-31 1 36 7 c35 7 122 63 149 96 17 21
23 19 10 -4z m-81 -127 c-44 -46 -87 -74 -111 -74 -7 0 5 9 27 19 43 19 89 62
50 47 -11 -4 -38 -10 -60 -12 l-40 -3 42 9 c49 10 94 32 113 55 7 8 15 13 18
10 3 -3 -14 -26 -39 -51z m-680 19 c-1 -16 2 -36 6 -45 4 -10 4 -18 1 -18 -12
0 -25 47 -19 69 8 29 14 26 12 -6z m-52 -45 c-3 -7 -5 -2 -5 12 0 14 2 19 5
13 2 -7 2 -19 0 -25z m-7 -32 c0 -3 -4 -8 -10 -11 -5 -3 -10 -1 -10 4 0 6 5
11 10 11 6 0 10 -2 10 -4z m24 -86 c-28 -10 -61 -23 -73 -29 -11 -7 -21 -9
-21 -7 0 7 58 37 90 47 50 15 53 7 4 -11z m134 -326 c2 -1 -6 -34 -18 -73
l-21 -70 -44 21 c-47 23 -50 31 -36 88 5 19 12 47 15 63 l7 28 47 -28 c26 -14
48 -28 50 -29z m72 -91 c0 -5 -14 -17 -30 -28 -26 -17 -30 -26 -30 -66 0 -35
-5 -51 -22 -65 -20 -18 -21 -18 -15 -1 4 10 10 37 13 60 4 27 17 54 37 75 30
31 47 40 47 25z m10 -33 c0 -5 -6 -10 -14 -10 -7 0 -19 -7 -26 -15 -7 -9 -15
-13 -18 -10 -8 7 29 45 45 45 7 0 13 -4 13 -10z m-134 -74 c-3 -11 -11 -45
-17 -73 -7 -29 -15 -53 -19 -53 -4 0 -3 24 3 53 6 28 11 64 11 78 1 18 5 25
14 21 8 -3 11 -13 8 -26z m64 -62 c0 -5 -43 -65 -70 -97 -8 -10 -40 2 -40 15
0 5 8 8 17 6 10 -2 29 14 47 39 28 38 46 52 46 37z m-1 -198 c-26 -25 -39 -26
-83 -8 -28 12 -29 13 -10 35 30 35 36 37 77 15 l40 -20 -24 -22z"/>
<path d="M1927 6526 c-6 -16 23 -86 36 -86 8 0 0 76 -10 93 -7 11 -20 8 -26
-7z"/>
<path d="M1572 7413 c-7 -2 -17 -13 -22 -23 -10 -18 -8 -18 24 -5 41 17 73 11
55 -11 -14 -17 -13 -17 29 -5 23 7 32 6 32 -2 0 -7 7 -4 14 5 7 10 16 15 19
11 14 -14 6 -43 -28 -94 l-36 -54 41 45 c22 25 43 55 46 67 12 45 23 11 20
-59 -2 -42 0 -65 5 -57 11 17 10 125 -1 159 -4 14 -8 20 -9 13 -1 -9 -11 -8
-42 2 -40 14 -121 19 -147 8z"/>
<path d="M2060 7410 c0 -5 5 -10 11 -10 5 0 7 5 4 10 -3 6 -8 10 -11 10 -2 0
-4 -4 -4 -10z"/>
<path d="M859 7389 l-24 -20 28 17 c15 9 27 18 27 20 0 8 -8 4 -31 -17z"/>
<path d="M2090 7406 c0 -2 8 -10 18 -17 15 -13 16 -12 3 4 -13 16 -21 21 -21
13z"/>
<path d="M514 7368 l-19 -23 23 19 c21 18 27 26 19 26 -2 0 -12 -10 -23 -22z"/>
<path d="M2056 7359 c-3 -17 -5 -55 -5 -83 2 -42 3 -38 9 29 9 85 7 107 -4 54z"/>
<path d="M755 7298 l-70 -73 73 70 c39 38 72 71 72 72 0 8 -11 -2 -75 -69z"/>
<path d="M2140 7351 c0 -9 30 -24 36 -18 2 1 -6 8 -16 15 -11 7 -20 8 -20 3z"/>
<path d="M461 7326 c-7 -9 -43 -17 -94 -21 -75 -7 -85 -10 -114 -41 -18 -18
-33 -41 -33 -50 0 -9 -18 -36 -40 -60 -22 -24 -40 -49 -40 -56 0 -7 9 2 20 20
33 55 30 35 -7 -33 -19 -36 -37 -65 -39 -65 -3 0 -2 5 1 10 3 6 4 10 1 10 -14
0 -46 -83 -40 -103 4 -12 43 -60 88 -107 45 -47 99 -106 120 -132 31 -40 43
-48 70 -48 26 0 91 -37 287 -163 140 -90 266 -171 281 -181 26 -17 26 -18 12
-52 -14 -34 -14 -36 11 -55 14 -11 25 -26 25 -32 -1 -7 -9 -1 -20 12 l-20 23
4 -33 c2 -19 5 -77 6 -129 2 -81 3 -90 12 -60 5 19 34 100 64 180 30 80 69
183 86 229 41 109 89 182 168 254 l62 58 28 -33 c32 -38 35 -26 -45 -157 -79
-132 -231 -419 -274 -517 -48 -114 -59 -155 -81 -306 l-18 -123 -1 135 -1 135
-29 -53 c-69 -124 -222 -455 -254 -547 -51 -148 -54 -171 -17 -107 32 55 93
140 215 302 63 84 70 90 73 66 6 -49 -19 -170 -43 -211 -13 -22 -54 -74 -92
-115 -47 -51 -57 -66 -32 -47 20 15 38 25 41 22 2 -3 20 0 39 6 19 5 63 16 99
24 36 7 53 14 39 14 -14 1 -59 -8 -99 -18 -41 -11 -75 -19 -77 -18 -1 1 17 25
40 53 23 27 50 61 60 75 13 18 15 19 8 3 -6 -12 -26 -40 -46 -64 -20 -23 -34
-44 -32 -47 2 -2 33 4 68 13 60 16 68 16 137 -1 39 -10 72 -22 72 -26 0 -5
-19 -2 -41 6 -64 23 -71 17 -9 -7 30 -11 56 -21 57 -22 1 -1 -4 -25 -11 -53
-13 -49 -30 -184 -26 -200 1 -5 6 -7 11 -5 5 1 9 -4 9 -11 0 -18 155 -93 220
-106 64 -12 296 -31 386 -31 131 0 310 65 351 127 15 22 33 23 33 2 0 -6 -4
-8 -9 -4 -5 3 -12 1 -16 -5 -3 -5 -1 -10 5 -10 6 0 8 -5 4 -11 -5 -8 -9 -8
-14 1 -6 10 -9 9 -15 0 -10 -16 16 -32 31 -19 8 6 13 3 17 -11 4 -17 3 -19 -8
-10 -25 20 -29 -10 -5 -42 12 -16 23 -45 25 -64 2 -20 10 -41 18 -47 9 -7 32
-32 51 -55 34 -41 36 -42 36 -19 0 26 12 29 40 12 9 -5 8 0 -4 13 -11 12 -21
20 -24 17 -7 -7 -42 25 -42 38 0 5 7 4 15 -3 13 -11 14 -10 9 4 -6 15 -18 20
-37 17 -5 -1 -6 3 -2 9 4 6 -10 29 -30 51 -20 23 -34 43 -31 47 4 3 15 -4 26
-16 26 -28 33 -28 25 1 -5 19 -5 20 5 4 7 -10 9 -25 6 -33 -3 -8 -1 -14 4 -14
6 0 10 -7 10 -17 0 -9 3 -14 6 -11 3 4 1 23 -5 43 -10 38 -6 65 11 65 6 0 8
-7 5 -15 -4 -8 -2 -17 3 -20 6 -4 10 -1 10 4 0 6 5 11 11 11 6 0 9 -6 6 -14
-9 -24 5 -27 24 -5 10 12 20 16 24 9 3 -5 2 -10 -3 -10 -6 0 -13 -7 -16 -16
-3 -8 -2 -13 2 -10 4 2 14 1 22 -5 12 -7 12 -9 2 -9 -10 0 -9 -8 6 -32 24 -37
62 -57 62 -32 0 9 5 12 12 8 14 -9 5 8 -29 53 -13 18 -29 32 -36 30 -7 -1 -11
3 -10 10 2 7 -12 22 -29 34 -19 14 -29 17 -24 8 4 -7 1 -6 -7 4 -9 10 -30 26
-48 36 -26 14 -32 24 -33 52 -1 31 7 48 41 84 13 14 7 49 -7 40 -4 -3 -11 2
-14 11 -3 8 -11 12 -17 8 -8 -4 -9 -3 -5 4 4 7 3 12 -2 12 -5 0 -9 17 -9 38 0
20 2 27 4 15 2 -13 9 -23 14 -23 6 0 7 -4 4 -10 -3 -5 -2 -10 3 -10 6 0 33
-15 60 -34 44 -30 50 -31 42 -12 -12 31 -154 335 -301 643 l-130 271 -39 194
c-81 399 -119 554 -120 492 0 -13 -17 -35 -42 -56 -59 -47 -195 -138 -208
-138 -6 0 -10 39 -10 105 0 88 3 105 15 105 9 0 18 -7 21 -15 4 -8 11 -15 18
-15 6 0 -2 12 -17 25 -34 30 -29 43 45 110 l53 48 3 -32 c2 -18 -3 -39 -10
-48 -11 -14 -11 -15 1 -11 27 8 31 56 10 124 -15 49 -24 64 -39 64 -10 0 -22
4 -25 10 -12 19 -65 -20 -93 -69 -27 -49 -28 -49 -56 -34 -15 8 -34 12 -42 9
-8 -3 -13 -2 -10 3 3 4 -17 15 -44 24 -31 10 -62 30 -82 52 -18 19 -40 35 -49
35 -9 0 -33 -20 -55 -45 -31 -35 -46 -45 -71 -45 -17 0 -33 -6 -35 -12 -3 -9
-18 -4 -47 15 -23 15 -46 25 -52 22 -5 -4 -17 -1 -25 6 -8 6 -56 33 -107 58
l-92 46 -3 43 c-2 23 3 56 11 72 l15 29 -37 -23 c-46 -29 -96 -46 -133 -46
-55 0 -185 151 -203 235 -6 30 -6 30 10 -4 20 -45 96 -149 134 -185 27 -26 34
-28 81 -23 60 7 130 43 146 74 6 13 14 20 19 15 4 -4 2 4 -5 16 -10 21 -9 27
12 50 l23 27 -24 -20 c-13 -11 -38 -43 -57 -72 -37 -58 -51 -67 -112 -77 -56
-8 -72 2 -128 80 l-47 66 47 40 c26 22 44 43 41 46 -3 3 -17 -5 -32 -19 -20
-17 -23 -18 -10 -3 9 11 14 24 10 29 -5 4 6 5 23 2 25 -5 36 -1 54 19 13 13
21 24 18 24 -3 0 -11 -6 -17 -14z m-118 -47 c-36 -10 -36 -10 -27 -33 5 -14 9
-14 23 -4 14 12 15 11 2 -5 -14 -18 -16 -18 -28 -1 -26 35 -13 53 37 52 21 0
20 -1 -7 -9z m-34 -163 c9 -11 39 -44 67 -73 46 -48 55 -53 95 -53 24 0 64 10
89 21 25 11 39 15 33 8 -7 -7 -13 -20 -13 -28 1 -13 4 -12 15 3 8 11 15 15 15
8 0 -21 -93 -82 -148 -98 -53 -16 -57 -16 -101 6 -88 42 -122 71 -147 128 -13
30 -24 62 -23 71 0 13 1 14 6 1 3 -8 12 -31 20 -50 l14 -35 30 47 31 47 -23
41 -23 41 -14 -27 c-7 -14 -16 -24 -18 -21 -3 2 3 18 13 35 l17 30 25 -41 c13
-22 31 -50 40 -61z m317 -4 c-17 -16 -18 -16 -5 5 7 12 15 20 18 17 3 -2 -3
-12 -13 -22z m515 -250 c8 -12 19 -19 23 -15 4 4 4 0 1 -8 -10 -28 -135 -54
-135 -29 0 6 4 10 10 10 5 0 20 15 32 34 25 38 46 41 69 8z m319 -6 c0 -2 -8
-10 -17 -17 -16 -13 -17 -12 -4 4 13 16 21 21 21 13z m-290 -71 c7 -8 8 -15 2
-15 -5 0 -15 7 -22 15 -7 8 -8 15 -2 15 5 0 15 -7 22 -15z m0 -35 c0 -5 17
-14 38 -21 l37 -12 -30 -9 c-16 -4 -46 -11 -65 -14 -19 -3 -38 -8 -42 -11 -16
-9 5 50 24 71 13 14 38 11 38 -4z m55 -8 c-3 -3 -11 0 -18 7 -9 10 -8 11 6 5
10 -3 15 -9 12 -12z m40 -12 c3 -6 -1 -7 -9 -4 -18 7 -21 14 -7 14 6 0 13 -4
16 -10z m-55 -46 c0 -3 -26 -17 -57 -32 -32 -14 -62 -28 -67 -30 -4 -3 -4 4 2
14 6 11 35 26 64 36 29 9 54 16 56 17 1 1 2 -1 2 -5z m5 -63 c-57 -59 -90
-107 -120 -174 l-24 -52 0 82 c-1 45 2 89 5 98 6 15 155 95 177 95 5 0 -12
-22 -38 -49z m446 -103 c2 -49 1 -52 -42 -198 -23 -74 -42 -142 -44 -151 -2
-9 -24 -67 -50 -130 -60 -145 -60 -146 -48 -134 6 6 36 67 66 137 31 70 78
171 105 225 l49 97 11 -49 c6 -28 13 -76 17 -107 l7 -58 -128 -171 c-71 -95
-174 -237 -229 -317 -55 -80 -105 -145 -110 -144 -17 1 -64 191 -87 351 l-22
155 41 120 c52 149 98 252 107 238 3 -6 15 -40 27 -77 11 -37 23 -65 26 -62 2
3 13 54 23 114 10 59 19 97 19 83 3 -58 13 -56 125 20 58 39 109 76 112 81 11
19 24 8 25 -23z m-274 -20 c-3 -7 -5 -2 -5 12 0 14 2 19 5 13 2 -7 2 -19 0
-25z m367 -357 c-10 -17 -68 -95 -130 -175 -61 -80 -158 -213 -215 -297 -110
-162 -219 -294 -265 -323 -16 -10 -5 5 26 35 60 59 123 141 245 319 75 109
345 470 353 470 2 0 -5 -13 -14 -29z m-697 -328 c-3 -10 -5 -2 -5 17 0 19 2
27 5 18 2 -10 2 -26 0 -35z m-60 -15 c-3 -8 -6 -5 -6 6 -1 11 2 17 5 13 3 -3
4 -12 1 -19z m70 -55 c-3 -10 -5 -4 -5 12 0 17 2 24 5 18 2 -7 2 -21 0 -30z
m-80 -30 c-3 -10 -5 -2 -5 17 0 19 2 27 5 18 2 -10 2 -26 0 -35z m90 -40 c-3
-10 -5 -2 -5 17 0 19 2 27 5 18 2 -10 2 -26 0 -35z m-100 -40 c-3 -10 -5 -4
-5 12 0 17 2 24 5 18 2 -7 2 -21 0 -30z m110 -40 c-3 -10 -5 -2 -5 17 0 19 2
27 5 18 2 -10 2 -26 0 -35z m-120 -15 c-3 -8 -6 -5 -6 6 -1 11 2 17 5 13 3 -3
4 -12 1 -19z m130 -70 c-2 -13 -4 -3 -4 22 0 25 2 35 4 23 2 -13 2 -33 0 -45z
m-147 42 c0 -5 -2 -10 -4 -10 -3 0 -8 5 -11 10 -3 6 -1 10 4 10 6 0 11 -4 11
-10z m7 -57 c-3 -10 -5 -4 -5 12 0 17 2 24 5 18 2 -7 2 -21 0 -30z m-10 -80
c-3 -10 -5 -4 -5 12 0 17 2 24 5 18 2 -7 2 -21 0 -30z m-10 -65 c-3 -8 -6 -5
-6 6 -1 11 2 17 5 13 3 -3 4 -12 1 -19z m153 -53 c-9 -26 -9 -44 -1 -67 17
-47 12 -59 -5 -13 -12 33 -13 48 -3 83 6 23 14 40 16 38 3 -3 0 -21 -7 -41z
m1030 -19 c0 -6 -7 -1 -15 10 -8 10 -14 26 -14 34 0 16 28 -28 29 -44z m-4
-39 c11 -20 12 -32 4 -46 -7 -13 -7 -22 0 -26 5 -3 9 -16 9 -28 -1 -20 -2 -20
-6 -2 -3 11 -9 24 -14 29 -4 5 -4 17 2 28 8 14 5 27 -10 52 -12 18 -21 37 -21
42 0 10 14 -8 36 -49z m73 -112 c0 -5 -11 10 -24 35 -13 25 -24 50 -24 55 0 6
11 -10 24 -35 13 -25 24 -49 24 -55z m-120 -86 c-13 -33 -30 -63 -37 -66 -6
-3 -23 2 -37 11 -33 22 -34 21 -50 -19 -23 -55 -41 -57 -110 -17 l-60 36 81
12 c85 12 164 47 205 90 12 13 24 22 27 20 2 -3 -6 -33 -19 -67z m-891 36 c20
-14 61 -33 91 -41 l53 -16 -38 -25 c-22 -13 -31 -22 -21 -19 9 3 25 9 35 12
13 4 12 3 -3 -7 -11 -7 -31 -13 -45 -14 -14 -1 -31 -4 -39 -6 -16 -4 -56 60
-71 111 -10 36 -9 37 38 5z m1039 -28 c7 0 14 -6 17 -14 7 -18 2 -17 -36 8
-18 12 -24 18 -13 14 11 -4 25 -8 32 -8z m-665 -49 c59 -2 108 -7 108 -12 0
-5 10 -1 23 9 12 10 0 -3 -27 -29 -27 -26 -51 -44 -54 -41 -3 3 -21 -7 -39
-21 l-34 -26 -63 58 c-70 65 -77 77 -43 69 12 -3 70 -6 129 -7z m616 -24 c2
-28 2 -28 -13 -10 -18 24 -20 49 -2 44 6 -3 13 -18 15 -34z m-407 9 c13 -16
12 -17 -3 -4 -17 13 -22 21 -14 21 2 0 10 -8 17 -17z m249 -43 c0 -5 -5 -12
-11 -15 -6 -4 -8 -13 -5 -21 3 -9 0 -11 -12 -7 -9 3 -14 2 -9 -2 4 -5 17 -9
29 -10 66 -5 -1 -53 -132 -96 -47 -15 -86 -23 -88 -19 -2 5 -14 2 -28 -6 -14
-10 -31 -13 -41 -9 -10 4 -43 8 -73 10 -161 10 -240 18 -240 23 0 4 29 22 65
41 59 30 67 32 83 19 9 -9 24 -15 32 -15 8 0 43 -17 78 -38 74 -45 74 -45 175
46 36 32 71 59 79 59 13 1 58 30 45 30 -4 0 -3 9 3 20 9 16 15 18 30 10 11 -6
20 -15 20 -20z m-565 0 c10 -11 16 -20 13 -20 -3 0 -13 9 -23 20 -10 11 -16
20 -13 20 3 0 13 -9 23 -20z m641 10 l27 -11 -23 -24 c-20 -21 -60 -35 -60
-21 0 2 -3 11 -6 19 -3 8 2 22 11 31 19 19 17 19 51 6z m-846 -75 c24 -31 45
-53 48 -50 3 3 16 -4 28 -16 18 -17 26 -19 42 -10 30 16 72 31 72 26 0 -3 -18
-14 -41 -25 -42 -22 -73 -20 -83 6 -3 8 -10 13 -15 10 -5 -3 -44 10 -86 30
l-78 36 29 24 c16 13 32 23 35 24 4 0 26 -25 49 -55z m900 3 c0 -10 -4 -18 -9
-18 -5 0 -9 14 -9 31 1 32 18 20 18 -13z m-3 -64 c-3 -3 -12 -4 -19 -1 -8 3
-5 6 6 6 11 1 17 -2 13 -5z m30 -20 c-3 -3 -12 -4 -19 -1 -8 3 -5 6 6 6 11 1
17 -2 13 -5z m-32 -14 c3 -6 -1 -7 -9 -4 -18 7 -21 14 -7 14 6 0 13 -4 16 -10z
m19 -114 c-3 -7 7 -23 21 -36 14 -13 25 -32 25 -43 0 -14 -11 -5 -41 32 -23
29 -41 63 -41 76 0 13 -9 32 -19 41 -11 9 -19 21 -19 27 0 5 18 -12 39 -38 22
-26 37 -53 35 -59z m163 30 c-6 -8 -15 -12 -19 -9 -4 2 -2 10 5 17 6 8 15 12
19 9 4 -2 2 -10 -5 -17z m33 -27 c0 -6 -4 -7 -10 -4 -5 3 -10 11 -10 16 0 6 5
7 10 4 6 -3 10 -11 10 -16z m-25 -9 c3 -5 1 -10 -4 -10 -6 0 -11 5 -11 10 0 6
2 10 4 10 3 0 8 -4 11 -10z"/>
<path d="M1179 6613 c-13 -16 -12 -17 4 -4 9 7 17 15 17 17 0 8 -8 3 -21 -13z"/>
<path d="M1129 6569 l-24 -20 28 17 c15 9 27 18 27 20 0 8 -8 4 -31 -17z"/>
<path d="M1619 4953 l-24 -28 30 25 c17 14 32 26 34 28 2 1 0 2 -6 2 -5 0 -20
-12 -34 -27z"/>
<path d="M1845 4838 l-50 -53 53 50 c48 46 57 55 49 55 -1 0 -25 -24 -52 -52z"/>
<path d="M1595 4815 c11 -9 29 -21 40 -26 l20 -10 -20 16 c-11 9 -29 21 -40
26 l-20 10 20 -16z"/>
<path d="M2120 4696 c0 -2 8 -10 18 -17 15 -13 16 -12 3 4 -13 16 -21 21 -21
13z"/>
<path d="M1330 7230 c0 -29 2 -51 5 -48 8 7 9 87 2 95 -4 3 -7 -18 -7 -47z"/>
<path d="M1947 7260 c-3 -11 -1 -20 4 -20 5 0 9 9 9 20 0 11 -2 20 -4 20 -2 0
-6 -9 -9 -20z"/>
<path d="M1798 7245 c-3 -11 -9 -29 -14 -40 -7 -18 -6 -18 9 -6 19 15 22 8 6
-20 -6 -11 -8 -25 -6 -32 10 -26 26 45 19 81 -6 29 -9 33 -14 17z"/>
<path d="M1760 7200 c-4 -35 -8 -56 -15 -72 -12 -30 3 -20 20 11 10 21 12 36
6 53 -6 14 -10 17 -11 8z"/>
<path d="M1258 7159 c26 -30 28 -56 7 -106 -8 -19 -15 -38 -15 -41 0 -11 40
32 45 49 4 11 11 16 17 13 5 -4 4 4 -3 17 -11 22 -11 23 5 10 9 -8 19 -11 22
-9 3 3 -6 15 -20 26 -14 10 -23 22 -21 26 3 3 2 4 -2 1 -3 -3 -18 5 -32 17
l-26 23 23 -26z"/>
<path d="M1525 7114 c-22 -9 -57 -13 -77 -11 -21 3 -40 1 -44 -4 -3 -5 8 -28
25 -52 32 -47 61 -75 61 -59 0 5 -7 15 -15 22 -8 7 -15 18 -15 24 0 18 40 53
75 67 37 14 115 22 115 12 0 -17 -43 -80 -73 -106 -18 -16 -23 -24 -12 -19 37
18 95 99 95 132 0 15 -88 11 -135 -6z"/>
<path d="M1350 7015 c13 -14 26 -25 28 -25 3 0 -5 11 -18 25 -13 14 -26 25
-28 25 -3 0 5 -11 18 -25z"/>
<path d="M1655 6690 c-3 -5 -1 -10 4 -10 6 0 11 5 11 10 0 6 -2 10 -4 10 -3 0
-8 -4 -11 -10z"/>
<path d="M1635 6661 c-6 -5 -26 -14 -46 -20 -35 -11 -83 -51 -62 -51 6 0 16 6
22 14 6 7 33 21 59 31 52 19 75 35 51 35 -8 0 -19 -4 -24 -9z"/>
<path d="M1268 6599 c-27 -15 -23 -49 5 -49 28 0 47 17 47 42 0 20 -25 23 -52
7z"/>
<path d="M1784 6358 c-15 -30 -15 -32 2 -45 26 -19 39 -16 53 13 13 28 9 39
-19 54 -16 9 -22 5 -36 -22z"/>
<path d="M1123 6345 c-21 -15 -22 -55 -1 -55 26 0 45 20 41 45 -6 29 -11 30
-40 10z"/>
<path d="M986 6037 c-13 -10 -16 -20 -12 -35 8 -25 15 -27 40 -9 13 10 16 20
12 35 -8 25 -15 27 -40 9z"/>
<path d="M1877 6033 c-11 -11 -8 -48 5 -61 21 -21 45 -14 53 15 5 20 2 31 -11
40 -20 14 -37 17 -47 6z"/>
<path d="M2054 5655 c-7 -29 10 -55 36 -55 25 0 34 51 12 68 -25 19 -41 14
-48 -13z"/>
<path d="M852 5408 c-5 -7 -12 -22 -14 -33 -2 -15 3 -20 21 -20 18 0 26 7 32
27 4 15 4 29 1 32 -9 10 -29 7 -40 -6z"/>
<path d="M2230 5308 c0 -7 -3 -23 -6 -35 -5 -18 -1 -25 17 -32 16 -5 26 -5 31
3 14 21 8 55 -11 66 -25 13 -31 13 -31 -2z"/>
<path d="M684 5048 l-29 -33 33 29 c17 17 32 31 32 33 0 8 -8 1 -36 -29z"/>
<path d="M567 4963 c-16 -47 -34 -153 -25 -143 3 3 15 25 27 50 16 32 17 39 5
25 l-17 -20 8 20 c4 11 9 29 10 40 2 11 6 32 10 48 11 44 0 31 -18 -20z"/>
<path d="M639 4993 c-13 -16 -12 -17 4 -4 9 7 17 15 17 17 0 8 -8 3 -21 -13z"/>
<path d="M2452 4755 c-17 -36 -30 -65 -27 -65 7 0 67 121 63 126 -2 2 -18 -26
-36 -61z"/>
<path d="M1968 4736 c-38 -39 -68 -75 -68 -79 0 -5 -5 -5 -10 -2 -11 7 -26
-22 -17 -31 9 -9 137 118 130 129 -3 5 -2 7 4 4 5 -4 19 4 31 18 14 15 17 25
9 28 -7 2 -42 -28 -79 -67z"/>
<path d="M1465 4720 c3 -5 8 -10 11 -10 2 0 4 5 4 10 0 6 -5 10 -11 10 -5 0
-7 -4 -4 -10z"/>
<path d="M1061 4674 c0 -11 3 -14 6 -6 3 7 2 16 -1 19 -3 4 -6 -2 -5 -13z"/>
<path d="M2355 4629 c-4 -5 -13 -8 -21 -5 -10 4 -11 0 -3 -22 6 -15 15 -30 22
-34 15 -9 37 10 37 31 0 14 -2 14 -11 1 -9 -12 -10 -11 -6 7 6 25 -7 40 -18
22z m5 -40 c0 -6 -4 -7 -10 -4 -5 3 -10 11 -10 16 0 6 5 7 10 4 6 -3 10 -11
10 -16z"/>
<path d="M1207 4624 c-3 -3 -1 -17 5 -30 9 -19 8 -32 -6 -62 -17 -35 -17 -36
0 -20 16 16 20 48 13 101 -3 19 -3 20 -12 11z"/>
<path d="M1796 4595 c-27 -19 -52 -39 -56 -45 -4 -7 -10 -11 -14 -11 -20 3
-26 0 -20 -11 5 -7 3 -8 -5 -3 -14 8 -63 -14 -56 -26 3 -4 -5 -5 -17 -1 -13 3
-19 1 -15 -5 5 -7 0 -9 -11 -6 -11 2 -26 -3 -36 -12 -9 -9 -16 -12 -16 -6 0
13 -42 5 -52 -11 -4 -7 -8 -8 -8 -3 0 16 -40 16 -47 -1 -3 -8 -9 -14 -15 -14
-5 0 -6 5 -3 10 10 17 -7 11 -22 -7 -13 -16 -14 -16 -9 -1 6 20 -18 15 -46
-10 -13 -11 -18 -12 -18 -3 0 15 -49 7 -93 -14 -15 -8 -25 -9 -22 -4 8 12 5
12 -44 -6 -23 -8 -45 -14 -49 -14 -4 1 -10 0 -14 -1 -5 -1 -11 -3 -15 -4 -5
-2 -19 -7 -33 -13 -14 -6 -33 -14 -43 -17 -10 -3 -16 -10 -12 -15 3 -6 -3 -9
-12 -9 -32 1 -73 -21 -73 -39 0 -14 -2 -15 -9 -5 -6 10 -10 8 -14 -10 -4 -14
-1 -29 8 -38 13 -12 15 -12 15 0 0 13 2 13 9 1 11 -17 91 -23 91 -7 0 6 -19
13 -42 15 -24 1 -51 3 -60 4 -26 2 -22 10 12 30 17 10 30 22 30 28 0 5 5 9 11
9 5 0 7 -6 3 -12 -6 -10 -4 -10 7 0 20 19 27 15 32 -20 l4 -33 1 37 2 36 90
30 90 31 2 -57 2 -57 3 50 c5 57 13 70 45 73 40 4 57 8 64 14 3 4 17 3 29 -2
16 -6 25 -5 27 2 2 6 17 13 33 15 46 7 70 11 70 13 0 2 32 9 65 15 14 2 26 4
28 6 2 2 6 3 54 12 25 5 39 15 44 29 3 12 9 16 13 10 9 -14 71 16 71 34 0 8 5
14 11 14 5 0 7 -5 3 -11 -3 -6 5 -3 20 6 14 10 26 23 26 30 0 7 8 12 18 11 16
-3 32 10 32 27 0 13 -14 7 -64 -28z m-416 -159 c0 -3 -4 -8 -10 -11 -5 -3 -10
-1 -10 4 0 6 5 11 10 11 6 0 10 -2 10 -4z"/>
<path d="M2114 4610 c3 -14 10 -59 17 -100 6 -41 16 -84 21 -95 7 -17 8 -16 3
5 -2 14 -10 63 -16 110 -7 47 -16 90 -21 95 -6 6 -7 1 -4 -15z"/>
<path d="M1143 4609 c23 -14 12 -29 -58 -75 -27 -19 -46 -34 -41 -34 11 0 64
37 98 68 21 19 25 29 17 39 -6 7 -17 13 -23 13 -6 0 -3 -5 7 -11z"/>
<path d="M1251 4618 c3 -2 40 -37 84 -78 l80 -75 -75 78 c-41 42 -79 77 -84
77 -5 0 -7 -1 -5 -2z"/>
<path d="M1841 4544 c0 -11 3 -14 6 -6 3 7 2 16 -1 19 -3 4 -6 -2 -5 -13z"/>
<path d="M2249 4547 c6 -6 18 -12 27 -13 12 -2 14 0 5 9 -6 6 -18 12 -27 13
-12 2 -14 0 -5 -9z"/>
<path d="M2340 4548 c0 -5 5 -8 10 -8 6 0 10 -8 10 -17 0 -15 -2 -16 -10 -3
-6 9 -10 10 -10 3 0 -6 5 -15 10 -18 6 -3 10 -11 10 -17 0 -6 -7 -5 -17 3 -12
10 -15 11 -9 1 6 -9 1 -11 -18 -8 -15 3 -24 1 -21 -5 4 -5 11 -6 17 -3 7 5 9
1 5 -9 -3 -9 -2 -19 3 -22 6 -4 10 -14 9 -23 0 -14 -2 -13 -9 3 -5 11 -9 16
-9 10 -1 -15 -47 -65 -59 -65 -7 0 -14 10 -16 23 -12 54 -15 58 -9 12 4 -27 7
-72 6 -100 0 -35 2 -44 8 -29 4 12 21 31 38 44 17 12 28 26 25 32 -4 6 -2 8 3
5 6 -4 18 2 28 13 10 11 22 17 28 13 5 -3 7 -2 4 4 -3 5 0 31 8 57 8 26 10 44
5 41 -6 -4 -10 -2 -10 4 0 5 6 12 13 14 9 4 8 8 -3 16 -13 10 -8 15 12 12 4 0
5 5 2 13 -5 14 -54 17 -54 4z m10 -93 c0 -8 -2 -15 -4 -15 -2 0 -6 7 -10 15
-3 8 -1 15 4 15 6 0 10 -7 10 -15z m10 -35 c0 -5 -5 -10 -11 -10 -5 0 -7 5 -4
10 3 6 8 10 11 10 2 0 4 -4 4 -10z"/>
<path d="M2212 4505 c0 -16 2 -22 5 -12 2 9 2 23 0 30 -3 6 -5 -1 -5 -18z"/>
<path d="M1021 4504 c0 -11 3 -14 6 -6 3 7 2 16 -1 19 -3 4 -6 -2 -5 -13z"/>
<path d="M2274 4512 c4 -3 14 -7 22 -8 9 -1 13 0 10 4 -4 3 -14 7 -22 8 -9 1
-13 0 -10 -4z"/>
<path d="M1002 4450 c0 -14 2 -19 5 -12 2 6 2 18 0 25 -3 6 -5 1 -5 -13z"/>
<path d="M1380 4397 c11 -11 170 -117 176 -117 4 0 1 7 -6 15 -7 8 -16 15 -21
15 -5 0 -30 15 -56 34 -44 31 -105 66 -93 53z"/>
<path d="M1480 4396 c0 -10 43 -77 47 -73 2 3 -6 21 -18 41 -19 33 -29 43 -29
32z"/>
<path d="M2171 4343 c0 -12 -4 -30 -7 -40 -5 -17 -5 -17 6 0 6 10 9 28 7 40
-4 22 -4 22 -6 0z"/>
<path d="M2376 4315 c-9 -26 -7 -32 5 -12 6 10 9 21 6 23 -2 3 -7 -2 -11 -11z"/>
<path d="M1875 4290 c10 -11 20 -20 23 -20 3 0 -3 9 -13 20 -10 11 -20 20 -23
20 -3 0 3 -9 13 -20z"/>
<path d="M2391 4284 c0 -11 3 -14 6 -6 3 7 2 16 -1 19 -3 4 -6 -2 -5 -13z"/>
<path d="M2146 4264 c-4 -10 3 -26 19 -42 14 -13 25 -20 25 -15 0 5 -9 18 -19
27 -11 10 -17 24 -14 32 3 8 3 14 0 14 -3 0 -8 -7 -11 -16z"/>
<path d="M1569 4254 c5 -11 17 -26 25 -33 9 -7 41 -53 72 -102 31 -49 58 -89
60 -89 6 0 2 7 -62 105 -54 82 -115 158 -95 119z"/>
<path d="M2223 4212 c1 -31 5 -41 15 -37 7 2 10 1 7 -4 -8 -15 36 -41 69 -41
35 0 67 26 59 48 -4 9 -2 13 4 9 6 -4 14 0 17 9 9 24 7 54 -4 54 -5 0 -10 -8
-10 -17 0 -10 -9 -33 -20 -50 -33 -54 -89 -40 -120 30 l-19 42 2 -43z m147
-46 c0 -2 -8 -10 -17 -17 -16 -13 -17 -12 -4 4 13 16 21 21 21 13z"/>
<path d="M1585 4190 c4 -14 12 -29 17 -35 7 -7 8 -2 3 15 -4 14 -12 30 -17 35
-7 7 -8 2 -3 -15z"/>
<path d="M1203 4135 c0 -22 2 -30 4 -17 2 12 2 30 0 40 -3 9 -5 -1 -4 -23z"/>
<path d="M2222 4140 c0 -14 2 -19 5 -12 2 6 2 18 0 25 -3 6 -5 1 -5 -13z"/>
<path d="M1611 4120 c0 -14 4 -32 9 -40 8 -12 10 -12 9 5 0 11 -4 29 -9 40 -8
18 -9 18 -9 -5z"/>
<path d="M1012 4105 c0 -16 2 -22 5 -12 2 9 2 23 0 30 -3 6 -5 -1 -5 -18z"/>
<path d="M2153 4045 c0 -44 2 -61 4 -37 2 23 2 59 0 80 -2 20 -4 1 -4 -43z"/>
<path d="M2212 4060 c0 -19 2 -27 5 -17 2 9 2 25 0 35 -3 9 -5 1 -5 -18z"/>
<path d="M1021 4044 c0 -11 3 -14 6 -6 3 7 2 16 -1 19 -3 4 -6 -2 -5 -13z"/>
<path d="M1213 3995 c0 -22 2 -30 4 -17 2 12 2 30 0 40 -3 9 -5 -1 -4 -23z"/>
<path d="M1747 3989 c10 -17 24 -36 32 -42 8 -7 2 7 -14 31 -32 49 -45 57 -18
11z"/>
<path d="M1031 3984 c0 -11 3 -14 6 -6 3 7 2 16 -1 19 -3 4 -6 -2 -5 -13z"/>
<path d="M2202 3975 c0 -16 2 -22 5 -12 2 9 2 23 0 30 -3 6 -5 -1 -5 -18z"/>
<path d="M2142 3935 c0 -16 2 -22 5 -12 2 9 2 23 0 30 -3 6 -5 -1 -5 -18z"/>
<path d="M1042 3920 c0 -14 2 -19 5 -12 2 6 2 18 0 25 -3 6 -5 1 -5 -13z"/>
<path d="M1612 3900 c0 -19 2 -27 5 -17 2 9 2 25 0 35 -3 9 -5 1 -5 -18z"/>
<path d="M1805 3906 c10 -14 19 -26 22 -26 7 0 -17 39 -28 46 -6 3 -3 -5 6
-20z"/>
<path d="M2192 3905 c0 -16 2 -22 5 -12 2 9 2 23 0 30 -3 6 -5 -1 -5 -18z"/>
<path d="M2126 3843 c-4 -32 -10 -67 -13 -78 -3 -14 -2 -17 5 -10 10 10 28
145 19 145 -2 0 -8 -26 -11 -57z"/>
<path d="M1223 3845 c0 -27 2 -38 4 -22 2 15 2 37 0 50 -2 12 -4 0 -4 -28z"/>
<path d="M1051 3854 c0 -11 3 -14 6 -6 3 7 2 16 -1 19 -3 4 -6 -2 -5 -13z"/>
<path d="M2182 3840 c0 -14 2 -19 5 -12 2 6 2 18 0 25 -3 6 -5 1 -5 -13z"/>
<path d="M1613 3795 c0 -27 2 -38 4 -22 2 15 2 37 0 50 -2 12 -4 0 -4 -28z"/>
<path d="M1062 3790 c0 -14 2 -19 5 -12 2 6 2 18 0 25 -3 6 -5 1 -5 -13z"/>
<path d="M2172 3775 c0 -16 2 -22 5 -12 2 9 2 23 0 30 -3 6 -5 -1 -5 -18z"/>
<path d="M1232 3725 c0 -16 2 -22 5 -12 2 9 2 23 0 30 -3 6 -5 -1 -5 -18z"/>
<path d="M1072 3715 c0 -16 2 -22 5 -12 2 9 2 23 0 30 -3 6 -5 -1 -5 -18z"/>
<path d="M2107 3716 c-5 -15 -6 -31 -3 -34 8 -8 18 25 14 45 -3 13 -6 10 -11
-11z"/>
<path d="M2162 3700 c0 -19 2 -27 5 -17 2 9 2 25 0 35 -3 9 -5 1 -5 -18z"/>
<path d="M1604 3475 c0 -115 2 -161 3 -102 2 59 2 154 0 210 -1 56 -3 8 -3
-108z"/>
<path d="M1082 3650 c0 -14 2 -19 5 -12 2 6 2 18 0 25 -3 6 -5 1 -5 -13z"/>
<path d="M2102 3645 c0 -16 2 -22 5 -12 2 9 2 23 0 30 -3 6 -5 -1 -5 -18z"/>
<path d="M2152 3635 c0 -16 2 -22 5 -12 2 9 2 23 0 30 -3 6 -5 -1 -5 -18z"/>
<path d="M1242 3620 c0 -14 2 -19 5 -12 2 6 2 18 0 25 -3 6 -5 1 -5 -13z"/>
<path d="M1092 3580 c0 -14 2 -19 5 -12 2 6 2 18 0 25 -3 6 -5 1 -5 -13z"/>
<path d="M2092 3575 c0 -16 2 -22 5 -12 2 9 2 23 0 30 -3 6 -5 -1 -5 -18z"/>
<path d="M2141 3574 c0 -11 3 -14 6 -6 3 7 2 16 -1 19 -3 4 -6 -2 -5 -13z"/>
<path d="M1102 3520 c0 -14 2 -19 5 -12 2 6 2 18 0 25 -3 6 -5 1 -5 -13z"/>
<path d="M2132 3520 c0 -14 2 -19 5 -12 2 6 2 18 0 25 -3 6 -5 1 -5 -13z"/>
<path d="M2082 3505 c0 -16 2 -22 5 -12 2 9 2 23 0 30 -3 6 -5 -1 -5 -18z"/>
<path d="M1251 3483 c-1 -12 4 -25 9 -28 12 -7 12 2 0 30 -8 19 -9 19 -9 -2z"/>
<path d="M1112 3460 c0 -14 2 -19 5 -12 2 6 2 18 0 25 -3 6 -5 1 -5 -13z"/>
<path d="M2121 3464 c0 -11 3 -14 6 -6 3 7 2 16 -1 19 -3 4 -6 -2 -5 -13z"/>
<path d="M2072 3440 c0 -19 2 -27 5 -17 2 9 2 25 0 35 -3 9 -5 1 -5 -18z"/>
<path d="M2111 3414 c0 -11 3 -14 6 -6 3 7 2 16 -1 19 -3 4 -6 -2 -5 -13z"/>
<path d="M1122 3400 c0 -14 2 -19 5 -12 2 6 2 18 0 25 -3 6 -5 1 -5 -13z"/>
<path d="M1261 3404 c0 -11 3 -14 6 -6 3 7 2 16 -1 19 -3 4 -6 -2 -5 -13z"/>
<path d="M2056 3343 c-4 -32 -10 -67 -13 -78 -3 -14 -2 -17 5 -10 10 10 28
145 19 145 -2 0 -8 -26 -11 -57z"/>
<path d="M1642 3360 c0 -14 2 -19 5 -12 2 6 2 18 0 25 -3 6 -5 1 -5 -13z"/>
<path d="M2102 3360 c0 -14 2 -19 5 -12 2 6 2 18 0 25 -3 6 -5 1 -5 -13z"/>
<path d="M1131 3334 c0 -11 3 -14 6 -6 3 7 2 16 -1 19 -3 4 -6 -2 -5 -13z"/>
<path d="M1272 3330 c0 -14 2 -19 5 -12 2 6 2 18 0 25 -3 6 -5 1 -5 -13z"/>
<path d="M2092 3295 c0 -16 2 -22 5 -12 2 9 2 23 0 30 -3 6 -5 -1 -5 -18z"/>
<path d="M1142 3255 c0 -16 2 -22 5 -12 2 9 2 23 0 30 -3 6 -5 -1 -5 -18z"/>
<path d="M1281 3254 c0 -11 3 -14 6 -6 3 7 2 16 -1 19 -3 4 -6 -2 -5 -13z"/>
<path d="M2082 3240 c0 -14 2 -19 5 -12 2 6 2 18 0 25 -3 6 -5 1 -5 -13z"/>
<path d="M2037 3216 c-4 -10 -5 -21 -2 -24 9 -9 17 6 13 25 -3 17 -4 17 -11
-1z"/>
<path d="M1152 3195 c0 -16 2 -22 5 -12 2 9 2 23 0 30 -3 6 -5 -1 -5 -18z"/>
<path d="M1613 3160 c0 -30 2 -43 4 -27 2 15 2 39 0 55 -2 15 -4 2 -4 -28z"/>
<path d="M1292 3180 c0 -14 2 -19 5 -12 2 6 2 18 0 25 -3 6 -5 1 -5 -13z"/>
<path d="M2072 3180 c0 -14 2 -19 5 -12 2 6 2 18 0 25 -3 6 -5 1 -5 -13z"/>
<path d="M2032 3150 c0 -14 2 -19 5 -12 2 6 2 18 0 25 -3 6 -5 1 -5 -13z"/>
<path d="M1162 3120 c0 -14 2 -19 5 -12 2 6 2 18 0 25 -3 6 -5 1 -5 -13z"/>
<path d="M2062 3120 c0 -14 2 -19 5 -12 2 6 2 18 0 25 -3 6 -5 1 -5 -13z"/>
<path d="M1302 3090 c0 -14 2 -19 5 -12 2 6 2 18 0 25 -3 6 -5 1 -5 -13z"/>
<path d="M2022 3090 c0 -14 2 -19 5 -12 2 6 2 18 0 25 -3 6 -5 1 -5 -13z"/>
<path d="M2052 3060 c0 -14 2 -19 5 -12 2 6 2 18 0 25 -3 6 -5 1 -5 -13z"/>
<path d="M1171 3054 c0 -11 3 -14 6 -6 3 7 2 16 -1 19 -3 4 -6 -2 -5 -13z"/>
<path d="M2012 3025 c0 -16 2 -22 5 -12 2 9 2 23 0 30 -3 6 -5 -1 -5 -18z"/>
<path d="M1620 3018 c0 -13 5 -30 10 -38 7 -11 10 -5 10 23 0 20 -4 37 -10 37
-5 0 -10 -10 -10 -22z"/>
<path d="M1182 2990 c0 -14 2 -19 5 -12 2 6 2 18 0 25 -3 6 -5 1 -5 -13z"/>
<path d="M1311 2984 c0 -11 3 -14 6 -6 3 7 2 16 -1 19 -3 4 -6 -2 -5 -13z"/>
<path d="M2042 2980 c0 -14 2 -19 5 -12 2 6 2 18 0 25 -3 6 -5 1 -5 -13z"/>
<path d="M2002 2965 c0 -16 2 -22 5 -12 2 9 2 23 0 30 -3 6 -5 -1 -5 -18z"/>
<path d="M1510 2977 c0 -9 51 -59 56 -54 2 2 -10 16 -26 32 -17 16 -30 26 -30
22z"/>
<path d="M1631 2944 c0 -11 3 -14 6 -6 3 7 2 16 -1 19 -3 4 -6 -2 -5 -13z"/>
<path d="M1191 2924 c0 -11 3 -14 6 -6 3 7 2 16 -1 19 -3 4 -6 -2 -5 -13z"/>
<path d="M1642 2895 c0 -16 2 -22 5 -12 2 9 2 23 0 30 -3 6 -5 -1 -5 -18z"/>
<path d="M1991 2904 c0 -11 3 -14 6 -6 3 7 2 16 -1 19 -3 4 -6 -2 -5 -13z"/>
<path d="M2021 2904 c0 -11 3 -14 6 -6 3 7 2 16 -1 19 -3 4 -6 -2 -5 -13z"/>
<path d="M1986 2854 c-4 -14 -5 -28 -3 -31 3 -2 8 8 11 23 4 14 5 28 3 31 -3
2 -8 -8 -11 -23z"/>
<path d="M2011 2867 c0 -10 -15 -47 -32 -83 l-31 -64 26 -34 26 -34 -25 -44
c-14 -24 -25 -50 -25 -58 0 -8 9 3 19 25 l18 40 0 -55 c0 -30 1 -102 3 -160 1
-66 -3 -136 -14 -190 -18 -100 -46 -294 -42 -298 8 -7 35 129 29 144 -4 12 -3
15 5 10 7 -4 12 -5 12 -2 0 2 11 56 25 120 14 64 24 135 24 158 -1 37 -3 34
-10 -21 -10 -81 -20 -102 -14 -31 14 172 16 250 7 267 -6 11 -8 38 -4 64 l7
44 6 -60 6 -60 1 65 c0 36 3 81 5 100 3 19 2 26 0 15 -3 -11 -11 -28 -18 -37
-10 -15 -14 -16 -23 -5 -8 9 -6 34 9 91 11 43 18 86 16 95 -4 13 -5 13 -6 -2z
m-4 -369 c-3 -7 -5 -2 -5 12 0 14 2 19 5 13 2 -7 2 -19 0 -25z m-10 -300 c-3
-7 -5 -2 -5 12 0 14 2 19 5 13 2 -7 2 -19 0 -25z m-10 -50 c-3 -7 -5 -2 -5 12
0 14 2 19 5 13 2 -7 2 -19 0 -25z m-10 -50 c-3 -7 -5 -2 -5 12 0 14 2 19 5 13
2 -7 2 -19 0 -25z"/>
<path d="M1631 2834 c0 -11 3 -14 6 -6 3 7 2 16 -1 19 -3 4 -6 -2 -5 -13z"/>
<path d="M2022 2790 c0 -19 2 -27 5 -17 2 9 2 25 0 35 -3 9 -5 1 -5 -18z"/>
<path d="M1590 2780 c0 -8 5 -22 10 -30 9 -13 10 -13 10 0 0 8 -5 22 -10 30
-9 13 -10 13 -10 0z"/>
<path d="M1630 2749 c0 -16 -4 -28 -9 -25 -5 4 -7 -3 -4 -14 10 -38 19 -29 21
21 1 27 0 49 -3 49 -3 0 -5 -14 -5 -31z"/>
<path d="M1326 2747 c3 -10 9 -15 12 -12 3 3 0 11 -7 18 -10 9 -11 8 -5 -6z"/>
<path d="M1211 2714 c0 -11 3 -14 6 -6 3 7 2 16 -1 19 -3 4 -6 -2 -5 -13z"/>
<path d="M2006 2714 c-4 -9 -4 -19 -1 -22 2 -3 7 3 11 12 4 9 4 19 1 22 -2 3
-7 -3 -11 -12z"/>
<path d="M1330 2710 c0 -5 5 -10 11 -10 5 0 7 5 4 10 -3 6 -8 10 -11 10 -2 0
-4 -4 -4 -10z"/>
<path d="M1340 2671 c0 -5 5 -13 10 -16 6 -3 10 -2 10 4 0 5 -4 13 -10 16 -5
3 -10 2 -10 -4z"/>
<path d="M1640 2658 c0 -9 7 -22 17 -29 15 -13 15 -12 3 11 -17 34 -20 36 -20
18z"/>
<path d="M1671 2559 c-6 -18 -11 -39 -10 -48 1 -9 7 4 15 28 16 51 12 68 -5
20z"/>
<path d="M1240 2569 c0 -5 5 -7 10 -4 6 3 10 8 10 11 0 2 -4 4 -10 4 -5 0 -10
-5 -10 -11z"/>
<path d="M1256 2535 c4 -8 8 -15 10 -15 2 0 4 7 4 15 0 8 -4 15 -10 15 -5 0
-7 -7 -4 -15z"/>
<path d="M1372 2520 c0 -14 2 -19 5 -12 2 6 2 18 0 25 -3 6 -5 1 -5 -13z"/>
<path d="M2033 2465 c0 -44 2 -61 4 -37 2 23 2 59 0 80 -2 20 -4 1 -4 -43z"/>
<path d="M1221 2504 c0 -11 3 -14 6 -6 3 7 2 16 -1 19 -3 4 -6 -2 -5 -13z"/>
<path d="M1782 2470 c0 -19 2 -27 5 -17 2 9 2 25 0 35 -3 9 -5 1 -5 -18z"/>
<path d="M1373 2345 c0 -27 2 -38 4 -22 2 15 2 37 0 50 -2 12 -4 0 -4 -28z"/>
<path d="M1261 2344 c0 -11 3 -14 6 -6 3 7 2 16 -1 19 -3 4 -6 -2 -5 -13z"/>
<path d="M1783 2270 c0 -41 2 -58 4 -37 2 20 2 54 0 75 -2 20 -4 3 -4 -38z"/>
<path d="M1712 2300 c0 -14 2 -19 5 -12 2 6 2 18 0 25 -3 6 -5 1 -5 -13z"/>
<path d="M1272 2260 c0 -19 2 -27 5 -17 2 9 2 25 0 35 -3 9 -5 1 -5 -18z"/>
<path d="M1721 2234 c0 -11 3 -14 6 -6 3 7 2 16 -1 19 -3 4 -6 -2 -5 -13z"/>
<path d="M1382 2185 c0 -16 2 -22 5 -12 2 9 2 23 0 30 -3 6 -5 -1 -5 -18z"/>
<path d="M1282 2170 c0 -19 2 -27 5 -17 2 9 2 25 0 35 -3 9 -5 1 -5 -18z"/>
<path d="M1732 2165 c0 -16 2 -22 5 -12 2 9 2 23 0 30 -3 6 -5 -1 -5 -18z"/>
<path d="M1292 2075 c0 -16 2 -22 5 -12 2 9 2 23 0 30 -3 6 -5 -1 -5 -18z"/>
<path d="M1773 2050 c0 -30 2 -43 4 -27 2 15 2 39 0 55 -2 15 -4 2 -4 -28z"/>
<path d="M1390 2056 c0 -8 4 -17 9 -20 5 -4 7 3 4 14 -6 23 -13 26 -13 6z"/>
<path d="M1301 2004 c0 -11 3 -14 6 -6 3 7 2 16 -1 19 -3 4 -6 -2 -5 -13z"/>
<path d="M1312 1940 c0 -14 2 -19 5 -12 2 6 2 18 0 25 -3 6 -5 1 -5 -13z"/>
<path d="M1783 1900 c0 -25 2 -35 4 -22 2 12 2 32 0 45 -2 12 -4 2 -4 -23z"/>
<path d="M1411 1914 c0 -11 3 -14 6 -6 3 7 2 16 -1 19 -3 4 -6 -2 -5 -13z"/>
<path d="M1321 1874 c0 -11 3 -14 6 -6 3 7 2 16 -1 19 -3 4 -6 -2 -5 -13z"/>
<path d="M1421 1844 c0 -11 3 -14 6 -6 3 7 2 16 -1 19 -3 4 -6 -2 -5 -13z"/>
<path d="M1331 1814 c0 -11 3 -14 6 -6 3 7 2 16 -1 19 -3 4 -6 -2 -5 -13z"/>
<path d="M1916 1755 c-9 -82 -35 -148 -83 -212 -27 -37 -47 -41 -75 -16 -11 9
-18 11 -18 5 0 -7 9 -17 20 -24 17 -11 20 -22 18 -78 l-2 -65 -3 55 c-5 72
-13 93 -24 60 -8 -25 -9 -25 -5 3 2 15 -1 30 -6 33 -5 3 -7 13 -4 21 3 8 3 20
0 25 -4 6 -7 47 -7 92 l1 81 -8 -100 c-4 -55 -6 -104 -3 -109 5 -7 42 -309 43
-342 0 -6 -10 -10 -22 -9 -14 1 -15 0 -5 -2 25 -6 34 -33 47 -137 8 -61 8 -92
1 -99 -6 -6 -14 -7 -18 -2 -5 4 -2 10 5 12 33 12 5 23 -60 23 -40 0 -109 3
-153 6 l-80 7 -2 113 -2 113 42 4 42 4 -47 1 c-39 2 -56 -4 -93 -30 l-46 -33
5 -124 c3 -68 7 -125 9 -127 2 -2 19 -6 38 -9 l34 -5 -34 13 -33 13 26 12 c35
16 44 15 21 -1 -17 -13 -17 -14 5 -20 12 -3 19 -10 16 -16 -4 -5 -2 -12 4 -16
15 -10 12 -71 -5 -85 -18 -15 -20 -40 -4 -40 8 0 8 -4 2 -12 -17 -21 -54 -158
-47 -170 4 -6 3 -8 -4 -5 -10 7 -9 -13 3 -113 3 -25 2 -31 -5 -20 -5 8 -10 38
-10 65 l-1 50 -28 -61 c-30 -65 -83 -147 -162 -252 -44 -59 -48 -68 -48 -119
1 -40 6 -59 20 -72 24 -22 85 -41 132 -41 69 0 268 89 344 155 34 29 41 42 57
114 18 79 19 81 48 81 21 0 42 12 75 43 l45 43 1 75 c0 45 -6 88 -16 110 l-15
37 39 -5 c35 -5 43 -2 73 31 51 53 80 135 80 226 0 63 -5 86 -32 143 -18 38
-32 79 -32 91 0 12 -4 26 -10 32 -5 5 -21 68 -35 141 l-26 132 19 38 c18 35
19 52 13 193 l-7 155 -8 -80z m3 -137 c-1 -35 -2 -38 -8 -18 -7 23 -4 60 5 60
2 0 4 -19 3 -42z m-34 -37 c-8 -17 -19 -33 -25 -36 -5 -3 -1 10 11 29 25 43
36 48 14 7z m8 -122 c-60 -112 -108 -161 -127 -130 -4 5 3 7 13 4 15 -4 28 9
59 54 51 75 82 136 83 165 l2 23 4 -23 c3 -13 -11 -50 -34 -93z m-43 68 c0 -2
-12 -14 -27 -28 l-28 -24 24 28 c23 25 31 32 31 24z m-43 -134 c-2 -16 -4 -3
-4 27 0 30 2 43 4 28 2 -16 2 -40 0 -55z m-50 -20 c-3 -10 -5 -4 -5 12 0 17 2
24 5 18 2 -7 2 -21 0 -30z m120 -5 c-3 -8 -6 -5 -6 6 -1 11 2 17 5 13 3 -3 4
-12 1 -19z m24 -214 c-11 -62 -39 -140 -46 -132 -3 2 5 29 16 59 23 57 29 141
17 224 -5 34 -2 27 8 -20 13 -57 14 -81 5 -131z m-441 42 c0 -2 -8 -10 -17
-17 -16 -13 -17 -12 -4 4 13 16 21 21 21 13z m-3 -138 c-2 -24 -4 -7 -4 37 0
44 2 63 4 43 2 -21 2 -57 0 -80z m-64 -8 c2 -47 0 -76 -4 -65 -4 11 -8 54 -8
95 1 95 6 80 12 -30z m453 -47 c-8 -8 -56 25 -56 38 0 6 14 1 31 -11 16 -12
28 -25 25 -27z m-386 -28 c0 -5 -55 -35 -65 -35 -3 0 -5 5 -5 11 0 5 3 8 8 5
4 -2 18 2 32 10 29 15 30 16 30 9z m213 -245 c1 -75 -21 -134 -74 -194 -34
-39 -164 -136 -182 -136 -16 0 14 30 62 62 71 48 120 99 148 153 41 79 44 101
27 174 -10 46 -13 83 -7 121 l7 55 9 -85 c5 -47 10 -114 10 -150z m45 90 l0
-45 -9 40 c-4 22 -8 51 -8 65 0 23 1 23 9 5 5 -11 8 -40 8 -65z m-32 -214
c-34 -90 -55 -117 -148 -191 -104 -82 -174 -121 -181 -101 -4 9 -1 13 6 10 19
-7 134 66 204 130 62 57 97 111 123 189 6 21 14 36 16 34 3 -2 -7 -35 -20 -71z"/>
<path d="M1432 1765 c0 -16 2 -22 5 -12 2 9 2 23 0 30 -3 6 -5 -1 -5 -18z"/>
<path d="M1342 1735 c0 -16 2 -22 5 -12 2 9 2 23 0 30 -3 6 -5 -1 -5 -18z"/>
<path d="M1875 1740 c-3 -5 -1 -10 4 -10 6 0 11 5 11 10 0 6 -2 10 -4 10 -3 0
-8 -4 -11 -10z"/>
<path d="M1794 1615 c0 -55 1 -76 3 -47 2 29 2 74 0 100 -2 26 -3 2 -3 -53z"/>
<path d="M1442 1675 c0 -16 2 -22 5 -12 2 9 2 23 0 30 -3 6 -5 -1 -5 -18z"/>
<path d="M1352 1660 c0 -19 2 -27 5 -17 2 9 2 25 0 35 -3 9 -5 1 -5 -18z"/>
<path d="M1453 1565 c0 -22 2 -30 4 -17 2 12 2 30 0 40 -3 9 -5 -1 -4 -23z"/>
<path d="M1364 1410 c0 -52 1 -74 3 -47 2 26 2 68 0 95 -2 26 -3 4 -3 -48z"/>
<path d="M1568 1203 c7 -3 16 -2 19 1 4 3 -2 6 -13 5 -11 0 -14 -3 -6 -6z"/>
<path d="M1608 1193 c6 -2 18 -2 25 0 6 3 1 5 -13 5 -14 0 -19 -2 -12 -5z"/>
<path d="M1668 1183 c6 -2 18 -2 25 0 6 3 1 5 -13 5 -14 0 -19 -2 -12 -5z"/>
</g>
</svg>
