<?xml version="1.0" standalone="no"?>
<!DOCTYPE svg PUBLIC "-//W3C//DTD SVG 20010904//EN"
 "http://www.w3.org/TR/2001/REC-SVG-20010904/DTD/svg10.dtd">
<svg version="1.0" xmlns="http://www.w3.org/2000/svg"
 width="401.000000pt" height="640.000000pt" viewBox="0 0 401.000000 640.000000"
 preserveAspectRatio="xMidYMid meet">

<g transform="translate(0.000000,640.000000) scale(0.100000,-0.100000)"
fill="#000000" stroke="none">
<path d="M1840 6261 c-77 -11 -113 -31 -202 -109 -132 -115 -224 -231 -291
-368 -57 -114 -58 -109 33 -202 81 -84 128 -148 136 -185 2 -11 8 -23 14 -27
7 -4 -4 -36 -30 -88 -51 -102 -117 -165 -198 -188 -68 -20 -126 -8 -135 29 -9
35 9 95 34 118 l24 20 -32 -15 c-41 -20 -63 -52 -63 -92 0 -72 84 -120 194
-112 l64 6 -25 -67 c-86 -221 -109 -371 -67 -441 28 -48 78 -80 126 -80 36 0
38 -2 28 -20 -10 -19 -13 -19 -40 -5 -29 15 -31 14 -70 -21 l-40 -36 -45 15
c-32 11 -54 13 -77 7 -17 -6 -33 -9 -34 -7 -1 1 4 29 12 62 21 90 19 170 -6
195 -30 30 -59 33 -128 11 l-63 -19 -72 38 c-90 48 -127 56 -164 36 -30 -15
-77 -62 -110 -110 -17 -24 -33 -32 -84 -42 -55 -11 -69 -19 -102 -56 -21 -23
-34 -44 -29 -46 6 -2 44 6 86 16 l75 20 0 -54 c-1 -30 4 -61 11 -69 9 -11 4
-25 -29 -71 -53 -73 -75 -142 -67 -203 4 -25 6 -72 6 -104 -2 -125 32 -207
101 -242 37 -20 49 -19 21 1 -53 37 -72 132 -47 242 15 67 35 97 35 53 0 -25
44 -77 70 -84 19 -5 19 -3 -4 23 -30 37 -39 86 -26 146 10 44 33 84 49 84 3 0
5 -20 3 -44 -2 -25 1 -53 7 -63 9 -15 10 -12 5 13 -8 45 26 118 64 138 17 9
65 25 107 37 75 20 105 21 67 0 -43 -23 -192 -232 -192 -269 0 -8 10 -7 32 2
23 10 43 33 72 85 67 116 100 155 166 199 67 45 86 51 76 25 -4 -9 5 -39 21
-69 l27 -53 81 0 c44 0 96 -3 116 -7 21 -3 46 -1 58 5 16 9 27 9 43 0 12 -7
59 -15 103 -18 l80 -6 -23 -23 c-23 -23 -54 -24 -157 -7 -51 9 -99 5 -113 -9
-11 -11 -21 -11 -57 -1 -63 19 -158 14 -184 -9 -25 -22 -27 -54 -6 -82 20 -27
20 -29 -25 -49 -41 -19 -46 -27 -85 -152 -27 -87 -85 -167 -146 -199 -48 -27
-54 -34 -67 -81 -12 -45 -27 -64 -103 -138 -109 -105 -170 -145 -221 -145 -40
0 -51 -8 -100 -73 -25 -32 -31 -35 -68 -30 -24 4 -46 1 -55 -7 -8 -7 -45 -67
-81 -134 -37 -66 -80 -135 -96 -152 l-29 -31 11 -84 c7 -51 9 -127 5 -199 -5
-82 -4 -123 4 -138 7 -12 37 -35 69 -51 l57 -29 165 4 c91 2 168 4 173 4 4 0
34 25 67 55 33 30 65 55 70 55 6 0 31 22 56 49 25 27 81 73 125 102 69 45 80
57 91 93 6 22 18 49 26 58 14 17 191 113 196 106 1 -1 7 -38 13 -81 l11 -78
-54 -142 c-29 -78 -64 -182 -78 -232 -28 -98 -68 -314 -60 -327 3 -4 14 -6 25
-5 13 2 42 -19 87 -63 122 -121 226 -181 332 -190 l75 -7 -65 -1 c-45 -1 -78
4 -107 17 -62 29 -183 113 -228 161 -22 23 -53 51 -70 62 -16 12 -1 -9 35 -47
58 -60 227 -185 251 -185 14 0 10 -51 -8 -102 l-16 -46 26 -32 c15 -17 27 -41
27 -54 0 -19 -40 -255 -56 -328 -7 -31 -4 -32 44 -19 28 8 32 7 32 -9 0 -10 3
-20 8 -22 4 -1 19 -21 33 -43 19 -29 24 -46 18 -60 -4 -11 -13 -46 -19 -78
-10 -51 -14 -58 -33 -55 -19 3 -23 11 -28 58 l-6 55 -1 -47 c-2 -50 -8 -55
-42 -38 -11 6 -29 14 -40 20 -10 5 -26 7 -35 4 -8 -3 -15 -1 -15 6 0 6 -8 10
-17 8 -10 -1 -23 1 -30 5 -7 4 -32 9 -56 11 -25 2 -50 7 -56 11 -7 4 -17 2
-24 -4 -7 -5 -18 -6 -26 -1 -17 10 -76 -21 -77 -41 0 -8 -4 -22 -9 -32 -4 -11
-3 -23 4 -30 6 -6 11 -19 11 -29 0 -10 7 -21 15 -24 8 -4 15 -11 15 -16 0 -12
56 -68 68 -68 5 0 12 -7 16 -15 3 -8 10 -15 16 -15 6 0 18 -7 27 -15 8 -8 19
-13 24 -10 5 4 9 1 9 -5 0 -6 10 -15 23 -20 12 -6 36 -19 52 -29 17 -11 38
-20 48 -20 9 -1 17 -5 17 -9 0 -5 11 -14 25 -20 24 -11 25 -10 25 22 0 28 -3
33 -18 29 -10 -2 -34 5 -53 16 -19 11 -53 30 -76 41 -24 11 -43 25 -43 30 0 6
-7 10 -15 10 -9 0 -18 7 -21 15 -4 8 -14 15 -24 15 -10 0 -20 7 -24 15 -3 8
-12 15 -21 15 -8 0 -15 7 -15 15 0 9 -7 18 -15 21 -8 4 -13 10 -10 14 3 5 0
14 -7 22 -21 21 -15 61 10 74 33 16 185 3 198 -18 3 -5 14 -6 25 -3 11 4 19 2
19 -4 0 -6 11 -11 24 -11 14 0 28 -5 31 -11 4 -6 13 -8 20 -5 8 3 19 -1 25 -9
9 -11 7 -38 -9 -116 -12 -56 -19 -104 -17 -106 2 -3 10 22 16 54 34 169 34
169 59 139 10 -11 7 -35 -13 -106 -22 -79 -24 -105 -20 -193 4 -74 3 -98 -5
-87 -9 12 -11 11 -11 -7 0 -12 -4 -25 -10 -28 -14 -9 -12 -76 4 -121 7 -22 28
-108 46 -191 18 -84 36 -153 40 -153 5 0 2 28 -6 62 -28 116 -46 210 -42 214
2 2 18 -58 34 -134 l30 -137 38 -3 c37 -3 38 -2 34 22 -3 14 -1 23 3 20 5 -3
9 -14 9 -25 0 -10 4 -19 9 -19 20 0 -14 184 -55 300 l-34 95 17 105 c16 102
18 107 71 178 30 40 53 75 50 77 -3 3 -22 -19 -43 -50 -21 -30 -40 -53 -43
-51 -2 3 8 37 23 76 26 69 28 71 46 53 31 -31 48 -43 59 -43 6 0 13 -7 16 -15
4 -8 13 -15 20 -15 8 0 17 -7 20 -15 4 -8 12 -15 20 -15 7 0 17 -6 21 -14 4
-8 26 -24 48 -35 62 -34 79 -45 91 -60 6 -8 16 -11 21 -8 6 4 16 0 23 -9 7 -8
19 -13 26 -10 7 3 18 -2 25 -10 6 -8 20 -12 30 -9 9 3 20 1 24 -5 4 -6 14 -9
22 -6 24 10 43 -13 44 -53 1 -20 5 -47 10 -61 5 -16 7 -2 3 42 l-6 68 56 -5
c31 -2 58 0 61 6 4 5 11 7 16 3 6 -3 19 2 29 11 10 9 24 14 29 10 6 -3 14 1
17 9 3 9 13 16 20 16 13 0 61 26 74 40 8 9 44 30 68 40 12 5 22 14 22 20 0 5
7 10 15 10 8 0 19 9 25 20 6 11 17 20 25 20 8 0 15 7 15 16 0 10 6 14 15 10 8
-3 15 -1 15 4 0 4 18 26 40 48 22 21 40 44 40 50 0 7 7 12 15 12 9 0 19 8 22
18 4 9 12 21 20 25 7 4 13 15 13 22 0 8 6 15 14 15 8 0 17 9 21 19 3 11 12 22
20 25 8 3 15 12 15 21 0 8 5 15 10 15 6 0 15 12 20 26 11 27 30 24 30 -5 0
-20 61 -143 68 -137 2 3 -8 24 -21 48 -14 24 -31 65 -38 92 -10 41 -10 51 3
60 8 6 17 19 21 29 3 9 11 17 17 17 5 0 10 7 10 16 0 8 7 22 15 31 8 8 13 19
9 24 -3 5 2 12 10 15 9 3 16 14 16 24 0 10 7 21 16 24 9 3 14 13 10 21 -3 8
-1 17 4 20 16 10 12 37 -7 51 -23 16 -11 29 14 16 13 -8 18 -23 18 -59 0 -39
3 -48 17 -48 21 0 44 -22 34 -32 -4 -4 -15 -2 -25 4 -18 11 -18 10 0 -28 11
-21 23 -39 27 -39 4 0 24 -16 45 -36 21 -20 35 -29 31 -20 -8 22 29 22 47 -1
8 -9 9 -14 4 -11 -6 4 -17 3 -24 -2 -11 -6 -8 -14 13 -34 14 -15 26 -31 26
-36 0 -5 6 -13 13 -17 14 -9 30 -34 53 -83 9 -19 21 -45 27 -58 35 -74 -30
-212 -80 -170 -10 8 -13 4 -13 -17 0 -17 13 -42 35 -66 19 -21 49 -63 66 -94
32 -57 51 -77 25 -27 -15 28 -14 29 18 45 19 8 73 23 122 32 141 26 172 36
199 63 32 32 39 59 32 132 -6 75 -64 186 -129 251 -54 54 -177 137 -293 198
-44 23 -111 63 -150 89 -66 44 -70 49 -68 82 2 29 1 31 -7 14 -5 -12 -15 -25
-22 -30 -7 -4 -10 -4 -6 1 4 4 3 14 -3 22 -6 7 -8 13 -4 13 4 0 1 7 -6 16 -7
9 -18 26 -24 38 -6 11 -16 21 -22 21 -6 0 -15 4 -20 9 -5 5 -3 6 5 2 19 -11
14 9 -8 29 -12 10 -30 34 -42 53 l-20 33 31 44 c17 24 31 46 31 50 0 4 -10 20
-21 37 -15 21 -18 33 -11 40 13 13 119 -85 163 -151 44 -66 46 -85 15 -132
-15 -22 -25 -48 -23 -57 4 -15 5 -15 6 1 2 27 51 97 51 72 0 -10 10 -29 22
-42 12 -13 17 -23 11 -23 -6 0 -28 -24 -48 -52 -20 -29 -25 -39 -10 -23 14 17
37 43 51 58 24 26 25 29 10 45 -8 10 -22 38 -31 62 l-15 45 50 -55 c27 -30 51
-52 54 -49 6 6 -194 229 -253 282 -44 40 -45 52 -3 100 14 16 13 19 -7 41
l-23 24 51 17 c59 19 83 46 107 118 9 29 19 56 22 61 3 5 27 -34 54 -87 26
-54 50 -97 53 -97 3 0 -15 41 -40 90 -25 50 -43 95 -40 99 3 5 39 16 80 26 81
18 173 71 220 127 61 72 102 190 86 243 -5 17 -10 23 -10 15 -1 -8 -20 13 -43
47 -24 34 -89 122 -144 195 -136 178 -223 310 -338 510 -126 221 -166 301
-166 336 0 16 9 64 20 108 18 71 19 89 9 181 -6 57 -9 108 -7 114 8 25 89
-123 141 -256 69 -177 164 -368 267 -534 45 -72 86 -144 92 -161 5 -17 12 -29
14 -27 3 2 -13 49 -34 103 -51 130 -56 150 -37 158 8 3 17 0 21 -6 4 -7 3 -8
-4 -4 -22 13 -12 -9 17 -41 15 -17 70 -52 120 -77 l91 -45 77 29 c51 20 81 26
87 20 6 -6 20 -10 32 -10 24 0 29 -9 39 -80 10 -71 15 -80 38 -79 16 1 18 2 5
6 -20 5 -22 12 -39 109 -6 40 -20 81 -31 95 -11 13 -16 17 -12 9 18 -35 -26
13 -51 56 -14 24 -30 44 -36 44 -6 0 -3 -7 6 -16 25 -25 58 -95 48 -105 -4 -4
-44 -21 -87 -38 -54 -21 -84 -28 -95 -21 -12 7 -1 16 54 40 99 44 99 44 70 94
-14 24 -22 46 -18 49 3 4 -2 7 -12 7 -11 0 -57 12 -104 26 -109 33 -141 63
-141 131 -1 90 -21 142 -61 155 -5 2 -1 45 8 95 21 119 12 159 -68 323 -61
124 -113 193 -175 231 l-33 20 27 48 26 48 37 -24 c45 -30 162 -70 226 -78 29
-4 69 0 103 9 64 17 70 14 120 -64 94 -147 88 -301 -14 -346 -17 -7 -25 -13
-17 -14 41 -1 124 85 155 162 48 117 14 280 -76 370 -21 21 -36 38 -34 38 26
0 191 -57 221 -77 37 -24 38 -24 20 -3 -58 65 -215 122 -390 140 -110 11 -184
41 -248 100 -47 43 -54 54 -66 111 -7 35 -19 79 -26 96 -8 18 -12 33 -9 33 3
0 32 -18 64 -40 58 -40 137 -126 166 -183 9 -16 18 -27 20 -24 9 9 -57 130
-101 187 -42 54 -150 162 -231 230 -36 30 -42 42 -48 89 -8 58 -36 140 -84
241 -17 35 -30 65 -29 67 1 1 62 -28 136 -64 158 -77 203 -116 226 -198 9 -31
14 -70 11 -88 -5 -24 -4 -27 3 -12 5 11 10 47 10 80 1 49 -5 70 -29 112 -67
117 -183 203 -370 274 l-95 36 2 40 c1 22 18 81 38 129 57 138 38 194 -99 298
-115 88 -225 135 -411 176 -100 22 -300 33 -385 21z m364 -62 c77 -11 176 -32
220 -47 126 -41 281 -155 322 -234 14 -27 4 -21 -57 38 -91 86 -146 124 -230
158 -75 31 -179 60 -187 52 -7 -7 -4 -244 3 -256 3 -5 1 -11 -3 -14 -11 -7
-22 91 -22 200 0 46 -1 84 -2 84 -2 0 -52 7 -113 15 -128 17 -294 19 -347 5
-42 -12 -198 -155 -278 -254 l-50 -63 70 -124 c39 -68 70 -128 70 -134 0 -13
-15 8 -47 70 -14 28 -42 75 -61 105 -20 30 -35 58 -34 63 5 20 -15 4 -25 -20
-7 -16 -28 -57 -48 -93 -19 -36 -39 -78 -45 -95 l-10 -30 5 35 c8 53 77 186
142 275 59 80 181 200 256 252 66 46 203 49 471 12z m-394 -58 c0 -5 -7 -11
-14 -14 -10 -4 -13 -1 -9 9 6 15 23 19 23 5z m-16 -46 c-9 -14 -18 -25 -21
-25 -5 0 5 18 20 38 17 22 18 13 1 -13z m96 10 c0 -8 -4 -15 -10 -15 -5 0 -7
7 -4 15 4 8 8 15 10 15 2 0 4 -7 4 -15z m-51 -12 c-4 -25 2 -43 13 -37 7 5 9
2 6 -8 -4 -8 -16 -52 -28 -97 -12 -44 -27 -84 -33 -88 -7 -4 -8 0 -3 13 35 85
46 191 21 200 -8 4 -12 10 -9 15 6 11 34 12 33 2z m170 -89 c1 -9 -7 -38 -19
-65 -27 -57 -65 -72 -83 -32 -9 20 -7 27 12 46 l23 22 -7 -24 c-9 -31 12 -24
39 12 19 25 19 28 4 44 -16 15 -19 14 -52 -11 -36 -27 -36 -27 -32 -4 3 13 5
38 5 56 l1 34 53 -31 c28 -16 54 -38 56 -47z m-199 10 c0 -25 -4 -43 -9 -40
-11 7 -28 -12 -34 -39 -2 -11 -3 -3 -1 17 4 33 32 108 41 108 2 0 3 -21 3 -46z
m67 4 c-3 -7 -5 -2 -5 12 0 14 2 19 5 13 2 -7 2 -19 0 -25z m158 3 c3 -5 1
-12 -4 -15 -5 -3 -11 1 -15 9 -6 16 9 21 19 6z m-304 -49 c-6 -12 -11 -42 -11
-69 -1 -48 -1 -48 -15 -21 -14 25 -13 31 7 72 12 25 24 44 26 42 2 -3 -1 -13
-7 -24z m239 24 c0 -2 -9 -6 -20 -9 -11 -3 -18 -1 -14 4 5 9 34 13 34 5z
m-170 -46 c0 -5 -5 -10 -11 -10 -5 0 -7 5 -4 10 3 6 8 10 11 10 2 0 4 -4 4
-10z m86 -18 c-18 -16 -18 -16 -6 6 6 13 14 21 18 18 3 -4 -2 -14 -12 -24z
m-47 -26 c-9 -8 -10 -7 -5 7 3 10 7 24 7 30 1 7 3 4 6 -7 3 -10 -1 -23 -8 -30z
m-65 -27 c-9 -10 -21 -19 -26 -19 -4 0 1 9 12 20 11 11 20 26 21 33 0 9 2 9 6
-1 3 -7 -3 -22 -13 -33z m246 27 c0 -2 -8 -10 -17 -17 -16 -13 -17 -12 -4 4
13 16 21 21 21 13z m-333 -21 c0 -8 -4 -15 -9 -15 -4 0 -8 7 -8 15 0 8 4 15 8
15 5 0 9 -7 9 -15z m172 -57 c-21 -18 -49 -24 -49 -11 0 4 10 21 22 39 23 33
23 33 35 11 11 -19 9 -25 -8 -39z m56 45 c16 -13 17 -15 3 -10 -11 4 -18 1
-18 -6 0 -8 -4 -6 -10 3 -21 32 -7 39 25 13z m65 2 c0 -5 -51 -38 -125 -80
-27 -16 -45 -22 -38 -15 10 10 150 98 161 100 1 0 2 -2 2 -5z m297 -27 c-3 -7
-5 -2 -5 12 0 14 2 19 5 13 2 -7 2 -19 0 -25z m-346 -36 c-16 -30 -40 -47 -52
-35 -7 7 0 17 23 31 42 26 41 25 29 4z m-161 -16 c0 -2 -9 -6 -20 -9 -11 -3
-18 -1 -14 4 5 9 34 13 34 5z m150 -36 c0 -5 -5 -10 -11 -10 -5 0 -7 5 -4 10
3 6 8 10 11 10 2 0 4 -4 4 -10z m460 -15 c129 -19 200 -42 229 -72 12 -13 21
-27 18 -29 -3 -3 -14 7 -26 22 -15 19 -21 22 -21 11 0 -14 -4 -15 -40 -2 -67
24 -197 45 -274 45 -89 0 -227 -22 -310 -50 -139 -46 -320 -158 -390 -240 -26
-31 -36 -37 -36 -20 0 19 84 101 165 162 206 154 434 212 685 173z m25 -125
c-3 -5 -11 -10 -16 -10 -6 0 -7 5 -4 10 3 6 11 10 16 10 6 0 7 -4 4 -10z
m-125 -40 c0 -5 -7 -10 -16 -10 -8 0 -12 5 -9 10 3 6 10 10 16 10 5 0 9 -4 9
-10z m-132 -62 c-6 -18 -28 -21 -28 -4 0 9 7 16 16 16 9 0 14 -5 12 -12z
m-147 -71 c-13 -13 -26 -3 -16 12 3 6 11 8 17 5 6 -4 6 -10 -1 -17z m424 -131
l29 -24 -51 -7 c-29 -4 -59 -3 -67 2 -9 5 -32 42 -51 81 l-35 73 73 -50 c39
-28 85 -61 102 -75z m-612 -40 c4 -24 13 -63 21 -87 17 -48 14 -55 -35 -83
l-32 -19 7 33 c3 18 9 71 13 117 3 45 9 83 13 83 4 0 10 -20 13 -44z m107 -2
l33 -46 -21 -20 -20 -21 -10 39 c-17 69 -22 94 -19 94 2 0 18 -21 37 -46z
m589 -23 l34 -28 -51 -1 c-28 -1 -72 -6 -98 -12 -52 -12 -64 -5 -64 37 0 18 7
22 43 26 93 8 102 7 136 -22z m-469 -115 l53 -59 -7 -69 c-3 -38 -12 -83 -20
-101 l-13 -32 -31 49 c-38 59 -39 66 -9 59 21 -4 21 -3 -3 11 -16 10 -20 16
-10 17 8 0 4 4 -9 8 -33 9 -39 31 -9 32 22 2 22 2 1 6 -26 5 -37 18 -52 62
-10 32 -9 37 16 63 15 15 30 25 34 21 3 -5 30 -35 59 -67z m527 66 c7 -4 -28
-13 -80 -20 -50 -7 -104 -19 -120 -27 -27 -13 -28 -13 -25 8 2 17 14 25 48 34
52 13 159 16 177 5z m-11 -57 c-7 -19 3 -19 25 1 15 14 18 12 28 -17 22 -65 5
-220 -30 -267 -7 -9 -1 -6 14 8 14 14 40 50 56 80 l31 55 0 -87 c0 -66 4 -90
16 -103 10 -9 13 -22 9 -33 -7 -16 -8 -15 -14 2 -7 19 -8 19 -15 1 -11 -31 9
-37 47 -15 33 20 56 50 38 50 -5 0 -11 -7 -15 -15 -3 -8 -9 -15 -15 -15 -13 0
-22 42 -11 55 7 8 6 23 -1 43 -6 17 -9 41 -7 54 5 26 1 33 45 -80 l25 -64 -32
-64 c-22 -46 -37 -64 -51 -64 -15 0 -19 7 -20 33 0 27 -3 23 -23 -33 -12 -36
-32 -84 -44 -106 -30 -59 -128 -180 -196 -241 -79 -72 -98 -72 -258 10 -177
90 -209 115 -289 227 -28 39 -89 138 -89 144 0 3 19 -6 43 -19 67 -36 99 -42
46 -7 -55 35 -88 77 -123 152 -30 63 -32 82 -11 74 9 -4 15 -1 15 7 0 15 52
43 83 45 18 1 22 -7 10 -20 -4 -3 -7 -15 -8 -25 -1 -18 2 -17 63 6 l65 24 41
-38 c22 -21 42 -39 45 -40 9 -5 -39 -66 -65 -84 -42 -28 -12 -23 48 7 86 44
141 108 195 229 l22 50 1 -65 c0 -44 -5 -73 -16 -88 -25 -37 2 -25 36 16 18
22 39 67 52 110 13 45 29 77 40 83 12 6 18 6 18 0 0 -6 8 -8 18 -4 16 6 16 5
0 -14 -10 -11 -18 -25 -18 -31 0 -7 -5 -12 -12 -12 -6 0 -9 -2 -6 -5 7 -8 151
24 163 36 7 7 5 8 -6 4 -9 -3 -16 -1 -16 7 0 7 -4 21 -8 30 -5 13 0 17 22 21
15 2 32 5 37 6 4 0 6 -6 2 -14z m-116 -35 c-8 -5 -11 -12 -7 -17 5 -4 16 3 26
16 13 16 20 20 25 12 14 -21 -2 -38 -40 -44 -51 -8 -59 0 -27 29 14 13 29 22
32 19 3 -4 -1 -10 -9 -15z m-570 -9 c15 -30 13 -36 -22 -49 -17 -6 -29 -14
-26 -17 3 -3 17 0 31 6 26 12 57 7 57 -10 0 -5 -15 -12 -33 -15 -19 -3 -59
-22 -90 -40 -50 -30 -73 -36 -49 -12 4 4 7 11 8 14 5 65 17 90 57 115 49 32
53 33 67 8z m80 -131 c6 -11 7 -20 2 -20 -6 0 -12 9 -15 20 -3 11 -3 20 -1 20
2 0 8 -9 14 -20z m-20 -22 c0 -9 -71 -40 -77 -34 -8 8 28 55 45 58 16 4 32 -8
32 -24z m-538 -85 c-26 -127 2 -265 68 -328 16 -16 27 -32 24 -37 -9 -14 -103
-9 -134 7 -16 8 -34 24 -40 34 -14 27 -12 105 4 173 15 63 76 218 86 218 4 0
0 -30 -8 -67z m1307 -27 c-9 -8 -10 -7 -5 7 3 10 7 24 7 30 1 7 3 4 6 -7 3
-10 -1 -23 -8 -30z m-929 -155 c0 -8 7 -23 17 -33 23 -25 9 -34 -22 -14 -14 9
-25 12 -25 7 0 -13 46 -41 69 -41 20 0 69 -66 57 -77 -7 -8 -74 38 -109 75
-22 23 -29 43 -36 97 l-8 69 29 -34 c15 -19 28 -41 28 -49z m1075 -62 c-8 -58
-27 -83 -77 -104 -41 -17 -49 -8 -19 19 11 10 34 51 52 91 38 83 56 81 44 -6z
m-1295 -5 c29 -96 28 -108 -12 -100 -60 12 -73 57 -38 126 11 22 22 40 25 40
2 0 13 -30 25 -66z m-690 15 l51 -11 -40 -29 c-40 -28 -40 -28 -127 -18 -48 5
-94 7 -101 5 -22 -9 -14 13 11 29 46 30 131 40 206 24z m175 -19 c-3 -5 -13
-10 -21 -10 -8 0 -14 5 -14 10 0 6 9 10 21 10 11 0 17 -4 14 -10z m1971 -58
c-8 -7 -24 7 -47 41 l-22 32 36 -34 c20 -19 35 -37 33 -39z m-48 -35 c45 -51
45 -53 20 -135 l-10 -34 -112 5 c-150 7 -176 13 -221 52 l-39 32 53 12 c84 18
148 50 191 97 22 24 40 49 41 56 0 7 8 2 17 -12 9 -13 36 -46 60 -73z m-2213
-29 c-16 -12 -54 -41 -86 -65 l-58 -42 -7 36 c-4 20 -3 48 2 62 9 24 14 26 89
31 44 3 82 4 84 3 2 -2 -9 -13 -24 -25z m2546 2 c52 -21 138 -78 139 -92 0
-15 -65 -41 -102 -41 -71 0 -274 117 -261 150 9 22 150 12 224 -17z m-764
-158 c-10 -106 -3 -191 19 -218 15 -18 15 -18 8 1 -4 11 -9 49 -11 85 l-4 65
26 -30 c82 -94 143 -207 165 -307 11 -49 10 -74 -4 -170 -17 -111 -52 -256
-65 -270 -7 -8 -161 41 -211 67 l-35 19 60 8 c115 15 175 44 175 83 0 14 -6
25 -12 25 -123 0 -368 9 -376 14 -23 14 4 56 57 88 68 41 82 61 59 84 -14 15
-21 15 -48 4 -42 -17 -80 2 -80 40 0 14 -7 51 -16 80 -14 46 -30 68 -110 148
-79 79 -93 98 -87 116 5 12 8 41 7 66 l-1 45 115 -57 c149 -75 171 -79 223
-42 23 15 66 56 96 91 31 35 57 62 58 61 1 -2 -2 -45 -8 -96z m36 53 c-7 -21
-12 -19 -10 4 0 11 5 18 9 15 4 -3 5 -11 1 -19z m72 -15 c3 -5 1 -10 -4 -10
-6 0 -11 5 -11 10 0 6 2 10 4 10 3 0 8 -4 11 -10z m192 -27 c64 -4 85 -8 99
-24 17 -18 16 -20 -7 -46 -24 -26 -10 -23 23 5 16 13 22 11 63 -22 50 -42 56
-58 80 -213 16 -107 20 -376 7 -448 l-8 -40 -61 145 c-34 80 -69 164 -77 186
-23 66 -44 104 -103 183 -33 43 -61 93 -68 121 l-12 47 56 18 c61 19 115 44
109 50 -2 3 -31 -6 -63 -19 -104 -41 -103 -41 -118 -4 -8 18 -21 39 -30 47
-25 20 -21 35 6 26 12 -5 59 -10 104 -12z m-1066 -93 c20 0 7 -28 -28 -62 -25
-23 -47 -36 -64 -36 -26 0 -26 1 12 39 22 22 39 46 39 55 0 11 5 14 16 10 9
-3 20 -6 25 -6z m304 -150 c71 -73 85 -94 103 -150 27 -88 32 -109 22 -115 -4
-3 -15 27 -24 66 -23 100 -40 130 -107 189 -56 49 -129 142 -129 165 0 5 12
-8 26 -30 15 -22 64 -78 109 -125z m-251 134 c9 -3 16 -11 16 -16 0 -6 -7 -5
-15 2 -9 7 -17 11 -19 9 -46 -61 -56 -78 -45 -85 7 -4 19 2 28 13 17 22 61 37
61 22 0 -5 -10 -9 -23 -9 -12 0 -28 -9 -35 -20 -14 -22 -32 -26 -49 -9 -9 9
-2 23 25 55 20 24 37 44 38 44 1 0 9 -3 18 -6z m215 -187 c39 -42 71 -83 71
-90 0 -6 -6 -3 -12 8 -6 11 -42 52 -79 92 -38 40 -77 90 -89 112 -30 60 -24
63 9 6 16 -27 61 -85 100 -128z m-797 74 c-9 -2 -36 -16 -59 -32 -23 -16 -46
-29 -51 -29 -6 0 -12 -3 -15 -7 -2 -5 -2 -3 -1 4 4 17 -13 26 -20 11 -3 -7 -3
0 1 16 4 18 1 31 -8 37 -16 9 -12 10 87 12 50 2 60 5 56 17 -2 8 2 6 11 -5 14
-18 14 -20 -1 -24z m188 29 c13 -8 13 -10 -2 -10 -9 0 -20 5 -23 10 -8 13 5
13 25 0z m424 -22 c3 -13 6 -50 6 -83 0 -33 5 -77 11 -98 12 -44 13 -42 -24
-51 -26 -6 -28 -5 -22 15 4 11 8 31 9 43 2 13 7 29 11 36 5 9 4 11 -3 6 -7 -4
-12 -2 -12 3 0 6 5 11 10 11 20 0 9 37 -19 69 -25 28 -28 36 -18 52 16 26 43
24 51 -3z m-209 2 c3 -5 1 -10 -4 -10 -6 0 -11 5 -11 10 0 6 2 10 4 10 3 0 8
-4 11 -10z m50 0 c8 -13 -5 -13 -25 0 -13 8 -13 10 2 10 9 0 20 -4 23 -10z
m35 -11 c0 -6 -4 -7 -10 -4 -5 3 -10 11 -10 16 0 6 5 7 10 4 6 -3 10 -11 10
-16z m-309 -7 c-7 -2 -18 1 -23 6 -8 8 -4 9 13 5 13 -4 18 -8 10 -11z m57 -19
c-10 -2 -26 -2 -35 0 -10 3 -2 5 17 5 19 0 27 -2 18 -5z m317 -12 c3 -5 1 -12
-4 -15 -5 -3 -11 1 -15 9 -6 16 9 21 19 6z m-270 -11 c-3 -5 -12 -7 -20 -3
-21 7 -19 13 6 13 11 0 18 -4 14 -10z m45 -10 c-8 -5 -13 -10 -10 -11 30 -6
50 -4 50 5 0 6 4 5 9 -3 5 -8 17 -11 32 -7 23 7 23 7 5 -8 -25 -20 -36 -20
-88 1 -35 14 -38 18 -22 24 28 11 42 10 24 -1z m-100 -10 c0 -5 -2 -10 -4 -10
-3 0 -8 5 -11 10 -3 6 -1 10 4 10 6 0 11 -4 11 -10z m350 -9 c0 -11 -3 -22 -7
-24 -5 -3 -8 6 -8 19 0 13 3 24 8 24 4 0 7 -9 7 -19z m-255 -31 c12 -19 -14
-10 -42 16 l-28 25 32 -15 c17 -9 35 -20 38 -26z m131 15 c-11 -8 -24 -15 -30
-15 -5 0 -1 7 10 15 10 8 24 14 29 14 6 0 1 -6 -9 -14z m54 6 c0 -5 -7 -12
-16 -15 -14 -5 -15 -4 -4 9 14 17 20 19 20 6z m35 -11 c-3 -5 -11 -10 -16 -10
-6 0 -7 5 -4 10 3 6 11 10 16 10 6 0 7 -4 4 -10z m-240 -31 c4 -6 14 -8 22 -5
8 3 11 1 8 -4 -9 -15 -31 -12 -45 5 -8 9 -9 15 -2 15 6 0 14 -5 17 -11z m198
-1 c-6 -11 5 -10 29 3 19 10 20 9 14 -12 -4 -13 -8 -33 -8 -44 0 -11 -2 -15
-5 -9 -3 9 -12 9 -32 1 -28 -10 -63 -5 -91 12 -22 15 14 50 43 44 16 -3 18 -2
9 5 -10 7 -5 9 16 8 17 -1 28 -4 25 -8z m1055 -28 c-1 -22 -2 -39 -2 -38 -1 2
-8 12 -16 22 -10 13 -10 17 -2 12 8 -5 12 1 12 18 0 14 2 26 5 26 3 0 4 -18 3
-40z m-983 -10 c3 -6 -1 -7 -9 -4 -18 7 -21 14 -7 14 6 0 13 -4 16 -10z m187
-102 l48 -48 -50 0 -49 0 -21 69 c-25 85 -25 94 2 56 12 -16 43 -51 70 -77z
m128 50 c6 -24 14 -52 17 -63 3 -11 2 -16 -3 -12 -7 7 -32 89 -34 110 -1 22
11 1 20 -35z m672 -116 l-21 -67 1 60 c0 42 2 52 7 35 8 -25 8 -25 15 7 5 23
3 39 -7 54 l-15 21 -5 -23 c-3 -18 -4 -17 -2 4 1 15 -2 30 -7 33 -4 3 -8 12
-8 21 0 9 14 -5 31 -31 l32 -47 -21 -67z m-1302 124 c0 -3 -4 -8 -10 -11 -5
-3 -10 -1 -10 4 0 6 5 11 10 11 6 0 10 -2 10 -4z m147 -30 c19 -29 20 -35 7
-40 -29 -11 -44 -6 -44 14 0 22 15 27 23 8 4 -10 6 -10 6 -1 1 7 -8 17 -19 23
-11 6 -18 15 -15 21 10 15 19 10 42 -25z m126 19 c-7 -19 -58 -47 -67 -37 -4
3 -11 1 -15 -6 -5 -9 -11 -5 -19 12 -11 24 -10 24 21 20 18 -3 43 2 57 10 14
8 26 14 27 15 1 1 0 -6 -4 -14z m44 -45 c3 -44 -21 -69 -67 -68 -46 0 -53 18
-15 38 19 10 22 16 13 22 -9 6 -5 7 9 3 24 -7 44 19 35 45 -5 13 -4 13 9 0 8
-8 15 -26 16 -40z m64 28 c1 -7 1 -16 0 -20 0 -5 5 -7 12 -5 7 1 13 -10 15
-25 2 -16 0 -28 -5 -28 -4 -1 -27 -5 -50 -9 -47 -9 -50 -6 -28 23 8 11 15 32
15 48 0 21 5 28 20 28 11 0 21 -6 21 -12z m404 -8 c3 -5 -1 -10 -9 -10 -9 0
-16 5 -16 10 0 6 4 10 9 10 6 0 13 -4 16 -10z m98 -10 c4 -14 -3 -25 -26 -39
-37 -22 -200 -102 -202 -98 -1 1 -11 18 -22 38 l-21 37 57 15 c31 8 88 27 126
40 87 31 82 31 88 7z m-868 -30 c3 -5 1 -10 -4 -10 -6 0 -11 5 -11 10 0 6 2
10 4 10 3 0 8 -4 11 -10z m185 -52 c0 -5 -20 -8 -45 -8 -34 0 -45 4 -45 16 0
8 4 13 8 10 5 -3 22 -2 38 3 27 7 43 -1 44 -21z m130 -33 c4 -3 13 2 20 10 22
26 110 13 110 -16 0 -6 -7 -3 -16 5 -17 18 -84 22 -84 6 0 -15 59 -38 87 -35
12 1 20 -2 17 -6 -3 -5 -12 -9 -21 -9 -9 0 -13 -3 -10 -7 4 -3 2 -12 -4 -19
-5 -7 -11 -32 -12 -55 -2 -39 1 -44 27 -53 24 -9 31 -7 47 12 14 18 16 29 9
48 -6 14 -6 24 -1 24 19 0 23 -60 7 -85 -19 -29 -36 -31 -75 -11 l-28 15 -11
-70 c-10 -67 -35 -115 -53 -103 -5 3 -9 0 -9 -5 0 -6 -10 -11 -22 -11 -23 1
-23 1 2 14 14 8 29 12 34 9 5 -4 6 -1 2 6 -4 6 -3 18 4 26 6 7 18 60 26 117 8
57 17 115 20 129 6 29 -9 38 -99 60 -26 6 -49 15 -52 19 -5 8 71 -6 85 -15z
m-94 3 c5 -3 41 -15 80 -27 l71 -21 -13 -58 c-8 -31 -14 -75 -14 -97 0 -109
-43 -156 -122 -134 -31 8 -38 13 -27 20 10 6 6 9 -16 9 -38 0 -53 -10 -261
-172 -238 -185 -339 -275 -488 -437 -143 -155 -125 -144 -291 -171 -105 -17
-121 -14 -135 23 -6 17 -14 79 -17 137 -6 114 3 147 78 310 l30 65 137 74
c197 107 389 222 525 315 146 100 126 88 227 134 75 34 93 39 156 37 38 -1 74
-4 80 -7z m1021 -20 c-3 -7 -5 -2 -5 12 0 14 2 19 5 13 2 -7 2 -19 0 -25z
m-672 -18 c10 -11 16 -20 13 -20 -3 0 -13 9 -23 20 -10 11 -16 20 -13 20 3 0
13 -9 23 -20z m471 -33 c52 0 94 -2 94 -4 0 -18 -26 -43 -53 -52 -56 -19 -307
-55 -307 -45 0 2 5 15 10 30 7 19 8 37 1 57 l-11 29 86 -7 c48 -4 129 -8 180
-8z m672 1 c17 -17 15 -73 -3 -88 -9 -7 -14 -19 -11 -27 3 -7 1 -13 -3 -13
-13 0 -21 27 -21 70 0 63 13 83 38 58z m-1123 -28 c-3 -5 -11 -10 -16 -10 -6
0 -7 5 -4 10 3 6 11 10 16 10 6 0 7 -4 4 -10z m1193 -22 c18 -18 16 -118 -3
-118 -8 0 -15 -6 -15 -12 0 -8 -5 -6 -10 4 -14 23 -19 77 -9 84 5 3 9 16 9 30
0 26 9 31 28 12z m-461 -289 l96 -196 -48 -127 c-26 -70 -60 -174 -76 -233
-16 -58 -40 -122 -54 -142 -24 -36 -153 -203 -291 -378 l-70 -90 -23 66 c-13
36 -46 125 -73 196 l-50 130 22 175 c12 96 27 178 33 182 5 3 16 4 23 1 19 -7
54 15 54 35 0 10 -15 33 -33 51 l-34 32 -2 139 -2 138 103 -5 c57 -3 105 -7
107 -10 3 -2 8 -64 11 -138 3 -74 10 -138 14 -142 10 -10 23 14 30 56 4 20 20
72 35 116 72 198 72 207 1 219 -22 3 -40 10 -40 14 0 4 -34 30 -75 57 -41 28
-77 56 -80 63 -3 9 0 10 13 3 27 -15 223 -81 238 -81 16 0 28 23 45 90 l12 45
9 -35 c5 -19 52 -123 105 -231z m-527 189 c0 -33 4 -33 -77 0 -24 9 -43 19
-43 22 0 3 27 6 60 7 l60 1 0 -30z m934 -30 c3 -17 9 -28 12 -25 12 12 46 -43
39 -61 -6 -13 -9 -10 -17 16 -11 41 -38 43 -38 3 0 -33 -16 -49 -32 -33 -6 6
-13 31 -15 56 -5 38 -3 46 11 46 9 0 16 7 16 15 0 28 17 15 24 -17z m86 -48
c6 -11 9 -20 7 -20 -2 0 -12 9 -22 20 -10 11 -13 20 -7 20 6 0 16 -9 22 -20z
m-779 -40 c110 -16 132 -33 85 -63 -19 -13 -36 -14 -97 -6 -196 24 -239 35
-210 54 5 3 12 18 16 34 l6 29 58 -18 c32 -10 96 -24 142 -30z m-907 -14 c-4
-9 20 -34 68 -69 57 -43 84 -57 123 -62 28 -4 65 -13 83 -21 30 -12 32 -12 32
9 0 19 -19 32 -110 77 -60 30 -108 55 -106 57 1 2 53 -20 114 -49 l111 -53 1
-52 0 -52 -37 14 c-82 29 -113 46 -194 107 -124 93 -117 86 -99 98 20 13 20
13 14 -4z m1826 -23 c75 -22 131 -56 116 -71 -16 -15 -212 52 -226 77 -13 25
8 24 110 -6z m-1232 6 c26 -7 50 -15 55 -19 4 -3 6 -73 5 -154 l-3 -148 -35
43 c-19 24 -33 53 -32 65 1 12 -7 29 -18 39 -11 10 -20 23 -20 30 0 6 -11 22
-24 34 -36 33 -50 74 -36 100 12 24 39 26 108 10z m1150 -98 c23 -12 68 -28
100 -35 l57 -13 -46 -23 -46 -23 -64 33 c-95 48 -115 70 -87 98 9 9 15 9 27
-2 9 -8 35 -23 59 -35z m-2761 -35 c-34 -37 -116 -230 -145 -341 -30 -119 -47
-146 -38 -60 17 150 143 425 195 425 5 0 0 -11 -12 -24z m43 -1 c-33 -19 -49
-19 -24 0 10 8 26 14 34 14 9 0 4 -6 -10 -14z m1434 -113 c42 -54 99 -115 126
-136 28 -21 50 -44 50 -52 0 -43 -54 -400 -75 -499 -25 -117 -103 -406 -111
-414 -10 -11 -314 -127 -314 -120 0 4 7 36 15 71 8 35 30 158 49 273 34 206
48 259 120 460 34 96 36 105 36 236 0 156 10 290 20 284 4 -2 42 -49 84 -103z
m-1567 66 c-58 -77 -129 -263 -142 -369 l-6 -57 -75 -27 c-41 -15 -77 -32 -80
-37 -9 -14 37 1 174 59 7 3 12 -3 12 -14 0 -33 29 -120 48 -143 16 -20 31 -23
115 -29 53 -3 97 -3 97 1 0 5 9 8 21 8 17 0 14 -6 -21 -35 -44 -37 -77 -50
-107 -42 -11 3 -5 5 13 6 17 0 44 11 60 24 l29 22 -93 5 c-76 4 -95 9 -113 26
l-21 21 -91 -31 -92 -31 55 -6 55 -6 -51 -1 c-31 -1 -56 3 -62 11 -15 19 -44
157 -42 207 1 66 46 257 72 309 21 43 31 50 138 103 63 31 119 57 123 57 4 1
-3 -14 -16 -31z m2446 7 c-3 -9 -8 -14 -10 -11 -3 3 -2 9 2 15 9 16 15 13 8
-4z m714 -1 c-3 -3 -12 -4 -19 -1 -8 3 -5 6 6 6 11 1 17 -2 13 -5z m-1395
-167 c52 -58 68 -81 60 -89 -16 -16 -55 20 -47 41 5 13 4 13 -6 4 -10 -10 -9
-17 6 -33 33 -37 3 -21 -65 34 -58 47 -140 141 -140 160 0 3 6 6 14 6 8 0 24
9 37 19 l24 19 23 -42 c13 -22 55 -76 94 -119z m598 -77 c-32 -102 -68 -218
-80 -258 -15 -54 -31 -85 -59 -115 -21 -23 -78 -98 -127 -167 -49 -69 -118
-167 -154 -218 -36 -50 -68 -92 -72 -92 -5 0 -8 11 -8 24 0 15 28 60 73 116
173 222 299 387 312 411 8 15 26 69 39 121 14 51 44 143 66 203 55 148 62 166
66 162 2 -1 -24 -86 -56 -187z m-1363 61 c54 -55 123 -85 218 -96 90 -9 105
-14 105 -31 0 -10 -6 -13 -17 -10 -10 3 -63 15 -118 26 -138 28 -177 44 -214
90 -27 34 -41 70 -26 70 3 0 26 -22 52 -49z m-37 -35 c24 -40 82 -63 244 -96
55 -11 102 -22 104 -25 2 -2 2 -10 -1 -18 -4 -11 -30 -7 -135 19 -72 18 -144
40 -160 48 -34 18 -82 71 -82 92 0 22 6 17 30 -20z m1635 -3 c10 -16 11 -22 4
-15 -12 11 -16 1 -26 -65 l-11 -78 5 80 c4 44 6 86 6 93 0 17 2 16 22 -15z
m124 -170 c50 -67 86 -125 81 -128 -6 -3 -10 -1 -10 5 0 6 -37 62 -83 123 -46
62 -87 119 -92 127 -17 32 16 -8 104 -127z m-2741 -160 c8 -15 24 -23 50 -26
l37 -4 -41 -1 c-22 -1 -48 4 -58 11 -22 16 -48 122 -39 162 5 26 8 20 23 -45
9 -41 21 -85 28 -97z m2572 94 c-7 -29 -17 -59 -22 -67 -8 -12 -9 -12 -4 2 3
9 11 45 18 78 7 34 14 57 16 51 2 -7 -2 -35 -8 -64z m-2205 -29 c-3 -8 -12
-15 -20 -15 -13 0 -12 4 2 19 18 20 26 19 18 -4z m-45 -43 c0 -7 -39 -26 -63
-31 -12 -2 -56 -6 -97 -9 l-75 -5 85 14 c47 8 96 19 110 25 28 11 40 13 40 6z
m2592 -94 c11 -18 13 -32 7 -46 -9 -18 -9 -18 -5 2 2 13 -4 33 -13 45 -10 13
-30 41 -45 63 l-28 40 35 -39 c19 -21 41 -51 49 -65z m-387 19 c-9 -28 -19
-50 -21 -48 -2 2 4 27 13 56 9 28 19 50 21 47 2 -2 -4 -27 -13 -55z m385 -92
l39 -38 4 28 c3 19 4 16 6 -14 1 -51 -47 -151 -96 -199 -66 -64 -122 -91 -254
-124 -130 -32 -151 -36 -133 -23 5 4 23 43 38 87 29 82 128 298 172 372 l24
42 81 -47 c44 -26 97 -64 119 -84z m-2930 22 c34 -6 25 -7 -35 -3 -44 3 -82 7
-84 9 -8 7 73 3 119 -6z m2499 -69 c-7 -23 -14 -39 -16 -37 -3 2 1 23 8 45 7
23 14 39 16 37 3 -2 -1 -23 -8 -45z m-30 -105 c-6 -26 -13 -45 -16 -43 -2 3 1
26 8 51 6 26 13 45 16 43 2 -3 -1 -26 -8 -51z m-691 -126 c34 -52 62 -102 62
-111 0 -17 -294 -289 -312 -289 -3 0 -2 15 0 33 3 19 16 42 33 57 25 21 36 53
81 218 29 105 57 191 63 189 5 -2 38 -46 73 -97z m660 12 c-6 -29 -13 -50 -16
-47 -2 2 1 27 8 55 7 28 14 49 16 47 3 -2 -1 -27 -8 -55z m-21 -94 c-3 -7 -5
-2 -5 12 0 14 2 19 5 13 2 -7 2 -19 0 -25z m-1931 -64 c-14 -26 -15 -27 -16
-7 0 33 11 56 22 45 6 -6 4 -20 -6 -38z m1928 31 c3 -8 1 -15 -4 -15 -6 0 -10
7 -10 15 0 8 2 15 4 15 2 0 6 -7 10 -15z m51 5 c-27 -12 -43 -12 -25 0 8 5 22
9 30 9 10 0 8 -3 -5 -9z m75 -53 c-12 -32 -31 -62 -46 -72 -34 -22 -104 -46
-104 -36 0 5 17 12 37 16 33 6 93 54 93 75 0 15 31 82 36 77 3 -2 -5 -29 -16
-60z m-665 13 c-10 -11 -22 -17 -28 -13 -5 3 -7 1 -4 -4 14 -23 -301 -292
-324 -277 -7 4 -9 3 -5 -4 8 -14 -96 -77 -153 -92 -25 -6 -58 -9 -73 -6 -18 3
-27 2 -23 -4 4 -6 -21 -10 -67 -9 -59 0 -68 2 -48 10 14 6 39 9 57 7 17 -1 35
1 39 5 4 4 30 7 58 7 84 0 176 59 373 239 135 124 207 181 212 169 1 -5 -5
-18 -14 -28z m621 1 c-14 -25 -100 -80 -111 -70 -2 2 -1 16 2 32 5 25 27 41
83 60 36 12 41 8 26 -22z m-1912 -78 c64 -80 130 -130 185 -138 62 -11 67 -13
31 -14 -72 -2 -157 57 -240 164 -36 47 -45 53 -58 43 -13 -12 -14 -10 -3 11 7
13 16 19 20 15 4 -5 33 -41 65 -81z m1006 2 c0 -3 -6 -20 -14 -39 -10 -24 -28
-39 -71 -60 -112 -53 -338 -117 -405 -115 -19 1 -27 3 -17 6 9 2 24 17 32 33
12 23 24 29 74 38 32 6 132 40 222 75 169 67 179 71 179 62z m-548 -162 c-40
-2 -103 -2 -140 0 -37 2 -4 3 73 3 77 0 107 -2 67 -3z m6 -60 c-10 -2 -28 -2
-40 0 -13 2 -5 4 17 4 22 1 32 -1 23 -4z m-69 -67 c22 -34 29 -68 12 -50 -12
11 -43 84 -37 84 2 0 14 -15 25 -34z m21 19 c0 -8 -2 -15 -4 -15 -2 0 -6 7
-10 15 -3 8 -1 15 4 15 6 0 10 -7 10 -15z m95 -65 c-11 -5 -33 -9 -50 -9 -26
0 -27 2 -10 9 11 5 34 9 50 9 26 0 27 -2 10 -9z m1268 -229 c-1 -2 -17 7 -35
20 -18 12 -34 23 -36 24 -1 1 10 21 25 45 l28 42 10 -64 c6 -34 10 -65 8 -67z
m-1526 87 c-3 -8 -6 -5 -6 6 -1 11 2 17 5 13 3 -3 4 -12 1 -19z m1561 -53 l1
-20 -9 20 c-5 11 -8 31 -8 45 l0 25 8 -25 c4 -14 8 -34 8 -45z m-1567 -70 c1
-83 -1 -94 -25 -129 -31 -46 -35 -38 -5 11 19 30 21 48 20 126 -1 50 0 89 3
87 3 -3 6 -46 7 -95z m1485 48 c29 -21 54 -45 54 -53 -1 -12 -3 -11 -11 3 -6
9 -33 33 -62 52 -28 19 -48 35 -44 35 5 0 33 -17 63 -37z m-1328 -72 c9 -5 15
-11 12 -14 -9 -7 -124 -37 -128 -32 -2 2 -1 31 3 64 l7 60 44 -34 c25 -19 53
-39 62 -44z m1472 22 c0 -8 -38 17 -51 33 -9 11 -2 9 19 -6 17 -13 32 -25 32
-27z m-70 -30 c0 -5 -5 -15 -10 -23 -8 -12 -10 -11 -10 8 0 12 5 22 10 22 6 0
10 -3 10 -7z m-1380 -28 c0 -7 -81 -27 -87 -21 -3 3 10 9 28 15 39 11 59 13
59 6z m1440 -5 c0 -5 -4 -10 -10 -10 -5 0 -10 5 -10 10 0 6 5 10 10 10 6 0 10
-4 10 -10z m110 -22 c0 -6 -6 -5 -15 2 -8 7 -15 14 -15 16 0 2 7 1 15 -2 8 -4
15 -11 15 -16z m-54 -16 c-8 -9 -19 -13 -22 -9 -10 9 16 38 28 31 6 -4 4 -13
-6 -22z m-452 -75 l-37 -75 -98 47 c-54 25 -98 49 -98 52 -1 4 29 10 67 14 37
4 96 14 132 24 36 9 66 16 68 15 2 -1 -14 -35 -34 -77z m564 64 c15 -10 79
-47 142 -81 142 -77 183 -106 260 -176 80 -75 133 -179 138 -274 4 -60 1 -69
-22 -97 -27 -32 -38 -36 -205 -68 -47 -9 -97 -23 -112 -31 -32 -16 -49 -18
-49 -5 0 16 100 48 204 65 111 19 129 26 152 61 24 37 15 128 -20 198 -55 114
-161 203 -386 326 -100 54 -164 100 -142 101 8 0 26 -8 40 -19z m-1363 -91
c55 -55 95 -100 90 -100 -6 0 -55 45 -110 100 -55 55 -95 100 -90 100 6 0 55
-45 110 -100z m1065 35 c-29 -73 -37 -65 -9 9 12 31 24 54 27 52 2 -3 -6 -30
-18 -61z m110 55 c0 -5 -2 -10 -4 -10 -3 0 -8 5 -11 10 -3 6 -1 10 4 10 6 0
11 -4 11 -10z m-581 -72 c80 -40 148 -74 150 -75 11 -7 -144 -164 -203 -206
-64 -46 -68 -47 -94 -33 -15 9 -23 15 -19 16 5 0 17 -4 27 -10 15 -8 29 -2 70
31 69 54 200 179 200 190 0 5 -64 41 -142 80 l-141 71 -61 -43 c-34 -24 -98
-67 -143 -97 -46 -30 -83 -59 -83 -63 0 -5 36 -30 80 -55 44 -26 80 -49 80
-51 0 -7 -110 55 -147 84 l-33 24 68 51 c61 47 230 158 240 158 2 0 70 -33
151 -72z m770 37 c22 -13 86 -50 143 -81 120 -66 223 -140 269 -191 52 -60 99
-169 99 -231 0 -43 -5 -58 -25 -77 -13 -14 -28 -25 -33 -25 -37 0 -229 -42
-266 -58 l-46 -21 -15 22 c-13 19 -13 22 0 30 9 4 12 13 9 19 -4 7 -2 8 4 4
18 -11 49 11 66 45 19 37 19 40 7 37 -5 -2 -8 2 -7 7 0 6 7 9 13 9 7 -1 11 2
8 6 -3 5 -1 11 4 15 15 9 11 107 -5 129 -8 11 -14 15 -14 8 0 -7 -4 -10 -10
-7 -16 10 -12 38 5 31 11 -4 13 -1 6 12 -5 9 -18 38 -31 65 -12 26 -26 47 -31
47 -5 0 -9 6 -9 13 0 13 -82 101 -153 165 -33 29 -47 52 -32 52 3 0 23 -11 44
-25z m-1314 -4 c33 -6 106 -12 162 -13 57 -2 103 -4 103 -4 0 -4 -176 -133
-186 -136 -6 -2 -48 37 -95 86 -47 50 -75 86 -64 83 11 -3 47 -11 80 -16z
m1100 -1 c3 -5 1 -10 -4 -10 -6 0 -11 5 -11 10 0 6 2 10 4 10 3 0 8 -4 11 -10z
m-1532 -17 c2 -10 8 -27 13 -37 5 -13 4 -17 -3 -13 -14 9 -35 67 -24 67 5 0
11 -8 14 -17z m1707 -5 c0 -16 -3 -19 -11 -11 -6 6 -8 16 -5 22 11 17 16 13
16 -11z m-223 -6 c-10 -10 -15 -21 -12 -24 3 -3 -1 -11 -10 -18 -8 -7 -15 -19
-15 -26 0 -8 -4 -14 -10 -14 -19 0 -10 25 21 63 17 20 33 37 36 37 3 0 -1 -8
-10 -18z m201 -20 c2 -7 -6 -12 -17 -12 -12 0 -21 2 -21 4 0 2 -3 12 -6 20 -5
13 -2 15 17 8 13 -5 25 -14 27 -20z m-1741 12 c-3 -3 -12 -4 -19 -1 -8 3 -5 6
6 6 11 1 17 -2 13 -5z m1559 -21 c-10 -10 -19 5 -10 18 6 11 8 11 12 0 2 -7 1
-15 -2 -18z m241 2 c0 -8 -4 -15 -9 -15 -10 0 -11 14 -1 23 9 10 10 9 10 -8z
m-1673 -72 c14 -29 24 -53 21 -53 -5 0 -55 95 -55 106 0 12 6 2 34 -53z m1659
47 c8 0 8 -3 0 -11 -13 -13 -43 -5 -43 12 0 6 7 8 16 5 9 -3 21 -6 27 -6z
m-553 -10 c0 -5 -5 -10 -11 -10 -5 0 -7 5 -4 10 3 6 8 10 11 10 2 0 4 -4 4
-10z m310 0 c0 -5 -7 -10 -16 -10 -8 0 -12 5 -9 10 3 6 10 10 16 10 5 0 9 -4
9 -10z m310 -22 c0 -6 -6 -5 -15 2 -8 7 -15 14 -15 16 0 2 7 1 15 -2 8 -4 15
-11 15 -16z m-582 -18 c28 -8 52 -17 52 -21 0 -18 -91 -65 -166 -85 l-86 -23
39 42 c21 23 50 57 63 75 13 18 29 31 35 29 5 -2 34 -10 63 -17z m29 14 c-3
-3 -12 -4 -19 -1 -8 3 -5 6 6 6 11 1 17 -2 13 -5z m213 -14 c0 -5 -7 -10 -16
-10 -8 0 -12 5 -9 10 3 6 10 10 16 10 5 0 9 -4 9 -10z m379 -16 c3 -16 1 -17
-13 -5 -19 16 -21 34 -3 29 6 -3 14 -13 16 -24z m-500 6 c25 -7 39 -6 50 2 14
11 15 10 1 -5 -14 -15 -20 -16 -60 -3 -51 16 -43 21 9 6z m477 -25 c18 -15 18
-15 -10 -13 -16 2 -31 9 -34 16 -5 17 20 15 44 -3z m-394 -10 c0 -5 -5 -11
-11 -13 -6 -2 -11 4 -11 13 0 9 5 15 11 13 6 -2 11 -8 11 -13z m456 -15 c3
-21 2 -22 -12 -11 -19 16 -21 44 -3 39 6 -3 14 -15 15 -28z m-488 11 c0 -5 -7
-11 -15 -15 -8 -3 -15 -12 -15 -20 0 -7 -7 -16 -15 -20 -8 -3 -15 -12 -15 -21
0 -8 -5 -15 -10 -15 -6 0 -14 -8 -17 -17 -4 -9 -22 -31 -40 -47 -18 -17 -33
-37 -33 -43 0 -7 -6 -13 -14 -13 -8 0 -18 -9 -21 -20 -3 -11 -12 -20 -19 -20
-8 0 -24 -16 -37 -35 -13 -19 -30 -35 -37 -35 -7 0 -15 -7 -18 -15 -4 -8 -13
-15 -20 -15 -8 0 -17 -7 -20 -15 -4 -8 -12 -15 -20 -15 -7 0 -17 -6 -21 -12
-9 -15 -41 -36 -65 -44 -10 -4 -18 -10 -18 -15 0 -5 -6 -9 -14 -9 -8 0 -22 -7
-30 -16 -9 -8 -20 -13 -25 -9 -5 3 -12 1 -16 -4 -12 -21 -63 -37 -115 -36
l-55 0 1 168 c0 92 -2 165 -4 162 -6 -5 -9 -53 -16 -215 l-4 -105 -34 3 c-18
2 -38 8 -44 13 -6 5 -19 7 -28 3 -9 -3 -16 -1 -16 5 0 6 -8 11 -19 11 -10 0
-24 7 -31 15 -7 8 -16 12 -21 9 -5 -3 -12 2 -15 10 -3 9 -14 16 -24 16 -10 0
-20 7 -24 15 -3 8 -12 15 -19 15 -8 0 -20 7 -27 15 -7 8 -16 12 -21 9 -5 -3
-9 -1 -9 4 0 5 -26 29 -57 52 -32 24 -60 44 -62 46 -2 2 6 16 18 32 12 17 21
34 21 39 0 4 -9 -5 -20 -22 -11 -16 -24 -30 -30 -29 -5 1 -17 2 -25 3 -8 0
-15 9 -15 19 0 13 27 104 36 120 1 1 50 -11 110 -27 165 -46 220 -51 371 -38
123 12 136 11 168 -6 36 -18 36 -18 66 7 16 14 46 28 67 32 20 3 74 14 120 24
76 15 84 16 93 1 10 -15 10 -15 6 0 -4 11 8 22 36 36 23 11 62 37 85 57 40 33
92 48 92 27z m-1240 -103 c8 -3 12 -8 9 -12 -7 -8 -117 85 -118 100 -1 6 20
-10 47 -36 26 -26 54 -49 62 -52z m267 96 c-3 -3 -12 -4 -19 -1 -8 3 -5 6 6 6
11 1 17 -2 13 -5z m114 -10 c7 -8 47 -34 88 -57 90 -49 86 -52 -84 -44 -89 4
-147 13 -225 35 -116 32 -117 31 30 47 30 3 78 12 105 20 66 18 70 18 86 -1z
m-186 -4 c-16 -4 -48 -8 -70 -8 l-40 1 35 7 c19 4 51 7 70 8 l35 0 -30 -8z
m1517 -18 c11 -13 10 -15 -5 -9 -10 4 -25 7 -33 7 -8 0 -14 6 -14 14 0 18 34
10 52 -12z m-471 -5 c-13 -13 -26 -3 -16 12 3 6 11 8 17 5 6 -4 6 -10 -1 -17z
m519 -13 c0 -14 -4 -23 -10 -19 -5 3 -10 15 -10 26 0 10 5 19 10 19 6 0 10
-12 10 -26z m-2260 -3 c0 -6 -4 -13 -10 -16 -5 -3 -10 1 -10 9 0 9 5 16 10 16
6 0 10 -4 10 -9z m387 -13 c-3 -8 -6 -5 -6 6 -1 11 2 17 5 13 3 -3 4 -12 1
-19z m-437 2 c0 -5 -4 -10 -10 -10 -5 0 -10 5 -10 10 0 6 5 10 10 10 6 0 10
-4 10 -10z m100 0 c0 -5 -4 -10 -10 -10 -5 0 -10 5 -10 10 0 6 5 10 10 10 6 0
10 -4 10 -10z m1656 -17 c-10 -10 -19 5 -10 18 6 11 8 11 12 0 2 -7 1 -15 -2
-18z m528 8 c18 -19 17 -20 -10 -12 -15 4 -29 12 -32 19 -6 19 23 14 42 -7z
m-2330 -12 c-3 -5 -10 -7 -15 -3 -5 3 -7 10 -3 15 3 5 10 7 15 3 5 -3 7 -10 3
-15z m196 11 c0 -5 -4 -10 -10 -10 -5 0 -10 5 -10 10 0 6 5 10 10 10 6 0 10
-4 10 -10z m50 -10 c0 -5 -4 -10 -10 -10 -5 0 -10 5 -10 10 0 6 5 10 10 10 6
0 10 -4 10 -10z m2140 -22 c0 -17 -3 -18 -14 -8 -8 6 -12 18 -9 26 7 19 23 7
23 -18z m-2094 -5 c-10 -10 -19 5 -10 18 6 11 8 11 12 0 2 -7 1 -15 -2 -18z
m181 -5 c-3 -8 -6 -5 -6 6 -1 11 2 17 5 13 3 -3 4 -12 1 -19z m769 -26 c-5 -4
-86 36 -86 43 0 3 20 -5 45 -17 24 -12 43 -23 41 -26z m530 21 c-10 -10 -19 5
-10 18 6 11 8 11 12 0 2 -7 1 -15 -2 -18z m592 -11 c3 -9 -3 -9 -20 -3 -13 4
-25 17 -27 27 -3 17 -2 17 20 3 13 -9 25 -21 27 -27z m-2018 18 c0 -5 -4 -10
-10 -10 -5 0 -10 5 -10 10 0 6 5 10 10 10 6 0 10 -4 10 -10z m-356 -21 c-3 -5
-10 -7 -15 -3 -5 3 -7 10 -3 15 3 5 10 7 15 3 5 -3 7 -10 3 -15z m401 1 c3 -5
1 -10 -4 -10 -6 0 -11 5 -11 10 0 6 2 10 4 10 3 0 8 -4 11 -10z m113 -23 c6
-5 12 -15 12 -21 0 -6 -5 -3 -11 7 -5 9 -19 17 -29 17 -11 0 -20 4 -20 10 0
10 27 3 48 -13z m1242 14 c0 -6 -4 -13 -10 -16 -5 -3 -10 1 -10 9 0 9 5 16 10
16 6 0 10 -4 10 -9z m-1305 -11 c3 -5 -1 -10 -10 -10 -9 0 -13 5 -10 10 3 6 8
10 10 10 2 0 7 -4 10 -10z m1936 -21 c8 -16 7 -18 -13 -10 -13 4 -24 16 -26
25 -5 21 25 10 39 -15z m-2371 -5 c0 -8 -5 -12 -10 -9 -6 4 -8 11 -5 16 9 14
15 11 15 -7z m480 -4 c0 -5 -4 -10 -10 -10 -5 0 -10 5 -10 10 0 6 5 10 10 10
6 0 10 -4 10 -10z m83 -10 c3 6 5 6 3 -2 -4 -21 -21 -19 -35 4 -14 23 -13 23
7 5 13 -12 22 -14 25 -7z m1133 -7 c-10 -10 -19 5 -10 18 6 11 8 11 12 0 2 -7
1 -15 -2 -18z m724 -8 c0 -14 -4 -25 -10 -25 -5 0 -10 11 -10 25 0 14 5 25 10
25 6 0 10 -11 10 -25z m-1979 -12 c-12 -20 -14 -14 -5 12 4 9 9 14 11 11 3 -2
0 -13 -6 -23z m79 11 c0 -8 -5 -12 -10 -9 -6 4 -8 11 -5 16 9 14 15 11 15 -7z
m1870 -37 c0 -5 -9 -2 -20 8 -11 10 -20 25 -20 34 1 12 5 10 20 -8 11 -13 20
-28 20 -34z m-2360 22 c0 -6 -4 -7 -10 -4 -5 3 -10 11 -10 16 0 6 5 7 10 4 6
-3 10 -11 10 -16z m460 -4 c7 -8 19 -15 26 -15 8 0 14 -2 14 -4 0 -2 3 -13 6
-23 4 -12 3 -14 -3 -5 -5 6 -24 23 -43 37 -19 14 -29 25 -23 25 6 0 16 -7 23
-15z m1180 6 c0 -6 -4 -13 -10 -16 -5 -3 -10 1 -10 9 0 9 5 16 10 16 6 0 10
-4 10 -9z m-1105 -10 c3 -5 1 -12 -5 -16 -5 -3 -10 1 -10 9 0 18 6 21 15 7z
m-495 -21 c0 -5 -4 -10 -10 -10 -5 0 -10 5 -10 10 0 6 5 10 10 10 6 0 10 -4
10 -10z m357 -12 c-3 -8 -6 -5 -6 6 -1 11 2 17 5 13 3 -3 4 -12 1 -19z m1953
-20 c0 -17 -3 -18 -15 -8 -8 7 -15 21 -15 32 0 17 3 18 15 8 8 -7 15 -21 15
-32z m40 17 c0 -14 -4 -25 -10 -25 -11 0 -14 33 -3 43 11 11 13 8 13 -18z
m-780 6 c0 -5 -7 -11 -15 -15 -9 -3 -15 0 -15 9 0 8 7 15 15 15 8 0 15 -4 15
-9z m-1530 -21 c0 -5 -4 -10 -10 -10 -5 0 -10 5 -10 10 0 6 5 10 10 10 6 0 10
-4 10 -10z m1490 -15 c0 -8 -7 -15 -15 -15 -9 0 -12 6 -9 15 4 8 10 15 15 15
5 0 9 -7 9 -15z m-1079 -22 c-12 -20 -14 -14 -5 12 4 9 9 14 11 11 3 -2 0 -13
-6 -23z m1839 -9 c0 -13 -4 -24 -9 -24 -13 0 -24 37 -16 50 10 16 25 1 25 -26z
m-2205 16 c3 -5 -1 -10 -9 -10 -9 0 -16 5 -16 10 0 6 4 10 9 10 6 0 13 -4 16
-10z m252 -22 c-3 -8 -6 -5 -6 6 -1 11 2 17 5 13 3 -3 4 -12 1 -19z m283 2 c0
-5 -2 -10 -4 -10 -3 0 -8 5 -11 10 -3 6 -1 10 4 10 6 0 11 -4 11 -10z m870 0
c0 -5 -7 -10 -16 -10 -8 0 -12 5 -9 10 3 6 10 10 16 10 5 0 9 -4 9 -10z
m-1360 -10 c0 -5 -4 -10 -9 -10 -6 0 -13 5 -16 10 -3 6 1 10 9 10 9 0 16 -4
16 -10z m197 -92 c-2 -18 -4 -6 -4 27 0 33 2 48 4 33 2 -15 2 -42 0 -60z m333
72 c0 -5 -2 -10 -4 -10 -3 0 -8 5 -11 10 -3 6 -1 10 4 10 6 0 11 -4 11 -10z
m790 0 c0 -5 -7 -10 -16 -10 -8 0 -12 5 -9 10 3 6 10 10 16 10 5 0 9 -4 9 -10z
m-1280 -10 c0 -5 -4 -10 -10 -10 -5 0 -10 5 -10 10 0 6 5 10 10 10 6 0 10 -4
10 -10z m2050 -10 c-6 -11 -13 -20 -16 -20 -2 0 0 9 6 20 6 11 13 20 16 20 2
0 0 -9 -6 -20z m-2000 -10 c0 -5 -4 -10 -9 -10 -6 0 -13 5 -16 10 -3 6 1 10 9
10 9 0 16 -4 16 -10z m480 0 c0 -5 -2 -10 -4 -10 -3 0 -8 5 -11 10 -3 6 -1 10
4 10 6 0 11 -4 11 -10z m710 2 c0 -13 -12 -22 -22 -16 -10 6 -1 24 13 24 5 0
9 -4 9 -8z m880 -2 c0 -5 -5 -10 -11 -10 -5 0 -7 5 -4 10 3 6 8 10 11 10 2 0
4 -4 4 -10z m-2030 -20 c0 -5 -5 -10 -11 -10 -5 0 -7 5 -4 10 3 6 8 10 11 10
2 0 4 -4 4 -10z m148 -38 c-26 -36 -88 -105 -88 -98 0 4 20 31 45 59 25 29 45
58 46 67 0 10 2 11 6 3 2 -7 -1 -21 -9 -31z m342 34 c0 -11 -19 -15 -25 -6 -3
5 1 10 9 10 9 0 16 -2 16 -4z m615 -6 c-3 -5 -10 -10 -16 -10 -5 0 -9 5 -9 10
0 6 7 10 16 10 8 0 12 -4 9 -10z m-575 -20 c0 -5 -5 -10 -11 -10 -5 0 -7 5 -4
10 3 6 8 10 11 10 2 0 4 -4 4 -10z m530 -10 c0 -5 -4 -10 -10 -10 -5 0 -10 5
-10 10 0 6 5 10 10 10 6 0 10 -4 10 -10z m-485 -20 c3 -5 2 -10 -4 -10 -5 0
-13 5 -16 10 -3 6 -2 10 4 10 5 0 13 -4 16 -10z m436 -13 c-13 -13 -26 -3 -16
12 3 6 11 8 17 5 6 -4 6 -10 -1 -17z m-391 -7 c0 -5 -4 -10 -10 -10 -5 0 -10
5 -10 10 0 6 5 10 10 10 6 0 10 -4 10 -10z m-489 -56 c-8 -36 -9 -37 -10 -9
l-1 30 -41 -45 c-40 -43 -41 -46 -36 -100 3 -30 8 -66 11 -80 4 -14 0 -9 -8
10 -8 19 -15 57 -15 83 -1 44 3 52 49 100 27 29 50 57 51 62 0 6 2 6 5 -1 2
-6 0 -28 -5 -50z m839 46 c0 -5 -7 -10 -16 -10 -8 0 -12 5 -9 10 3 6 10 10 16
10 5 0 9 -4 9 -10z m-300 -10 c0 -5 -4 -10 -10 -10 -5 0 -10 5 -10 10 0 6 5
10 10 10 6 0 10 -4 10 -10z m55 -10 c3 -5 -3 -10 -15 -10 -12 0 -18 5 -15 10
3 6 10 10 15 10 5 0 12 -4 15 -10z m200 0 c-3 -5 -10 -10 -16 -10 -5 0 -9 5
-9 10 0 6 7 10 16 10 8 0 12 -4 9 -10z m-150 -10 c3 -5 -1 -10 -9 -10 -9 0
-16 5 -16 10 0 6 4 10 9 10 6 0 13 -4 16 -10z m46 -13 c-13 -13 -26 -3 -16 12
3 6 11 8 17 5 6 -4 6 -10 -1 -17z m53 2 c-3 -5 -10 -7 -15 -3 -5 3 -7 10 -3
15 3 5 10 7 15 3 5 -3 7 -10 3 -15z m-759 -99 c-9 -41 -17 -33 -9 9 4 17 9 30
11 27 3 -2 2 -19 -2 -36z m31 -127 c-4 -4 -36 73 -35 85 0 4 9 -13 20 -37 11
-24 18 -46 15 -48z m23 -63 c0 -9 -4 -8 -9 5 -5 11 -9 27 -9 35 0 9 4 8 9 -5
5 -11 9 -27 9 -35z m19 -85 c0 -16 -2 -15 -8 5 -4 14 -8 34 -8 45 0 16 2 15 8
-5 4 -14 8 -34 8 -45z m9 -67 c-3 -7 -5 -2 -5 12 0 14 2 19 5 13 2 -7 2 -19 0
-25z"/>
<path d="M1709 5569 l-24 -20 28 17 c15 9 27 18 27 20 0 8 -8 4 -31 -17z"/>
<path d="M1654 5528 l-19 -23 23 19 c21 18 27 26 19 26 -2 0 -12 -10 -23 -22z"/>
<path d="M1585 5468 l-40 -43 43 40 c23 21 42 40 42 42 0 8 -9 0 -45 -39z"/>
<path d="M2180 4831 c0 -6 4 -13 10 -16 6 -3 7 1 4 9 -7 18 -14 21 -14 7z"/>
<path d="M2350 4714 c-66 -10 -131 -27 -176 -45 -27 -11 -37 -17 -21 -14 28 6
35 -3 16 -22 -11 -11 -59 -5 -59 8 0 5 -20 -1 -45 -13 -25 -12 -45 -25 -45
-30 0 -4 31 -38 69 -77 69 -70 151 -121 193 -121 16 1 8 7 -24 19 -57 23 -118
59 -118 71 0 5 16 25 35 44 58 58 182 84 245 51 17 -9 30 -18 30 -22 0 -14
-64 -105 -88 -123 -14 -11 -23 -23 -20 -25 9 -10 99 96 118 139 11 23 26 70
34 104 l14 62 -66 -1 c-37 -1 -78 -3 -92 -5z m104 -19 c-7 -17 -20 -20 -29 -5
-4 7 -13 6 -26 -1 -11 -6 -28 -8 -36 -5 -9 4 -24 -1 -35 -11 -16 -15 -22 -15
-40 -4 -19 12 -23 11 -38 -9 -15 -20 -20 -21 -41 -10 l-23 13 24 9 c37 14 159
36 207 37 34 1 41 -2 37 -14z m-344 -72 c-1 -19 -18 -33 -33 -27 -30 11 -18
26 26 33 4 0 7 -2 7 -6z"/>
<path d="M1775 5004 c-19 -15 -22 -21 -9 -15 18 9 52 41 43 41 -2 0 -17 -12
-34 -26z"/>
<path d="M1880 4950 c0 -5 4 -10 9 -10 6 0 13 5 16 10 3 6 -1 10 -9 10 -9 0
-16 -4 -16 -10z"/>
<path d="M2166 4158 c72 -119 127 -198 137 -198 5 0 -7 21 -25 48 -19 26 -61
89 -93 140 -32 51 -62 95 -67 98 -5 3 17 -36 48 -88z"/>
<path d="M2598 4004 c-38 -30 -75 -68 -83 -84 -21 -41 -11 -38 14 4 12 19 43
48 70 65 49 32 91 71 75 70 -5 0 -39 -25 -76 -55z"/>
<path d="M2410 3840 c20 -13 33 -13 25 0 -3 6 -14 10 -23 10 -15 0 -15 -2 -2
-10z"/>
<path d="M1801 4127 c-8 -10 -5 -19 11 -37 24 -26 34 -15 24 25 -7 28 -18 32
-35 12z"/>
<path d="M1607 3475 c-46 -32 -49 -44 -4 -16 18 11 44 25 58 30 21 8 21 10 4
10 -11 1 -37 -10 -58 -24z"/>
<path d="M2071 2898 c-43 -31 -51 -57 -26 -78 8 -7 15 -19 15 -26 0 -8 11 -16
25 -20 18 -4 32 1 56 24 l32 29 -18 46 c-9 25 -23 48 -30 51 -7 2 -31 -9 -54
-26z"/>
<path d="M1993 2506 c-37 -38 -42 -70 -13 -86 11 -6 19 -16 17 -23 -1 -7 12
-13 31 -15 23 -2 32 1 32 12 0 8 9 17 19 21 11 3 22 12 25 20 6 18 -3 45 -15
45 -5 0 -9 8 -9 18 0 22 -19 42 -39 41 -9 0 -31 -15 -48 -33z"/>
<path d="M320 2958 c-24 -26 -26 -51 -6 -67 31 -26 76 30 60 73 -9 22 -30 20
-54 -6z"/>
<path d="M1516 2995 c4 -9 16 -21 28 -27 19 -10 19 -9 -3 16 -28 30 -33 32
-25 11z"/>
<path d="M3407 2413 c-15 -27 -38 -68 -52 -93 -21 -36 -22 -40 -5 -21 26 30
94 150 88 157 -3 2 -17 -17 -31 -43z"/>
<path d="M3258 2233 c7 -3 16 -2 19 1 4 3 -2 6 -13 5 -11 0 -14 -3 -6 -6z"/>
<path d="M2909 2073 c-9 -2 -19 -15 -21 -28 -5 -23 -4 -23 26 -11 45 18 40 51
-5 39z"/>
<path d="M2523 890 c0 -25 2 -35 4 -22 2 12 2 32 0 45 -2 12 -4 2 -4 -23z"/>
<path d="M2843 3767 c-13 -16 -15 -115 -2 -123 36 -22 109 2 92 30 -4 6 -6 22
-5 36 3 32 -9 49 -36 55 -12 2 -26 6 -31 9 -5 3 -13 0 -18 -7z"/>
<path d="M2985 3470 c-10 -17 -13 -103 -4 -121 9 -17 60 -21 75 -7 10 11 16
115 7 121 -21 12 -72 17 -78 7z"/>
<path d="M3166 3195 c-10 -10 -13 -28 -9 -57 7 -63 11 -71 33 -65 10 3 21 0
22 -5 9 -26 35 23 34 63 -1 37 -5 45 -33 60 -28 16 -34 16 -47 4z"/>
<path d="M3823 3095 c37 -37 67 -70 67 -72 0 -3 -24 -2 -52 1 l-53 6 64 -16
c43 -11 66 -13 74 -5 7 7 3 8 -13 4 -17 -4 -21 -3 -16 6 10 15 -2 29 -78 93
l-61 51 68 -68z"/>
<path d="M3752 3100 c0 -14 2 -19 5 -12 2 6 2 18 0 25 -3 6 -5 1 -5 -13z"/>
<path d="M3901 3094 c0 -11 3 -14 6 -6 3 7 2 16 -1 19 -3 4 -6 -2 -5 -13z"/>
<path d="M3775 3050 c19 -8 73 -14 64 -6 -2 2 -22 6 -44 9 -28 5 -34 4 -20 -3z"/>
<path d="M3911 3044 c0 -11 3 -14 6 -6 3 7 2 16 -1 19 -3 4 -6 -2 -5 -13z"/>
<path d="M3320 3045 c0 -5 5 -17 10 -25 5 -8 10 -10 10 -5 0 6 -5 17 -10 25
-5 8 -10 11 -10 5z"/>
<path d="M3344 2939 c3 -17 6 -39 6 -49 0 -20 32 -60 49 -60 18 0 13 72 -9
108 -26 43 -55 44 -46 1z"/>
<path d="M3391 2805 c1 -19 18 -51 18 -35 0 8 -4 22 -9 30 -5 8 -9 11 -9 5z"/>
<path d="M3431 2680 c0 -8 4 -24 9 -35 5 -13 9 -14 9 -5 0 8 -4 24 -9 35 -5
13 -9 14 -9 5z"/>
<path d="M3191 1920 c6 -14 35 -59 64 -100 28 -41 59 -91 69 -110 9 -19 52
-71 96 -115 44 -44 80 -88 80 -98 0 -29 -28 -74 -60 -97 -30 -21 -32 -21 -107
-6 -42 8 -85 24 -97 34 -18 16 -76 42 -94 42 -3 0 50 -34 119 -75 128 -77 146
-83 213 -64 50 14 170 -3 273 -37 39 -13 87 -24 106 -24 57 0 90 57 46 80 -11
7 -23 9 -26 7 -2 -3 5 -8 16 -12 29 -9 27 -43 -5 -57 -28 -13 -100 -2 -167 26
l-37 16 16 31 c9 18 13 41 10 55 -6 22 -4 23 20 14 15 -6 39 -19 54 -30 16
-11 32 -20 37 -20 15 0 -50 39 -145 87 -88 44 -92 47 -79 67 8 12 27 28 43 36
53 27 109 62 92 56 -14 -4 -18 0 -18 19 0 14 -9 34 -19 44 -11 11 -17 22 -13
25 12 13 -68 -1 -110 -19 -14 -5 -18 -2 -18 12 0 11 -11 29 -24 42 l-23 22
-51 -20 c-38 -15 -61 -18 -93 -13 -45 8 -38 0 -167 188 -10 16 -11 15 -1 -6z
m257 -264 c16 -14 22 -28 19 -46 -4 -18 4 -35 30 -64 31 -33 35 -44 30 -77 -7
-50 -34 -85 -80 -104 -39 -16 -95 -13 -127 7 -12 7 -10 8 5 4 94 -22 109 -18
155 46 48 65 42 88 -45 177 -41 43 -75 80 -75 82 0 13 68 -6 88 -25z"/>
<path d="M3390 1661 c0 -11 48 -51 61 -51 17 0 9 29 -13 44 -25 18 -48 21 -48
7z"/>
<path d="M3469 1393 c-13 -16 -12 -17 4 -4 16 13 21 21 13 21 -2 0 -10 -8 -17
-17z"/>
<path d="M3554 1746 c17 -18 33 -32 34 -31 7 6 -42 65 -53 65 -7 0 2 -15 19
-34z"/>
<path d="M3948 1753 c6 -2 18 -2 25 0 6 3 1 5 -13 5 -14 0 -19 -2 -12 -5z"/>
<path d="M3885 1743 c22 -3 47 -10 55 -16 13 -11 13 -10 1 6 -9 12 -26 16 -55
15 l-41 -1 40 -4z"/>
<path d="M3995 1730 c2 -12 -5 -26 -18 -35 -12 -8 -16 -15 -10 -15 18 0 43 29
43 51 0 10 -4 19 -9 19 -6 0 -8 -9 -6 -20z"/>
<path d="M3737 1733 c18 -2 50 -2 70 0 21 2 7 4 -32 4 -38 0 -55 -2 -38 -4z"/>
<path d="M3875 1665 c-28 -8 -39 -13 -25 -13 14 0 43 5 65 13 51 17 25 17 -40
0z"/>
<path d="M3798 1643 c7 -3 16 -2 19 1 4 3 -2 6 -13 5 -11 0 -14 -3 -6 -6z"/>
<path d="M3758 1633 c7 -3 16 -2 19 1 4 3 -2 6 -13 5 -11 0 -14 -3 -6 -6z"/>
<path d="M3171 1537 c2 -2 22 -14 44 -26 l40 -23 -28 26 c-15 14 -35 26 -44
26 -9 0 -14 -1 -12 -3z"/>
<path d="M3835 1370 c3 -5 11 -10 16 -10 6 0 7 5 4 10 -3 6 -11 10 -16 10 -6
0 -7 -4 -4 -10z"/>
<path d="M2931 1244 c0 -11 3 -14 6 -6 3 7 2 16 -1 19 -3 4 -6 -2 -5 -13z"/>
<path d="M2960 1185 c8 -11 26 -33 41 -50 15 -16 29 -39 32 -50 l5 -20 0 20
c1 11 -20 43 -45 70 -26 28 -40 41 -33 30z"/>
<path d="M1312 1119 c-7 -24 -15 -51 -17 -59 -3 -8 4 4 16 28 11 24 19 50 17
59 -2 9 -9 -4 -16 -28z"/>
<path d="M3010 1020 c-6 -23 -9 -44 -7 -46 2 -3 9 14 15 38 6 23 9 44 7 46 -2
2 -9 -15 -15 -38z"/>
<path d="M2938 968 c-46 -58 -246 -339 -289 -408 -52 -82 -55 -89 -19 -47 17
20 93 83 168 139 134 99 185 141 152 123 -8 -5 -32 -22 -53 -38 -22 -17 -42
-26 -47 -21 -5 5 -10 29 -11 55 -2 39 3 53 41 105 23 32 56 74 73 91 17 18 28
35 25 38 -3 3 -21 -14 -40 -37z m-112 -208 c0 -23 5 -44 12 -49 8 -5 -3 -18
-35 -41 -27 -19 -70 -52 -98 -74 l-49 -41 84 123 c46 67 84 122 86 122 1 0 1
-18 0 -40z"/>
<path d="M3026 900 c12 -14 24 -32 27 -40 5 -13 6 -13 6 1 1 8 -11 26 -26 40
l-28 24 21 -25z"/>
<path d="M2958 848 c14 -18 131 -63 139 -54 4 3 2 6 -4 6 -6 0 -37 12 -69 27
-33 15 -63 29 -69 32 -5 2 -4 -3 3 -11z"/>
<path d="M3153 769 c9 -5 17 -18 18 -27 0 -11 2 -12 6 -4 6 15 -14 42 -31 42
-6 0 -3 -5 7 -11z"/>
<path d="M2500 534 c0 -209 3 -200 -70 -255 -65 -49 -310 -272 -305 -277 2 -3
48 36 102 86 54 50 99 85 100 79 1 -7 5 -47 8 -90 4 -42 10 -77 13 -77 4 0 5
23 3 51 l-3 51 28 -5 c16 -3 55 -9 86 -12 52 -6 61 -10 93 -48 19 -23 35 -37
35 -31 0 6 -11 21 -25 34 -14 13 -25 27 -25 30 0 4 35 2 78 -5 146 -24 161
-25 102 -10 -30 8 -85 19 -122 25 -63 9 -69 13 -119 65 -28 30 -57 62 -65 72
-7 10 -14 13 -14 7 0 -6 25 -38 56 -72 53 -59 54 -62 27 -57 -15 2 -50 7 -77
10 -54 6 -66 16 -66 55 0 27 32 62 123 134 44 35 152 176 134 176 -2 0 -21
-25 -41 -55 -20 -30 -37 -55 -39 -55 -1 0 -4 80 -5 177 -2 98 -5 180 -8 182
-2 2 -4 -81 -4 -185z"/>
<path d="M2943 703 c9 -2 23 -2 30 0 6 3 -1 5 -18 5 -16 0 -22 -2 -12 -5z"/>
<path d="M3003 693 c17 -4 21 -14 18 -44 -1 -9 21 -43 49 -75 59 -67 114 -154
255 -402 54 -95 100 -171 102 -169 4 5 -246 443 -280 491 -11 15 -42 53 -69
84 -34 40 -48 62 -44 76 6 24 -10 46 -33 45 -13 -1 -13 -2 2 -6z"/>
<path d="M1273 565 c0 -22 2 -30 4 -17 2 12 2 30 0 40 -3 9 -5 -1 -4 -23z"/>
<path d="M3335 400 c19 -38 38 -70 40 -70 3 0 -11 32 -30 70 -19 39 -38 70
-40 70 -3 0 11 -31 30 -70z"/>
<path d="M2041 337 c-1 -5 4 -18 10 -29 9 -16 5 -33 -21 -90 -38 -81 -35 -104
15 -136 29 -18 35 -27 30 -45 -5 -17 -4 -19 4 -7 18 25 13 37 -24 59 -20 11
-38 28 -41 36 -4 9 8 48 26 87 31 67 32 71 17 102 -9 17 -16 27 -16 23z"/>
<path d="M3440 205 c34 -66 67 -124 73 -130 5 -5 -18 44 -53 110 -35 66 -67
125 -73 130 -5 6 18 -44 53 -110z"/>
<path d="M3535 30 c9 -17 18 -30 21 -30 2 0 -2 13 -11 30 -9 17 -18 30 -21 30
-2 0 2 -13 11 -30z"/>
<path d="M2788 33 c7 -3 16 -2 19 1 4 3 -2 6 -13 5 -11 0 -14 -3 -6 -6z"/>
</g>
</svg>
