<?xml version="1.0" standalone="no"?>
<!DOCTYPE svg PUBLIC "-//W3C//DTD SVG 20010904//EN"
 "http://www.w3.org/TR/2001/REC-SVG-20010904/DTD/svg10.dtd">
<svg version="1.0" xmlns="http://www.w3.org/2000/svg"
 width="294.000000pt" height="826.000000pt" viewBox="0 0 294.000000 826.000000"
 preserveAspectRatio="xMidYMid meet">

<g transform="translate(0.000000,826.000000) scale(0.100000,-0.100000)"
fill="#000000" stroke="none">
<path d="M1303 8151 c-80 -13 -222 -150 -292 -281 -43 -80 -41 -96 23 -159 30
-29 62 -70 71 -91 16 -36 16 -38 -9 -88 -42 -83 -125 -136 -185 -117 -30 9
-29 68 2 90 19 14 19 16 3 13 -10 -2 -28 -15 -39 -30 -17 -23 -19 -31 -9 -53
16 -34 75 -59 123 -51 l36 6 -33 -98 c-45 -129 -47 -206 -6 -245 16 -16 39
-27 55 -27 15 0 27 -4 27 -8 0 -16 -13 -21 -30 -12 -12 6 -24 4 -41 -8 -32
-23 -132 -24 -123 -2 14 35 17 130 4 145 -14 17 -57 20 -95 5 -22 -8 -34 -6
-61 10 -80 50 -132 43 -174 -25 -17 -27 -30 -36 -59 -41 -43 -7 -48 -10 -76
-43 l-20 -24 31 6 c18 3 44 9 58 13 25 6 27 4 21 -19 -4 -14 -3 -33 3 -42 7
-13 1 -32 -24 -73 -36 -60 -37 -61 -25 -195 6 -71 12 -92 31 -112 30 -32 45
-32 25 -1 -17 26 -22 93 -10 145 l7 33 19 -31 c24 -40 42 -41 23 -1 -17 33
-10 92 12 111 11 9 14 5 15 -22 1 -35 3 -33 13 13 8 37 30 56 79 68 23 6 51
14 62 17 14 4 5 -10 -27 -44 -39 -43 -88 -119 -88 -138 0 -19 44 24 74 72 36
61 71 98 121 129 23 15 28 16 23 4 -3 -9 2 -31 12 -49 l17 -34 99 -3 c142 -5
208 -14 194 -28 -13 -13 -131 -15 -123 -2 3 4 -5 4 -18 0 -24 -8 -33 -9 -122
-4 -62 3 -86 -16 -69 -54 10 -22 9 -27 -11 -37 -28 -15 -35 -25 -48 -74 -17
-63 -57 -123 -99 -150 -25 -16 -40 -34 -45 -53 -11 -50 -149 -172 -195 -172
-20 0 -37 -10 -55 -32 -19 -23 -39 -35 -64 -38 -33 -5 -40 -11 -81 -86 -25
-44 -53 -89 -63 -99 -14 -13 -17 -27 -13 -48 3 -16 6 -76 6 -133 l0 -104 38
-25 c36 -24 45 -25 150 -22 109 3 113 4 144 34 18 17 43 36 55 42 13 6 28 21
34 33 l12 21 -28 -21 c-16 -13 -41 -22 -59 -21 -30 1 -30 2 7 9 56 11 57 20 1
20 -29 0 -59 7 -72 15 -18 14 -28 14 -64 3 -39 -11 -40 -13 -17 -19 20 -6 18
-7 -13 -8 -33 -1 -38 2 -44 27 -3 15 -10 42 -16 60 -7 24 -5 54 7 115 27 136
39 153 123 192 39 19 72 31 72 28 0 -3 -8 -17 -18 -31 -27 -39 -60 -125 -73
-191 -12 -58 -13 -58 -63 -76 -28 -10 -45 -20 -39 -22 7 -3 33 5 59 16 26 12
48 20 49 19 1 -2 8 -25 15 -51 7 -27 21 -52 32 -58 10 -5 49 -9 85 -8 59 2 74
7 119 38 35 24 55 46 61 66 6 21 24 39 63 63 30 17 59 32 66 32 6 0 14 -22 18
-49 5 -41 1 -63 -29 -142 -51 -133 -78 -244 -71 -287 5 -27 4 -33 -3 -22 -9
12 -11 10 -11 -10 0 -32 79 -112 163 -164 31 -20 57 -39 57 -43 0 -3 -5 -23
-12 -44 -9 -32 -9 -42 4 -56 16 -19 33 -87 20 -79 -5 3 -14 -29 -21 -71 -7
-42 -15 -82 -18 -90 -3 -8 2 -13 15 -13 11 0 23 6 25 13 3 6 6 2 6 -10 1 -13
5 -23 9 -23 21 0 32 -51 21 -101 -14 -63 -32 -60 -40 7 l-6 49 -1 -45 c-2 -37
-6 -46 -21 -47 -11 -1 -22 5 -25 13 -4 10 -13 13 -26 9 -12 -4 -27 -1 -35 5
-12 10 -15 10 -15 1 0 -8 -6 -7 -16 3 -19 19 -44 21 -44 4 0 -9 -2 -10 -8 -2
-6 11 -58 11 -69 1 -2 -3 -5 -18 -5 -35 -1 -36 32 -85 72 -109 17 -9 30 -21
30 -25 0 -4 7 -8 15 -8 36 0 -10 49 -48 51 -12 0 -16 3 -9 6 9 4 8 9 -6 22
-11 9 -24 32 -30 52 l-9 35 51 -2 c85 -4 186 -29 186 -46 0 -4 6 -8 14 -8 24
0 26 -13 9 -69 -9 -33 -14 -77 -11 -116 2 -42 0 -66 -9 -74 -15 -13 -17 -79
-4 -100 6 -8 7 3 4 30 -4 39 -1 47 26 73 l31 30 -1 -25 c0 -13 -3 -18 -6 -11
-4 10 -9 9 -24 -4 -21 -19 -24 -52 -9 -98 6 -17 29 -112 51 -211 23 -99 76
-288 119 -420 112 -344 152 -476 147 -481 -2 -2 -19 44 -37 103 -18 60 -70
223 -116 365 -45 141 -97 320 -115 398 -19 78 -35 137 -37 132 -8 -24 65 -293
152 -563 134 -416 134 -419 124 -425 -6 -4 -35 -3 -67 0 -68 8 -189 -20 -256
-59 -35 -21 -47 -35 -55 -65 -13 -50 1 -115 42 -191 27 -52 34 -58 66 -61 33
-3 38 -7 54 -50 9 -26 24 -88 32 -139 11 -67 23 -106 48 -147 37 -64 183 -216
217 -227 34 -10 66 17 85 74 23 70 20 135 -10 216 -14 39 -28 85 -31 103 -3
18 -9 35 -14 38 -11 6 -10 88 0 124 6 21 14 4 45 -95 21 -66 42 -135 48 -154
6 -18 7 -55 4 -82 -5 -35 -2 -57 9 -79 9 -17 16 -52 16 -78 0 -26 4 -141 7
-257 l7 -210 56 -165 c31 -91 62 -200 69 -243 7 -43 16 -73 20 -67 7 11 44
-107 46 -145 0 -11 1 -30 2 -42 1 -13 18 -33 42 -50 69 -48 77 -55 44 -39 -49
24 -94 66 -95 89 -1 19 -2 19 -6 4 -7 -26 34 -66 140 -138 107 -74 123 -73
167 4 16 28 30 59 30 69 0 9 5 18 12 20 8 3 8 9 1 22 -8 14 -12 10 -22 -26
-19 -63 -48 -116 -71 -128 -16 -9 -29 -5 -68 21 -48 31 -48 32 -66 118 -15 77
-21 90 -51 114 -19 15 -39 27 -44 27 -12 0 -12 2 -16 40 -3 31 -70 281 -121
450 -37 124 -38 126 -37 294 1 93 -2 178 -6 189 -5 12 -4 37 0 56 5 22 4 40
-3 48 -6 7 -7 13 -4 13 4 0 -3 15 -16 33 -20 28 -23 44 -24 132 0 64 -6 114
-16 140 -8 22 -50 164 -93 315 -42 151 -110 389 -151 527 -41 139 -84 299 -95
355 -11 57 -28 123 -38 148 -10 25 -21 76 -25 113 -4 37 -17 98 -31 134 -13
37 -22 69 -20 72 1 3 6 31 10 61 4 30 11 60 16 66 5 7 9 16 8 20 -2 5 3 28 11
51 10 34 16 41 26 32 11 -9 10 -17 -7 -43 l-21 -31 24 28 c16 19 30 26 41 21
9 -3 17 -9 17 -13 0 -3 18 -17 40 -31 22 -14 40 -28 40 -32 0 -5 5 -8 11 -8 7
0 28 -10 48 -22 20 -13 39 -23 44 -24 4 -1 8 -2 10 -3 7 -6 69 -13 121 -14 40
0 62 4 70 14 6 8 20 16 31 17 25 4 38 17 34 31 -3 7 -18 2 -39 -11 -47 -31
-72 -35 -140 -24 -86 13 -206 78 -285 153 -8 7 -18 13 -24 13 -14 0 -14 19 0
59 7 20 16 30 25 27 7 -3 52 -14 99 -26 71 -16 105 -19 184 -14 63 5 105 3
117 -4 14 -8 23 -7 35 4 9 8 58 24 108 34 72 14 103 27 143 55 39 29 53 34 59
23 5 -7 9 -17 9 -23 0 -5 -5 -3 -10 5 -5 8 -10 11 -10 5 0 -5 -11 -23 -25 -39
-13 -16 -22 -33 -18 -39 3 -5 1 -7 -4 -4 -12 7 -63 -54 -63 -75 0 -9 -3 -9
-10 2 -9 13 -10 13 -11 0 -1 -8 -1 -18 0 -22 0 -5 -3 -7 -9 -5 -15 3 -120 -76
-120 -91 0 -8 5 -10 12 -6 36 20 126 94 158 128 64 71 70 78 63 89 -3 5 -1 7
5 3 6 -3 21 8 33 26 12 18 24 35 26 38 2 2 9 -2 14 -10 9 -12 10 -12 5 3 -3
11 2 30 12 45 32 46 34 52 18 52 -10 0 -13 -6 -10 -17 5 -15 4 -16 -5 -3 -9
13 -11 13 -12 0 -1 -8 -1 -22 0 -30 2 -13 1 -13 -8 0 -14 20 -14 21 13 53 17
19 26 24 29 15 4 -9 12 -5 26 12 15 19 19 33 15 58 -5 27 -4 31 10 26 10 -4
14 -13 10 -28 -4 -19 20 -96 31 -96 2 0 2 7 -1 15 -5 11 -2 13 10 9 15 -6 21
6 17 30 -1 5 5 6 14 2 11 -4 14 -2 8 7 -4 6 -8 16 -8 21 0 5 -6 11 -14 14 -9
3 -11 0 -6 -8 5 -9 4 -11 -4 -6 -6 4 -8 13 -4 19 16 28 56 77 62 77 4 0 38
-19 77 -42 67 -42 71 -43 159 -44 50 0 101 -4 115 -8 17 -5 21 -4 11 2 -7 5
-10 15 -6 21 4 7 8 23 9 36 3 18 -5 27 -36 42 -46 22 -46 42 2 64 37 18 42 30
26 67 -7 17 -15 22 -30 18 -12 -3 -30 -8 -41 -11 -14 -4 -23 0 -30 17 -7 15
-17 22 -30 20 -11 -1 -37 -5 -57 -9 -25 -3 -43 -1 -54 8 -33 27 26 -57 71
-101 51 -50 56 -76 22 -108 -27 -26 -80 -29 -117 -7 -14 8 -42 22 -63 31 -36
16 -57 39 -57 64 0 5 13 -4 30 -22 16 -18 29 -28 29 -23 0 6 -41 53 -91 105
-49 52 -67 69 -39 37 59 -68 70 -96 47 -129 -9 -12 -16 -27 -16 -33 1 -5 8 4
17 20 12 21 18 26 21 15 3 -8 8 -17 13 -20 4 -3 -6 -21 -22 -40 l-29 -35 -18
21 c-9 12 -25 35 -34 50 -10 16 -27 41 -40 57 -22 27 -22 28 -4 61 15 28 16
38 6 56 -10 19 -9 27 10 53 18 24 21 34 12 48 -9 14 -7 18 13 23 25 6 65 43
65 59 0 5 -9 -1 -20 -14 l-21 -24 20 41 c24 49 47 62 56 33 4 -11 9 -18 12
-16 2 3 -1 15 -7 27 -9 17 -17 20 -41 15 l-29 -7 29 80 c27 72 84 194 110 231
8 12 19 8 67 -23 45 -30 59 -35 66 -24 8 10 9 9 5 -4 -3 -9 1 -22 9 -28 8 -7
14 -19 14 -27 0 -22 -30 -75 -64 -113 l-31 -35 33 30 c70 62 93 149 54 195
-130 151 -264 350 -372 554 -54 99 -58 126 -36 200 9 28 11 57 7 70 -4 11 -9
41 -10 66 l-2 45 27 -40 c15 -21 42 -75 59 -120 50 -123 108 -241 170 -340 53
-84 61 -86 29 -6 -17 41 -17 38 1 38 8 0 12 -3 10 -7 -8 -13 68 -71 92 -70 4
1 -5 8 -22 17 -44 23 -64 43 -59 58 4 10 14 7 41 -11 20 -13 54 -27 76 -31
l40 -6 -33 -17 c-21 -11 -29 -20 -21 -24 6 -4 11 -3 11 1 0 5 17 15 38 22 59
21 63 28 44 66 -13 26 -24 35 -42 35 l-25 0 24 -13 c14 -6 26 -18 29 -26 3 -8
1 -11 -4 -9 -5 3 -34 13 -65 22 -41 11 -62 24 -74 43 -10 16 -12 22 -4 16 21
-21 34 -15 14 7 -10 11 -20 18 -24 16 -3 -2 -6 20 -6 49 0 35 -6 59 -17 71
-14 16 -16 33 -11 99 l5 80 -51 101 c-39 78 -59 107 -90 129 -40 27 -40 27
-25 57 8 16 18 28 22 26 88 -46 111 -52 192 -53 l84 -1 28 -44 c55 -86 59
-150 13 -196 -13 -13 -21 -24 -16 -24 12 0 57 52 75 87 20 41 21 132 0 181 -8
20 -27 49 -41 65 l-27 27 55 -16 c30 -9 64 -22 77 -30 12 -8 22 -11 22 -6 0
26 -134 73 -250 87 -30 3 -73 14 -95 24 -46 20 -95 73 -95 102 0 11 -7 35 -14
54 -8 19 -12 35 -7 35 14 0 93 -73 122 -113 16 -22 29 -35 29 -28 0 27 -72
121 -149 194 -73 69 -82 83 -92 130 -10 42 -32 100 -67 170 -8 16 173 -81 195
-105 13 -13 29 -42 37 -63 l15 -40 0 36 c1 44 -44 115 -101 160 -22 18 -79 49
-126 69 -48 21 -88 44 -90 53 -2 8 8 42 22 76 32 74 32 99 4 141 -83 122 -374
213 -575 181z m301 -46 c38 -8 97 -28 130 -43 59 -28 156 -108 156 -128 0 -6
-22 11 -50 37 -54 53 -117 88 -198 112 -65 20 -67 17 -59 -91 3 -46 2 -65 -3
-47 -4 17 -8 58 -9 91 -1 74 3 71 -156 81 -140 8 -158 0 -265 -115 l-80 -85
21 -36 21 -36 -24 29 -24 29 -29 -56 c-16 -31 -31 -54 -33 -52 -6 6 40 89 83
150 49 68 101 120 160 160 40 27 41 27 165 21 69 -3 156 -12 194 -21z m-290
-74 c3 -14 1 -44 -4 -66 -9 -40 -9 -40 -6 10 3 34 0 55 -10 66 -12 14 -12 16
1 16 8 0 16 -12 19 -26z m103 -26 c10 -2 20 -4 23 -4 3 -1 0 -5 -6 -9 -13 -8
-49 -74 -46 -84 1 -3 -6 -12 -16 -20 -15 -11 -16 -11 -4 3 10 13 10 19 -2 28
-17 15 -9 44 10 37 7 -3 18 1 24 9 12 15 6 35 -11 35 -6 0 -8 -4 -5 -8 2 -4
-4 -8 -15 -8 -14 0 -19 7 -19 28 0 28 1 28 24 12 14 -8 33 -17 43 -19z m-126
-19 c-6 -14 -15 -26 -20 -26 -5 0 -3 14 6 31 18 36 28 33 14 -5z m-51 -53 c0
-21 -3 -24 -9 -14 -5 8 -7 20 -4 28 8 21 13 15 13 -14z m95 -32 c3 -6 -3 -15
-14 -20 -29 -16 -33 -14 -19 9 14 22 24 25 33 11z m9 -33 c-5 -8 -2 -9 12 -4
10 4 15 4 11 -1 -5 -4 -22 -8 -40 -9 l-31 -2 24 14 c31 17 33 17 24 2z m-204
-68 c11 -22 18 -40 15 -40 -2 0 -14 18 -25 40 -11 22 -18 40 -15 40 2 0 14
-18 25 -40z m573 16 c32 -7 61 -16 64 -20 15 -15 -8 -15 -63 -1 -178 46 -420
-16 -547 -142 -26 -25 -47 -41 -47 -35 0 16 101 102 165 141 31 19 84 42 118
52 76 22 229 24 310 5z m-28 -258 c6 -5 5 -12 -5 -19 -12 -9 -11 -10 6 -6 12
2 35 -6 56 -22 l36 -27 -74 -15 c-48 -10 -73 -12 -71 -5 2 6 0 21 -4 34 -7 18
-5 24 14 32 l22 9 -22 0 c-16 1 -28 12 -40 39 -9 20 -19 41 -21 46 -4 7 31
-15 103 -66z m-381 -56 c12 -47 11 -53 -6 -68 -10 -10 -19 -15 -21 -13 -4 7 4
141 9 136 2 -2 10 -27 18 -55z m73 -6 c-9 -22 -27 -20 -27 3 0 11 -3 28 -6 38
-6 15 -4 15 16 -4 14 -13 20 -28 17 -37z m92 -128 c-1 -24 -4 -54 -8 -68 l-7
-24 -22 32 c-13 17 -21 36 -18 41 3 5 0 11 -8 14 -7 3 -19 26 -26 50 -10 38
-10 48 1 61 12 14 18 11 52 -24 31 -33 37 -46 36 -82z m316 78 c28 11 30 -103
3 -161 -5 -11 2 -7 16 10 14 17 26 36 26 43 0 6 5 12 11 12 6 0 9 -25 6 -70
-2 -39 -1 -73 3 -75 4 -3 19 4 31 16 23 19 23 20 2 10 -25 -12 -44 -14 -27 -3
6 4 14 18 18 32 5 17 4 21 -2 11 -7 -10 -9 -4 -7 20 2 19 3 36 4 39 1 3 10
-20 20 -50 19 -53 19 -55 0 -93 -15 -28 -25 -37 -38 -32 -14 4 -22 -7 -40 -50
-25 -60 -146 -199 -182 -208 -13 -4 -56 12 -120 45 -105 53 -161 104 -209 189
l-22 41 33 -17 34 -17 -33 32 c-30 29 -72 98 -72 117 0 10 53 43 68 43 6 0 18
-7 26 -16 14 -13 16 -13 16 -1 0 31 30 26 64 -11 l35 -37 -27 -27 c-29 -31
-24 -35 16 -14 40 21 88 75 112 126 l21 45 -4 -55 -4 -54 23 29 c13 16 26 43
30 60 3 16 10 38 15 47 12 22 40 12 32 -10 -4 -15 -3 -15 6 -2 10 13 12 13 22
0 9 -12 10 -11 6 8 -6 24 10 31 19 7 4 -8 10 -15 15 -15 6 0 5 8 -1 19 -8 17
-6 20 13 23 12 2 23 0 25 -4 2 -4 9 -5 17 -2z m-455 -26 c0 -5 0 -13 -1 -16 0
-4 5 -10 12 -15 16 -9 16 -9 -36 -34 -22 -11 -43 -21 -47 -23 -15 -7 12 71 29
83 21 17 43 19 43 5z m-301 -165 c-12 -63 3 -137 36 -181 22 -29 23 -32 6 -37
-33 -8 -84 16 -94 47 -10 30 7 119 37 191 21 50 27 42 15 -20z m240 -99 c19
-33 20 -38 5 -32 -14 5 -15 4 -4 -9 7 -8 18 -15 26 -15 7 0 18 -9 24 -20 15
-27 1 -25 -38 8 -26 21 -35 38 -39 72 -7 51 -4 51 26 -4z m681 -26 c0 -40 -28
-80 -58 -80 -10 0 -9 7 6 28 10 15 24 42 31 60 8 17 15 32 17 32 2 0 4 -18 4
-40z m-811 -57 c1 -24 -6 -27 -33 -17 -19 7 -21 55 -4 87 11 21 12 21 24 -13
7 -19 13 -45 13 -57z m-435 48 c17 -7 17 -8 -6 -23 -32 -21 -155 -14 -137 8
17 21 104 30 143 15z m1336 -113 c0 -53 -7 -58 -84 -60 -60 -1 -63 -2 -20 -5
43 -3 58 -11 98 -46 44 -39 49 -48 62 -112 14 -74 19 -325 7 -325 -8 0 -21 29
-83 181 -17 42 -48 100 -70 129 -21 29 -42 66 -46 84 -10 48 -43 101 -75 120
-16 9 -29 20 -29 24 0 4 26 15 59 24 41 12 67 27 87 51 l29 33 32 -35 c19 -21
32 -47 33 -63z m10 70 c0 -6 -7 -5 -15 2 -8 7 -15 17 -15 22 0 6 7 5 15 -2 8
-7 15 -17 15 -22z m156 -34 c30 -4 114 -52 114 -65 0 -4 -14 -12 -31 -19 -37
-16 -77 -5 -151 42 -81 51 -63 62 68 42z m-1581 -4 c-3 -5 -26 -23 -49 -40
-43 -29 -44 -29 -49 -8 -11 39 9 58 59 58 27 0 43 -4 39 -10z m1121 -114 c-6
-64 1 -126 14 -126 4 0 4 20 0 45 -4 25 -4 45 -1 45 10 0 76 -102 99 -152 26
-57 27 -107 6 -219 -23 -123 -21 -121 -96 -98 -73 23 -95 39 -54 39 15 0 25 4
21 10 -4 6 -15 6 -31 0 -14 -6 -43 -10 -64 -10 -33 0 -39 -3 -42 -23 -3 -23
-4 -23 -38 -8 l-35 15 30 4 c35 4 45 16 45 54 0 17 7 28 18 32 10 3 6 4 -8 3
-42 -3 -38 34 7 58 35 19 58 55 34 55 -6 0 -8 -6 -5 -14 4 -10 -17 -25 -67
-50 l-72 -36 -12 22 c-10 20 -9 24 12 32 20 9 22 15 18 50 l-5 41 11 -35 c6
-19 12 -36 13 -38 2 -1 18 4 36 11 29 13 30 15 11 20 -16 4 -21 13 -21 37 0
43 -20 77 -84 139 -46 45 -53 57 -45 73 6 10 7 28 4 38 -4 11 -4 20 -2 20 3 0
36 -15 73 -34 103 -50 105 -50 152 -16 23 16 49 41 58 55 9 14 19 25 21 25 3
0 3 -29 -1 -64z m-333 29 c-3 -9 -8 -14 -10 -11 -3 3 -2 9 2 15 9 16 15 13 8
-4z m15 -50 c-3 -3 -9 2 -12 12 -6 14 -5 15 5 6 7 -7 10 -15 7 -18z m-165 -22
c4 -3 0 -17 -9 -31 -9 -13 -11 -22 -6 -18 6 3 13 0 16 -6 4 -9 5 -8 4 2 -2 26
13 49 28 43 16 -6 19 -33 3 -33 -5 0 -7 5 -3 11 4 7 1 10 -7 7 -8 -3 -14 -11
-15 -19 -2 -28 -4 -30 -25 -19 -14 8 -24 8 -33 1 -26 -22 -25 3 2 35 29 34 35
38 45 27z m246 -155 c2 -5 -27 22 -63 61 -36 39 -66 73 -66 76 0 7 124 -124
129 -137z m-579 84 c0 -13 -67 -45 -79 -38 -15 10 -14 33 2 39 20 9 77 8 77
-1z m371 -1 c-7 -5 -10 -14 -6 -21 6 -9 9 -9 16 1 6 10 9 5 9 -15 l0 -29 -21
27 c-20 26 -19 46 4 46 8 0 7 -3 -2 -9z m115 -33 l29 -33 -32 29 c-18 17 -33
31 -33 33 0 8 8 1 36 -29z m-341 4 c-3 -3 -11 0 -18 7 -9 10 -8 11 6 5 10 -3
15 -9 12 -12z m114 -38 c9 -10 -53 6 -63 17 -6 5 4 5 24 -1 18 -5 35 -12 39
-16z m-64 -4 c3 -6 -1 -7 -9 -4 -18 7 -21 14 -7 14 6 0 13 -4 16 -10z m95 6
c0 -3 -4 -8 -10 -11 -5 -3 -10 -1 -10 4 0 6 5 11 10 11 6 0 10 -2 10 -4z m109
-62 c1 -7 -6 -15 -14 -18 -12 -4 -15 0 -11 22 2 15 5 34 6 42 2 14 17 -23 19
-46z m-61 24 c-7 -21 -34 -31 -62 -24 -23 6 -26 9 -16 21 15 18 84 21 78 3z
m131 -63 l44 -45 -32 0 c-32 0 -36 5 -55 68 -4 12 -6 22 -4 22 2 0 23 -20 47
-45z m-209 -17 c0 -4 -6 -8 -14 -8 -8 0 -13 11 -13 27 0 25 0 26 13 8 8 -10
14 -22 14 -27z m63 21 c-13 -12 -46 -15 -49 -4 -2 6 10 10 27 11 16 1 27 -2
22 -7z m85 -2 c22 -17 14 -44 -15 -50 -33 -6 -40 -2 -25 16 7 8 7 18 2 27 -8
12 -10 10 -10 -8 0 -13 -4 -21 -9 -17 -5 3 -13 0 -17 -6 -4 -8 -3 -9 4 -5 7 4
12 2 12 -3 0 -6 -11 -11 -25 -11 -32 0 -32 4 7 38 33 30 55 36 76 19z m582
-18 c0 -10 -4 -19 -10 -19 -5 0 -10 12 -10 26 0 14 4 23 10 19 6 -3 10 -15 10
-26z m-700 -39 c0 -5 -12 -11 -27 -12 -16 0 -5 -4 22 -7 28 -4 62 -3 78 1 15
3 27 3 27 -3 0 -5 11 -11 25 -15 20 -5 24 -11 20 -28 -4 -11 -9 -28 -11 -37
-5 -20 21 -43 40 -36 8 3 17 16 19 29 4 16 5 14 4 -7 -2 -28 -5 -30 -39 -29
-36 1 -38 0 -38 -30 0 -34 -24 -76 -43 -76 -8 0 -9 2 -1 8 15 9 37 52 31 59
-3 2 -8 -5 -12 -16 -10 -33 -40 -44 -81 -29 -42 15 -30 21 -200 -109 -73 -55
-184 -154 -255 -226 l-126 -128 -79 -14 c-92 -16 -99 -13 -110 62 -9 64 1 122
37 202 31 70 32 71 118 118 122 66 275 158 351 211 36 25 93 58 128 73 34 16
62 33 62 39 0 5 14 10 30 10 17 0 30 -4 30 -10z m667 -72 c-3 -8 -6 -5 -6 6
-1 11 2 17 5 13 3 -3 4 -12 1 -19z m303 -12 c0 -31 -10 -56 -21 -56 -6 0 -9
18 -7 40 2 44 28 58 28 16z m46 -42 c5 -26 3 -39 -7 -45 -19 -12 -32 15 -24
51 9 41 23 38 31 -6z m-281 -390 c-25 -65 -44 -128 -45 -139 0 -29 -30 -74
-148 -224 l-105 -133 -44 123 -44 124 11 90 c16 128 17 135 41 135 29 0 35 28
10 54 -18 19 -21 34 -21 107 l0 85 63 -2 62 -3 7 -78 c4 -43 9 -85 11 -93 1
-8 18 30 36 85 18 55 37 107 42 116 9 18 -7 39 -30 39 -9 0 -43 18 -76 40 -33
22 -56 40 -52 40 5 0 43 -12 84 -27 73 -26 76 -26 89 -8 8 10 14 28 14 39 1
12 32 -40 70 -115 l68 -135 -43 -120z m248 326 c8 0 7 -4 -1 -12 -7 -7 -12
-21 -12 -32 -1 -21 -1 -21 -15 -2 -18 24 -19 48 -2 65 10 10 13 9 15 -3 2 -9
9 -16 15 -16z m-440 -44 c47 -6 58 -11 55 -24 -3 -14 -15 -17 -58 -16 -30 0
-76 3 -101 8 -47 7 -47 7 -36 35 10 28 12 29 46 16 20 -7 62 -15 94 -19z
m-553 -16 c-21 -13 57 -66 115 -79 49 -11 85 -41 49 -41 -47 0 -218 115 -193
130 7 5 19 6 26 3 11 -4 11 -8 3 -13z m388 -110 l3 -94 -28 24 c-15 14 -6 0
20 -32 26 -31 47 -59 47 -62 0 -3 -8 -6 -19 -6 -19 0 -141 110 -141 126 0 5
11 14 24 20 21 10 26 9 32 -5 4 -10 8 -12 11 -4 4 12 -20 55 -44 81 -16 17
-17 44 -2 59 8 8 22 8 53 -1 l41 -12 3 -94z m-263 68 c25 -12 45 -25 45 -29 0
-6 -87 35 -99 47 -10 10 12 2 54 -18z m-830 -110 c-20 -37 -44 -98 -53 -137
-20 -78 -39 -110 -27 -46 9 54 63 193 88 228 33 47 29 24 -8 -45z m959 3 c20
-27 55 -66 78 -87 48 -43 47 -36 22 -208 -17 -121 -77 -373 -100 -423 -7 -17
-14 -35 -14 -40 0 -17 -151 -70 -274 -98 -23 -5 -27 -3 -23 9 6 14 -8 16 -91
18 l-97 1 120 7 c165 10 181 15 188 54 3 17 18 100 32 184 16 97 40 191 65
261 37 104 39 116 41 240 1 72 5 131 10 131 4 0 23 -22 43 -49z m538 -48 c-5
-10 -26 -74 -47 -143 -36 -118 -42 -131 -119 -235 -45 -60 -100 -135 -121
-165 -68 -95 -326 -319 -370 -320 -5 0 8 12 30 27 22 14 74 56 115 92 41 37
96 85 123 106 26 22 47 44 47 50 0 5 28 44 61 85 159 197 184 238 223 363 46
147 55 171 62 164 3 -3 1 -14 -4 -24z m-819 -77 c26 -9 58 -16 70 -16 32 0 67
-11 67 -20 0 -5 -14 -4 -32 1 -32 9 -55 4 -24 -6 9 -3 23 -7 31 -10 8 -2 15
-9 15 -14 0 -5 -42 2 -92 15 -70 18 -101 32 -123 54 -16 17 -24 30 -18 30 6 0
9 10 6 23 -4 20 -1 19 24 -9 15 -18 50 -39 76 -48z m1027 -101 c46 -60 87
-116 93 -122 5 -7 7 -13 4 -13 -3 0 -46 54 -95 119 -82 109 -91 117 -95 93 -3
-20 -4 -17 -6 13 -1 46 -7 51 99 -90z m-110 -35 l-11 -25 6 25 c2 14 5 34 6
45 2 19 2 19 6 0 2 -12 -1 -32 -7 -45z m-1629 -53 c11 -20 10 -21 -6 -6 -9 9
-18 36 -21 60 l-4 44 10 -38 c6 -21 15 -48 21 -60z m1609 -14 c-11 -17 -11
-17 -6 0 3 10 6 24 7 30 0 9 2 9 5 0 3 -7 0 -20 -6 -30z m-1443 11 c-3 -3 -12
-4 -19 -1 -8 3 -5 6 6 6 11 1 17 -2 13 -5z m1399 -155 c-19 -63 -35 -107 -36
-99 0 19 62 221 67 216 2 -2 -12 -55 -31 -117z m-1583 84 c-13 -2 -33 -2 -45
0 -13 2 -3 4 22 4 25 0 35 -2 23 -4z m1136 -195 l42 -63 -78 -73 c-43 -41 -90
-83 -105 -93 -26 -19 -26 -19 -21 0 3 11 13 27 23 36 11 10 32 68 51 136 18
65 36 119 40 119 3 0 25 -28 48 -62z m408 -30 c-3 -8 -6 -5 -6 6 -1 11 2 17 5
13 3 -3 4 -12 1 -19z m13 -33 c0 -2 -7 -5 -15 -9 -9 -3 -15 0 -15 9 0 9 6 12
15 9 8 -4 15 -7 15 -9z m27 -29 c-3 -8 -20 -22 -36 -31 -29 -15 -31 -14 -31 3
0 11 13 25 33 34 35 17 42 16 34 -6z m-1104 -135 c22 -6 25 -10 12 -10 -20 -2
-20 -2 -1 -13 11 -6 40 -17 65 -24 l46 -14 -40 6 c-51 7 -133 56 -200 119 -40
37 -50 53 -42 61 9 8 27 -5 70 -52 35 -38 71 -68 90 -73z m185 -48 c-10 -2
-26 -2 -35 0 -10 3 -2 5 17 5 19 0 27 -2 18 -5z m-30 -68 c-3 -3 -9 2 -12 12
-6 14 -5 15 5 6 7 -7 10 -15 7 -18z m235 8 c-7 -2 -19 -2 -25 0 -7 3 -2 5 12
5 14 0 19 -2 13 -5z m-178 -13 c-3 -5 -14 -10 -23 -9 -14 0 -13 2 3 9 27 11
27 11 20 0z m113 3 c-16 -2 -40 -2 -55 0 -16 2 -3 4 27 4 30 0 43 -2 28 -4z
m1037 -3 c3 -5 1 -10 -4 -10 -6 0 -11 5 -11 10 0 6 2 10 4 10 3 0 8 -4 11 -10z
m44 -35 c6 3 9 0 6 -8 -3 -7 3 -22 15 -32 28 -25 26 -70 -5 -100 -13 -14 -28
-25 -34 -25 -5 0 4 13 20 29 39 39 37 67 -8 115 -21 22 -30 34 -21 27 9 -7 22
-10 27 -6z m-387 -70 c4 -36 -8 -45 -29 -24 -8 8 -8 18 -1 35 16 34 25 30 30
-11z m-897 -57 c35 -23 44 -38 24 -38 -5 0 -8 -3 -6 -8 3 -4 -10 -7 -29 -8
-34 -1 -35 0 -32 38 1 21 3 38 5 38 2 0 19 -10 38 -22z m915 -32 c0 -3 -4 -8
-10 -11 -5 -3 -10 -1 -10 4 0 6 5 11 10 11 6 0 10 -2 10 -4z m75 -36 c-4 -6
-1 -17 5 -25 7 -9 8 -15 2 -15 -12 0 -24 29 -16 41 3 5 7 9 10 9 3 0 2 -5 -1
-10z m-815 -32 c0 7 10 8 30 2 16 -5 66 -10 110 -12 l81 -3 -33 -28 c-18 -16
-32 -33 -30 -38 1 -6 -2 -8 -7 -4 -6 3 -19 0 -30 -7 -18 -11 -25 -8 -59 25
-21 21 -41 35 -43 32 -3 -2 -21 12 -40 33 -22 24 -25 28 -6 13 15 -14 27 -20
27 -13z m530 -17 c-11 -23 -26 -41 -33 -41 -6 1 -37 14 -67 30 l-55 29 35 1
c19 1 58 7 85 14 28 7 51 11 53 10 2 -1 -6 -20 -18 -43z m-265 5 c-37 -30 -85
-59 -85 -52 0 6 102 76 110 76 3 0 -8 -11 -25 -24z m-471 -35 c-6 -6 -24 19
-24 34 1 6 7 1 15 -9 8 -11 12 -22 9 -25z m785 -47 c16 -16 -69 -59 -137 -68
-19 -2 -44 -13 -55 -22 -12 -10 0 5 27 33 27 29 53 50 57 48 4 -3 13 2 20 11
9 11 22 14 48 9 20 -4 38 -9 40 -11z m-464 -24 c-6 -9 65 -60 85 -60 5 0 10
-5 10 -11 0 -8 -23 -10 -77 -6 -84 6 -231 39 -198 45 11 2 27 6 35 9 8 4 36 7
62 9 26 1 55 7 65 13 23 13 26 13 18 1z m-244 -62 c8 -3 12 -8 9 -11 -7 -8
-70 42 -70 55 0 6 10 0 23 -14 13 -14 30 -27 38 -30z m-64 0 c-3 -8 -6 -5 -6
6 -1 11 2 17 5 13 3 -3 4 -12 1 -19z m3 -84 c0 -2 -7 -4 -15 -4 -8 0 -15 4
-15 10 0 5 7 7 15 4 8 -4 15 -8 15 -10z m30 -24 c0 -5 -2 -10 -4 -10 -3 0 -8
5 -11 10 -3 6 -1 10 4 10 6 0 11 -4 11 -10z m-83 -82 c-3 -8 -6 -5 -6 6 -1 11
2 17 5 13 3 -3 4 -12 1 -19z m43 -41 c0 -2 -10 -12 -22 -23 l-23 -19 19 23
c18 21 26 27 26 19z m400 -47 c0 -5 -5 -10 -11 -10 -5 0 -7 5 -4 10 3 6 8 10
11 10 2 0 4 -4 4 -10z m-423 -92 c-3 -7 -5 -2 -5 12 0 14 2 19 5 13 2 -7 2
-19 0 -25z m40 -120 c-3 -8 -6 -5 -6 6 -1 11 2 17 5 13 3 -3 4 -12 1 -19z m10
-40 c-3 -8 -6 -5 -6 6 -1 11 2 17 5 13 3 -3 4 -12 1 -19z m10 -100 c-2 -13 -4
-5 -4 17 -1 22 1 32 4 23 2 -10 2 -28 0 -40z m40 -120 c-3 -7 -5 -2 -5 12 0
14 2 19 5 13 2 -7 2 -19 0 -25z m10 -65 c-3 -10 -5 -4 -5 12 0 17 2 24 5 18 2
-7 2 -21 0 -30z m10 -45 c-3 -8 -6 -5 -6 6 -1 11 2 17 5 13 3 -3 4 -12 1 -19z
m10 -40 c-3 -8 -6 -5 -6 6 -1 11 2 17 5 13 3 -3 4 -12 1 -19z m10 -40 c-3 -8
-6 -5 -6 6 -1 11 2 17 5 13 3 -3 4 -12 1 -19z m10 -40 c-3 -8 -6 -5 -6 6 -1
11 2 17 5 13 3 -3 4 -12 1 -19z m30 -100 c-3 -8 -6 -5 -6 6 -1 11 2 17 5 13 3
-3 4 -12 1 -19z m80 -270 c-3 -8 -6 -5 -6 6 -1 11 2 17 5 13 3 -3 4 -12 1 -19z
m54 -203 c6 14 7 10 3 -15 -4 -26 -3 -31 5 -20 8 11 10 6 6 -20 -4 -28 -3 -31
5 -15 8 16 9 13 4 -15 -4 -27 -3 -32 6 -20 8 12 9 8 4 -14 -5 -21 -4 -27 5
-22 9 6 10 0 6 -21 -5 -22 -4 -25 4 -13 9 12 10 9 5 -14 -5 -23 -4 -27 6 -21
10 6 12 4 6 -10 -4 -11 -2 -22 6 -26 9 -6 10 -11 2 -19 -8 -8 -23 29 -52 128
-23 76 -41 143 -41 148 1 5 4 0 7 -11 l5 -20 8 20z m86 -295 c-3 -10 -2 -20 2
-22 6 -3 53 -141 56 -168 1 -8 7 -28 14 -43 6 -16 8 -33 5 -39 -8 -13 -95 262
-89 280 7 20 18 14 12 -8z m118 -540 c-3 -22 -1 -49 5 -60 7 -13 8 -49 3 -102
l-8 -83 -7 100 c-4 55 -7 121 -7 147 0 26 -7 61 -16 77 -8 17 -15 38 -15 48 0
10 11 -5 25 -34 19 -39 24 -62 20 -93z m7 -429 c-3 -17 -1 -22 7 -17 9 6 10 0
5 -20 -5 -21 -4 -25 6 -19 10 6 12 4 7 -8 -3 -9 -2 -17 2 -19 7 -3 92 -286 91
-304 -1 -5 -30 79 -65 186 -57 171 -65 204 -64 265 l2 70 7 -55 c4 -30 5 -66
2 -79z"/>
<path d="M1365 7320 c-3 -5 -1 -10 4 -10 6 0 11 5 11 10 0 6 -2 10 -4 10 -3 0
-8 -4 -11 -10z"/>
<path d="M1310 7311 c0 -6 4 -13 10 -16 6 -3 7 1 4 9 -7 18 -14 21 -14 7z"/>
<path d="M1700 7169 c0 -6 -7 -9 -15 -6 -8 4 -17 2 -20 -4 -4 -5 -10 -7 -15
-4 -5 3 -18 1 -29 -5 -14 -7 -22 -7 -27 1 -5 9 -11 7 -20 -6 -11 -14 -16 -15
-28 -6 -11 9 -15 8 -20 -5 -3 -8 -12 -14 -19 -11 -6 2 -17 -3 -24 -12 -6 -9
-15 -12 -19 -8 -5 4 -2 12 6 17 8 6 10 10 4 10 -5 0 -19 -6 -30 -14 -19 -14
-18 -15 6 -42 32 -34 99 -84 114 -84 6 0 -4 10 -21 21 -39 25 -40 32 -12 58
29 27 103 42 140 29 25 -9 27 -12 18 -31 -6 -12 -23 -35 -38 -50 -14 -16 -19
-26 -11 -22 25 9 67 77 83 133 15 50 15 52 -4 52 -10 0 -19 -5 -19 -11z"/>
<path d="M1960 6904 c-24 -15 -16 -14 24 2 14 5 17 4 12 -4 -4 -7 -2 -12 4
-12 13 0 8 22 -6 26 -5 2 -20 -4 -34 -12z"/>
<path d="M1516 6833 c60 -94 87 -133 92 -133 2 0 -4 12 -14 28 -60 93 -87 132
-92 132 -2 0 4 -12 14 -27z"/>
<path d="M1804 6739 c-19 -22 -19 -22 3 -10 24 12 39 31 25 31 -5 0 -17 -10
-28 -21z"/>
<path d="M1759 6703 c-13 -16 -12 -17 4 -4 16 13 21 21 13 21 -2 0 -10 -8 -17
-17z"/>
<path d="M1758 6523 c7 -3 16 -2 19 1 4 3 -2 6 -13 5 -11 0 -14 -3 -6 -6z"/>
<path d="M1815 6509 c-4 -6 -5 -12 -2 -15 2 -3 7 2 10 11 7 17 1 20 -8 4z"/>
<path d="M1765 6480 c-13 -6 -15 -9 -5 -9 8 0 22 4 30 9 18 12 2 12 -25 0z"/>
<path d="M1327 6542 c10 -6 10 -17 3 -42 -6 -19 -10 -46 -9 -60 1 -14 7 2 14
35 14 62 12 75 -8 75 -9 0 -9 -2 0 -8z"/>
<path d="M1451 6026 c-20 -21 -21 -27 -9 -45 19 -30 39 -34 61 -12 16 15 18
24 10 47 -12 37 -33 41 -62 10z"/>
<path d="M1410 5785 c-21 -22 -22 -28 -10 -49 18 -34 37 -39 60 -16 24 24 25
38 4 68 -19 28 -25 28 -54 -3z"/>
<path d="M1370 5446 c-30 -12 -64 -25 -74 -29 -10 -4 -17 -10 -14 -12 2 -3 42
11 89 30 46 19 77 34 69 34 -8 -1 -40 -11 -70 -23z"/>
<path d="M1092 6088 c5 -15 66 -47 88 -47 8 0 -4 9 -27 21 -24 11 -43 24 -43
29 0 5 -5 9 -11 9 -6 0 -9 -6 -7 -12z"/>
<path d="M1208 6038 c5 -5 16 -8 23 -6 8 3 3 7 -10 11 -17 4 -21 3 -13 -5z"/>
<path d="M1985 5500 c-3 -5 -2 -10 4 -10 5 0 13 5 16 10 3 6 2 10 -4 10 -5 0
-13 -4 -16 -10z"/>
<path d="M800 5475 c13 -14 26 -25 28 -25 3 0 -5 11 -18 25 -13 14 -26 25 -28
25 -3 0 5 -11 18 -25z"/>
<path d="M1675 4870 c-10 -11 -16 -22 -13 -25 3 -3 13 4 23 15 10 11 16 22 13
25 -3 3 -13 -4 -23 -15z"/>
<path d="M1947 6582 c-3 -4 -5 -22 -5 -40 -1 -25 5 -35 21 -41 31 -12 46 3 38
41 -6 29 -44 58 -54 40z"/>
<path d="M2036 6389 c-3 -8 -4 -27 -3 -44 2 -25 6 -30 27 -30 22 0 25 5 28 38
2 20 -1 37 -7 37 -5 0 -16 3 -25 6 -9 3 -18 0 -20 -7z"/>
<path d="M2420 6316 c0 -2 8 -10 18 -17 15 -13 16 -12 3 4 -13 16 -21 21 -21
13z"/>
<path d="M2455 6256 c2 -28 29 -50 47 -39 11 6 -14 43 -29 43 -6 0 -14 6 -16
13 -3 6 -4 -1 -2 -17z"/>
<path d="M2154 6216 c-3 -8 -4 -27 -2 -43 2 -22 8 -28 28 -28 19 0 24 5 23 23
-2 39 -3 41 -23 52 -16 8 -22 8 -26 -4z"/>
<path d="M2520 6209 c0 -5 5 -7 10 -4 6 3 10 8 10 11 0 2 -4 4 -10 4 -5 0 -10
-5 -10 -11z"/>
<path d="M2506 6165 c8 -50 14 -58 14 -19 0 16 -5 36 -11 44 -7 11 -8 4 -3
-25z"/>
<path d="M2580 6145 c13 -14 26 -25 28 -25 3 0 -5 11 -18 25 -13 14 -26 25
-28 25 -3 0 5 -11 18 -25z"/>
<path d="M2616 6137 c3 -10 9 -15 12 -12 3 3 0 11 -7 18 -10 9 -11 8 -5 -6z"/>
<path d="M2555 6110 c17 -4 41 -8 55 -8 22 0 22 1 -5 8 -16 4 -41 8 -55 8 -22
0 -22 -1 5 -8z"/>
<path d="M352 6068 c-15 -15 -15 -35 -2 -43 15 -9 40 14 40 36 0 21 -20 25
-38 7z"/>
<path d="M2264 6053 c3 -15 11 -41 20 -57 l15 -29 6 26 c7 27 -12 78 -32 84
-8 3 -11 -5 -9 -24z"/>
<path d="M2299 5718 c-7 -13 -19 -34 -27 -48 -14 -24 -13 -24 3 -5 20 24 48
75 41 75 -3 0 -11 -10 -17 -22z"/>
<path d="M2210 5595 c-14 -8 -20 -14 -14 -15 5 0 19 7 30 15 24 18 16 19 -16
0z"/>
<path d="M2158 5573 c7 -3 16 -2 19 1 4 3 -2 6 -13 5 -11 0 -14 -3 -6 -6z"/>
<path d="M2130 5480 c6 -11 13 -20 16 -20 2 0 0 9 -6 20 -6 11 -13 20 -16 20
-2 0 0 -9 6 -20z"/>
<path d="M2200 5356 c0 -2 8 -10 18 -17 15 -13 16 -12 3 4 -13 16 -21 21 -21
13z"/>
<path d="M2395 5310 c10 -11 20 -20 23 -20 3 0 -3 9 -13 20 -10 11 -20 20 -23
20 -3 0 3 -9 13 -20z"/>
<path d="M2593 5303 c9 -2 25 -2 35 0 9 3 1 5 -18 5 -19 0 -27 -2 -17 -5z"/>
<path d="M2172 5164 c10 -10 20 -15 24 -12 3 4 -5 12 -18 18 -22 12 -22 12 -6
-6z"/>
<path d="M2560 5076 c0 -2 7 -7 16 -10 8 -3 12 -2 9 4 -6 10 -25 14 -25 6z"/>
<path d="M2616 5047 c3 -10 9 -15 12 -12 3 3 0 11 -7 18 -10 9 -11 8 -5 -6z"/>
<path d="M2520 5021 c8 -4 29 -11 45 -15 19 -4 25 -3 15 3 -8 4 -28 11 -45 15
-19 4 -25 3 -15 -3z"/>
<path d="M2160 4996 c0 -3 9 -10 20 -16 11 -6 20 -8 20 -6 0 3 -9 10 -20 16
-11 6 -20 8 -20 6z"/>
<path d="M2082 4969 c-14 -22 -15 -32 -4 -25 4 2 14 1 22 -5 13 -7 13 -9 1 -9
-10 0 -5 -10 14 -30 28 -29 65 -40 65 -19 0 5 5 7 10 4 6 -4 4 -12 -5 -21 -8
-9 -20 -12 -26 -8 -8 4 -9 3 -5 -4 4 -7 16 -12 26 -12 10 0 22 -5 26 -12 5 -8
1 -9 -12 -5 -17 7 -17 5 2 -10 24 -20 38 -53 24 -53 -6 0 -10 6 -10 14 0 8 -4
18 -10 21 -6 4 -6 -3 0 -21 13 -34 23 -124 11 -106 -7 11 -9 11 -14 -2 -8 -19
-33 -21 -40 -3 -3 6 -6 1 -6 -12 -1 -14 6 -33 15 -42 15 -17 19 -17 43 -3 46
27 72 114 51 169 -5 14 -16 25 -25 25 -8 0 -15 7 -15 16 0 9 5 13 13 9 6 -4 3
1 -8 10 -11 8 -20 21 -20 28 0 24 -38 67 -59 67 -12 0 -16 3 -10 8 7 4 2 15
-16 29 -26 21 -27 21 -38 2z m66 -69 c7 -11 9 -20 4 -20 -4 0 -15 9 -25 20
-11 14 -13 20 -4 20 7 0 18 -9 25 -20z m26 4 c3 -8 2 -12 -4 -9 -6 3 -10 10
-10 16 0 14 7 11 14 -7z m83 -166 c-3 -8 -6 -5 -6 6 -1 11 2 17 5 13 3 -3 4
-12 1 -19z m-22 -24 c1 -13 -2 -24 -6 -24 -4 0 -7 14 -7 30 1 35 13 30 13 -6z
m22 -16 c-3 -8 -6 -5 -6 6 -1 11 2 17 5 13 3 -3 4 -12 1 -19z"/>
<path d="M2230 4936 c0 -3 9 -10 20 -16 11 -6 20 -8 20 -6 0 3 -9 10 -20 16
-11 6 -20 8 -20 6z"/>
<path d="M2040 4926 c0 -2 8 -10 18 -17 15 -13 16 -12 3 4 -13 16 -21 21 -21
13z"/>
<path d="M2350 4877 c14 -16 24 -30 23 -33 -2 -2 -1 -3 0 -1 7 4 37 -25 37
-35 0 -6 -8 -4 -17 3 -14 12 -14 10 1 -13 21 -32 28 -36 19 -11 -5 11 -3 14 6
8 26 -15 -7 30 -51 70 -23 22 -32 27 -18 12z"/>
<path d="M2325 4870 c10 -11 20 -20 23 -20 3 0 -3 9 -13 20 -10 11 -20 20 -23
20 -3 0 3 -9 13 -20z"/>
<path d="M1999 4803 c-13 -16 -12 -17 4 -4 16 13 21 21 13 21 -2 0 -10 -8 -17
-17z"/>
<path d="M2050 4786 c0 -2 8 -10 18 -17 15 -13 16 -12 3 4 -13 16 -21 21 -21
13z"/>
<path d="M961 4734 c0 -11 3 -14 6 -6 3 7 2 16 -1 19 -3 4 -6 -2 -5 -13z"/>
<path d="M2037 4729 c7 -7 15 -10 18 -7 3 3 -2 9 -12 12 -14 6 -15 5 -6 -5z"/>
<path d="M2442 4680 c0 -19 2 -27 5 -17 2 9 2 25 0 35 -3 9 -5 1 -5 -18z"/>
<path d="M1423 4635 c0 -38 2 -53 4 -32 2 20 2 52 0 70 -2 17 -4 1 -4 -38z"/>
<path d="M2461 4674 c0 -11 3 -14 6 -6 3 7 2 16 -1 19 -3 4 -6 -2 -5 -13z"/>
<path d="M856 4659 c3 -5 -1 -9 -8 -9 -7 0 13 -13 45 -27 31 -15 57 -34 57
-42 0 -8 3 -12 6 -8 4 3 4 17 0 31 -5 21 -14 27 -47 32 -23 4 -36 10 -29 14 8
5 4 9 -9 13 -12 3 -19 1 -15 -4z"/>
<path d="M2062 4620 c0 -14 2 -19 5 -12 2 6 2 18 0 25 -3 6 -5 1 -5 -13z"/>
<path d="M1889 4603 c-13 -16 -12 -17 4 -4 9 7 17 15 17 17 0 8 -8 3 -21 -13z"/>
<path d="M2358 4603 c7 -3 16 -2 19 1 4 3 -2 6 -13 5 -11 0 -14 -3 -6 -6z"/>
<path d="M2410 4600 c-9 -6 -10 -10 -3 -10 6 0 15 5 18 10 8 12 4 12 -15 0z"/>
<path d="M2298 4593 c7 -3 16 -2 19 1 4 3 -2 6 -13 5 -11 0 -14 -3 -6 -6z"/>
<path d="M2338 4583 c7 -3 16 -2 19 1 4 3 -2 6 -13 5 -11 0 -14 -3 -6 -6z"/>
<path d="M2100 4555 c13 -14 26 -25 28 -25 3 0 -5 11 -18 25 -13 14 -26 25
-28 25 -3 0 5 -11 18 -25z"/>
<path d="M2200 4566 c4 -4 16 -4 26 2 16 9 14 10 -8 9 -15 -1 -23 -6 -18 -11z"/>
<path d="M2288 4573 c7 -3 16 -2 19 1 4 3 -2 6 -13 5 -11 0 -14 -3 -6 -6z"/>
<path d="M1819 4548 c-12 -23 -12 -23 10 -4 23 21 26 26 11 26 -5 0 -15 -10
-21 -22z"/>
<path d="M2250 4470 c6 -11 13 -20 16 -20 2 0 0 9 -6 20 -6 11 -13 20 -16 20
-2 0 0 -9 6 -20z"/>
<path d="M1720 4416 c-19 -19 -109 -101 -200 -183 -91 -82 -172 -158 -180
-169 -14 -18 27 18 155 137 28 25 66 60 85 77 l35 30 12 -26 c10 -21 12 -22 7
-4 -9 35 3 56 51 92 37 27 85 80 73 80 -2 0 -19 -15 -38 -34z"/>
<path d="M972 4375 c0 -11 4 -31 8 -45 6 -20 8 -21 8 -5 0 11 -4 31 -8 45 -6
20 -8 21 -8 5z"/>
<path d="M1435 4349 c-4 -6 -5 -12 -2 -15 2 -3 7 2 10 11 7 17 1 20 -8 4z"/>
<path d="M2320 4340 c6 -11 13 -20 16 -20 2 0 0 9 -6 20 -6 11 -13 20 -16 20
-2 0 0 -9 6 -20z"/>
<path d="M1722 4280 c30 -36 76 -95 102 -132 26 -38 49 -68 52 -68 11 0 -106
158 -155 209 l-53 56 54 -65z"/>
<path d="M1668 4263 c6 -2 18 -2 25 0 6 3 1 5 -13 5 -14 0 -19 -2 -12 -5z"/>
<path d="M1631 4230 c0 -16 9 -32 27 -44 l27 -19 -22 24 c-11 13 -23 33 -26
44 -4 16 -5 15 -6 -5z"/>
<path d="M2380 4230 c6 -11 13 -20 16 -20 2 0 0 9 -6 20 -6 11 -13 20 -16 20
-2 0 0 -9 6 -20z"/>
<path d="M1641 4144 c0 -11 3 -14 6 -6 3 7 2 16 -1 19 -3 4 -6 -2 -5 -13z"/>
<path d="M1810 4045 c47 -47 87 -85 90 -85 2 0 -33 38 -80 85 -47 47 -87 85
-90 85 -2 0 33 -38 80 -85z"/>
<path d="M1651 4064 c0 -11 3 -14 6 -6 3 7 2 16 -1 19 -3 4 -6 -2 -5 -13z"/>
<path d="M1909 4026 c8 -9 24 -22 35 -28 19 -10 20 -10 7 6 -8 9 -24 22 -35
28 -19 10 -20 10 -7 -6z"/>
<path d="M2500 4010 c6 -11 13 -20 16 -20 2 0 0 9 -6 20 -6 11 -13 20 -16 20
-2 0 0 -9 6 -20z"/>
<path d="M1662 3990 c0 -14 2 -19 5 -12 2 6 2 18 0 25 -3 6 -5 1 -5 -13z"/>
<path d="M2000 3966 c0 -2 14 -14 30 -26 17 -12 30 -19 30 -16 0 2 -13 14 -30
26 -16 12 -30 19 -30 16z"/>
<path d="M1930 3915 c13 -14 26 -25 28 -25 3 0 -5 11 -18 25 -13 14 -26 25
-28 25 -3 0 5 -11 18 -25z"/>
<path d="M2541 3935 c0 -5 6 -21 14 -35 8 -14 14 -20 14 -15 0 6 -6 21 -14 35
-8 14 -14 21 -14 15z"/>
<path d="M2100 3896 c0 -2 8 -10 18 -17 15 -13 16 -12 3 4 -13 16 -21 21 -21
13z"/>
<path d="M2016 3880 c4 -8 58 -90 120 -181 63 -92 132 -198 154 -235 22 -38
40 -65 40 -61 0 16 -85 154 -186 302 -105 153 -141 202 -128 175z"/>
<path d="M1970 3866 c0 -2 8 -10 18 -17 15 -13 16 -12 3 4 -13 16 -21 21 -21
13z"/>
<path d="M2170 3846 c0 -2 8 -10 18 -17 15 -13 16 -12 3 4 -13 16 -21 21 -21
13z"/>
<path d="M2030 3786 c0 -2 8 -10 18 -17 15 -13 16 -12 3 4 -13 16 -21 21 -21
13z"/>
<path d="M2627 3755 c9 -19 18 -33 21 -31 4 5 -26 66 -33 66 -3 0 3 -16 12
-35z"/>
<path d="M2048 3503 c7 -3 16 -2 19 1 4 3 -2 6 -13 5 -11 0 -14 -3 -6 -6z"/>
<path d="M2128 3503 c6 -2 18 -2 25 0 6 3 1 5 -13 5 -14 0 -19 -2 -12 -5z"/>
<path d="M2230 3495 c0 -3 18 -31 40 -61 23 -30 38 -59 35 -64 -3 -6 1 -7 9
-4 18 7 22 24 6 24 -6 0 -26 25 -45 55 -33 50 -45 64 -45 50z"/>
<path d="M2261 3394 c-1 -24 7 -37 39 -64 35 -30 57 -61 30 -45 -14 9 -11 -6
8 -39 15 -25 122 -98 122 -83 0 3 -23 18 -51 34 -29 15 -55 38 -60 52 -13 32
-4 38 23 15 13 -10 3 4 -22 31 -25 27 -53 55 -62 62 -9 7 -19 26 -21 41 -4 26
-4 26 -6 -4z"/>
<path d="M2364 3356 c11 -9 24 -16 30 -16 12 0 7 5 -24 19 -24 11 -24 11 -6
-3z"/>
<path d="M1760 3323 c0 -4 5 -15 10 -23 8 -13 10 -13 10 2 0 9 -4 20 -10 23
-5 3 -10 3 -10 -2z"/>
<path d="M2822 3280 c0 -14 2 -19 5 -12 2 6 2 18 0 25 -3 6 -5 1 -5 -13z"/>
<path d="M2048 3273 c7 -3 16 -2 19 1 4 3 -2 6 -13 5 -11 0 -14 -3 -6 -6z"/>
<path d="M1777 3249 c4 -13 8 -18 11 -10 2 7 -1 18 -6 23 -8 8 -9 4 -5 -13z"/>
<path d="M1938 3263 c6 -2 18 -2 25 0 6 3 1 5 -13 5 -14 0 -19 -2 -12 -5z"/>
<path d="M2138 3263 c6 -2 18 -2 25 0 6 3 1 5 -13 5 -14 0 -19 -2 -12 -5z"/>
<path d="M1868 3253 c6 -2 18 -2 25 0 6 3 1 5 -13 5 -14 0 -19 -2 -12 -5z"/>
<path d="M2218 3253 c6 -2 18 -2 25 0 6 3 1 5 -13 5 -14 0 -19 -2 -12 -5z"/>
<path d="M2806 3225 c-3 -9 -6 -22 -5 -28 0 -7 5 -1 10 12 5 13 8 26 5 28 -2
2 -6 -3 -10 -12z"/>
<path d="M1780 3211 c0 -5 5 -13 10 -16 6 -3 10 -2 10 4 0 5 -4 13 -10 16 -5
3 -10 2 -10 -4z"/>
<path d="M2749 3123 l-34 -38 38 34 c34 33 42 41 34 41 -2 0 -19 -17 -38 -37z"/>
<path d="M1801 3114 c0 -11 3 -14 6 -6 3 7 2 16 -1 19 -3 4 -6 -2 -5 -13z"/>
<path d="M2138 3083 c12 -2 32 -2 45 0 12 2 2 4 -23 4 -25 0 -35 -2 -22 -4z"/>
<path d="M2333 3083 c15 -2 37 -2 50 0 12 2 0 4 -28 4 -27 0 -38 -2 -22 -4z"/>
<path d="M1965 3070 c-13 -6 2 -7 40 -3 33 3 62 7 64 9 9 8 -85 2 -104 -6z"/>
<path d="M2533 3073 c20 -2 54 -2 75 0 20 2 3 4 -38 4 -41 0 -58 -2 -37 -4z"/>
<path d="M1861 2834 c0 -11 3 -14 6 -6 3 7 2 16 -1 19 -3 4 -6 -2 -5 -13z"/>
<path d="M1882 2735 c0 -16 2 -22 5 -12 2 9 2 23 0 30 -3 6 -5 -1 -5 -18z"/>
<path d="M1871 2608 c0 -26 3 -49 7 -52 4 -2 6 12 4 32 -6 62 -10 69 -11 20z"/>
<path d="M1901 2474 c0 -11 3 -14 6 -6 3 7 2 16 -1 19 -3 4 -6 -2 -5 -13z"/>
<path d="M1578 2414 c-38 -20 -36 -28 2 -9 17 9 30 18 30 20 0 7 -1 6 -32 -11z"/>
<path d="M1902 2380 c0 -14 2 -19 5 -12 2 6 2 18 0 25 -3 6 -5 1 -5 -13z"/>
<path d="M1911 2294 c0 -11 3 -14 6 -6 3 7 2 16 -1 19 -3 4 -6 -2 -5 -13z"/>
<path d="M1941 2054 c0 -11 3 -14 6 -6 3 7 2 16 -1 19 -3 4 -6 -2 -5 -13z"/>
<path d="M2012 1535 c0 -16 2 -22 5 -12 2 9 2 23 0 30 -3 6 -5 -1 -5 -18z"/>
<path d="M2012 1488 c-5 -7 -17 -37 -26 -67 -16 -56 -49 -101 -73 -101 -15 0
-90 47 -160 100 -24 17 -43 28 -43 23 0 -12 57 -55 132 -99 47 -27 68 -45 68
-59 0 -11 5 -27 11 -35 7 -11 8 -5 4 20 -6 31 -2 39 24 62 18 17 36 49 47 83
12 36 21 51 26 43 5 -8 8 -3 8 15 0 30 -3 33 -18 15z"/>
<path d="M1662 1460 c-1 -8 5 -42 12 -75 8 -33 14 -49 14 -35 0 28 -25 133
-26 110z"/>
<path d="M2032 1410 c0 -14 2 -19 5 -12 2 6 2 18 0 25 -3 6 -5 1 -5 -13z"/>
<path d="M2042 1340 c0 -19 2 -27 5 -17 2 9 2 25 0 35 -3 9 -5 1 -5 -18z"/>
<path d="M1920 1221 c0 -5 5 -13 10 -16 6 -3 10 -2 10 4 0 5 -4 13 -10 16 -5
3 -10 2 -10 -4z"/>
<path d="M2051 1225 c0 -5 6 -39 14 -75 16 -76 12 -86 -52 -135 -54 -41 -78
-43 -124 -12 -26 17 -38 37 -53 82 l-19 59 -14 -28 c-14 -26 -12 -37 22 -152
27 -90 35 -133 30 -157 -7 -36 -7 -54 1 -152 3 -38 0 -121 -7 -185 -15 -130
-15 -135 7 -210 47 -156 132 -260 211 -260 67 0 102 19 132 71 60 105 62 221
7 499 -13 69 -27 161 -31 204 -4 43 -16 99 -26 123 -10 25 -19 61 -19 81 l0
37 -23 -40 c-13 -22 -37 -60 -54 -85 -17 -25 -34 -56 -38 -69 -7 -23 -8 -22
-54 21 -25 25 -62 57 -82 72 -20 15 -39 35 -42 45 -3 14 8 10 52 -19 31 -21
67 -49 80 -64 l24 -25 42 73 c23 41 51 86 63 100 18 24 21 25 26 9 3 -10 4 13
2 52 -4 63 -7 72 -34 95 -16 14 -32 32 -35 40 -3 8 -6 11 -6 5z m54 -335 c-9
-16 -18 -30 -21 -30 -2 0 2 14 11 30 9 17 18 30 21 30 2 0 -2 -13 -11 -30z
m-180 -61 c29 -22 61 -52 71 -67 13 -21 7 -18 -27 14 -24 22 -59 53 -77 67
-52 42 -27 32 33 -14z m139 -16 c-19 -45 -40 -71 -25 -30 14 36 30 67 36 67 2
0 -3 -17 -11 -37z"/>
<path d="M1930 1181 c0 -5 5 -13 10 -16 6 -3 10 -2 10 4 0 5 -4 13 -10 16 -5
3 -10 2 -10 -4z"/>
<path d="M1796 1167 c3 -10 9 -15 12 -12 3 3 0 11 -7 18 -10 9 -11 8 -5 -6z"/>
<path d="M1887 919 c12 -12 25 -20 28 -17 3 3 -7 13 -22 23 l-28 17 22 -23z"/>
</g>
</svg>
